<?xml version="1.0" encoding="utf-8"?>
<COLLADA xmlns="http://www.collada.org/2005/11/COLLADASchema" version="1.4.1" xmlns:xsi="http://www.w3.org/2001/XMLSchema-instance">
  <asset>
    <contributor>
      <author>Blender User</author>
      <authoring_tool>Blender 3.3.21 commit date:2024-07-15, commit time:08:57, hash:e016c21db151</authoring_tool>
    </contributor>
    <created>2025-04-02T13:13:34</created>
    <modified>2025-04-02T13:13:34</modified>
    <unit name="meter" meter="1"/>
    <up_axis>Z_UP</up_axis>
  </asset>
  <library_effects>
    <effect id="chasis-effect">
      <profile_COMMON>
        <technique sid="common">
          <lambert>
            <emission>
              <color sid="emission">0 0 0 1</color>
            </emission>
            <diffuse>
              <color sid="diffuse">0.1728739 0.1792828 0.184466 1</color>
            </diffuse>
            <index_of_refraction>
              <float sid="ior">1.45</float>
            </index_of_refraction>
          </lambert>
        </technique>
      </profile_COMMON>
    </effect>
  </library_effects>
  <library_images/>
  <library_materials>
    <material id="chasis-material" name="chasis">
      <instance_effect url="#chasis-effect"/>
    </material>
  </library_materials>
  <library_geometries>
    <geometry id="Cube_137-mesh" name="Cube.137">
      <mesh>
        <source id="Cube_137-mesh-positions">
          <float_array id="Cube_137-mesh-positions-array" count="96">0.8671451 -9.285716 2.693365 0.8671451 -9.285716 22.69335 0.8671451 -2.142858 2.693365 0.8671451 -2.142858 22.69335 0.9671451 -9.285716 2.693365 0.9671451 -9.285716 22.69335 0.9671451 -2.142858 2.693365 0.9671451 -2.142858 22.69335 0.8671451 -9.285716 7.693361 0.8671451 -9.285716 17.69335 0.8671451 -2.142858 7.693361 0.8671451 -2.142858 17.69335 0.9671451 -2.142858 7.693361 0.9671451 -2.142858 17.69335 0.9671451 -9.285716 7.693361 0.9671451 -9.285716 17.69335 0.8671451 2.142855 2.693365 0.8671451 2.142855 22.69335 0.8671451 9.285713 2.693365 0.8671451 9.285713 22.69335 0.9671451 2.142855 2.693365 0.9671451 2.142855 22.69335 0.9671451 9.285713 2.693365 0.9671451 9.285713 22.69335 0.8671451 2.142855 7.693361 0.8671451 2.142855 17.69335 0.8671451 9.285713 7.693361 0.8671451 9.285713 17.69335 0.9671451 9.285713 7.693361 0.9671451 9.285713 17.69335 0.9671451 2.142855 7.693361 0.9671451 2.142855 17.69335</float_array>
          <technique_common>
            <accessor source="#Cube_137-mesh-positions-array" count="32" stride="3">
              <param name="X" type="float"/>
              <param name="Y" type="float"/>
              <param name="Z" type="float"/>
            </accessor>
          </technique_common>
        </source>
        <source id="Cube_137-mesh-normals">
          <float_array id="Cube_137-mesh-normals-array" count="48">-0.5773503 -0.5773503 -0.5773503 -0.5773503 0.5773503 0.5773503 -0.5773501 0.5773507 -0.5773502 -0.5773501 -0.5773507 0.5773502 0.5773501 0.5773507 0.5773502 0.5773503 0.5773503 -0.5773503 0.5773503 -0.5773503 0.5773503 0.5773501 -0.5773507 -0.5773502 -0.5773503 -0.5773503 -0.5773503 -0.5773503 0.5773503 0.5773503 -0.5773496 0.5773501 -0.5773512 -0.5773496 -0.5773501 0.5773512 0.5773496 0.5773501 0.5773512 0.5773503 0.5773503 -0.5773503 0.5773503 -0.5773503 0.5773503 0.5773496 -0.5773501 -0.5773512</float_array>
          <technique_common>
            <accessor source="#Cube_137-mesh-normals-array" count="16" stride="3">
              <param name="X" type="float"/>
              <param name="Y" type="float"/>
              <param name="Z" type="float"/>
            </accessor>
          </technique_common>
        </source>
        <source id="Cube_137-mesh-map-0">
          <float_array id="Cube_137-mesh-map-0-array" count="288">0.5625 0 0.625 0.25 0.5625 0.25 0.375 0.25 0.4375 0 0.4375 0.25 0.5625 0.25 0.625 0.5 0.5625 0.5 0.4375 0.5 0.375 0.25 0.4375 0.25 0.5625 0.5 0.625 0.75 0.5625 0.75 0.4375 0.75 0.375 0.5 0.4375 0.5 0.5625 0.75 0.625 1 0.5625 1 0.4375 1 0.375 0.75 0.4375 0.75 0.125 0.5 0.375 0.75 0.125 0.75 0.625 0.5 0.875 0.75 0.625 0.75 0.375 0.6484375 0.3625 0.7265625 0.375 0.7265625 0.625 0.7265625 0.6375001 0.6484375 0.625 0.6484375 0.5625 0 0.625 0.25 0.5625 0.25 0.375 0.25 0.4375 0 0.4375 0.25 0.5625 0.25 0.625 0.5 0.5625 0.5 0.4375 0.5 0.375 0.25 0.4375 0.25 0.5625 0.5 0.625 0.75 0.5625 0.75 0.4375 0.75 0.375 0.5 0.4375 0.5 0.5625 0.75 0.625 1 0.5625 1 0.4375 1 0.375 0.75 0.4375 0.75 0.125 0.5 0.375 0.75 0.125 0.75 0.625 0.5 0.875 0.75 0.625 0.75 0.375 0.5234375 0.3625 0.6015625 0.375 0.6015625 0.625 0.6015625 0.6375 0.5234375 0.625 0.5234375 0.5625 0 0.625 0 0.625 0.25 0.375 0.25 0.375 0 0.4375 0 0.5625 0.25 0.625 0.25 0.625 0.5 0.4375 0.5 0.375 0.5 0.375 0.25 0.5625 0.5 0.625 0.5 0.625 0.75 0.4375 0.75 0.375 0.75 0.375 0.5 0.5625 0.75 0.625 0.75 0.625 1 0.4375 1 0.375 1 0.375 0.75 0.125 0.5 0.375 0.5 0.375 0.75 0.625 0.5 0.875 0.5 0.875 0.75 0.375 0.6484375 0.3625 0.6484375 0.3625 0.7265625 0.625 0.7265625 0.6375001 0.7265625 0.6375001 0.6484375 0.5625 0 0.625 0 0.625 0.25 0.375 0.25 0.375 0 0.4375 0 0.5625 0.25 0.625 0.25 0.625 0.5 0.4375 0.5 0.375 0.5 0.375 0.25 0.5625 0.5 0.625 0.5 0.625 0.75 0.4375 0.75 0.375 0.75 0.375 0.5 0.5625 0.75 0.625 0.75 0.625 1 0.4375 1 0.375 1 0.375 0.75 0.125 0.5 0.375 0.5 0.375 0.75 0.625 0.5 0.875 0.5 0.875 0.75 0.375 0.5234375 0.3625 0.5234375 0.3625 0.6015625 0.625 0.6015625 0.6375001 0.6015625 0.6375 0.5234375</float_array>
          <technique_common>
            <accessor source="#Cube_137-mesh-map-0-array" count="144" stride="2">
              <param name="S" type="float"/>
              <param name="T" type="float"/>
            </accessor>
          </technique_common>
        </source>
        <vertices id="Cube_137-mesh-vertices">
          <input semantic="POSITION" source="#Cube_137-mesh-positions"/>
        </vertices>
        <triangles material="chasis-material" count="48">
          <input semantic="VERTEX" source="#Cube_137-mesh-vertices" offset="0"/>
          <input semantic="NORMAL" source="#Cube_137-mesh-normals" offset="1"/>
          <input semantic="TEXCOORD" source="#Cube_137-mesh-map-0" offset="2" set="0"/>
          <p>9 0 0 3 1 1 11 2 2 2 2 3 8 3 4 10 1 5 11 2 6 7 4 7 13 5 8 12 4 9 2 2 10 10 1 11 13 5 12 5 6 13 15 7 14 14 6 15 6 5 16 12 4 17 15 7 18 1 3 19 9 0 20 8 3 21 4 7 22 14 6 23 2 2 24 4 7 25 0 0 26 7 4 27 1 3 28 5 6 29 12 4 30 8 3 31 14 6 32 15 7 33 11 2 34 13 5 35 25 8 36 19 9 37 27 10 38 18 10 39 24 11 40 26 1 41 27 10 42 23 12 43 29 13 44 28 12 45 18 10 46 26 1 47 29 13 48 21 14 49 31 15 50 30 14 51 22 13 52 28 12 53 31 15 54 17 11 55 25 8 56 24 11 57 20 15 58 30 14 59 18 10 60 20 15 61 16 0 62 23 12 63 17 11 64 21 14 65 28 12 66 24 11 67 30 14 68 31 15 69 27 10 70 29 13 71 9 0 72 1 3 73 3 1 74 2 2 75 0 0 76 8 3 77 11 2 78 3 1 79 7 4 80 12 4 81 6 5 82 2 2 83 13 5 84 7 4 85 5 6 86 14 6 87 4 7 88 6 5 89 15 7 90 5 6 91 1 3 92 8 3 93 0 0 94 4 7 95 2 2 96 6 5 97 4 7 98 7 4 99 3 1 100 1 3 101 12 4 102 10 1 103 8 3 104 15 7 105 9 0 106 11 2 107 25 8 108 17 11 109 19 9 110 18 10 111 16 0 112 24 11 113 27 10 114 19 9 115 23 12 116 28 12 117 22 13 118 18 10 119 29 13 120 23 12 121 21 14 122 30 14 123 20 15 124 22 13 125 31 15 126 21 14 127 17 11 128 24 11 129 16 0 130 20 15 131 18 10 132 22 13 133 20 15 134 23 12 135 19 9 136 17 11 137 28 12 138 26 1 139 24 11 140 31 15 141 25 8 142 27 10 143</p>
        </triangles>
      </mesh>
    </geometry>
  </library_geometries>
  <library_visual_scenes>
    <visual_scene id="Scene" name="Scene">
      <node id="tmp_export_Cube_137" name="tmp_export_Cube.137" type="NODE">
        <matrix sid="transform">1 0 0 0 0 1 0 0 0 0 1 0 0 0 0 1</matrix>
        <instance_geometry url="#Cube_137-mesh" name="tmp_export_Cube.137">
          <bind_material>
            <technique_common>
              <instance_material symbol="chasis-material" target="#chasis-material">
                <bind_vertex_input semantic="UVMap" input_semantic="TEXCOORD" input_set="0"/>
              </instance_material>
            </technique_common>
          </bind_material>
        </instance_geometry>
      </node>
    </visual_scene>
  </library_visual_scenes>
  <scene>
    <instance_visual_scene url="#Scene"/>
  </scene>
</COLLADA>