<?xml version="1.0" encoding="utf-8"?>
<COLLADA xmlns="http://www.collada.org/2005/11/COLLADASchema" version="1.4.1" xmlns:xsi="http://www.w3.org/2001/XMLSchema-instance">
  <asset>
    <contributor>
      <author>Blender User</author>
      <authoring_tool>Blender 3.3.21 commit date:2024-07-15, commit time:08:57, hash:e016c21db151</authoring_tool>
    </contributor>
    <created>2025-04-02T13:13:34</created>
    <modified>2025-04-02T13:13:34</modified>
    <unit name="meter" meter="1"/>
    <up_axis>Z_UP</up_axis>
  </asset>
  <library_effects>
    <effect id="chasis-effect">
      <profile_COMMON>
        <technique sid="common">
          <lambert>
            <emission>
              <color sid="emission">0 0 0 1</color>
            </emission>
            <diffuse>
              <color sid="diffuse">0.1728739 0.1792828 0.184466 1</color>
            </diffuse>
            <index_of_refraction>
              <float sid="ior">1.45</float>
            </index_of_refraction>
          </lambert>
        </technique>
      </profile_COMMON>
    </effect>
  </library_effects>
  <library_images/>
  <library_materials>
    <material id="chasis-material" name="chasis">
      <instance_effect url="#chasis-effect"/>
    </material>
  </library_materials>
  <library_geometries>
    <geometry id="Cube_138-mesh" name="Cube.138">
      <mesh>
        <source id="Cube_138-mesh-positions">
          <float_array id="Cube_138-mesh-positions-array" count="96">0.8671451 -10.28571 2.693365 0.8671451 -10.28571 22.69335 0.8671451 -9.142858 2.693365 0.8671451 -9.142858 22.69335 0.9671451 -10.28571 2.693365 0.9671451 -10.28571 22.69335 0.9671451 -9.142858 2.693365 0.9671451 -9.142858 22.69335 -1.032855 -10.28571 2.693365 -1.032855 -10.28571 22.69335 -1.032855 -9.142858 2.693365 -1.032855 -9.142858 22.69335 0.9671451 -10.28571 2.693365 0.9671451 -10.28571 22.69335 0.9671451 -9.142858 2.693365 0.9671451 -9.142858 22.69335 -1.032855 -9.142858 7.693361 -1.032855 -9.142858 17.69335 0.9671451 -9.142858 7.693361 0.9671451 -9.142858 17.69335 0.9671451 -10.28571 7.693361 0.9671451 -10.28571 17.69335 -1.032855 -10.28571 7.693361 -1.032855 -10.28571 17.69335 -1.032855 -10.28571 2.693365 -1.032855 -10.28571 22.69335 -1.032855 -9.142858 2.693365 -1.032855 -9.142858 22.69335 -0.9328548 -10.28571 2.693365 -0.9328548 -10.28571 22.69335 -0.9328548 -9.142858 2.693365 -0.9328548 -9.142858 22.69335</float_array>
          <technique_common>
            <accessor source="#Cube_138-mesh-positions-array" count="32" stride="3">
              <param name="X" type="float"/>
              <param name="Y" type="float"/>
              <param name="Z" type="float"/>
            </accessor>
          </technique_common>
        </source>
        <source id="Cube_138-mesh-normals">
          <float_array id="Cube_138-mesh-normals-array" count="69">-0.5773504 -0.5773502 -0.5773502 -0.5773504 0.5773503 0.5773502 -0.5773514 0.5773483 -0.5773511 0.5773514 0.5773483 0.5773511 0.5773504 0.5773503 -0.5773502 0.5773504 -0.5773502 0.5773502 0.5773514 -0.5773483 -0.5773512 -0.5773514 -0.5773483 0.5773512 -0.5773503 -0.5773503 0.5773502 -0.5773503 0.5773503 -0.5773502 -0.5773503 -0.5773503 -0.5773503 -0.5773503 0.5773503 0.5773503 0.5773503 0.5773503 0.5773502 0.5773503 0.5773503 -0.5773503 0.5773503 -0.5773503 0.5773503 0.5773503 -0.5773503 -0.5773502 -0.5773504 0.5773502 0.5773502 -0.5773514 0.5773483 -0.5773512 0.5773514 0.5773483 0.5773512 0.5773504 0.5773502 -0.5773502 0.5773514 -0.5773483 -0.5773512 -0.5773514 -0.5773483 0.5773512 -0.5773503 0.5773503 0.5773503</float_array>
          <technique_common>
            <accessor source="#Cube_138-mesh-normals-array" count="23" stride="3">
              <param name="X" type="float"/>
              <param name="Y" type="float"/>
              <param name="Z" type="float"/>
            </accessor>
          </technique_common>
        </source>
        <source id="Cube_138-mesh-map-0">
          <float_array id="Cube_138-mesh-map-0-array" count="288">0.375 0 0.625 0.25 0.375 0.25 0.375 0.25 0.625 0.5 0.375 0.5 0.375 0.5 0.625 0.75 0.375 0.75 0.375 0.75 0.625 1 0.375 1 0.125 0.5 0.375 0.75 0.125 0.75 0.625 0.5 0.875 0.75 0.625 0.75 0.625 0 0.5625 0.25 0.5625 0 0.375 0.25 0.4375 0 0.4375 0.25 0.5625 0.25 0.625 0.5 0.5625 0.5 0.375 0.5 0.4375 0.25 0.4375 0.5 0.5625 0.5 0.625 0.75 0.5625 0.75 0.4375 0.75 0.375 0.5 0.4375 0.5 0.5625 0.75 0.625 1 0.5625 1 0.4375 1 0.375 0.75 0.4375 0.75 0.125 0.5 0.375 0.75 0.125 0.75 0.625 0.5 0.875 0.75 0.625 0.75 0.375 0.725 0.125 0.7375 0.375 0.7375 0.875 0.725 0.625 0.7375 0.875 0.7375 0.375 0 0.625 0.25 0.375 0.25 0.375 0.25 0.625 0.5 0.375 0.5 0.375 0.5 0.625 0.75 0.375 0.75 0.375 0.75 0.625 1 0.375 1 0.125 0.5 0.375 0.75 0.125 0.75 0.625 0.5 0.875 0.75 0.625 0.75 0.375 0 0.625 0 0.625 0.25 0.375 0.25 0.625 0.25 0.625 0.5 0.375 0.5 0.625 0.5 0.625 0.75 0.375 0.75 0.625 0.75 0.625 1 0.125 0.5 0.375 0.5 0.375 0.75 0.625 0.5 0.875 0.5 0.875 0.75 0.625 0 0.625 0.25 0.5625 0.25 0.375 0.25 0.375 0 0.4375 0 0.5625 0.25 0.625 0.25 0.625 0.5 0.375 0.5 0.375 0.25 0.4375 0.25 0.5625 0.5 0.625 0.5 0.625 0.75 0.4375 0.75 0.375 0.75 0.375 0.5 0.5625 0.75 0.625 0.75 0.625 1 0.4375 1 0.375 1 0.375 0.75 0.125 0.5 0.375 0.5 0.375 0.75 0.625 0.5 0.875 0.5 0.875 0.75 0.375 0.725 0.125 0.725 0.125 0.7375 0.875 0.725 0.625 0.725 0.625 0.7375 0.375 0 0.625 0 0.625 0.25 0.375 0.25 0.625 0.25 0.625 0.5 0.375 0.5 0.625 0.5 0.625 0.75 0.375 0.75 0.625 0.75 0.625 1 0.125 0.5 0.375 0.5 0.375 0.75 0.625 0.5 0.875 0.5 0.875 0.75</float_array>
          <technique_common>
            <accessor source="#Cube_138-mesh-map-0-array" count="144" stride="2">
              <param name="S" type="float"/>
              <param name="T" type="float"/>
            </accessor>
          </technique_common>
        </source>
        <vertices id="Cube_138-mesh-vertices">
          <input semantic="POSITION" source="#Cube_138-mesh-positions"/>
        </vertices>
        <triangles material="chasis-material" count="48">
          <input semantic="VERTEX" source="#Cube_138-mesh-vertices" offset="0"/>
          <input semantic="NORMAL" source="#Cube_138-mesh-normals" offset="1"/>
          <input semantic="TEXCOORD" source="#Cube_138-mesh-map-0" offset="2" set="0"/>
          <p>0 0 0 3 1 1 2 2 2 2 2 3 7 3 4 6 4 5 6 4 6 5 5 7 4 6 8 4 6 9 1 7 10 0 0 11 2 2 12 4 6 13 0 0 14 7 3 15 1 7 16 5 5 17 9 8 18 17 9 19 23 10 20 10 9 21 22 8 22 16 11 23 17 9 24 15 12 25 19 13 26 14 13 27 16 11 28 18 12 29 19 13 30 13 14 31 21 15 32 20 14 33 14 13 34 18 12 35 21 15 36 9 8 37 23 10 38 22 8 39 12 15 40 20 14 41 10 9 42 12 15 43 8 10 44 15 12 45 9 8 46 13 14 47 18 12 48 22 8 49 20 14 50 17 9 51 21 15 52 23 10 53 24 0 54 27 16 55 26 17 56 26 17 57 31 18 58 30 19 59 30 19 60 29 5 61 28 20 62 28 20 63 25 21 64 24 0 65 26 17 66 28 20 67 24 0 68 31 18 69 25 21 70 29 5 71 0 0 72 1 7 73 3 1 74 2 2 75 3 1 76 7 3 77 6 4 78 7 3 79 5 5 80 4 6 81 5 5 82 1 7 83 2 2 84 6 4 85 4 6 86 7 3 87 3 1 88 1 7 89 9 8 90 11 22 91 17 9 92 10 9 93 8 10 94 22 8 95 17 9 96 11 22 97 15 12 98 14 13 99 10 9 100 16 11 101 19 13 102 15 12 103 13 14 104 20 14 105 12 15 106 14 13 107 21 15 108 13 14 109 9 8 110 22 8 111 8 10 112 12 15 113 10 9 114 14 13 115 12 15 116 15 12 117 11 22 118 9 8 119 18 12 120 16 11 121 22 8 122 17 9 123 19 13 124 21 15 125 24 0 126 25 21 127 27 16 128 26 17 129 27 16 130 31 18 131 30 19 132 31 18 133 29 5 134 28 20 135 29 5 136 25 21 137 26 17 138 30 19 139 28 20 140 31 18 141 27 16 142 25 21 143</p>
        </triangles>
      </mesh>
    </geometry>
  </library_geometries>
  <library_visual_scenes>
    <visual_scene id="Scene" name="Scene">
      <node id="tmp_export_Cube_138" name="tmp_export_Cube.138" type="NODE">
        <matrix sid="transform">1 0 0 0 0 1 0 0 0 0 1 0 0 0 0 1</matrix>
        <instance_geometry url="#Cube_138-mesh" name="tmp_export_Cube.138">
          <bind_material>
            <technique_common>
              <instance_material symbol="chasis-material" target="#chasis-material">
                <bind_vertex_input semantic="UVMap" input_semantic="TEXCOORD" input_set="0"/>
              </instance_material>
            </technique_common>
          </bind_material>
        </instance_geometry>
      </node>
    </visual_scene>
  </library_visual_scenes>
  <scene>
    <instance_visual_scene url="#Scene"/>
  </scene>
</COLLADA>