<?xml version="1.0" encoding="utf-8"?>
<COLLADA xmlns="http://www.collada.org/2005/11/COLLADASchema" version="1.4.1" xmlns:xsi="http://www.w3.org/2001/XMLSchema-instance">
  <asset>
    <contributor>
      <author>Blender User</author>
      <authoring_tool>Blender 3.3.21 commit date:2024-07-15, commit time:08:57, hash:e016c21db151</authoring_tool>
    </contributor>
    <created>2025-03-27T12:25:44</created>
    <modified>2025-03-27T12:25:44</modified>
    <unit name="meter" meter="1"/>
    <up_axis>Z_UP</up_axis>
  </asset>
  <library_effects>
    <effect id="chasis-effect">
      <profile_COMMON>
        <technique sid="common">
          <lambert>
            <emission>
              <color sid="emission">0 0 0 1</color>
            </emission>
            <diffuse>
              <color sid="diffuse">0.2497214 0.2591408 0.2667614 1</color>
            </diffuse>
            <reflectivity>
              <float sid="specular">1</float>
            </reflectivity>
            <index_of_refraction>
              <float sid="ior">1.45</float>
            </index_of_refraction>
          </lambert>
        </technique>
      </profile_COMMON>
    </effect>
  </library_effects>
  <library_images/>
  <library_materials>
    <material id="chasis-material" name="chasis">
      <instance_effect url="#chasis-effect"/>
    </material>
  </library_materials>
  <library_geometries>
    <geometry id="Cube_136-mesh" name="Cube.136">
      <mesh>
        <source id="Cube_136-mesh-positions">
          <float_array id="Cube_136-mesh-positions-array" count="132">-1.032855 2.142855 2.693365 -1.032855 2.142855 22.69335 -1.032855 9.285713 2.693365 -1.032855 9.285713 22.69335 -0.9328548 2.142855 2.693365 -0.9328548 2.142855 22.69335 -0.9328548 9.285713 2.693365 -0.9328548 9.285713 22.69335 -1.032855 9.285713 7.693361 -1.032855 9.285713 17.69335 -0.9328548 9.285713 7.693361 -0.9328548 9.285713 17.69335 -0.9328548 2.142855 7.693361 -0.9328548 2.142855 17.69335 -1.032855 2.142855 7.693361 -1.032855 2.142855 17.69335 -1.032855 -9.285716 2.693365 -1.032855 -9.285716 22.69335 -1.032855 -2.142858 2.693365 -1.032855 -2.142858 22.69335 -0.9328548 -9.285716 2.693365 -0.9328548 -9.285716 22.69335 -0.9328548 -2.142858 2.693365 -0.9328548 -2.142858 22.69335 -1.032855 -2.142858 7.693361 -1.032855 -2.142858 17.69335 -0.9328548 -2.142858 7.693361 -0.9328548 -2.142858 17.69335 -0.9328548 -9.285716 7.693361 -0.9328548 -9.285716 17.69335 -1.032855 -9.285716 7.693361 -1.032855 -9.285716 17.69335 -0.9328551 2.148571 7.693366 -0.9328551 2.148571 17.69336 -0.9328551 3.291429 7.693366 -0.9328551 3.291429 17.69336 -1.032855 -3.291429 7.693366 -1.032855 -3.291429 17.69336 -1.032855 -2.148571 7.693366 -1.032855 -2.148571 17.69336 -0.9328551 -3.291429 7.693366 -0.9328551 -3.291429 17.69336 -0.9328551 -2.148571 7.693366 -0.9328551 -2.148571 17.69336</float_array>
          <technique_common>
            <accessor source="#Cube_136-mesh-positions-array" count="44" stride="3">
              <param name="X" type="float"/>
              <param name="Y" type="float"/>
              <param name="Z" type="float"/>
            </accessor>
          </technique_common>
        </source>
        <source id="Cube_136-mesh-normals">
          <float_array id="Cube_136-mesh-normals-array" count="81">-0.5773496 -0.5773501 0.5773512 -0.5773496 0.5773501 -0.5773512 -0.5773503 -0.5773503 -0.5773503 -0.5773498 0.5773498 -0.5773514 -0.5773501 0.5773507 0.5773501 0.5773496 0.5773501 0.5773512 0.5773503 0.5773503 -0.5773503 0.5773501 0.5773507 -0.5773501 0.5773497 0.5773497 0.5773514 0.5773503 -0.5773503 0.5773503 0.5773496 -0.5773501 -0.5773512 -0.5773501 -0.5773507 0.5773502 -0.5773501 0.5773507 -0.5773502 -0.5773503 0.5773503 -0.5773504 0.5773501 0.5773507 0.5773502 0.5773503 0.5773503 -0.5773503 0.5773501 0.5773507 -0.5773501 0.5773503 0.5773503 0.5773504 0.5773503 -0.5773503 0.5773503 0.5773501 -0.5773507 -0.5773502 -0.5773503 0.5773503 0.5773503 1 0 0 -1 0 0 0 1 0 0 -1 0 0 0 -1 0 0 1</float_array>
          <technique_common>
            <accessor source="#Cube_136-mesh-normals-array" count="27" stride="3">
              <param name="X" type="float"/>
              <param name="Y" type="float"/>
              <param name="Z" type="float"/>
            </accessor>
          </technique_common>
        </source>
        <source id="Cube_136-mesh-map-0">
          <float_array id="Cube_136-mesh-map-0-array" count="360">0.625 0 0.5625 0.25 0.5625 0 0.375 0.25 0.4375 0 0.4375 0.25 0.5625 0.25 0.625 0.5 0.5625 0.5 0.375 0.5 0.4375 0.25 0.4375 0.5 0.5625 0.5 0.625 0.75 0.5625 0.75 0.4375 0.75 0.375 0.5 0.4375 0.5 0.5625 0.75 0.625 1 0.5625 1 0.4375 1 0.375 0.75 0.4375 0.75 0.125 0.5 0.375 0.75 0.125 0.75 0.625 0.5 0.875 0.75 0.625 0.75 0.125 0.6015625 0.1374999 0.5234375 0.125 0.5234375 0.875 0.5234375 0.8625 0.6015625 0.875 0.6015625 0.625 0 0.5625 0.25 0.5625 0 0.375 0.25 0.4375 0 0.4375 0.25 0.5625 0.25 0.625 0.5 0.5625 0.5 0.375 0.5 0.4375 0.25 0.4375 0.5 0.5625 0.5 0.625 0.75 0.5625 0.75 0.4375 0.75 0.375 0.5 0.4375 0.5 0.5625 0.75 0.625 1 0.5625 1 0.4375 1 0.375 0.75 0.4375 0.75 0.125 0.5 0.375 0.75 0.125 0.75 0.625 0.5 0.875 0.75 0.625 0.75 0.125 0.7265625 0.1375 0.6484375 0.125 0.6484375 0.875 0.6484375 0.8625001 0.7265625 0.875 0.7265625 0.625 0 0.625 0.25 0.5625 0.25 0.375 0.25 0.375 0 0.4375 0 0.5625 0.25 0.625 0.25 0.625 0.5 0.375 0.5 0.375 0.25 0.4375 0.25 0.5625 0.5 0.625 0.5 0.625 0.75 0.4375 0.75 0.375 0.75 0.375 0.5 0.5625 0.75 0.625 0.75 0.625 1 0.4375 1 0.375 1 0.375 0.75 0.125 0.5 0.375 0.5 0.375 0.75 0.625 0.5 0.875 0.5 0.875 0.75 0.125 0.6015625 0.1375 0.6015625 0.1374999 0.5234375 0.875 0.5234375 0.8625001 0.5234375 0.8625 0.6015625 0.625 0 0.625 0.25 0.5625 0.25 0.375 0.25 0.375 0 0.4375 0 0.5625 0.25 0.625 0.25 0.625 0.5 0.375 0.5 0.375 0.25 0.4375 0.25 0.5625 0.5 0.625 0.5 0.625 0.75 0.4375 0.75 0.375 0.75 0.375 0.5 0.5625 0.75 0.625 0.75 0.625 1 0.4375 1 0.375 1 0.375 0.75 0.125 0.5 0.375 0.5 0.375 0.75 0.625 0.5 0.875 0.5 0.875 0.75 0.125 0.7265625 0.1375 0.7265625 0.1375 0.6484375 0.875 0.6484375 0.8625 0.6484375 0.8625001 0.7265625 0.625 0.5 0.375 0.75 0.375 0.5 0.625 0 0.375 0.25 0.375 0 0.625 0.25 0.375 0.5 0.375 0.25 0.625 0.75 0.375 1 0.375 0.75 0.375 0.5 0.125 0.75 0.125 0.5 0.875 0.5 0.625 0.75 0.625 0.5 0.625 0.5 0.625 0.75 0.375 0.75 0.625 0 0.625 0.25 0.375 0.25 0.625 0.25 0.625 0.5 0.375 0.5 0.625 0.75 0.625 1 0.375 1 0.375 0.5 0.375 0.75 0.125 0.75 0.875 0.5 0.875 0.75 0.625 0.75</float_array>
          <technique_common>
            <accessor source="#Cube_136-mesh-map-0-array" count="180" stride="2">
              <param name="S" type="float"/>
              <param name="T" type="float"/>
            </accessor>
          </technique_common>
        </source>
        <vertices id="Cube_136-mesh-vertices">
          <input semantic="POSITION" source="#Cube_136-mesh-positions"/>
        </vertices>
        <triangles material="chasis-material" count="60">
          <input semantic="VERTEX" source="#Cube_136-mesh-vertices" offset="0"/>
          <input semantic="NORMAL" source="#Cube_136-mesh-normals" offset="1"/>
          <input semantic="TEXCOORD" source="#Cube_136-mesh-map-0" offset="2" set="0"/>
          <p>1 0 0 9 1 1 15 2 2 2 3 3 14 0 4 8 4 5 9 1 6 7 5 7 11 6 8 6 7 9 8 4 10 10 8 11 11 6 12 5 9 13 13 10 14 12 9 15 6 7 16 10 8 17 13 10 18 1 0 19 15 2 20 14 0 21 4 10 22 12 9 23 2 3 24 4 10 25 0 2 26 7 5 27 1 0 28 5 9 29 14 0 30 10 8 31 8 4 32 9 1 33 13 10 34 15 2 35 17 11 36 25 12 37 31 2 38 18 13 39 30 11 40 24 4 41 25 12 42 23 14 43 27 15 44 22 16 45 24 4 46 26 17 47 27 15 48 21 18 49 29 19 50 28 18 51 22 16 52 26 17 53 29 19 54 17 11 55 31 2 56 30 11 57 20 19 58 28 18 59 18 13 60 20 19 61 16 2 62 23 14 63 17 11 64 21 18 65 30 11 66 26 17 67 24 4 68 25 12 69 29 19 70 31 2 71 1 0 72 3 20 73 9 1 74 2 3 75 0 2 76 14 0 77 9 1 78 3 20 79 7 5 80 6 7 81 2 3 82 8 4 83 11 6 84 7 5 85 5 9 86 12 9 87 4 10 88 6 7 89 13 10 90 5 9 91 1 0 92 14 0 93 0 2 94 4 10 95 2 3 96 6 7 97 4 10 98 7 5 99 3 20 100 1 0 101 14 0 102 12 9 103 10 8 104 9 1 105 11 6 106 13 10 107 17 11 108 19 20 109 25 12 110 18 13 111 16 2 112 30 11 113 25 12 114 19 20 115 23 14 116 22 16 117 18 13 118 24 4 119 27 15 120 23 14 121 21 18 122 28 18 123 20 19 124 22 16 125 29 19 126 21 18 127 17 11 128 30 11 129 16 2 130 20 19 131 18 13 132 22 16 133 20 19 134 23 14 135 19 20 136 17 11 137 30 11 138 28 18 139 26 17 140 25 12 141 27 15 142 29 19 143 35 21 144 32 21 145 34 21 146 37 22 147 38 22 148 36 22 149 39 23 150 42 23 151 38 23 152 41 24 153 36 24 154 40 24 155 42 25 156 36 25 157 38 25 158 39 26 159 41 26 160 43 26 161 35 21 162 33 21 163 32 21 164 37 22 165 39 22 166 38 22 167 39 23 168 43 23 169 42 23 170 41 24 171 37 24 172 36 24 173 42 25 174 40 25 175 36 25 176 39 26 177 37 26 178 41 26 179</p>
        </triangles>
      </mesh>
    </geometry>
  </library_geometries>
  <library_visual_scenes>
    <visual_scene id="Scene" name="Scene">
      <node id="tmp_export_Cube_136" name="tmp_export_Cube.136" type="NODE">
        <matrix sid="transform">1 0 0 0 0 1 0 0 0 0 1 0 0 0 0 1</matrix>
        <instance_geometry url="#Cube_136-mesh" name="tmp_export_Cube.136">
          <bind_material>
            <technique_common>
              <instance_material symbol="chasis-material" target="#chasis-material">
                <bind_vertex_input semantic="UVMap" input_semantic="TEXCOORD" input_set="0"/>
              </instance_material>
            </technique_common>
          </bind_material>
        </instance_geometry>
      </node>
    </visual_scene>
  </library_visual_scenes>
  <scene>
    <instance_visual_scene url="#Scene"/>
  </scene>
</COLLADA>