<?xml version="1.0" encoding="utf-8"?>
<COLLADA xmlns="http://www.collada.org/2005/11/COLLADASchema" version="1.4.1" xmlns:xsi="http://www.w3.org/2001/XMLSchema-instance">
  <asset>
    <contributor>
      <author>Blender User</author>
      <authoring_tool>Blender 3.3.21 commit date:2024-07-15, commit time:08:57, hash:e016c21db151</authoring_tool>
    </contributor>
    <created>2025-03-27T11:51:36</created>
    <modified>2025-03-27T11:51:36</modified>
    <unit name="meter" meter="1"/>
    <up_axis>Z_UP</up_axis>
  </asset>
  <library_effects>
    <effect id="chasis-effect">
      <profile_COMMON>
        <technique sid="common">
          <lambert>
            <emission>
              <color sid="emission">0 0 0 1</color>
            </emission>
            <diffuse>
              <color sid="diffuse">0.2497214 0.2591408 0.2667614 1</color>
            </diffuse>
            <reflectivity>
              <float sid="specular">1</float>
            </reflectivity>
            <index_of_refraction>
              <float sid="ior">1.45</float>
            </index_of_refraction>
          </lambert>
        </technique>
      </profile_COMMON>
    </effect>
  </library_effects>
  <library_images/>
  <library_materials>
    <material id="chasis-material" name="chasis">
      <instance_effect url="#chasis-effect"/>
    </material>
  </library_materials>
  <library_geometries>
    <geometry id="Cube_055-mesh" name="Cube.055">
      <mesh>
        <source id="Cube_055-mesh-positions">
          <float_array id="Cube_055-mesh-positions-array" count="420">0.8671451 -10.28571 2.693365 0.8671451 -10.28571 22.69335 0.8671451 -9.142858 2.693365 0.8671451 -9.142858 22.69335 0.9671451 -10.28571 2.693365 0.9671451 -10.28571 22.69335 0.9671451 -9.142858 2.693365 0.9671451 -9.142858 22.69335 -1.032855 9.142856 2.693365 -1.032855 9.142856 22.69335 -1.032855 10.28571 2.693365 -1.032855 10.28571 22.69335 0.9671451 9.142856 2.693365 0.9671451 9.142856 22.69335 0.9671451 10.28571 2.693365 0.9671451 10.28571 22.69335 -1.032855 10.28571 7.693361 -1.032855 10.28571 17.69335 0.9671451 10.28571 7.693361 0.9671451 10.28571 17.69335 0.9671451 9.142856 7.693361 0.9671451 9.142856 17.69335 -1.032855 9.142856 7.693361 -1.032855 9.142856 17.69335 -1.032855 -10.28571 2.693365 -1.032855 -10.28571 22.69335 -1.032855 -9.142858 2.693365 -1.032855 -9.142858 22.69335 0.9671451 -10.28571 2.693365 0.9671451 -10.28571 22.69335 0.9671451 -9.142858 2.693365 0.9671451 -9.142858 22.69335 -1.032855 -9.142858 7.693361 -1.032855 -9.142858 17.69335 0.9671451 -9.142858 7.693361 0.9671451 -9.142858 17.69335 0.9671451 -10.28571 7.693361 0.9671451 -10.28571 17.69335 -1.032855 -10.28571 7.693361 -1.032855 -10.28571 17.69335 -1.032855 2.142855 2.693365 -1.032855 2.142855 22.69335 -1.032855 9.285713 2.693365 -1.032855 9.285713 22.69335 -0.9328548 2.142855 2.693365 -0.9328548 2.142855 22.69335 -0.9328548 9.285713 2.693365 -0.9328548 9.285713 22.69335 -1.032855 9.285713 7.693361 -1.032855 9.285713 17.69335 -0.9328548 9.285713 7.693361 -0.9328548 9.285713 17.69335 -0.9328548 2.142855 7.693361 -0.9328548 2.142855 17.69335 -1.032855 2.142855 7.693361 -1.032855 2.142855 17.69335 0.8671451 -9.285716 2.693365 0.8671451 -9.285716 22.69335 0.8671451 -2.142858 2.693365 0.8671451 -2.142858 22.69335 0.9671451 -9.285716 2.693365 0.9671451 -9.285716 22.69335 0.9671451 -2.142858 2.693365 0.9671451 -2.142858 22.69335 0.8671451 -9.285716 7.693361 0.8671451 -9.285716 17.69335 0.8671451 -2.142858 7.693361 0.8671451 -2.142858 17.69335 0.9671451 -2.142858 7.693361 0.9671451 -2.142858 17.69335 0.9671451 -9.285716 7.693361 0.9671451 -9.285716 17.69335 0.8671451 2.142855 2.693365 0.8671451 2.142855 22.69335 0.8671451 9.285713 2.693365 0.8671451 9.285713 22.69335 0.9671451 2.142855 2.693365 0.9671451 2.142855 22.69335 0.9671451 9.285713 2.693365 0.9671451 9.285713 22.69335 0.8671451 2.142855 7.693361 0.8671451 2.142855 17.69335 0.8671451 9.285713 7.693361 0.8671451 9.285713 17.69335 0.9671451 9.285713 7.693361 0.9671451 9.285713 17.69335 0.9671451 2.142855 7.693361 0.9671451 2.142855 17.69335 -1.032855 -9.285716 2.693365 -1.032855 -9.285716 22.69335 -1.032855 -2.142858 2.693365 -1.032855 -2.142858 22.69335 -0.9328548 -9.285716 2.693365 -0.9328548 -9.285716 22.69335 -0.9328548 -2.142858 2.693365 -0.9328548 -2.142858 22.69335 -1.032855 -2.142858 7.693361 -1.032855 -2.142858 17.69335 -0.9328548 -2.142858 7.693361 -0.9328548 -2.142858 17.69335 -0.9328548 -9.285716 7.693361 -0.9328548 -9.285716 17.69335 -1.032855 -9.285716 7.693361 -1.032855 -9.285716 17.69335 -1.032855 9.142856 2.693365 -1.032855 9.142856 22.69335 -1.032855 10.28571 2.693365 -1.032855 10.28571 22.69335 -0.9328548 9.142856 2.693365 -0.9328548 9.142856 22.69335 -0.9328548 10.28571 2.693365 -0.9328548 10.28571 22.69335 -1.032855 -10.28571 2.693365 -1.032855 -10.28571 22.69335 -1.032855 -9.142858 2.693365 -1.032855 -9.142858 22.69335 -0.9328548 -10.28571 2.693365 -0.9328548 -10.28571 22.69335 -0.9328548 -9.142858 2.693365 -0.9328548 -9.142858 22.69335 0.8671451 9.142856 2.693365 0.8671451 9.142856 22.69335 0.8671451 10.28571 2.693365 0.8671451 10.28571 22.69335 0.9671451 9.142856 2.693365 0.9671451 9.142856 22.69335 0.9671451 10.28571 2.693365 0.9671451 10.28571 22.69335 -0.9328551 2.148571 7.693366 -0.9328551 2.148571 17.69336 -0.9328551 3.291429 7.693366 -0.9328551 3.291429 17.69336 -1.032855 -3.291429 7.693366 -1.032855 -3.291429 17.69336 -1.032855 -2.148571 7.693366 -1.032855 -2.148571 17.69336 -0.9328551 -3.291429 7.693366 -0.9328551 -3.291429 17.69336 -0.9328551 -2.148571 7.693366 -0.9328551 -2.148571 17.69336</float_array>
          <technique_common>
            <accessor source="#Cube_055-mesh-positions-array" count="140" stride="3">
              <param name="X" type="float"/>
              <param name="Y" type="float"/>
              <param name="Z" type="float"/>
            </accessor>
          </technique_common>
        </source>
        <source id="Cube_055-mesh-normals">
          <float_array id="Cube_055-mesh-normals-array" count="183">-0.5773504 -0.5773502 -0.5773502 -0.5773504 0.5773503 0.5773502 -0.5773514 0.5773483 -0.5773511 0.5773514 0.5773483 0.5773511 0.5773504 0.5773503 -0.5773502 0.5773504 -0.5773502 0.5773502 0.5773514 -0.5773483 -0.5773512 -0.5773514 -0.5773483 0.5773512 -0.5773503 -0.5773503 0.5773503 -0.5773503 0.5773503 -0.5773503 -0.5773503 -0.5773503 -0.5773503 -0.5773503 0.5773503 -0.5773503 -0.5773503 -0.5773503 0.5773503 -0.5773503 0.5773503 0.5773503 0.5773503 0.5773503 0.5773503 0.5773503 0.5773503 -0.5773503 0.5773503 0.5773503 -0.5773503 0.5773503 0.5773503 0.5773503 0.5773503 -0.5773503 0.5773503 0.5773503 -0.5773503 -0.5773503 0.5773503 -0.5773503 0.5773503 -0.5773503 -0.5773503 0.5773502 -0.5773503 0.5773503 -0.5773502 0.5773503 0.5773503 0.5773502 0.5773503 0.5773503 -0.5773503 0.5773503 -0.5773503 -0.5773502 -0.5773496 -0.5773501 0.5773512 -0.5773496 0.5773501 -0.5773512 -0.5773498 0.5773498 -0.5773514 -0.5773501 0.5773507 0.5773501 0.5773496 0.5773501 0.5773512 0.5773503 0.5773503 -0.5773503 0.5773501 0.5773507 -0.5773501 0.5773497 0.5773497 0.5773514 0.5773496 -0.5773501 -0.5773512 -0.5773503 0.5773503 0.5773503 -0.5773501 0.5773507 -0.5773502 -0.5773501 -0.5773507 0.5773502 0.5773501 0.5773507 0.5773502 0.5773503 -0.5773503 0.5773503 0.5773501 -0.5773507 -0.5773502 -0.5773503 -0.5773503 -0.5773503 -0.5773503 0.5773503 0.5773503 -0.5773503 0.5773503 -0.5773504 0.5773501 0.5773507 -0.5773501 0.5773503 0.5773503 0.5773504 -0.5773504 0.5773502 0.5773502 -0.5773514 0.5773483 -0.5773512 0.5773514 0.5773483 0.5773512 0.5773504 0.5773502 -0.5773502 -0.5773514 0.5773483 -0.5773512 0.5773514 0.5773483 0.5773512 0.5773514 -0.5773483 -0.5773512 -0.5773514 -0.5773483 0.5773512 -0.5773503 0.5773503 0.5773503 1 0 0 -1 0 0 0 1 0 0 -1 0 0 0 -1 0 0 1</float_array>
          <technique_common>
            <accessor source="#Cube_055-mesh-normals-array" count="61" stride="3">
              <param name="X" type="float"/>
              <param name="Y" type="float"/>
              <param name="Z" type="float"/>
            </accessor>
          </technique_common>
        </source>
        <source id="Cube_055-mesh-map-0">
          <float_array id="Cube_055-mesh-map-0-array" count="1224">0.375 0 0.625 0.25 0.375 0.25 0.375 0.25 0.625 0.5 0.375 0.5 0.375 0.5 0.625 0.75 0.375 0.75 0.375 0.75 0.625 1 0.375 1 0.125 0.5 0.375 0.75 0.125 0.75 0.625 0.5 0.875 0.75 0.625 0.75 0.625 0 0.5625 0.25 0.5625 0 0.375 0.25 0.4375 0 0.4375 0.25 0.5625 0.25 0.625 0.5 0.5625 0.5 0.375 0.5 0.4375 0.25 0.4375 0.5 0.5625 0.5 0.625 0.75 0.5625 0.75 0.4375 0.75 0.375 0.5 0.4375 0.5 0.5625 0.75 0.625 1 0.5625 1 0.4375 1 0.375 0.75 0.4375 0.75 0.125 0.5 0.375 0.75 0.125 0.75 0.625 0.5 0.875 0.75 0.625 0.75 0.125 0.525 0.375 0.5125 0.125 0.5125 0.625 0.525 0.875 0.5125 0.625 0.5125 0.625 0 0.5625 0.25 0.5625 0 0.375 0.25 0.4375 0 0.4375 0.25 0.5625 0.25 0.625 0.5 0.5625 0.5 0.375 0.5 0.4375 0.25 0.4375 0.5 0.5625 0.5 0.625 0.75 0.5625 0.75 0.4375 0.75 0.375 0.5 0.4375 0.5 0.5625 0.75 0.625 1 0.5625 1 0.4375 1 0.375 0.75 0.4375 0.75 0.125 0.5 0.375 0.75 0.125 0.75 0.625 0.5 0.875 0.75 0.625 0.75 0.375 0.725 0.125 0.7375 0.375 0.7375 0.875 0.725 0.625 0.7375 0.875 0.7375 0.625 0 0.5625 0.25 0.5625 0 0.375 0.25 0.4375 0 0.4375 0.25 0.5625 0.25 0.625 0.5 0.5625 0.5 0.375 0.5 0.4375 0.25 0.4375 0.5 0.5625 0.5 0.625 0.75 0.5625 0.75 0.4375 0.75 0.375 0.5 0.4375 0.5 0.5625 0.75 0.625 1 0.5625 1 0.4375 1 0.375 0.75 0.4375 0.75 0.125 0.5 0.375 0.75 0.125 0.75 0.625 0.5 0.875 0.75 0.625 0.75 0.125 0.6015625 0.1374999 0.5234375 0.125 0.5234375 0.875 0.5234375 0.8625 0.6015625 0.875 0.6015625 0.5625 0 0.625 0.25 0.5625 0.25 0.375 0.25 0.4375 0 0.4375 0.25 0.5625 0.25 0.625 0.5 0.5625 0.5 0.4375 0.5 0.375 0.25 0.4375 0.25 0.5625 0.5 0.625 0.75 0.5625 0.75 0.4375 0.75 0.375 0.5 0.4375 0.5 0.5625 0.75 0.625 1 0.5625 1 0.4375 1 0.375 0.75 0.4375 0.75 0.125 0.5 0.375 0.75 0.125 0.75 0.625 0.5 0.875 0.75 0.625 0.75 0.375 0.6484375 0.3625 0.7265625 0.375 0.7265625 0.625 0.7265625 0.6375001 0.6484375 0.625 0.6484375 0.5625 0 0.625 0.25 0.5625 0.25 0.375 0.25 0.4375 0 0.4375 0.25 0.5625 0.25 0.625 0.5 0.5625 0.5 0.4375 0.5 0.375 0.25 0.4375 0.25 0.5625 0.5 0.625 0.75 0.5625 0.75 0.4375 0.75 0.375 0.5 0.4375 0.5 0.5625 0.75 0.625 1 0.5625 1 0.4375 1 0.375 0.75 0.4375 0.75 0.125 0.5 0.375 0.75 0.125 0.75 0.625 0.5 0.875 0.75 0.625 0.75 0.375 0.5234375 0.3625 0.6015625 0.375 0.6015625 0.625 0.6015625 0.6375 0.5234375 0.625 0.5234375 0.625 0 0.5625 0.25 0.5625 0 0.375 0.25 0.4375 0 0.4375 0.25 0.5625 0.25 0.625 0.5 0.5625 0.5 0.375 0.5 0.4375 0.25 0.4375 0.5 0.5625 0.5 0.625 0.75 0.5625 0.75 0.4375 0.75 0.375 0.5 0.4375 0.5 0.5625 0.75 0.625 1 0.5625 1 0.4375 1 0.375 0.75 0.4375 0.75 0.125 0.5 0.375 0.75 0.125 0.75 0.625 0.5 0.875 0.75 0.625 0.75 0.125 0.7265625 0.1375 0.6484375 0.125 0.6484375 0.875 0.6484375 0.8625001 0.7265625 0.875 0.7265625 0.375 0 0.625 0.25 0.375 0.25 0.375 0.25 0.625 0.5 0.375 0.5 0.375 0.5 0.625 0.75 0.375 0.75 0.375 0.75 0.625 1 0.375 1 0.125 0.5 0.375 0.75 0.125 0.75 0.625 0.5 0.875 0.75 0.625 0.75 0.375 0 0.625 0.25 0.375 0.25 0.375 0.25 0.625 0.5 0.375 0.5 0.375 0.5 0.625 0.75 0.375 0.75 0.375 0.75 0.625 1 0.375 1 0.125 0.5 0.375 0.75 0.125 0.75 0.625 0.5 0.875 0.75 0.625 0.75 0.375 0 0.625 0.25 0.375 0.25 0.375 0.25 0.625 0.5 0.375 0.5 0.375 0.5 0.625 0.75 0.375 0.75 0.375 0.75 0.625 1 0.375 1 0.125 0.5 0.375 0.75 0.125 0.75 0.625 0.5 0.875 0.75 0.625 0.75 0.375 0 0.625 0 0.625 0.25 0.375 0.25 0.625 0.25 0.625 0.5 0.375 0.5 0.625 0.5 0.625 0.75 0.375 0.75 0.625 0.75 0.625 1 0.125 0.5 0.375 0.5 0.375 0.75 0.625 0.5 0.875 0.5 0.875 0.75 0.625 0 0.625 0.25 0.5625 0.25 0.375 0.25 0.375 0 0.4375 0 0.5625 0.25 0.625 0.25 0.625 0.5 0.375 0.5 0.375 0.25 0.4375 0.25 0.5625 0.5 0.625 0.5 0.625 0.75 0.4375 0.75 0.375 0.75 0.375 0.5 0.5625 0.75 0.625 0.75 0.625 1 0.4375 1 0.375 1 0.375 0.75 0.125 0.5 0.375 0.5 0.375 0.75 0.625 0.5 0.875 0.5 0.875 0.75 0.125 0.525 0.375 0.525 0.375 0.5125 0.625 0.525 0.875 0.525 0.875 0.5125 0.625 0 0.625 0.25 0.5625 0.25 0.375 0.25 0.375 0 0.4375 0 0.5625 0.25 0.625 0.25 0.625 0.5 0.375 0.5 0.375 0.25 0.4375 0.25 0.5625 0.5 0.625 0.5 0.625 0.75 0.4375 0.75 0.375 0.75 0.375 0.5 0.5625 0.75 0.625 0.75 0.625 1 0.4375 1 0.375 1 0.375 0.75 0.125 0.5 0.375 0.5 0.375 0.75 0.625 0.5 0.875 0.5 0.875 0.75 0.375 0.725 0.125 0.725 0.125 0.7375 0.875 0.725 0.625 0.725 0.625 0.7375 0.625 0 0.625 0.25 0.5625 0.25 0.375 0.25 0.375 0 0.4375 0 0.5625 0.25 0.625 0.25 0.625 0.5 0.375 0.5 0.375 0.25 0.4375 0.25 0.5625 0.5 0.625 0.5 0.625 0.75 0.4375 0.75 0.375 0.75 0.375 0.5 0.5625 0.75 0.625 0.75 0.625 1 0.4375 1 0.375 1 0.375 0.75 0.125 0.5 0.375 0.5 0.375 0.75 0.625 0.5 0.875 0.5 0.875 0.75 0.125 0.6015625 0.1375 0.6015625 0.1374999 0.5234375 0.875 0.5234375 0.8625001 0.5234375 0.8625 0.6015625 0.5625 0 0.625 0 0.625 0.25 0.375 0.25 0.375 0 0.4375 0 0.5625 0.25 0.625 0.25 0.625 0.5 0.4375 0.5 0.375 0.5 0.375 0.25 0.5625 0.5 0.625 0.5 0.625 0.75 0.4375 0.75 0.375 0.75 0.375 0.5 0.5625 0.75 0.625 0.75 0.625 1 0.4375 1 0.375 1 0.375 0.75 0.125 0.5 0.375 0.5 0.375 0.75 0.625 0.5 0.875 0.5 0.875 0.75 0.375 0.6484375 0.3625 0.6484375 0.3625 0.7265625 0.625 0.7265625 0.6375001 0.7265625 0.6375001 0.6484375 0.5625 0 0.625 0 0.625 0.25 0.375 0.25 0.375 0 0.4375 0 0.5625 0.25 0.625 0.25 0.625 0.5 0.4375 0.5 0.375 0.5 0.375 0.25 0.5625 0.5 0.625 0.5 0.625 0.75 0.4375 0.75 0.375 0.75 0.375 0.5 0.5625 0.75 0.625 0.75 0.625 1 0.4375 1 0.375 1 0.375 0.75 0.125 0.5 0.375 0.5 0.375 0.75 0.625 0.5 0.875 0.5 0.875 0.75 0.375 0.5234375 0.3625 0.5234375 0.3625 0.6015625 0.625 0.6015625 0.6375001 0.6015625 0.6375 0.5234375 0.625 0 0.625 0.25 0.5625 0.25 0.375 0.25 0.375 0 0.4375 0 0.5625 0.25 0.625 0.25 0.625 0.5 0.375 0.5 0.375 0.25 0.4375 0.25 0.5625 0.5 0.625 0.5 0.625 0.75 0.4375 0.75 0.375 0.75 0.375 0.5 0.5625 0.75 0.625 0.75 0.625 1 0.4375 1 0.375 1 0.375 0.75 0.125 0.5 0.375 0.5 0.375 0.75 0.625 0.5 0.875 0.5 0.875 0.75 0.125 0.7265625 0.1375 0.7265625 0.1375 0.6484375 0.875 0.6484375 0.8625 0.6484375 0.8625001 0.7265625 0.375 0 0.625 0 0.625 0.25 0.375 0.25 0.625 0.25 0.625 0.5 0.375 0.5 0.625 0.5 0.625 0.75 0.375 0.75 0.625 0.75 0.625 1 0.125 0.5 0.375 0.5 0.375 0.75 0.625 0.5 0.875 0.5 0.875 0.75 0.375 0 0.625 0 0.625 0.25 0.375 0.25 0.625 0.25 0.625 0.5 0.375 0.5 0.625 0.5 0.625 0.75 0.375 0.75 0.625 0.75 0.625 1 0.125 0.5 0.375 0.5 0.375 0.75 0.625 0.5 0.875 0.5 0.875 0.75 0.375 0 0.625 0 0.625 0.25 0.375 0.25 0.625 0.25 0.625 0.5 0.375 0.5 0.625 0.5 0.625 0.75 0.375 0.75 0.625 0.75 0.625 1 0.125 0.5 0.375 0.5 0.375 0.75 0.625 0.5 0.875 0.5 0.875 0.75 0.625 0.5 0.375 0.75 0.375 0.5 0.625 0 0.375 0.25 0.375 0 0.625 0.25 0.375 0.5 0.375 0.25 0.625 0.75 0.375 1 0.375 0.75 0.375 0.5 0.125 0.75 0.125 0.5 0.875 0.5 0.625 0.75 0.625 0.5 0.625 0.5 0.625 0.75 0.375 0.75 0.625 0 0.625 0.25 0.375 0.25 0.625 0.25 0.625 0.5 0.375 0.5 0.625 0.75 0.625 1 0.375 1 0.375 0.5 0.375 0.75 0.125 0.75 0.875 0.5 0.875 0.75 0.625 0.75</float_array>
          <technique_common>
            <accessor source="#Cube_055-mesh-map-0-array" count="612" stride="2">
              <param name="S" type="float"/>
              <param name="T" type="float"/>
            </accessor>
          </technique_common>
        </source>
        <vertices id="Cube_055-mesh-vertices">
          <input semantic="POSITION" source="#Cube_055-mesh-positions"/>
        </vertices>
        <triangles material="chasis-material" count="204">
          <input semantic="VERTEX" source="#Cube_055-mesh-vertices" offset="0"/>
          <input semantic="NORMAL" source="#Cube_055-mesh-normals" offset="1"/>
          <input semantic="TEXCOORD" source="#Cube_055-mesh-map-0" offset="2" set="0"/>
          <p>0 0 0 3 1 1 2 2 2 2 2 3 7 3 4 6 4 5 6 4 6 5 5 7 4 6 8 4 6 9 1 7 10 0 0 11 2 2 12 4 6 13 0 0 14 7 3 15 1 7 16 5 5 17 9 8 18 17 9 19 23 10 20 10 11 21 22 12 22 16 13 23 17 9 24 15 14 25 19 15 26 14 16 27 16 13 28 18 17 29 19 15 30 13 18 31 21 19 32 20 20 33 14 16 34 18 17 35 21 19 36 9 8 37 23 10 38 22 12 39 12 19 40 20 20 41 10 11 42 12 19 43 8 10 44 15 14 45 9 8 46 13 18 47 22 12 48 18 17 49 16 13 50 21 19 51 17 9 52 19 15 53 25 21 54 33 22 55 39 10 56 26 22 57 38 21 58 32 13 59 33 22 60 31 23 61 35 24 62 30 24 63 32 13 64 34 23 65 35 24 66 29 18 67 37 25 68 36 18 69 30 24 70 34 23 71 37 25 72 25 21 73 39 10 74 38 21 75 28 25 76 36 18 77 26 22 78 28 25 79 24 10 80 31 23 81 25 21 82 29 18 83 34 23 84 38 21 85 36 18 86 33 22 87 37 25 88 39 10 89 41 26 90 49 27 91 55 10 92 42 28 93 54 26 94 48 29 95 49 27 96 47 30 97 51 31 98 46 32 99 48 29 100 50 33 101 51 31 102 45 20 103 53 34 104 52 20 105 46 32 106 50 33 107 53 34 108 41 26 109 55 10 110 54 26 111 44 34 112 52 20 113 42 28 114 44 34 115 40 10 116 47 30 117 41 26 118 45 20 119 54 26 120 50 33 121 48 29 122 49 27 123 53 34 124 55 10 125 65 10 126 59 35 127 67 36 128 58 36 129 64 37 130 66 35 131 67 36 132 63 38 133 69 15 134 68 38 135 58 36 136 66 35 137 69 15 138 61 39 139 71 40 140 70 39 141 62 15 142 68 38 143 71 40 144 57 37 145 65 10 146 64 37 147 60 40 148 70 39 149 58 36 150 60 40 151 56 10 152 63 38 153 57 37 154 61 39 155 68 38 156 64 37 157 70 39 158 71 40 159 67 36 160 69 15 161 81 41 162 75 42 163 83 27 164 74 27 165 80 26 166 82 35 167 83 27 168 79 30 169 85 31 170 84 30 171 74 27 172 82 35 173 85 31 174 77 20 175 87 34 176 86 20 177 78 31 178 84 30 179 87 34 180 73 26 181 81 41 182 80 26 183 76 34 184 86 20 185 74 27 186 76 34 187 72 10 188 79 30 189 73 26 190 77 20 191 84 30 192 80 26 193 86 20 194 87 34 195 83 27 196 85 31 197 89 37 198 97 36 199 103 10 200 90 43 201 102 37 202 96 29 203 97 36 204 95 38 205 99 15 206 94 44 207 96 29 208 98 45 209 99 15 210 93 39 211 101 40 212 100 39 213 94 44 214 98 45 215 101 40 216 89 37 217 103 10 218 102 37 219 92 40 220 100 39 221 90 43 222 92 40 223 88 10 224 95 38 225 89 37 226 93 39 227 102 37 228 98 45 229 96 29 230 97 36 231 101 40 232 103 10 233 104 0 234 107 46 235 106 47 236 106 47 237 111 48 238 110 49 239 110 49 240 109 5 241 108 6 242 108 6 243 105 7 244 104 0 245 106 47 246 108 6 247 104 0 248 111 48 249 105 7 250 109 5 251 112 0 252 115 46 253 114 50 254 114 50 255 119 51 256 118 49 257 118 49 258 117 5 259 116 52 260 116 52 261 113 53 262 112 0 263 114 50 264 116 52 265 112 0 266 119 51 267 113 53 268 117 5 269 120 0 270 123 46 271 122 47 272 122 47 273 127 48 274 126 49 275 126 49 276 125 5 277 124 6 278 124 6 279 121 7 280 120 0 281 122 47 282 124 6 283 120 0 284 127 48 285 121 7 286 125 5 287 0 0 288 1 7 289 3 1 290 2 2 291 3 1 292 7 3 293 6 4 294 7 3 295 5 5 296 4 6 297 5 5 298 1 7 299 2 2 300 6 4 301 4 6 302 7 3 303 3 1 304 1 7 305 9 8 306 11 54 307 17 9 308 10 11 309 8 10 310 22 12 311 17 9 312 11 54 313 15 14 314 14 16 315 10 11 316 16 13 317 19 15 318 15 14 319 13 18 320 20 20 321 12 19 322 14 16 323 21 19 324 13 18 325 9 8 326 22 12 327 8 10 328 12 19 329 10 11 330 14 16 331 12 19 332 15 14 333 11 54 334 9 8 335 22 12 336 20 20 337 18 17 338 21 19 339 23 10 340 17 9 341 25 21 342 27 35 343 33 22 344 26 22 345 24 10 346 38 21 347 33 22 348 27 35 349 31 23 350 30 24 351 26 22 352 32 13 353 35 24 354 31 23 355 29 18 356 36 18 357 28 25 358 30 24 359 37 25 360 29 18 361 25 21 362 38 21 363 24 10 364 28 25 365 26 22 366 30 24 367 28 25 368 31 23 369 27 35 370 25 21 371 34 23 372 32 13 373 38 21 374 33 22 375 35 24 376 37 25 377 41 26 378 43 35 379 49 27 380 42 28 381 40 10 382 54 26 383 49 27 384 43 35 385 47 30 386 46 32 387 42 28 388 48 29 389 51 31 390 47 30 391 45 20 392 52 20 393 44 34 394 46 32 395 53 34 396 45 20 397 41 26 398 54 26 399 40 10 400 44 34 401 42 28 402 46 32 403 44 34 404 47 30 405 43 35 406 41 26 407 54 26 408 52 20 409 50 33 410 49 27 411 51 31 412 53 34 413 65 10 414 57 37 415 59 35 416 58 36 417 56 10 418 64 37 419 67 36 420 59 35 421 63 38 422 68 38 423 62 15 424 58 36 425 69 15 426 63 38 427 61 39 428 70 39 429 60 40 430 62 15 431 71 40 432 61 39 433 57 37 434 64 37 435 56 10 436 60 40 437 58 36 438 62 15 439 60 40 440 63 38 441 59 35 442 57 37 443 68 38 444 66 35 445 64 37 446 71 40 447 65 10 448 67 36 449 81 41 450 73 26 451 75 42 452 74 27 453 72 10 454 80 26 455 83 27 456 75 42 457 79 30 458 84 30 459 78 31 460 74 27 461 85 31 462 79 30 463 77 20 464 86 20 465 76 34 466 78 31 467 87 34 468 77 20 469 73 26 470 80 26 471 72 10 472 76 34 473 74 27 474 78 31 475 76 34 476 79 30 477 75 42 478 73 26 479 84 30 480 82 35 481 80 26 482 87 34 483 81 41 484 83 27 485 89 37 486 91 35 487 97 36 488 90 43 489 88 10 490 102 37 491 97 36 492 91 35 493 95 38 494 94 44 495 90 43 496 96 29 497 99 15 498 95 38 499 93 39 500 100 39 501 92 40 502 94 44 503 101 40 504 93 39 505 89 37 506 102 37 507 88 10 508 92 40 509 90 43 510 94 44 511 92 40 512 95 38 513 91 35 514 89 37 515 102 37 516 100 39 517 98 45 518 97 36 519 99 15 520 101 40 521 104 0 522 105 7 523 107 46 524 106 47 525 107 46 526 111 48 527 110 49 528 111 48 529 109 5 530 108 6 531 109 5 532 105 7 533 106 47 534 110 49 535 108 6 536 111 48 537 107 46 538 105 7 539 112 0 540 113 53 541 115 46 542 114 50 543 115 46 544 119 51 545 118 49 546 119 51 547 117 5 548 116 52 549 117 5 550 113 53 551 114 50 552 118 49 553 116 52 554 119 51 555 115 46 556 113 53 557 120 0 558 121 7 559 123 46 560 122 47 561 123 46 562 127 48 563 126 49 564 127 48 565 125 5 566 124 6 567 125 5 568 121 7 569 122 47 570 126 49 571 124 6 572 127 48 573 123 46 574 121 7 575 131 55 576 128 55 577 130 55 578 133 56 579 134 56 580 132 56 581 135 57 582 138 57 583 134 57 584 137 58 585 132 58 586 136 58 587 138 59 588 132 59 589 134 59 590 135 60 591 137 60 592 139 60 593 131 55 594 129 55 595 128 55 596 133 56 597 135 56 598 134 56 599 135 57 600 139 57 601 138 57 602 137 58 603 133 58 604 132 58 605 138 59 606 136 59 607 132 59 608 135 60 609 133 60 610 137 60 611</p>
        </triangles>
      </mesh>
    </geometry>
  </library_geometries>
  <library_visual_scenes>
    <visual_scene id="Scene" name="Scene">
      <node id="tmp_export_Cube_055" name="tmp_export_Cube.055" type="NODE">
        <matrix sid="transform">1 0 0 0 0 1 0 0 0 0 1 0 0 0 0 1</matrix>
        <instance_geometry url="#Cube_055-mesh" name="tmp_export_Cube.055">
          <bind_material>
            <technique_common>
              <instance_material symbol="chasis-material" target="#chasis-material">
                <bind_vertex_input semantic="UVMap" input_semantic="TEXCOORD" input_set="0"/>
              </instance_material>
            </technique_common>
          </bind_material>
        </instance_geometry>
      </node>
    </visual_scene>
  </library_visual_scenes>
  <scene>
    <instance_visual_scene url="#Scene"/>
  </scene>
</COLLADA>