<?xml version="1.0" encoding="utf-8"?>
<COLLADA xmlns="http://www.collada.org/2005/11/COLLADASchema" version="1.4.1" xmlns:xsi="http://www.w3.org/2001/XMLSchema-instance">
  <asset>
    <contributor>
      <author>Blender User</author>
      <authoring_tool>Blender 3.3.21 commit date:2024-07-15, commit time:08:57, hash:e016c21db151</authoring_tool>
    </contributor>
    <created>2025-04-02T13:13:34</created>
    <modified>2025-04-02T13:13:34</modified>
    <unit name="meter" meter="1"/>
    <up_axis>Z_UP</up_axis>
  </asset>
  <library_effects>
    <effect id="chasis-effect">
      <profile_COMMON>
        <technique sid="common">
          <lambert>
            <emission>
              <color sid="emission">0 0 0 1</color>
            </emission>
            <diffuse>
              <color sid="diffuse">0.1728739 0.1792828 0.184466 1</color>
            </diffuse>
            <index_of_refraction>
              <float sid="ior">1.45</float>
            </index_of_refraction>
          </lambert>
        </technique>
      </profile_COMMON>
    </effect>
  </library_effects>
  <library_images/>
  <library_materials>
    <material id="chasis-material" name="chasis">
      <instance_effect url="#chasis-effect"/>
    </material>
  </library_materials>
  <library_geometries>
    <geometry id="Cube_135-mesh" name="Cube.135">
      <mesh>
        <source id="Cube_135-mesh-positions">
          <float_array id="Cube_135-mesh-positions-array" count="96">-1.032855 9.142856 2.693365 -1.032855 9.142856 22.69335 -1.032855 10.28571 2.693365 -1.032855 10.28571 22.69335 0.9671451 9.142856 2.693365 0.9671451 9.142856 22.69335 0.9671451 10.28571 2.693365 0.9671451 10.28571 22.69335 -1.032855 10.28571 7.693361 -1.032855 10.28571 17.69335 0.9671451 10.28571 7.693361 0.9671451 10.28571 17.69335 0.9671451 9.142856 7.693361 0.9671451 9.142856 17.69335 -1.032855 9.142856 7.693361 -1.032855 9.142856 17.69335 -1.032855 9.142856 2.693365 -1.032855 9.142856 22.69335 -1.032855 10.28571 2.693365 -1.032855 10.28571 22.69335 -0.9328548 9.142856 2.693365 -0.9328548 9.142856 22.69335 -0.9328548 10.28571 2.693365 -0.9328548 10.28571 22.69335 0.8671451 9.142856 2.693365 0.8671451 9.142856 22.69335 0.8671451 10.28571 2.693365 0.8671451 10.28571 22.69335 0.9671451 9.142856 2.693365 0.9671451 9.142856 22.69335 0.9671451 10.28571 2.693365 0.9671451 10.28571 22.69335</float_array>
          <technique_common>
            <accessor source="#Cube_135-mesh-positions-array" count="32" stride="3">
              <param name="X" type="float"/>
              <param name="Y" type="float"/>
              <param name="Z" type="float"/>
            </accessor>
          </technique_common>
        </source>
        <source id="Cube_135-mesh-normals">
          <float_array id="Cube_135-mesh-normals-array" count="66">-0.5773503 -0.5773503 0.5773503 -0.5773503 0.5773503 -0.5773503 -0.5773503 -0.5773503 -0.5773503 -0.5773503 0.5773503 -0.5773503 -0.5773503 -0.5773503 0.5773503 -0.5773503 0.5773503 0.5773503 0.5773503 0.5773503 0.5773503 0.5773503 0.5773503 -0.5773503 0.5773503 0.5773503 -0.5773503 0.5773503 0.5773503 0.5773503 0.5773503 -0.5773503 0.5773503 0.5773503 -0.5773503 -0.5773503 0.5773503 -0.5773503 0.5773503 -0.5773504 -0.5773502 -0.5773502 -0.5773504 0.5773502 0.5773502 -0.5773514 0.5773483 -0.5773512 0.5773514 0.5773483 0.5773512 0.5773504 0.5773502 -0.5773502 0.5773504 -0.5773502 0.5773502 0.5773514 -0.5773483 -0.5773512 -0.5773514 -0.5773483 0.5773512 -0.5773503 0.5773503 0.5773503</float_array>
          <technique_common>
            <accessor source="#Cube_135-mesh-normals-array" count="22" stride="3">
              <param name="X" type="float"/>
              <param name="Y" type="float"/>
              <param name="Z" type="float"/>
            </accessor>
          </technique_common>
        </source>
        <source id="Cube_135-mesh-map-0">
          <float_array id="Cube_135-mesh-map-0-array" count="288">0.625 0 0.5625 0.25 0.5625 0 0.375 0.25 0.4375 0 0.4375 0.25 0.5625 0.25 0.625 0.5 0.5625 0.5 0.375 0.5 0.4375 0.25 0.4375 0.5 0.5625 0.5 0.625 0.75 0.5625 0.75 0.4375 0.75 0.375 0.5 0.4375 0.5 0.5625 0.75 0.625 1 0.5625 1 0.4375 1 0.375 0.75 0.4375 0.75 0.125 0.5 0.375 0.75 0.125 0.75 0.625 0.5 0.875 0.75 0.625 0.75 0.125 0.525 0.375 0.5125 0.125 0.5125 0.625 0.525 0.875 0.5125 0.625 0.5125 0.375 0 0.625 0.25 0.375 0.25 0.375 0.25 0.625 0.5 0.375 0.5 0.375 0.5 0.625 0.75 0.375 0.75 0.375 0.75 0.625 1 0.375 1 0.125 0.5 0.375 0.75 0.125 0.75 0.625 0.5 0.875 0.75 0.625 0.75 0.375 0 0.625 0.25 0.375 0.25 0.375 0.25 0.625 0.5 0.375 0.5 0.375 0.5 0.625 0.75 0.375 0.75 0.375 0.75 0.625 1 0.375 1 0.125 0.5 0.375 0.75 0.125 0.75 0.625 0.5 0.875 0.75 0.625 0.75 0.625 0 0.625 0.25 0.5625 0.25 0.375 0.25 0.375 0 0.4375 0 0.5625 0.25 0.625 0.25 0.625 0.5 0.375 0.5 0.375 0.25 0.4375 0.25 0.5625 0.5 0.625 0.5 0.625 0.75 0.4375 0.75 0.375 0.75 0.375 0.5 0.5625 0.75 0.625 0.75 0.625 1 0.4375 1 0.375 1 0.375 0.75 0.125 0.5 0.375 0.5 0.375 0.75 0.625 0.5 0.875 0.5 0.875 0.75 0.125 0.525 0.375 0.525 0.375 0.5125 0.625 0.525 0.875 0.525 0.875 0.5125 0.375 0 0.625 0 0.625 0.25 0.375 0.25 0.625 0.25 0.625 0.5 0.375 0.5 0.625 0.5 0.625 0.75 0.375 0.75 0.625 0.75 0.625 1 0.125 0.5 0.375 0.5 0.375 0.75 0.625 0.5 0.875 0.5 0.875 0.75 0.375 0 0.625 0 0.625 0.25 0.375 0.25 0.625 0.25 0.625 0.5 0.375 0.5 0.625 0.5 0.625 0.75 0.375 0.75 0.625 0.75 0.625 1 0.125 0.5 0.375 0.5 0.375 0.75 0.625 0.5 0.875 0.5 0.875 0.75</float_array>
          <technique_common>
            <accessor source="#Cube_135-mesh-map-0-array" count="144" stride="2">
              <param name="S" type="float"/>
              <param name="T" type="float"/>
            </accessor>
          </technique_common>
        </source>
        <vertices id="Cube_135-mesh-vertices">
          <input semantic="POSITION" source="#Cube_135-mesh-positions"/>
        </vertices>
        <triangles material="chasis-material" count="48">
          <input semantic="VERTEX" source="#Cube_135-mesh-vertices" offset="0"/>
          <input semantic="NORMAL" source="#Cube_135-mesh-normals" offset="1"/>
          <input semantic="TEXCOORD" source="#Cube_135-mesh-map-0" offset="2" set="0"/>
          <p>1 0 0 9 1 1 15 2 2 2 3 3 14 4 4 8 5 5 9 1 6 7 6 7 11 7 8 6 8 9 8 5 10 10 9 11 11 7 12 5 10 13 13 11 14 12 12 15 6 8 16 10 9 17 13 11 18 1 0 19 15 2 20 14 4 21 4 11 22 12 12 23 2 3 24 4 11 25 0 2 26 7 6 27 1 0 28 5 10 29 14 4 30 10 9 31 8 5 32 13 11 33 9 1 34 11 7 35 16 13 36 19 14 37 18 15 38 18 15 39 23 16 40 22 17 41 22 17 42 21 18 43 20 19 44 20 19 45 17 20 46 16 13 47 18 15 48 20 19 49 16 13 50 23 16 51 17 20 52 21 18 53 24 13 54 27 14 55 26 15 56 26 15 57 31 16 58 30 17 59 30 17 60 29 18 61 28 19 62 28 19 63 25 20 64 24 13 65 26 15 66 28 19 67 24 13 68 31 16 69 25 20 70 29 18 71 1 0 72 3 21 73 9 1 74 2 3 75 0 2 76 14 4 77 9 1 78 3 21 79 7 6 80 6 8 81 2 3 82 8 5 83 11 7 84 7 6 85 5 10 86 12 12 87 4 11 88 6 8 89 13 11 90 5 10 91 1 0 92 14 4 93 0 2 94 4 11 95 2 3 96 6 8 97 4 11 98 7 6 99 3 21 100 1 0 101 14 4 102 12 12 103 10 9 104 13 11 105 15 2 106 9 1 107 16 13 108 17 20 109 19 14 110 18 15 111 19 14 112 23 16 113 22 17 114 23 16 115 21 18 116 20 19 117 21 18 118 17 20 119 18 15 120 22 17 121 20 19 122 23 16 123 19 14 124 17 20 125 24 13 126 25 20 127 27 14 128 26 15 129 27 14 130 31 16 131 30 17 132 31 16 133 29 18 134 28 19 135 29 18 136 25 20 137 26 15 138 30 17 139 28 19 140 31 16 141 27 14 142 25 20 143</p>
        </triangles>
      </mesh>
    </geometry>
  </library_geometries>
  <library_visual_scenes>
    <visual_scene id="Scene" name="Scene">
      <node id="tmp_export_Cube_135" name="tmp_export_Cube.135" type="NODE">
        <matrix sid="transform">1 0 0 0 0 1 0 0 0 0 1 0 0 0 0 1</matrix>
        <instance_geometry url="#Cube_135-mesh" name="tmp_export_Cube.135">
          <bind_material>
            <technique_common>
              <instance_material symbol="chasis-material" target="#chasis-material">
                <bind_vertex_input semantic="UVMap" input_semantic="TEXCOORD" input_set="0"/>
              </instance_material>
            </technique_common>
          </bind_material>
        </instance_geometry>
      </node>
    </visual_scene>
  </library_visual_scenes>
  <scene>
    <instance_visual_scene url="#Scene"/>
  </scene>
</COLLADA>