<?xml version="1.0" encoding="utf-8"?>
<COLLADA xmlns="http://www.collada.org/2005/11/COLLADASchema" version="1.4.1" xmlns:xsi="http://www.w3.org/2001/XMLSchema-instance">
  <asset>
    <contributor>
      <author>Blender User</author>
      <authoring_tool>Blender 3.3.21 commit date:2024-07-15, commit time:08:57, hash:e016c21db151</authoring_tool>
    </contributor>
    <created>2025-04-02T13:13:33</created>
    <modified>2025-04-02T13:13:33</modified>
    <unit name="meter" meter="1"/>
    <up_axis>Z_UP</up_axis>
  </asset>
  <library_effects>
    <effect id="chasis-effect">
      <profile_COMMON>
        <technique sid="common">
          <lambert>
            <emission>
              <color sid="emission">0 0 0 1</color>
            </emission>
            <diffuse>
              <color sid="diffuse">0.1728739 0.1792828 0.184466 1</color>
            </diffuse>
            <index_of_refraction>
              <float sid="ior">1.45</float>
            </index_of_refraction>
          </lambert>
        </technique>
      </profile_COMMON>
    </effect>
  </library_effects>
  <library_images/>
  <library_materials>
    <material id="chasis-material" name="chasis">
      <instance_effect url="#chasis-effect"/>
    </material>
  </library_materials>
  <library_geometries>
    <geometry id="Cube_258-mesh" name="Cube.258">
      <mesh>
        <source id="Cube_258-mesh-positions">
          <float_array id="Cube_258-mesh-positions-array" count="60">-0.04999995 -2 -0.3999977 -0.3000002 -1.5 -0.3999806 -0.04999995 -2 0.4000015 -0.3000002 -1.5 0.4000187 -0.04999995 2 -0.3999977 -0.3000002 1.5 -0.3999806 -0.04999995 2 0.4000015 -0.3000002 1.5 0.4000187 0.05000007 -2 -0.3999977 -2.08616e-7 -1.5 0.4000187 0.05000007 -2 0.4000015 0.05000007 2 -0.3999977 0.05000007 2 0.4000015 -2.08616e-7 1.5 0.4000187 -0.04999995 1.5 0.4000015 -0.04999995 -1.5 0.4000015 -0.04999995 -1.5 -0.3999806 -0.04999995 1.5 -0.3999806 -2.08616e-7 1.5 0.4000015 -2.08616e-7 -1.5 0.4000015</float_array>
          <technique_common>
            <accessor source="#Cube_258-mesh-positions-array" count="20" stride="3">
              <param name="X" type="float"/>
              <param name="Y" type="float"/>
              <param name="Z" type="float"/>
            </accessor>
          </technique_common>
        </source>
        <source id="Cube_258-mesh-normals">
          <float_array id="Cube_258-mesh-normals-array" count="30">-1 0 0 0 1 0 1 0 0 0 -1 0 0 0 -1 0 0 1 0 -0.9999333 0.01155322 -1 0 0 -1 0 0 0 0.9999833 0.005776882</float_array>
          <technique_common>
            <accessor source="#Cube_258-mesh-normals-array" count="10" stride="3">
              <param name="X" type="float"/>
              <param name="Y" type="float"/>
              <param name="Z" type="float"/>
            </accessor>
          </technique_common>
        </source>
        <source id="Cube_258-mesh-map-0">
          <float_array id="Cube_258-mesh-map-0-array" count="216">0.375 0.25 0.375 0 0.3750054 0.21875 0.625 0.25 0.375 0.5 0.375 0.25 0.625 0.5 0.375 0.75 0.375 0.5 0.625 0.75 0.375 1 0.375 0.75 0.375 0.5 0.125 0.75 0.125 0.5 0.625 0.75 0.625 0.5 0.7500007 0.71875 0.625 0 0.375 0.25 0.375 0 0.625 0.5 0.6249946 0.5 0.6249946 0.4583336 0.625 0.5 0.6249946 0.75 0.6249946 0.5 0.6249946 0.7916665 0.625 0.75 0.625 1 0.125 0.75 0.3333336 0.5 0.3333336 0.75 0.875 0.5 0.625 0.75 0.625 0.5 0.625 0.21875 0.625 0.25 0.3750054 0.21875 0.625 0.25 0.375 0.25 0.3750054 0.21875 0.375 0 0.625 0 0.3750053 0.03124994 0.625 0 0.625 0.03124994 0.3750053 0.03124994 0.375 0 0.3750053 0.03124994 0.3750054 0.21875 0.625 0.25 0.625 0.5 0.375 0.5 0.625 0.5 0.625 0.75 0.375 0.75 0.625 0.75 0.625 1 0.375 1 0.375 0.5 0.375 0.75 0.125 0.75 0.7500007 0.71875 0.875 0.71875 0.875 0.75 0.625 0.5 0.875 0.5 0.7500007 0.5312501 0.875 0.5 0.875 0.53125 0.7500007 0.5312501 0.7500007 0.71875 0.875 0.75 0.625 0.75 0.625 0.5 0.7500007 0.5312501 0.7500007 0.71875 0.625 0 0.625 0.25 0.375 0.25 0.375 0.4583336 0.375 0.25 0.6249946 0.4583336 0.375 0.25 0.625 0.25 0.6249946 0.4583336 0.625 0.25 0.625 0.5 0.6249946 0.4583336 0.625 0.5 0.625 0.75 0.6249946 0.75 0.6249946 0.7916665 0.6249946 0.75 0.625 0.75 0.625 1 0.375 1 0.6249946 0.7916665 0.375 1 0.375 0.7916665 0.6249946 0.7916665 0.125 0.75 0.125 0.5 0.3333336 0.5 0.875 0.5 0.875 0.75 0.625 0.75</float_array>
          <technique_common>
            <accessor source="#Cube_258-mesh-map-0-array" count="108" stride="2">
              <param name="S" type="float"/>
              <param name="T" type="float"/>
            </accessor>
          </technique_common>
        </source>
        <vertices id="Cube_258-mesh-vertices">
          <input semantic="POSITION" source="#Cube_258-mesh-positions"/>
        </vertices>
        <triangles material="chasis-material" count="20">
          <input semantic="VERTEX" source="#Cube_258-mesh-vertices" offset="0"/>
          <input semantic="NORMAL" source="#Cube_258-mesh-normals" offset="1"/>
          <input semantic="TEXCOORD" source="#Cube_258-mesh-map-0" offset="2" set="0"/>
          <p>4 0 0 0 0 1 17 0 2 6 1 3 11 1 4 4 1 5 12 2 6 8 2 7 11 2 8 10 3 9 0 3 10 8 3 11 11 4 12 0 4 13 4 4 14 10 5 15 12 5 16 19 5 17 14 0 36 6 0 37 17 0 38 6 7 39 4 7 40 17 7 41 0 8 42 2 8 43 16 8 44 2 0 45 15 0 46 16 0 47 0 0 48 16 0 49 17 0 50 6 1 51 12 1 52 11 1 53 12 2 54 10 2 55 8 2 56 10 3 57 2 3 58 0 3 59 11 4 60 8 4 61 0 4 62 19 5 63 15 5 64 2 5 65 12 5 66 6 5 67 18 5 68 6 5 69 14 5 70 18 5 71 19 5 72 2 5 73 10 5 74 12 5 75 18 5 76 19 5 77</p>
        </triangles>
        <triangles count="16">
          <input semantic="VERTEX" source="#Cube_258-mesh-vertices" offset="0"/>
          <input semantic="NORMAL" source="#Cube_258-mesh-normals" offset="1"/>
          <input semantic="TEXCOORD" source="#Cube_258-mesh-map-0" offset="2" set="0"/>
          <p>3 0 18 5 0 19 1 0 20 13 1 21 18 1 22 14 1 23 13 2 24 19 2 25 18 2 26 15 6 27 9 6 28 3 6 29 1 4 30 17 4 31 16 4 32 7 5 33 9 5 34 13 5 35 3 0 78 7 0 79 5 0 80 17 1 81 5 1 82 14 1 83 5 1 84 7 1 85 14 1 86 7 9 87 13 9 88 14 9 89 13 2 90 9 2 91 19 2 92 15 3 93 19 3 94 9 3 95 3 3 96 1 3 97 15 3 98 1 3 99 16 3 100 15 3 101 1 4 102 5 4 103 17 4 104 7 5 105 3 5 106 9 5 107</p>
        </triangles>
      </mesh>
    </geometry>
  </library_geometries>
  <library_visual_scenes>
    <visual_scene id="Scene" name="Scene">
      <node id="tmp_export_Cube_258" name="tmp_export_Cube.258" type="NODE">
        <matrix sid="transform">1 0 0 0 0 1 0 0 0 0 1 0 0 0 0 1</matrix>
        <instance_geometry url="#Cube_258-mesh" name="tmp_export_Cube.258">
          <bind_material>
            <technique_common>
              <instance_material symbol="chasis-material" target="#chasis-material">
                <bind_vertex_input semantic="UVMap" input_semantic="TEXCOORD" input_set="0"/>
              </instance_material>
            </technique_common>
          </bind_material>
        </instance_geometry>
      </node>
    </visual_scene>
  </library_visual_scenes>
  <scene>
    <instance_visual_scene url="#Scene"/>
  </scene>
</COLLADA>