<?xml version="1.0" encoding="utf-8"?>
<COLLADA xmlns="http://www.collada.org/2005/11/COLLADASchema" version="1.4.1" xmlns:xsi="http://www.w3.org/2001/XMLSchema-instance">
  <asset>
    <contributor>
      <author>Blender User</author>
      <authoring_tool>Blender 3.3.21 commit date:2024-07-15, commit time:08:57, hash:e016c21db151</authoring_tool>
    </contributor>
    <created>2025-04-02T13:13:33</created>
    <modified>2025-04-02T13:13:33</modified>
    <unit name="meter" meter="1"/>
    <up_axis>Z_UP</up_axis>
  </asset>
  <library_effects>
    <effect id="chasis-effect">
      <profile_COMMON>
        <technique sid="common">
          <lambert>
            <emission>
              <color sid="emission">0 0 0 1</color>
            </emission>
            <diffuse>
              <color sid="diffuse">0.1728739 0.1792828 0.184466 1</color>
            </diffuse>
            <index_of_refraction>
              <float sid="ior">1.45</float>
            </index_of_refraction>
          </lambert>
        </technique>
      </profile_COMMON>
    </effect>
  </library_effects>
  <library_images/>
  <library_materials>
    <material id="chasis-material" name="chasis">
      <instance_effect url="#chasis-effect"/>
    </material>
  </library_materials>
  <library_geometries>
    <geometry id="Cube_012-mesh" name="Cube.012">
      <mesh>
        <source id="Cube_012-mesh-positions">
          <float_array id="Cube_012-mesh-positions-array" count="180">-1.000005 4.02453 1.264152 -1.000005 4.02453 3.264152 -1.000005 6.02453 1.264152 -1.000005 6.02453 3.264152 0.9999949 4.02453 1.264152 0.9999949 4.02453 3.264152 0.9999949 6.02453 1.264152 0.9999949 6.02453 3.264152 -0.9999974 3.974527 -2.069183 -0.9999974 3.974527 1.264151 -0.9999974 16.47453 -2.069183 -0.9999974 16.47453 1.264151 1.000001 3.974527 -2.069183 1.000001 3.974527 1.264151 1.000001 16.47453 -2.069183 1.000001 16.47453 1.264151 -0.9999974 16.47453 -1.23585 -0.9999974 16.47453 0.4308171 1.000001 16.47453 -1.23585 1.000001 16.47453 0.4308171 1.000001 3.974527 -1.23585 1.000001 3.974527 0.4308171 -0.9999974 3.974527 -1.23585 -0.9999974 3.974527 0.4308171 -0.9999974 -16.02547 -2.069183 -0.9999974 -16.02547 1.264151 -0.9999974 -3.525471 -2.069183 -0.9999974 -3.525471 1.264151 1.000001 -16.02547 -2.069183 1.000001 -16.02547 1.264151 1.000001 -3.525471 -2.069183 1.000001 -3.525471 1.264151 -0.9999974 -3.525471 -1.23585 -0.9999974 -3.525471 0.4308171 1.000001 -3.525471 -1.23585 1.000001 -3.525471 0.4308171 1.000001 -16.02547 -1.23585 1.000001 -16.02547 0.4308171 -0.9999974 -16.02547 -1.23585 -0.9999974 -16.02547 0.4308171 0.9999949 3.984531 -1.235849 0.9999949 3.984531 0.4308181 0.9999949 5.984531 -1.235849 0.9999949 5.984531 0.4308181 -1.000005 -5.535469 -1.235849 -1.000005 -5.535469 0.4308181 -1.000005 -3.535469 -1.235849 -1.000005 -3.535469 0.4308181 0.9999949 -5.535469 -1.235849 0.9999949 -5.535469 0.4308181 0.9999949 -3.535469 -1.235849 0.9999949 -3.535469 0.4308181 -1.000007 -5.575469 1.264152 -1.000007 -5.575469 3.264152 -1.000007 -3.575469 1.264152 -1.000007 -3.575469 3.264152 0.999993 -5.575469 1.264152 0.999993 -5.575469 3.264152 0.999993 -3.575469 1.264152 0.999993 -3.575469 3.264152</float_array>
          <technique_common>
            <accessor source="#Cube_012-mesh-positions-array" count="60" stride="3">
              <param name="X" type="float"/>
              <param name="Y" type="float"/>
              <param name="Z" type="float"/>
            </accessor>
          </technique_common>
        </source>
        <source id="Cube_012-mesh-normals">
          <float_array id="Cube_012-mesh-normals-array" count="48">-1 0 0 0 1 0 1 0 0 0 -1 0 0 0 -1 0 0 1 -0.5773505 -0.5773501 0.5773501 -0.5773505 0.5773501 -0.5773501 -0.5773503 -0.5773503 -0.5773503 -0.5773503 0.5773503 0.5773503 0.5773503 0.5773503 0.5773503 0.5773505 0.5773501 -0.5773501 0.5773503 0.5773503 0.5773503 0.5773505 -0.5773501 0.5773501 0.5773503 -0.5773503 -0.5773503 -0.5773503 0.5773503 0.5773503</float_array>
          <technique_common>
            <accessor source="#Cube_012-mesh-normals-array" count="16" stride="3">
              <param name="X" type="float"/>
              <param name="Y" type="float"/>
              <param name="Z" type="float"/>
            </accessor>
          </technique_common>
        </source>
        <source id="Cube_012-mesh-map-0">
          <float_array id="Cube_012-mesh-map-0-array" count="504">0.625 0 0.375 0.25 0.375 0 0.625 0.25 0.375 0.5 0.375 0.25 0.625 0.5 0.375 0.75 0.375 0.5 0.625 0.75 0.375 1 0.375 0.75 0.375 0.5 0.125 0.75 0.125 0.5 0.875 0.5 0.625 0.75 0.625 0.5 0.625 0 0.5625 0.25 0.5625 0 0.375 0.25 0.4375 0 0.4375 0.25 0.5625 0.25 0.625 0.5 0.5625 0.5 0.375 0.5 0.4375 0.25 0.4375 0.5 0.5625 0.5 0.625 0.75 0.5625 0.75 0.4375 0.75 0.375 0.5 0.4375 0.5 0.5625 0.75 0.625 1 0.5625 1 0.4375 1 0.375 0.75 0.4375 0.75 0.125 0.5 0.375 0.75 0.125 0.75 0.625 0.5 0.875 0.75 0.625 0.75 0.125 0.6015625 0.1374999 0.5234375 0.125 0.5234375 0.875 0.5234375 0.8625 0.6015625 0.875 0.6015625 0.625 0 0.5625 0.25 0.5625 0 0.375 0.25 0.4375 0 0.4375 0.25 0.5625 0.25 0.625 0.5 0.5625 0.5 0.375 0.5 0.4375 0.25 0.4375 0.5 0.5625 0.5 0.625 0.75 0.5625 0.75 0.4375 0.75 0.375 0.5 0.4375 0.5 0.5625 0.75 0.625 1 0.5625 1 0.4375 1 0.375 0.75 0.4375 0.75 0.125 0.5 0.375 0.75 0.125 0.75 0.625 0.5 0.875 0.75 0.625 0.75 0.125 0.7265625 0.1375 0.6484375 0.125 0.6484375 0.875 0.6484375 0.8625001 0.7265625 0.875 0.7265625 0.625 0 0.625 0.25 0.5625 0.25 0.375 0.25 0.375 0 0.4375 0 0.5625 0.25 0.625 0.25 0.625 0.5 0.375 0.5 0.375 0.25 0.4375 0.25 0.5625 0.5 0.625 0.5 0.625 0.75 0.4375 0.75 0.375 0.75 0.375 0.5 0.5625 0.75 0.625 0.75 0.625 1 0.4375 1 0.375 1 0.375 0.75 0.125 0.5 0.375 0.5 0.375 0.75 0.625 0.5 0.875 0.5 0.875 0.75 0.125 0.6015625 0.1375 0.6015625 0.1374999 0.5234375 0.875 0.5234375 0.8625001 0.5234375 0.8625 0.6015625 0.625 0 0.625 0.25 0.5625 0.25 0.375 0.25 0.375 0 0.4375 0 0.5625 0.25 0.625 0.25 0.625 0.5 0.375 0.5 0.375 0.25 0.4375 0.25 0.5625 0.5 0.625 0.5 0.625 0.75 0.4375 0.75 0.375 0.75 0.375 0.5 0.5625 0.75 0.625 0.75 0.625 1 0.4375 1 0.375 1 0.375 0.75 0.125 0.5 0.375 0.5 0.375 0.75 0.625 0.5 0.875 0.5 0.875 0.75 0.125 0.7265625 0.1375 0.7265625 0.1375 0.6484375 0.875 0.6484375 0.8625 0.6484375 0.8625001 0.7265625 0.625 0.5 0.375 0.75 0.375 0.5 0.625 0 0.375 0.25 0.375 0 0.625 0.25 0.375 0.5 0.375 0.25 0.625 0.75 0.375 1 0.375 0.75 0.375 0.5 0.125 0.75 0.125 0.5 0.875 0.5 0.625 0.75 0.625 0.5 0.625 0 0.375 0.25 0.375 0 0.625 0.25 0.375 0.5 0.375 0.25 0.625 0.5 0.375 0.75 0.375 0.5 0.625 0.75 0.375 1 0.375 0.75 0.375 0.5 0.125 0.75 0.125 0.5 0.875 0.5 0.625 0.75 0.625 0.5 0.625 0 0.625 0.25 0.375 0.25 0.625 0.25 0.625 0.5 0.375 0.5 0.625 0.5 0.625 0.75 0.375 0.75 0.625 0.75 0.625 1 0.375 1 0.375 0.5 0.375 0.75 0.125 0.75 0.875 0.5 0.875 0.75 0.625 0.75 0.625 0.5 0.625 0.75 0.375 0.75 0.625 0 0.625 0.25 0.375 0.25 0.625 0.25 0.625 0.5 0.375 0.5 0.625 0.75 0.625 1 0.375 1 0.375 0.5 0.375 0.75 0.125 0.75 0.875 0.5 0.875 0.75 0.625 0.75 0.625 0 0.625 0.25 0.375 0.25 0.625 0.25 0.625 0.5 0.375 0.5 0.625 0.5 0.625 0.75 0.375 0.75 0.625 0.75 0.625 1 0.375 1 0.375 0.5 0.375 0.75 0.125 0.75 0.875 0.5 0.875 0.75 0.625 0.75</float_array>
          <technique_common>
            <accessor source="#Cube_012-mesh-map-0-array" count="252" stride="2">
              <param name="S" type="float"/>
              <param name="T" type="float"/>
            </accessor>
          </technique_common>
        </source>
        <vertices id="Cube_012-mesh-vertices">
          <input semantic="POSITION" source="#Cube_012-mesh-positions"/>
        </vertices>
        <triangles material="chasis-material" count="84">
          <input semantic="VERTEX" source="#Cube_012-mesh-vertices" offset="0"/>
          <input semantic="NORMAL" source="#Cube_012-mesh-normals" offset="1"/>
          <input semantic="TEXCOORD" source="#Cube_012-mesh-map-0" offset="2" set="0"/>
          <p>1 0 0 2 0 1 0 0 2 3 1 3 6 1 4 2 1 5 7 2 6 4 2 7 6 2 8 5 3 9 0 3 10 4 3 11 6 4 12 0 4 13 2 4 14 3 5 15 5 5 16 7 5 17 9 6 18 17 7 19 23 8 20 10 7 21 22 6 22 16 9 23 17 7 24 15 10 25 19 11 26 14 11 27 16 9 28 18 12 29 19 11 30 13 13 31 21 14 32 20 13 33 14 11 34 18 12 35 21 14 36 9 6 37 23 8 38 22 6 39 12 14 40 20 13 41 10 7 42 12 14 43 8 8 44 15 10 45 9 6 46 13 13 47 22 6 48 18 12 49 16 9 50 17 7 51 21 14 52 23 8 53 25 6 54 33 7 55 39 8 56 26 7 57 38 6 58 32 9 59 33 7 60 31 10 61 35 11 62 30 11 63 32 9 64 34 12 65 35 11 66 29 13 67 37 14 68 36 13 69 30 11 70 34 12 71 37 14 72 25 6 73 39 8 74 38 6 75 28 14 76 36 13 77 26 7 78 28 14 79 24 8 80 31 10 81 25 6 82 29 13 83 38 6 84 34 12 85 32 9 86 33 7 87 37 14 88 39 8 89 9 6 90 11 15 91 17 7 92 10 7 93 8 8 94 22 6 95 17 7 96 11 15 97 15 10 98 14 11 99 10 7 100 16 9 101 19 11 102 15 10 103 13 13 104 20 13 105 12 14 106 14 11 107 21 14 108 13 13 109 9 6 110 22 6 111 8 8 112 12 14 113 10 7 114 14 11 115 12 14 116 15 10 117 11 15 118 9 6 119 22 6 120 20 13 121 18 12 122 17 7 123 19 11 124 21 14 125 25 6 126 27 15 127 33 7 128 26 7 129 24 8 130 38 6 131 33 7 132 27 15 133 31 10 134 30 11 135 26 7 136 32 9 137 35 11 138 31 10 139 29 13 140 36 13 141 28 14 142 30 11 143 37 14 144 29 13 145 25 6 146 38 6 147 24 8 148 28 14 149 26 7 150 30 11 151 28 14 152 31 10 153 27 15 154 25 6 155 38 6 156 36 13 157 34 12 158 33 7 159 35 11 160 37 14 161 43 2 162 40 2 163 42 2 164 45 0 165 46 0 166 44 0 167 47 1 168 50 1 169 46 1 170 49 3 171 44 3 172 48 3 173 50 4 174 44 4 175 46 4 176 47 5 177 49 5 178 51 5 179 53 0 180 54 0 181 52 0 182 55 1 183 58 1 184 54 1 185 59 2 186 56 2 187 58 2 188 57 3 189 52 3 190 56 3 191 58 4 192 52 4 193 54 4 194 55 5 195 57 5 196 59 5 197 1 0 198 3 0 199 2 0 200 3 1 201 7 1 202 6 1 203 7 2 204 5 2 205 4 2 206 5 3 207 1 3 208 0 3 209 6 4 210 4 4 211 0 4 212 3 5 213 1 5 214 5 5 215 43 2 216 41 2 217 40 2 218 45 0 219 47 0 220 46 0 221 47 1 222 51 1 223 50 1 224 49 3 225 45 3 226 44 3 227 50 4 228 48 4 229 44 4 230 47 5 231 45 5 232 49 5 233 53 0 234 55 0 235 54 0 236 55 1 237 59 1 238 58 1 239 59 2 240 57 2 241 56 2 242 57 3 243 53 3 244 52 3 245 58 4 246 56 4 247 52 4 248 55 5 249 53 5 250 57 5 251</p>
        </triangles>
      </mesh>
    </geometry>
  </library_geometries>
  <library_visual_scenes>
    <visual_scene id="Scene" name="Scene">
      <node id="tmp_export_Cube_012" name="tmp_export_Cube.012" type="NODE">
        <matrix sid="transform">1 0 0 0 0 1 0 0 0 0 1 0 0 0 0 1</matrix>
        <instance_geometry url="#Cube_012-mesh" name="tmp_export_Cube.012">
          <bind_material>
            <technique_common>
              <instance_material symbol="chasis-material" target="#chasis-material">
                <bind_vertex_input semantic="UVMap" input_semantic="TEXCOORD" input_set="0"/>
              </instance_material>
            </technique_common>
          </bind_material>
        </instance_geometry>
      </node>
    </visual_scene>
  </library_visual_scenes>
  <scene>
    <instance_visual_scene url="#Scene"/>
  </scene>
</COLLADA>