<?xml version="1.0" encoding="utf-8"?>
<COLLADA xmlns="http://www.collada.org/2005/11/COLLADASchema" version="1.4.1" xmlns:xsi="http://www.w3.org/2001/XMLSchema-instance">
  <asset>
    <contributor>
      <author>Blender User</author>
      <authoring_tool>Blender 3.3.21 commit date:2024-07-15, commit time:08:57, hash:e016c21db151</authoring_tool>
    </contributor>
    <created>2025-04-02T13:13:33</created>
    <modified>2025-04-02T13:13:33</modified>
    <unit name="meter" meter="1"/>
    <up_axis>Z_UP</up_axis>
  </asset>
  <library_effects>
    <effect id="arm_001-effect">
      <profile_COMMON>
        <technique sid="common">
          <lambert>
            <emission>
              <color sid="emission">0 0 0 1</color>
            </emission>
            <diffuse>
              <color sid="diffuse">0.8 0.8 0.8 1</color>
            </diffuse>
            <reflectivity>
              <float sid="specular">0.5</float>
            </reflectivity>
          </lambert>
        </technique>
      </profile_COMMON>
    </effect>
  </library_effects>
  <library_images/>
  <library_materials>
    <material id="arm_001-material" name="arm.001">
      <instance_effect url="#arm_001-effect"/>
    </material>
  </library_materials>
  <library_geometries>
    <geometry id="Cube_005-mesh" name="Cube.005">
      <mesh>
        <source id="Cube_005-mesh-positions">
          <float_array id="Cube_005-mesh-positions-array" count="90">-1 -1 -1 -1 -1 1 -1 1 -1 -1 1 1 1 -1 -1 1 -1 1 1 1 -1 1 1 1 0.9798445 -0.7071067 -1 0.9798445 -0.7071067 1 0.9359518 -0.5555702 -1 0.9359518 -0.5555702 1 0.9033365 -0.3826834 -1 0.9033365 -0.3826834 1 0.8832522 -0.1950903 -1 0.8832522 -0.1950903 1 0.8764705 0 -1 0.8764705 0 1 0.8832522 0.1950903 -1 0.8832522 0.1950903 1 0.9033365 0.3826834 -1 0.9033365 0.3826834 1 0.9359518 0.5555702 -1 0.9359518 0.5555702 1 0.9798445 0.7071067 -1 0.9798445 0.7071067 1 1 -0.7539732 1 1 0.7539732 1 1 -0.7539732 -1 1 0.7539732 -1</float_array>
          <technique_common>
            <accessor source="#Cube_005-mesh-positions-array" count="30" stride="3">
              <param name="X" type="float"/>
              <param name="Y" type="float"/>
              <param name="Z" type="float"/>
            </accessor>
          </technique_common>
        </source>
        <source id="Cube_005-mesh-normals">
          <float_array id="Cube_005-mesh-normals-array" count="78">-1 0 0 0 1 0 1 0 0 0 -1 0 0 0 -1 0 0 1 0.918649 0.3950749 0 0.9605189 0.2782147 0 0.9826667 0.1853812 0 0.9943177 0.1064545 0 0.9993965 0.0347408 0 0.9993965 -0.0347408 0 0.9943176 -0.1064552 0 0.9826667 -0.1853812 0 0.9605188 -0.2782154 0 0.918649 -0.3950749 0 0 0 -1 0 0 -1 0 0 1 0 0 1 0.9186481 0.3950768 0 0.9605188 0.2782154 0 0.9943176 0.1064552 0 0.9943177 -0.1064545 0 0.9605189 -0.2782147 0 0.9186481 -0.3950768 0</float_array>
          <technique_common>
            <accessor source="#Cube_005-mesh-normals-array" count="26" stride="3">
              <param name="X" type="float"/>
              <param name="Y" type="float"/>
              <param name="Z" type="float"/>
            </accessor>
          </technique_common>
        </source>
        <source id="Cube_005-mesh-map-0">
          <float_array id="Cube_005-mesh-map-0-array" count="336">0.375 0 0.625 0.25 0.375 0.25 0.375 0.25 0.625 0.5 0.375 0.5 0.625 0.75 0.375 0.7192467 0.625 0.7192467 0.375 0.5 0.625 0.5307534 0.375 0.5307534 0.375 0.75 0.625 1 0.375 1 0.125 0.5 0.3604065 0.6006137 0.3595588 0.625 0.8750001 0.75 0.6395935 0.6493863 0.6404413 0.6250001 0.375 0.5 0.3867766 1 0.3867766 0.5 0.375 1 0.34375 0.5 0.34375 1 0.34375 1 0.3125 0.5 0.3125 1 0.3125 1 0.28125 0.5 0.28125 1 0.28125 1 0.25 0.5 0.25 1 0.25 1 0.21875 0.5 0.21875 1 0.21875 1 0.1875 0.5 0.1875 1 0.1875 1 0.15625 0.5 0.15625 1 0.15625 1 0.125 0.5 0.125 1 0.1132233 1 0.125 0.5 0.1132233 0.5 0.375 0 0.625 0 0.625 0.25 0.375 0.25 0.625 0.25 0.625 0.5 0.625 0.75 0.375 0.75 0.375 0.7192467 0.375 0.5 0.625 0.5 0.625 0.5307534 0.375 0.75 0.625 0.75 0.625 1 0.3724806 0.7133884 0.375 0.7192467 0.375 0.75 0.375 0.75 0.125 0.75 0.3724806 0.7133884 0.125 0.75 0.125 0.5 0.3595588 0.625 0.3724806 0.7133884 0.125 0.75 0.366994 0.6944463 0.125 0.5 0.375 0.5 0.3724806 0.5366117 0.375 0.5 0.375 0.5307534 0.3724806 0.5366117 0.366994 0.6944463 0.125 0.75 0.3629171 0.6728355 0.3629171 0.6728355 0.125 0.75 0.3604065 0.6493863 0.125 0.5 0.3724806 0.5366117 0.366994 0.5555537 0.125 0.5 0.366994 0.5555537 0.3629171 0.5771645 0.3604065 0.6493863 0.125 0.75 0.3595588 0.625 0.125 0.5 0.3629171 0.5771645 0.3604065 0.6006137 0.6275194 0.5366117 0.625 0.5307534 0.625 0.5 0.625 0.5 0.8750001 0.5 0.6275194 0.5366117 0.8750001 0.5 0.8750001 0.75 0.6404413 0.6250001 0.6275194 0.5366117 0.8750001 0.5 0.633006 0.5555537 0.8750001 0.75 0.625 0.75 0.6275194 0.7133883 0.625 0.75 0.625 0.7192467 0.6275194 0.7133883 0.633006 0.5555537 0.8750001 0.5 0.6370829 0.5771646 0.6370829 0.5771646 0.8750001 0.5 0.6395935 0.6006138 0.8750001 0.75 0.6275194 0.7133883 0.633006 0.6944463 0.8750001 0.75 0.633006 0.6944463 0.6370829 0.6728355 0.6395935 0.6006138 0.8750001 0.5 0.6404413 0.6250001 0.8750001 0.75 0.6370829 0.6728355 0.6395935 0.6493863 0.375 0.5 0.375 1 0.3867766 1 0.375 1 0.375 0.5 0.34375 0.5 0.34375 1 0.34375 0.5 0.3125 0.5 0.3125 1 0.3125 0.5 0.28125 0.5 0.28125 1 0.28125 0.5 0.25 0.5 0.25 1 0.25 0.5 0.21875 0.5 0.21875 1 0.21875 0.5 0.1875 0.5 0.1875 1 0.1875 0.5 0.15625 0.5 0.15625 1 0.15625 0.5 0.125 0.5 0.1132233 1 0.125 1 0.125 0.5</float_array>
          <technique_common>
            <accessor source="#Cube_005-mesh-map-0-array" count="168" stride="2">
              <param name="S" type="float"/>
              <param name="T" type="float"/>
            </accessor>
          </technique_common>
        </source>
        <vertices id="Cube_005-mesh-vertices">
          <input semantic="POSITION" source="#Cube_005-mesh-positions"/>
        </vertices>
        <triangles material="arm_001-material" count="56">
          <input semantic="VERTEX" source="#Cube_005-mesh-vertices" offset="0"/>
          <input semantic="NORMAL" source="#Cube_005-mesh-normals" offset="1"/>
          <input semantic="TEXCOORD" source="#Cube_005-mesh-map-0" offset="2" set="0"/>
          <p>0 0 0 3 0 1 2 0 2 2 1 3 7 1 4 6 1 5 5 2 6 28 2 7 26 2 8 6 2 9 27 2 10 29 2 11 4 3 12 1 3 13 0 3 14 2 4 15 18 4 16 16 4 17 1 5 18 15 5 19 17 5 20 8 6 21 26 6 22 28 6 23 9 7 24 10 7 25 11 7 26 11 8 27 12 8 28 13 8 29 13 9 30 14 9 31 15 9 32 15 10 33 16 10 34 17 10 35 17 11 36 18 11 37 19 11 38 19 12 39 20 12 40 21 12 41 21 13 42 22 13 43 23 13 44 23 14 45 24 14 46 25 14 47 27 15 48 24 15 49 29 15 50 0 0 51 1 0 52 3 0 53 2 1 54 3 1 55 7 1 56 5 2 57 4 2 58 28 2 59 6 2 60 7 2 61 27 2 62 4 3 63 5 3 64 1 3 65 8 16 66 28 16 67 4 16 68 4 16 69 0 16 70 8 16 71 0 16 72 2 16 73 16 16 74 8 16 75 0 16 76 10 16 77 2 16 78 6 16 79 24 16 80 6 16 81 29 16 82 24 16 83 10 16 84 0 16 85 12 16 86 12 16 87 0 16 88 14 16 89 2 16 90 24 16 91 22 16 92 2 16 93 22 16 94 20 16 95 14 16 96 0 16 97 16 16 98 2 17 99 20 17 100 18 17 101 25 18 102 27 18 103 7 18 104 7 18 105 3 18 106 25 18 107 3 18 108 1 18 109 17 18 110 25 18 111 3 18 112 23 18 113 1 18 114 5 18 115 9 18 116 5 18 117 26 18 118 9 18 119 23 18 120 3 18 121 21 18 122 21 18 123 3 18 124 19 18 125 1 18 126 9 18 127 11 18 128 1 18 129 11 18 130 13 18 131 19 18 132 3 18 133 17 18 134 1 19 135 13 19 136 15 19 137 8 20 138 9 20 139 26 20 140 9 21 141 8 21 142 10 21 143 11 8 144 10 8 145 12 8 146 13 22 147 12 22 148 14 22 149 15 10 150 14 10 151 16 10 152 17 11 153 16 11 154 18 11 155 19 23 156 18 23 157 20 23 158 21 13 159 20 13 160 22 13 161 23 24 162 22 24 163 24 24 164 27 25 165 25 25 166 24 25 167</p>
        </triangles>
      </mesh>
    </geometry>
  </library_geometries>
  <library_visual_scenes>
    <visual_scene id="Scene" name="Scene">
      <node id="tmp_export_Cube_005" name="tmp_export_Cube.005" type="NODE">
        <matrix sid="transform">1 0 0 0 0 1 0 0 0 0 1 0 0 0 0 1</matrix>
        <instance_geometry url="#Cube_005-mesh" name="tmp_export_Cube.005">
          <bind_material>
            <technique_common>
              <instance_material symbol="arm_001-material" target="#arm_001-material">
                <bind_vertex_input semantic="Cube_012-mesh-map-0" input_semantic="TEXCOORD" input_set="0"/>
              </instance_material>
            </technique_common>
          </bind_material>
        </instance_geometry>
      </node>
    </visual_scene>
  </library_visual_scenes>
  <scene>
    <instance_visual_scene url="#Scene"/>
  </scene>
</COLLADA>