<?xml version="1.0" encoding="utf-8"?>
<COLLADA xmlns="http://www.collada.org/2005/11/COLLADASchema" version="1.4.1" xmlns:xsi="http://www.w3.org/2001/XMLSchema-instance">
  <asset>
    <contributor>
      <author>Blender User</author>
      <authoring_tool>Blender 3.3.21 commit date:2024-07-15, commit time:08:57, hash:e016c21db151</authoring_tool>
    </contributor>
    <created>2025-04-02T13:13:34</created>
    <modified>2025-04-02T13:13:34</modified>
    <unit name="meter" meter="1"/>
    <up_axis>Z_UP</up_axis>
  </asset>
  <library_effects>
    <effect id="Material_021-effect">
      <profile_COMMON>
        <technique sid="common">
          <lambert>
            <emission>
              <color sid="emission">0 0 0 1</color>
            </emission>
            <diffuse>
              <color sid="diffuse">0.6 0.6 0.6 1</color>
            </diffuse>
            <index_of_refraction>
              <float sid="ior">1.45</float>
            </index_of_refraction>
          </lambert>
        </technique>
      </profile_COMMON>
    </effect>
  </library_effects>
  <library_images/>
  <library_materials>
    <material id="Material_021-material" name="Material.021">
      <instance_effect url="#Material_021-effect"/>
    </material>
  </library_materials>
  <library_geometries>
    <geometry id="Cube_003-mesh" name="Cube.003">
      <mesh>
        <source id="Cube_003-mesh-positions">
          <float_array id="Cube_003-mesh-positions-array" count="1035">-0.1572919 -1 -1 -1.552292 -1 -1 1.142708 0.6666667 1 -0.1572919 -1 1 0.4427081 -1 -1 -0.1572919 1 -1 -0.1572919 1 1 0.4427081 -1 1 1.181726 0.6538569 1 0.4427081 -1 -1 -1.552292 -1 1 0.4427081 -1 1 0.4427081 1 -1 0.1427084 0.6666667 1 0.4427081 1 1 1.219245 0.6159197 1 0.4427081 1 -1 0.4427081 1 1 -1.552292 1 -1 1.253822 0.5543131 1 1.442708 -1 -1 -1.552292 1 1 1.28413 0.4714045 1 1.442708 -1 1 1.309002 0.3703802 1 -1.542487 0.9238795 -1 0.1817263 0.6538569 1 1.442708 1 -1 1.327484 0.2551223 1 1.442708 1 1 1.338865 0.1300601 1 -1.542487 0.9238795 1 0.4477083 -1 -1 1.342708 0 1 -1.490621 0.8314696 -1 0.4477083 -1 1 1.338865 -0.1300601 1 -1.490621 0.8314696 1 -1.44516 0.7071068 -1 0.2192451 0.6159197 1 1.327484 -0.2551223 1 0.4477083 1 -1 -1.44516 0.7071068 1 1.309002 -0.3703802 1 -1.407851 0.5555703 -1 1.28413 -0.4714045 1 0.4477083 1 1 0.2538225 0.5543131 1 1.253822 -0.5543131 1 -1.407851 0.5555703 1 0.2841298 0.4714045 1 1.219245 -0.6159197 1 -1.380128 0.3826835 -1 0.3090023 0.3703802 1 -1.380128 0.3826835 1 1.181726 -0.6538569 1 0.3274843 0.2551223 1 1.142708 -0.6666667 1 -1.363056 0.1950903 -1 0.3388655 0.1300601 1 -1.363056 0.1950903 1 1.10369 -0.6538569 1 0.3427084 0 1 -1.357292 0 -1 1.066172 -0.6159197 1 -1.357292 0 1 1.031594 -0.5543131 1 0.3388655 -0.1300601 1 0.3274843 -0.2551223 1 -1.363056 -0.1950903 -1 1.001287 -0.4714045 1 -1.363056 -0.1950903 1 0.3090023 -0.3703802 1 0.9764144 -0.3703802 1 -1.380128 -0.3826835 -1 0.9579324 -0.2551223 1 0.2841298 -0.4714045 1 0.2538225 -0.5543131 1 0.9465513 -0.1300601 1 -1.380128 -0.3826835 1 -1.407851 -0.5555703 -1 0.2192451 -0.6159197 1 0.9427083 0 1 0.1817263 -0.6538569 1 0.9465513 0.1300601 1 -1.407851 -0.5555703 1 -1.44516 -0.7071068 -1 0.9579324 0.2551223 1 0.1427084 -0.6666667 1 -1.44516 -0.7071068 1 0.1036903 -0.6538569 1 0.9764144 0.3703802 1 -1.490621 -0.8314696 -1 0.0661717 -0.6159197 1 1.001287 0.4714045 1 0.03159433 -0.5543131 1 -1.490621 -0.8314696 1 1.031594 0.5543131 1 -1.542487 -0.9238795 -1 0.001287043 -0.4714045 1 1.066172 0.6159197 1 -0.02358543 -0.3703802 1 -1.542487 -0.9238795 1 1.10369 0.6538569 1 -0.0420674 -0.2551223 1 -0.05344855 -0.1300601 1 -0.0572915 0 1 -0.05344855 0.1300601 1 -0.0420674 0.2551223 1 -0.02358543 0.3703802 1 0.001287043 0.4714045 1 0.03159433 0.5543131 1 0.0661717 0.6159197 1 0.1036903 0.6538569 1 -0.0572915 0 -1 -0.05344855 -0.1300601 -1 -0.05344855 0.1300601 -1 -0.02358543 -0.3703802 -1 -0.0420674 -0.2551223 -1 -0.0420674 0.2551223 -1 -0.02358543 0.3703802 -1 0.1036903 -0.6538569 -1 0.1036903 0.6538569 -1 0.0661717 -0.6159197 -1 0.03159433 -0.5543131 -1 0.001287043 -0.4714045 -1 0.001287043 0.4714045 -1 0.03159433 0.5543131 -1 0.0661717 0.6159197 -1 0.1817263 -0.6538569 -1 0.1817263 0.6538569 -1 0.3427084 0 -1 0.3388655 -0.1300601 -1 0.3388655 0.1300601 -1 0.3090023 -0.3703802 -1 0.3274843 -0.2551223 -1 0.3274843 0.2551223 -1 0.3090023 0.3703802 -1 0.2192451 -0.6159197 -1 0.2538225 -0.5543131 -1 0.2841298 -0.4714045 -1 0.2841298 0.4714045 -1 0.2538225 0.5543131 -1 0.2192451 0.6159197 -1 0.1427084 0.6666667 -1 0.1427084 -0.6666667 -1 -1.552292 -0.933794 1 -1.552292 0.933794 1 -1.552292 -0.933794 -1 -1.552292 0.933794 -1 0.4427081 -0.993493 1 0.4427081 -0.9945354 1 0.4427081 -1 -0.9949999 0.4427081 -0.994969 1 0.4427081 -0.960036 1 0.4427081 -0.9690206 1 0.4427081 -0.9773033 1 0.4427081 -0.9838424 1 0.4427081 -0.9885062 1 0.4427081 -0.9915941 1 0.4427081 0.994969 1 0.4427081 0.9945354 1 0.4427081 0.993493 1 0.4427081 0.9915941 1 0.4427081 0.9885062 1 0.4427081 0.9838424 1 0.4427081 0.9773033 1 0.4427081 0.9690206 1 0.4427081 0.960036 1 0.4427081 0.9523798 1 0.4427081 -0.9523798 1 0.4427081 1 0.9949999 0.4427081 0.994969 -1 0.4427081 0.9945354 -1 0.4427081 0.993493 -1 0.4427081 0.9915941 -1 0.4427081 0.9885062 -1 0.4427081 0.9838424 -1 0.4427081 0.9773033 -1 0.4427081 0.9690206 -1 0.4427081 0.960036 -1 0.4427081 0.9523798 -1 0.4427081 -0.9523798 -1 0.4427081 -0.960036 -1 0.4427081 -0.9690206 -1 0.4427081 -0.9773033 -1 0.4427081 -0.9838424 -1 0.4427081 -0.9885062 -1 0.4427081 -0.9915941 -1 0.4427081 -0.993493 -1 0.4427081 -0.9945354 -1 0.4427081 -0.994969 -1 0.9579324 -0.2551223 -1 0.9465513 -0.1300601 -1 1.031594 -0.5543131 -1 1.001287 -0.4714045 -1 0.9764144 -0.3703802 -1 1.10369 -0.6538569 -1 1.181726 -0.6538569 -1 1.142708 -0.6666667 -1 1.219245 -0.6159197 -1 1.066172 -0.6159197 -1 1.253822 0.5543131 -1 1.342708 0 -1 1.338865 0.1300601 -1 1.327484 -0.2551223 -1 1.338865 -0.1300601 -1 1.327484 0.2551223 -1 1.253822 -0.5543131 -1 1.28413 -0.4714045 -1 1.309002 -0.3703802 -1 1.309002 0.3703802 -1 1.28413 0.4714045 -1 0.9427083 0 -1 0.9465513 0.1300601 -1 0.9579324 0.2551223 -1 0.9764144 0.3703802 -1 1.001287 0.4714045 -1 1.10369 0.6538569 -1 1.219245 0.6159197 -1 1.181726 0.6538569 -1 1.142708 0.6666667 -1 1.031594 0.5543131 -1 1.066172 0.6159197 -1 -0.1572919 -0.6294025 1 -0.1572919 -0.64686 1 -0.1572919 -1 -0.3949998 -0.1572919 -0.6689503 1 -0.1572919 -0.708409 1 -0.1572919 -0.1352167 1 -0.1572919 -0.2498859 1 -0.1572919 -0.266107 1 -0.1572919 -0.3715928 1 -0.1572919 -0.3882677 1 -0.1572919 -0.4808762 1 -0.1572919 -0.5544781 1 -0.1572919 -0.5738564 1 -0.1572919 0.708409 1 -0.1572919 0.6689503 1 -0.1572919 0.64686 1 -0.1572919 0.6294025 1 -0.1572919 0.5738564 1 -0.1572919 0.5544781 1 -0.1572919 0.4808762 1 -0.1572919 0.3882677 1 -0.1572919 0.3715928 1 -0.1572919 0.266107 1 -0.1572919 0.2498859 1 -0.1572919 0.1352167 1 -0.1572919 0.1197017 1 -0.1572919 0 1 -0.1572919 -0.1197017 1 -0.1572919 0.9964821 -1 -0.1572919 1 0.3949998 -0.1572919 0.708409 -1 -0.1572919 0.6689503 -1 -0.1572919 0.64686 -1 -0.1572919 0.6294025 -1 -0.1572919 0.5738564 -1 -0.1572919 0.5544781 -1 -0.1572919 0.4808762 -1 -0.1572919 0.3882677 -1 -0.1572919 0.3715928 -1 -0.1572919 0.266107 -1 -0.1572919 0.2498859 -1 -0.1572919 0.1352167 -1 -0.1572919 0.1197017 -1 -0.1572919 0 -1 -0.1572919 -0.1197017 -1 -0.1572919 -0.1352167 -1 -0.1572919 -0.2498859 -1 -0.1572919 -0.266107 -1 -0.1572919 -0.3715928 -1 -0.1572919 -0.3882677 -1 -0.1572919 -0.4808762 -1 -0.1572919 -0.5544781 -1 -0.1572919 -0.5738564 -1 -0.1572919 -0.6294025 -1 -0.1572919 -0.64686 -1 -0.1572919 -0.6689503 -1 -0.1572919 -0.708409 -1 0.4427081 0.994969 1 0.4427081 0.994969 1 0.4427081 1 0.9949998 0.4427081 1 0.9949999 0.4427081 0.991594 1 0.4427081 0.9934929 1 0.4427081 0.9945353 1 0.4427081 0.9600355 1 0.4427081 0.9690202 1 0.4427081 0.977303 1 0.4427081 0.9838422 1 0.4427081 0.9838423 1 0.4427081 0.9885061 1 0.4427081 -0.994969 1 0.4427081 -0.9945353 1 0.4427081 -0.9934929 1 0.4427081 -0.991594 1 0.4427081 -0.9885061 1 0.4427081 -0.9838422 1 0.4427081 -0.977303 1 0.4427081 -0.9690202 1 0.4427081 -0.9600355 1 0.4427081 -0.9523792 1 0.4427081 0.9523792 1 0.4427081 -1 -1 0.4427081 -1 -1 0.4427081 -1 -0.9949998 0.4427081 -0.994969 -1 0.4427081 -0.9945353 -1 0.4427081 -0.9934929 -1 0.4427081 -0.991594 -1 0.4427081 -0.9885061 -1 0.4427081 -0.9838422 -1 0.4427081 -0.977303 -1 0.4427081 -0.9690202 -1 0.4427081 -0.9600355 -1 0.4427081 -0.9523792 -1 0.4427081 0.9523792 -1 0.4427081 0.9600355 -1 0.4427081 0.9690202 -1 0.4427081 0.977303 -1 0.4427081 0.9838422 -1 0.4427081 0.9885061 -1 0.4427081 0.991594 -1 0.4427081 0.9934929 -1 0.4427081 0.9945353 -1 0.4427081 0.994969 -1 0.4395057 0.9893254 1 0.4376202 0.9830406 1 0.4274551 0.9491567 1 0.4315988 0.9629691 1 0.435809 0.977003 1 0.4402689 0.9918696 1 0.4405462 0.9927937 1 0.4411999 0.9949728 1 -0.1562358 0.9964795 -1 0.442708 -1 -1 0.4376202 -0.9830406 -1 0.4315988 -0.9629691 -1 0.4395057 -0.9893254 -1 0.4405462 -0.9927937 -1 0.4402689 -0.9918696 -1 0.4412091 1 0.9950037 0.442708 -1 -1</float_array>
          <technique_common>
            <accessor source="#Cube_003-mesh-positions-array" count="345" stride="3">
              <param name="X" type="float"/>
              <param name="Y" type="float"/>
              <param name="Z" type="float"/>
            </accessor>
          </technique_common>
        </source>
        <source id="Cube_003-mesh-normals">
          <float_array id="Cube_003-mesh-normals-array" count="270">-1 0 0 0 1 0 0 -1 0 0 0 1 0 0 -1 -0.7110242 -0.7031676 0 -0.8720369 -0.4894401 0 -0.9392139 -0.3433324 0 -0.9710036 -0.2390652 0 -0.9873862 -0.1583312 0 -0.9958845 -0.09063196 0 -0.9995639 -0.02953118 0 -0.9995639 0.02953243 0 -0.9958846 0.09063071 0 -0.9873863 0.1583299 0 -0.9710036 0.2390652 0 -0.9392146 0.3433309 0 -0.8720369 0.4894401 0 -0.7110242 0.7031676 0 -4.50276e-6 0 -1 -0.9392146 -0.3433309 0 -0.9873863 -0.1583299 0 -0.9958846 -0.09063071 0 -0.9995639 -0.02953243 0 -0.9995639 0.02953118 0 -0.9958845 0.09063196 0 -0.9873862 0.1583312 0 -0.9392139 0.3433324 0 2.08384e-6 0 1 -4.50276e-6 0 1 -2.25138e-6 0 1 1 0 0 8.62929e-7 0 -1 -8.21293e-7 0 -1 -2.04353e-6 0 -1 -4.08706e-6 0 -1 2.20372e-6 0 -1 -2.04353e-6 0 1 -4.08706e-6 0 1 2.20372e-6 0 1 8.62929e-7 0 1 -8.21293e-7 0 1 -0.3119226 -0.9501076 0 -0.7110153 -0.7031766 0 -0.8720398 -0.4894351 0 -0.9392121 -0.3433375 0 -0.9710048 -0.2390602 0 -0.9873862 -0.1583305 0 -0.9958848 -0.09062945 0 -0.9995638 -0.02953547 0 -0.9995639 0.02953362 0 -0.9958849 0.09062755 0 -0.9873862 0.1583305 0 -0.9710048 0.2390602 0 -0.9392121 0.3433375 0 -0.8720398 0.4894351 0 -0.7110153 0.7031766 0 -0.3119243 0.950107 0 0.3119243 0.950107 0 0.7110242 0.7031676 0 0.872034 0.4894453 0 0.9392156 0.343328 0 0.9710034 0.2390656 0 0.9873862 0.1583305 0 0.9958848 0.09062945 0 0.9995638 0.02953457 0 0.9995638 -0.02953547 0 0.9958848 -0.0906285 0 0.9873862 -0.1583305 0 0.9710037 -0.2390645 0 0.9392156 -0.343328 0 0.8720327 -0.489448 0 0.7110242 -0.7031676 0 0.3119243 -0.950107 0 -0.3119243 -0.950107 0 -0.8720383 -0.4894376 0 -0.9958849 -0.09062755 0 -0.9995639 -0.02953362 0 -0.9995638 0.02953547 0 -0.9958848 0.09062945 0 -0.8720383 0.4894376 0 -0.3119226 0.9501076 0 0.8720327 0.489448 0 0.9710037 0.2390645 0 0.9958848 0.0906285 0 0.9995638 0.02953547 0 0.9995638 -0.02953457 0 0.9958848 -0.09062945 0 0.9710034 -0.2390656 0 0.872034 -0.4894453 0</float_array>
          <technique_common>
            <accessor source="#Cube_003-mesh-normals-array" count="90" stride="3">
              <param name="X" type="float"/>
              <param name="Y" type="float"/>
              <param name="Z" type="float"/>
            </accessor>
          </technique_common>
        </source>
        <source id="Cube_003-mesh-map-0">
          <float_array id="Cube_003-mesh-map-0-array" count="4140">0.625 0.25 0.375 0.2417242 0.625 0.2417242 0.375 0 0.625 0.008275747 0.375 0.008275747 0.375 0.25 0.5493749 0.4243749 0.375 0.4243749 0.375 0.499375 0.624375 0.499375 0.624375 0.499375 0.5493749 0.4243749 0.375 0.499375 0.375 0.4243749 0.375 0.5 0.624375 0.499375 0.625 0.5 0.375625 0.750625 0.375 0.750625 0.375 0.750625 0.4506251 0.8256251 0.375 1 0.375 0.8256251 0.375 0.750625 0.375 0.750625 0.375 0.750625 0.375625 0.750625 0.375 0.8256251 0.375 0.750625 0.375 0.75 0.375625 0.750625 0.375 0.750625 0.1327089 0.7289338 0.2993749 0.7086188 0.125 0.75 0.2993749 0.7058575 0.3273079 0.7019899 0.2993749 0.7086188 0.374375 0.7440475 0.374375 0.7450045 0.374375 0.7440475 0.3613947 0.6412575 0.374375 0.7440475 0.374375 0.7450045 0.374375 0.7440475 0.375 0.75 0.374375 0.7450045 0.625625 0.7450044 0.625625 0.7440475 0.625625 0.7440475 0.625625 0.7440475 0.6386054 0.6412575 0.625625 0.7450044 0.625625 0.7440475 0.625625 0.7450045 0.625 0.75 0.8672911 0.5210664 0.7006251 0.5413812 0.8750001 0.5 0.7006251 0.5413812 0.7006251 0.5441426 0.6726921 0.5480101 0.9429446 0.5 0.9375 1 0.9429445 1 0.90625 1 0.9375 0.5 0.90625 0.5 0.8750001 1 0.90625 0.5 0.8750001 0.5 0.84375 1 0.8750001 0.5 0.84375 0.5 0.8125 1 0.84375 0.5 0.8125 0.5 0.78125 1 0.8125 0.5 0.78125 0.5 0.75 1 0.78125 0.5 0.75 0.5 0.71875 1 0.75 0.5 0.71875 0.5 0.6875 1 0.71875 0.5 0.6875 0.5 0.65625 1 0.6875 0.5 0.65625 0.5 0.625 1 0.65625 0.5 0.625 0.5 0.59375 1 0.625 0.5 0.59375 0.5 0.5625 1 0.59375 0.5 0.5625 0.5 0.5625 1 0.5570554 0.5 0.5570555 1 0.625 0.25 0.375 0.25 0.375 0.2417242 0.375 0 0.625 0 0.625 0.008275747 0.625 0.499375 0.624375 0.499375 0.624375 0.499375 0.625 0.25 0.5493749 0.4243749 0.375 0.25 0.624375 0.499375 0.6243755 0.4991876 0.624375 0.499375 0.625 0.499375 0.624375 0.499375 0.6243755 0.4991876 0.625 0.499375 0.625 0.5 0.624375 0.499375 0.4506251 0.8256251 0.625 0.8256251 0.625 1 0.375625 0.750625 0.625 0.750625 0.375625 0.750625 0.625 0.750625 0.4506251 0.8256251 0.375625 0.750625 0.625 0.75 0.375625 0.750625 0.375 0.75 0.1262256 0.5095151 0.125 0.5082758 0.125 0.5 0.374375 0.5008134 0.374375 0.5006831 0.374375 0.5006831 0.374375 0.5006831 0.3417522 0.5432679 0.336875 0.5416667 0.375 0.5 0.374375 0.5008134 0.374375 0.5006831 0.374375 0.5006831 0.374375 0.5006289 0.374375 0.5006289 0.336875 0.5416667 0.374375 0.5006289 0.374375 0.5006831 0.374375 0.5006289 0.375 0.5 0.374375 0.5006831 0.1262256 0.5095151 0.125 0.5 0.1327089 0.5210665 0.2993749 0.5364489 0.2993749 0.5 0.2993749 0.5004398 0.374375 0.5 0.374375 0.5006289 0.374375 0.5006289 0.374375 0.5006289 0.3319977 0.5432679 0.299507 0.5004401 0.2993749 0.5 0.299507 0.5004401 0.2993749 0.5004398 0.375 0.5 0.374375 0.5006289 0.374375 0.5 0.1327089 0.5210665 0.2993749 0.5413812 0.2993749 0.5441425 0.2993749 0.5441425 0.2993749 0.5413812 0.3273079 0.54801 0.2993749 0.5413812 0.125 0.5 0.2993749 0.5364489 0.3273079 0.54801 0.2993749 0.5364489 0.3319977 0.5432679 0.1383914 0.5366115 0.2993749 0.5441425 0.2993749 0.5463246 0.2993749 0.5463246 0.2993749 0.5441425 0.3273079 0.54801 0.1430551 0.5555537 0.2993749 0.5532679 0.2993749 0.5556902 0.2993749 0.5556902 0.2993749 0.5532679 0.3229857 0.5557108 0.2993749 0.5532679 0.1383914 0.5366115 0.2993749 0.5463246 0.2993749 0.5463246 0.3229857 0.5557108 0.2993749 0.5532679 0.1465204 0.5771645 0.2993749 0.5764665 0.2993749 0.5785509 0.2993749 0.5764665 0.3160883 0.5787025 0.2993749 0.5785509 0.299375 0.5648905 0.1430551 0.5555537 0.2993749 0.5556902 0.3191974 0.5660744 0.2993749 0.5556902 0.3229857 0.5557108 0.2993749 0.5764665 0.1430551 0.5555537 0.299375 0.5648905 0.3160883 0.5787025 0.299375 0.5648905 0.3191974 0.5660744 0.1486544 0.6006138 0.299375 0.5917366 0.299375 0.5937643 0.299375 0.5917366 0.3137781 0.5931097 0.299375 0.5937643 0.299375 0.5917366 0.1465204 0.5771645 0.2993749 0.5785509 0.3137781 0.5931097 0.2993749 0.5785509 0.3160883 0.5787025 0.2993749 0.6080979 0.149375 0.625 0.1486544 0.6006138 0.2993749 0.6080979 0.3123554 0.6087424 0.2993749 0.6100372 0.2993749 0.6080979 0.1486544 0.6006138 0.299375 0.5937643 0.3123554 0.6087424 0.299375 0.5937643 0.3137781 0.5931097 0.2993749 0.6419021 0.149375 0.625 0.299375 0.6399627 0.299375 0.6399627 0.3123554 0.6412575 0.2993749 0.6419021 0.2993749 0.625 0.149375 0.625 0.2993749 0.6100372 0.311875 0.625 0.2993749 0.6100372 0.3123554 0.6087424 0.1486545 0.6493865 0.2993749 0.6582634 0.1465204 0.6728355 0.2993749 0.6562358 0.313778 0.6568903 0.2993749 0.6582634 0.299375 0.6399627 0.149375 0.625 0.2993749 0.625 0.311875 0.625 0.299375 0.6399627 0.2993749 0.625 0.1465204 0.6728355 0.2993749 0.6735334 0.1430551 0.694446 0.2993749 0.6714491 0.3160883 0.6712975 0.2993749 0.6735334 0.2993749 0.6562358 0.1486545 0.6493865 0.2993749 0.6419021 0.3123554 0.6412575 0.2993749 0.6562358 0.2993749 0.6419021 0.1430551 0.694446 0.299375 0.696732 0.1383914 0.7133885 0.2993749 0.6943097 0.3229858 0.6942891 0.299375 0.696732 0.2993749 0.6714491 0.1465204 0.6728355 0.2993749 0.6582634 0.313778 0.6568903 0.2993749 0.6714491 0.2993749 0.6582634 0.1383914 0.7133885 0.2993749 0.7058575 0.1327089 0.7289338 0.2993749 0.7036753 0.3273079 0.7019899 0.2993749 0.7058575 0.2993749 0.6851095 0.1430551 0.694446 0.2993749 0.6735334 0.3160883 0.6712975 0.2993749 0.6851095 0.2993749 0.6735334 0.2993749 0.6943097 0.1430551 0.694446 0.2993749 0.6851095 0.3191973 0.6839256 0.2993749 0.6943097 0.2993749 0.6851095 0.125 0.75 0.125 0.7417243 0.1262256 0.740485 0.1262256 0.740485 0.1327089 0.7289338 0.125 0.75 0.2993749 0.7036753 0.1383914 0.7133885 0.299375 0.696732 0.3229858 0.6942891 0.2993749 0.7036753 0.299375 0.696732 0.374375 0.7493712 0.374375 0.75 0.374375 0.75 0.2993749 0.75 0.125 0.75 0.299375 0.7135512 0.374375 0.75 0.2993749 0.75 0.3741047 0.7490993 0.374375 0.75 0.374375 0.75 0.374375 0.75 0.374375 0.75 0.374375 0.7493712 0.375 0.75 0.299375 0.7135512 0.125 0.75 0.2993749 0.7086188 0.3273079 0.7019899 0.299375 0.7135512 0.2993749 0.7086188 0.374375 0.7491866 0.374375 0.7493169 0.374375 0.7491866 0.374375 0.7491866 0.3740701 0.7489838 0.3739747 0.7486657 0.3740701 0.7489838 0.3417523 0.7067322 0.3739747 0.7486657 0.374375 0.7491866 0.375 0.75 0.374375 0.7493169 0.374375 0.7493169 0.374375 0.7493712 0.374375 0.7493169 0.374375 0.7493169 0.3741047 0.7490993 0.3740701 0.7489838 0.3741047 0.7490993 0.336875 0.7083333 0.3740701 0.7489838 0.374375 0.7493169 0.375 0.75 0.374375 0.7493712 0.374375 0.5010507 0.374375 0.5008134 0.374375 0.5008134 0.3417522 0.5432679 0.374375 0.5010507 0.3464421 0.5480101 0.374375 0.5008134 0.375 0.5 0.374375 0.5010507 0.374375 0.7489493 0.374375 0.7491866 0.374375 0.7489493 0.3417523 0.7067322 0.373739 0.7478801 0.3739747 0.7486657 0.374375 0.7489493 0.3739747 0.7486657 0.373739 0.7478801 0.374375 0.7489493 0.375 0.75 0.374375 0.7491866 0.374375 0.7485633 0.374375 0.7489493 0.374375 0.7485633 0.3464421 0.70199 0.3729863 0.7453712 0.373739 0.7478801 0.373739 0.7478801 0.374375 0.7485633 0.374375 0.7489493 0.374375 0.7485633 0.375 0.75 0.374375 0.7489493 0.374375 0.5014367 0.374375 0.5010507 0.374375 0.5010507 0.3464421 0.5480101 0.374375 0.5014367 0.3507643 0.5557109 0.374375 0.5010507 0.375 0.5 0.374375 0.5014367 0.374375 0.5020197 0.374375 0.5014367 0.374375 0.5014367 0.3507643 0.5557109 0.374375 0.5020197 0.3545527 0.5660744 0.374375 0.5014367 0.375 0.5 0.374375 0.5020197 0.374375 0.7479803 0.374375 0.7485633 0.374375 0.7479803 0.374375 0.7479803 0.374375 0.7485633 0.3729863 0.7453712 0.375 0.75 0.374375 0.7485633 0.374375 0.7479803 0.374375 0.7471629 0.374375 0.7479803 0.374375 0.7471629 0.3545527 0.6839256 0.374375 0.7471629 0.374375 0.7479803 0.374375 0.7471629 0.375 0.75 0.374375 0.7479803 0.374375 0.5028371 0.374375 0.5020197 0.374375 0.5020197 0.3545527 0.5660744 0.374375 0.5028371 0.3576617 0.5787025 0.375 0.5 0.374375 0.5028371 0.374375 0.5020197 0.374375 0.5038725 0.374375 0.5028371 0.374375 0.5028371 0.3576617 0.5787025 0.374375 0.5038725 0.359972 0.5931097 0.374375 0.5028371 0.375 0.5 0.374375 0.5038725 0.374375 0.7461276 0.374375 0.7471629 0.374375 0.7461276 0.3576618 0.6712976 0.374375 0.7461276 0.374375 0.7471629 0.374375 0.7461276 0.375 0.75 0.374375 0.7471629 0.374375 0.7450045 0.374375 0.7461276 0.374375 0.7450045 0.359972 0.6568903 0.374375 0.7450045 0.374375 0.7461276 0.374375 0.7450045 0.375 0.75 0.374375 0.7461276 0.374375 0.5049955 0.374375 0.5038725 0.374375 0.5038725 0.359972 0.5931097 0.374375 0.5049955 0.3613947 0.6087424 0.374375 0.5038725 0.375 0.5 0.374375 0.5049955 0.374375 0.7440475 0.374375 0.5059525 0.374375 0.7440475 0.374375 0.7440475 0.361875 0.625 0.374375 0.5059525 0.374375 0.7440475 0.375 0.5 0.375 0.75 0.374375 0.5059525 0.374375 0.5049955 0.374375 0.5049955 0.3613947 0.6087424 0.374375 0.5059525 0.361875 0.625 0.374375 0.5049955 0.375 0.5 0.374375 0.5059525 0.625625 0.5010507 0.625625 0.5008134 0.625625 0.5010507 0.6582478 0.5432679 0.626261 0.5021199 0.6260253 0.5013343 0.625625 0.5010507 0.6260253 0.5013343 0.626261 0.5021199 0.625625 0.5008134 0.625625 0.5010507 0.625 0.5 0.625625 0.5014367 0.625625 0.5010507 0.625625 0.5014367 0.6270137 0.5046288 0.625625 0.5014367 0.6264874 0.5028746 0.625625 0.5014367 0.626261 0.5021199 0.6264874 0.5028746 0.625625 0.5010507 0.625625 0.5014367 0.625 0.5 0.625625 0.7491866 0.625625 0.7489492 0.625625 0.7489492 0.625625 0.7489492 0.6582478 0.7067321 0.625625 0.7491866 0.625625 0.7489492 0.625625 0.7491866 0.625 0.75 0.625625 0.7489492 0.625625 0.7485633 0.625625 0.7485633 0.625625 0.7485633 0.6535579 0.7019899 0.625625 0.7489492 0.625625 0.7485633 0.625625 0.7489492 0.625 0.75 0.625625 0.5014367 0.625625 0.5020197 0.625625 0.5020197 0.625625 0.5020197 0.625625 0.5020197 0.6275317 0.5063554 0.6270137 0.5046288 0.625625 0.5020197 0.625625 0.5014367 0.625625 0.5014367 0.625625 0.5020197 0.625 0.5 0.625625 0.5028371 0.625625 0.5020197 0.625625 0.5028371 0.6454473 0.5660744 0.625625 0.5028371 0.625625 0.5020197 0.625 0.5 0.625625 0.5020197 0.625625 0.5028371 0.625625 0.7485633 0.625625 0.7479803 0.625625 0.7479803 0.625625 0.7479803 0.6492357 0.6942891 0.625625 0.7485633 0.625 0.75 0.625625 0.7479803 0.625625 0.7485633 0.625625 0.7479803 0.625625 0.7471629 0.625625 0.7471629 0.625625 0.7471629 0.6454473 0.6839255 0.625625 0.7479803 0.625625 0.7471629 0.625625 0.7479803 0.625 0.75 0.625625 0.5038725 0.625625 0.5028371 0.625625 0.5038725 0.6423383 0.5787026 0.625625 0.5038725 0.625625 0.5028371 0.625625 0.5028371 0.625625 0.5038725 0.625 0.5 0.625625 0.5049955 0.625625 0.5038725 0.625625 0.5049956 0.640028 0.5931097 0.625625 0.5049956 0.625625 0.5038725 0.625625 0.5038725 0.625625 0.5049955 0.625 0.5 0.625625 0.7471629 0.6256251 0.7461276 0.6256251 0.7461276 0.6256251 0.7461276 0.6423383 0.6712976 0.625625 0.7471629 0.6256251 0.7461276 0.625625 0.7471629 0.625 0.75 0.6256251 0.7461276 0.625625 0.7450045 0.625625 0.7450044 0.625625 0.7450044 0.640028 0.6568903 0.6256251 0.7461276 0.625625 0.7450045 0.6256251 0.7461276 0.625 0.75 0.625625 0.7440475 0.625625 0.5059525 0.625625 0.5059526 0.625625 0.7440475 0.625625 0.5059526 0.638125 0.625 0.625 0.5 0.625625 0.7440475 0.625 0.75 0.625625 0.5059525 0.625625 0.5049956 0.625625 0.5059526 0.6386054 0.6087425 0.625625 0.5059526 0.625625 0.5049956 0.625625 0.5049955 0.625625 0.5059525 0.625 0.5 0.8737744 0.740485 0.8750001 0.7417243 0.8750001 0.75 0.625625 0.7493169 0.625625 0.7491866 0.625625 0.7491866 0.6582478 0.7067321 0.625625 0.7493169 0.625625 0.7491866 0.625625 0.7491866 0.625625 0.7493169 0.625 0.75 0.625625 0.7493712 0.625625 0.7493169 0.625625 0.7493169 0.663125 0.7083334 0.625625 0.7493712 0.625625 0.7493169 0.625625 0.7493169 0.625625 0.7493712 0.625 0.75 0.8737744 0.740485 0.8750001 0.75 0.8672913 0.7289337 0.8750001 0.75 0.625625 0.7493712 0.625625 0.7493712 0.7006251 0.75 0.7006251 0.7135512 0.8750001 0.75 0.7006251 0.75 0.625625 0.7493712 0.6680023 0.7067322 0.625625 0.75 0.625 0.75 0.625625 0.7493712 0.700625 0.7086188 0.8672913 0.7289337 0.8750001 0.75 0.7006251 0.7058575 0.700625 0.7086188 0.6726921 0.70199 0.7006251 0.7135512 0.700625 0.7086188 0.8750001 0.75 0.6726921 0.70199 0.7006251 0.7135512 0.6680023 0.7067322 0.7006251 0.7058575 0.8616085 0.7133885 0.8672913 0.7289337 0.700625 0.7036754 0.7006251 0.7058575 0.6726921 0.70199 0.700625 0.6967321 0.8569448 0.6944461 0.8616085 0.7133885 0.6770142 0.6942891 0.700625 0.6943097 0.700625 0.6967321 0.700625 0.7036754 0.700625 0.6967321 0.8616085 0.7133885 0.6770142 0.6942891 0.700625 0.7036754 0.6726921 0.70199 0.700625 0.6735334 0.8534794 0.6728354 0.8569448 0.6944461 0.700625 0.6714491 0.700625 0.6735334 0.6839117 0.6712975 0.700625 0.6943097 0.7006251 0.6851095 0.8569448 0.6944461 0.700625 0.6943097 0.6808027 0.6839256 0.7006251 0.6851095 0.7006251 0.6851095 0.700625 0.6735334 0.8569448 0.6944461 0.6839117 0.6712975 0.7006251 0.6851095 0.6808027 0.6839256 0.700625 0.6582634 0.8513457 0.6493865 0.8534794 0.6728354 0.7006251 0.6562358 0.700625 0.6582634 0.686222 0.6568903 0.700625 0.6714491 0.700625 0.6582634 0.8534794 0.6728354 0.686222 0.6568903 0.700625 0.6714491 0.6839117 0.6712975 0.850625 0.625 0.7006251 0.6419021 0.7006251 0.6399627 0.7006251 0.6399627 0.7006251 0.6419021 0.6876446 0.6412575 0.7006251 0.6562358 0.7006251 0.6419021 0.8513457 0.6493865 0.6876446 0.6412575 0.7006251 0.6562358 0.686222 0.6568903 0.700625 0.6080979 0.850625 0.625 0.7006251 0.6100373 0.700625 0.6080979 0.7006251 0.6100373 0.6876446 0.6087425 0.7006251 0.6399627 0.700625 0.625 0.850625 0.625 0.688125 0.625 0.7006251 0.6399627 0.6876446 0.6412575 0.8513457 0.6006138 0.700625 0.5917366 0.8534795 0.5771644 0.700625 0.5917366 0.700625 0.5937643 0.6862219 0.5931097 0.700625 0.625 0.7006251 0.6100373 0.850625 0.625 0.7006251 0.6100373 0.688125 0.625 0.6876446 0.6087425 0.8534795 0.5771644 0.700625 0.5764666 0.8569447 0.5555536 0.700625 0.5764666 0.700625 0.5785509 0.6839117 0.5787025 0.700625 0.6080979 0.700625 0.5937643 0.8513457 0.6006138 0.700625 0.5937643 0.6876446 0.6087425 0.6862219 0.5931097 0.8569447 0.5555536 0.7006251 0.5532679 0.8616085 0.5366116 0.7006251 0.5532679 0.700625 0.5556902 0.6770142 0.5557108 0.700625 0.5917366 0.700625 0.5785509 0.8534795 0.5771644 0.700625 0.5785509 0.6862219 0.5931097 0.6839117 0.5787025 0.8616085 0.5366116 0.7006251 0.5441426 0.8672911 0.5210664 0.7006251 0.5441426 0.7006251 0.5463247 0.6726921 0.5480101 0.700625 0.5764666 0.700625 0.5648905 0.8569447 0.5555536 0.700625 0.5648905 0.6839117 0.5787025 0.6808027 0.5660744 0.700625 0.5648905 0.700625 0.5556902 0.8569447 0.5555536 0.6808027 0.5660744 0.700625 0.5556902 0.700625 0.5648905 0.8750001 0.5 0.8750001 0.5082758 0.8737745 0.5095152 0.8737745 0.5095152 0.8672911 0.5210664 0.8750001 0.5 0.7006251 0.5532679 0.7006251 0.5463247 0.8616085 0.5366116 0.7006251 0.5463247 0.6770142 0.5557108 0.6726921 0.5480101 0.625625 0.5006289 0.625625 0.5 0.625625 0.5 0.7006251 0.5 0.8750001 0.5 0.700625 0.5364489 0.625625 0.5006289 0.625625 0.5006289 0.6258136 0.5006284 0.6258953 0.5009008 0.625625 0.5006289 0.6258136 0.5006284 0.625 0.5 0.625625 0.5 0.625625 0.5006289 0.7006251 0.5413812 0.700625 0.5364489 0.8750001 0.5 0.700625 0.5364489 0.6726921 0.5480101 0.6680022 0.5432679 0.625625 0.5008134 0.625625 0.5006831 0.625625 0.5008134 0.6582478 0.5432679 0.62593 0.5010163 0.663125 0.5416667 0.625625 0.5008134 0.62593 0.5010163 0.6260253 0.5013343 0.625 0.5 0.625625 0.5006831 0.625625 0.5008134 0.625625 0.5006831 0.625625 0.5006289 0.625625 0.5006831 0.625625 0.5006831 0.6258953 0.5009008 0.62593 0.5010163 0.6258953 0.5009008 0.663125 0.5416667 0.62593 0.5010163 0.625625 0.5006289 0.625625 0.5006831 0.625 0.5 0.9429446 0.5 0.9375 0.5 0.9375 1 0.90625 1 0.9375 1 0.9375 0.5 0.8750001 1 0.90625 1 0.90625 0.5 0.84375 1 0.8750001 1 0.8750001 0.5 0.8125 1 0.84375 1 0.84375 0.5 0.78125 1 0.8125 1 0.8125 0.5 0.75 1 0.78125 1 0.78125 0.5 0.71875 1 0.75 1 0.75 0.5 0.6875 1 0.71875 1 0.71875 0.5 0.65625 1 0.6875 1 0.6875 0.5 0.625 1 0.65625 1 0.65625 0.5 0.59375 1 0.625 1 0.625 0.5 0.5625 1 0.59375 1 0.59375 0.5 0.5625 1 0.5625 0.5 0.5570554 0.5 0.375 0.499375 0.375 0.499375 0.624375 0.499375 0.5493749 0.4243749 0.624375 0.499375 0.375 0.499375 0.375 0.5 0.375 0.499375 0.624375 0.499375 0.375 0.750625 0.375 0.750625 0.375625 0.750625 0.375625 0.750625 0.375625 0.750625 0.375 0.750625 0.4506251 0.8256251 0.625 1 0.375 1 0.375 0.750625 0.375 0.750625 0.375625 0.750625 0.375625 0.750625 0.4506251 0.8256251 0.375 0.8256251 0.375 0.8256251 0.375 0.750625 0.375 0.750625 0.1327089 0.7289338 0.2993749 0.7058575 0.2993749 0.7086188 0.374375 0.7440475 0.374375 0.7450045 0.374375 0.7450045 0.3613947 0.6412575 0.361875 0.625 0.374375 0.7440475 0.625625 0.7450044 0.625625 0.7450045 0.625625 0.7440475 0.625625 0.7440475 0.638125 0.625 0.6386054 0.6412575 0.8672911 0.5210664 0.7006251 0.5441426 0.7006251 0.5413812 0.624375 0.499375 0.625 0.499375 0.625 0.499375 0.625 0.499375 0.624375 0.499375 0.624375 0.499375 0.625 0.25 0.625 0.4243749 0.5493749 0.4243749 0.6243755 0.4991876 0.624375 0.499375 0.5493749 0.4243749 0.5493749 0.4243749 0.625 0.4243749 0.6243755 0.4991876 0.625 0.4243749 0.625 0.499375 0.6243755 0.4991876 0.375625 0.750625 0.625 0.750625 0.625 0.750625 0.625 0.750625 0.625 0.8256251 0.4506251 0.8256251 0.625 0.75 0.625 0.750625 0.375625 0.750625 0.374375 0.5008134 0.374375 0.5008134 0.374375 0.5006831 0.374375 0.5006831 0.374375 0.5008134 0.3417522 0.5432679 0.374375 0.5006831 0.374375 0.5006831 0.374375 0.5006289 0.336875 0.5416667 0.3319977 0.5432679 0.374375 0.5006289 0.2993749 0.5364489 0.125 0.5 0.2993749 0.5 0.374375 0.5 0.374375 0.5 0.374375 0.5006289 0.3319977 0.5432679 0.2993749 0.5364489 0.299507 0.5004401 0.2993749 0.5364489 0.2993749 0.5004398 0.299507 0.5004401 0.299507 0.5004401 0.2993749 0.5 0.374375 0.5 0.374375 0.5 0.374375 0.5006289 0.299507 0.5004401 0.1327089 0.5210665 0.125 0.5 0.2993749 0.5413812 0.3273079 0.54801 0.2993749 0.5413812 0.2993749 0.5364489 0.1383914 0.5366115 0.1327089 0.5210665 0.2993749 0.5441425 0.1430551 0.5555537 0.1383914 0.5366115 0.2993749 0.5532679 0.2993749 0.5463246 0.3273079 0.54801 0.3229857 0.5557108 0.1465204 0.5771645 0.1430551 0.5555537 0.2993749 0.5764665 0.3191974 0.5660744 0.299375 0.5648905 0.2993749 0.5556902 0.3160883 0.5787025 0.2993749 0.5764665 0.299375 0.5648905 0.1486544 0.6006138 0.1465204 0.5771645 0.299375 0.5917366 0.3137781 0.5931097 0.299375 0.5917366 0.2993749 0.5785509 0.2993749 0.6080979 0.2993749 0.6100372 0.149375 0.625 0.3123554 0.6087424 0.2993749 0.6080979 0.299375 0.5937643 0.2993749 0.6419021 0.1486545 0.6493865 0.149375 0.625 0.311875 0.625 0.2993749 0.625 0.2993749 0.6100372 0.1486545 0.6493865 0.2993749 0.6562358 0.2993749 0.6582634 0.311875 0.625 0.3123554 0.6412575 0.299375 0.6399627 0.1465204 0.6728355 0.2993749 0.6714491 0.2993749 0.6735334 0.3123554 0.6412575 0.313778 0.6568903 0.2993749 0.6562358 0.1430551 0.694446 0.2993749 0.6943097 0.299375 0.696732 0.313778 0.6568903 0.3160883 0.6712975 0.2993749 0.6714491 0.1383914 0.7133885 0.2993749 0.7036753 0.2993749 0.7058575 0.3160883 0.6712975 0.3191973 0.6839256 0.2993749 0.6851095 0.3191973 0.6839256 0.3229858 0.6942891 0.2993749 0.6943097 0.3229858 0.6942891 0.3273079 0.7019899 0.2993749 0.7036753 0.374375 0.75 0.374375 0.7493712 0.374375 0.7493712 0.374375 0.7493712 0.374375 0.75 0.374375 0.75 0.374375 0.75 0.374375 0.75 0.2993749 0.75 0.2993749 0.75 0.299375 0.7135512 0.3319978 0.7067322 0.3319978 0.7067322 0.3741047 0.7490993 0.2993749 0.75 0.3741047 0.7490993 0.374375 0.7493712 0.374375 0.75 0.374375 0.7493712 0.374375 0.75 0.374375 0.75 0.3273079 0.7019899 0.3319978 0.7067322 0.299375 0.7135512 0.374375 0.7491866 0.374375 0.7493169 0.374375 0.7493169 0.374375 0.7491866 0.374375 0.7493169 0.3740701 0.7489838 0.3740701 0.7489838 0.336875 0.7083333 0.3417523 0.7067322 0.374375 0.7493169 0.374375 0.7493712 0.374375 0.7493712 0.374375 0.7493169 0.374375 0.7493712 0.3741047 0.7490993 0.3741047 0.7490993 0.3319978 0.7067322 0.336875 0.7083333 0.374375 0.5010507 0.374375 0.5010507 0.374375 0.5008134 0.3417522 0.5432679 0.374375 0.5008134 0.374375 0.5010507 0.374375 0.7489493 0.374375 0.7491866 0.374375 0.7491866 0.3417523 0.7067322 0.3464421 0.70199 0.373739 0.7478801 0.374375 0.7489493 0.374375 0.7491866 0.3739747 0.7486657 0.374375 0.7485633 0.374375 0.7489493 0.374375 0.7489493 0.3464421 0.70199 0.3507643 0.6942891 0.3729863 0.7453712 0.373739 0.7478801 0.3729863 0.7453712 0.374375 0.7485633 0.374375 0.5014367 0.374375 0.5014367 0.374375 0.5010507 0.3464421 0.5480101 0.374375 0.5010507 0.374375 0.5014367 0.374375 0.5020197 0.374375 0.5020197 0.374375 0.5014367 0.3507643 0.5557109 0.374375 0.5014367 0.374375 0.5020197 0.374375 0.7479803 0.374375 0.7485633 0.374375 0.7485633 0.3507643 0.6942891 0.3545527 0.6839256 0.3729863 0.7453712 0.3545527 0.6839256 0.374375 0.7479803 0.3729863 0.7453712 0.374375 0.7471629 0.374375 0.7479803 0.374375 0.7479803 0.3545527 0.6839256 0.3576618 0.6712976 0.374375 0.7471629 0.374375 0.5028371 0.374375 0.5028371 0.374375 0.5020197 0.3545527 0.5660744 0.374375 0.5020197 0.374375 0.5028371 0.374375 0.5038725 0.374375 0.5038725 0.374375 0.5028371 0.3576617 0.5787025 0.374375 0.5028371 0.374375 0.5038725 0.374375 0.7461276 0.374375 0.7471629 0.374375 0.7471629 0.3576618 0.6712976 0.359972 0.6568903 0.374375 0.7461276 0.374375 0.7450045 0.374375 0.7461276 0.374375 0.7461276 0.359972 0.6568903 0.3613947 0.6412575 0.374375 0.7450045 0.374375 0.5049955 0.374375 0.5049955 0.374375 0.5038725 0.359972 0.5931097 0.374375 0.5038725 0.374375 0.5049955 0.374375 0.7440475 0.374375 0.5059525 0.374375 0.5059525 0.374375 0.7440475 0.374375 0.5059525 0.375 0.5 0.374375 0.5059525 0.374375 0.5059525 0.374375 0.5049955 0.3613947 0.6087424 0.374375 0.5049955 0.374375 0.5059525 0.625625 0.5010507 0.625625 0.5008134 0.625625 0.5008134 0.6582478 0.5432679 0.6535578 0.54801 0.626261 0.5021199 0.625625 0.5010507 0.625625 0.5008134 0.6260253 0.5013343 0.625625 0.5014367 0.625625 0.5010507 0.625625 0.5010507 0.626261 0.5021199 0.6535578 0.54801 0.6264874 0.5028746 0.6535578 0.54801 0.6492357 0.5557108 0.6270137 0.5046288 0.6264874 0.5028746 0.6535578 0.54801 0.6270137 0.5046288 0.625625 0.5014367 0.625625 0.5010507 0.626261 0.5021199 0.625625 0.7491866 0.625625 0.7491866 0.625625 0.7489492 0.625625 0.7489492 0.6535579 0.7019899 0.6582478 0.7067321 0.625625 0.7489492 0.625625 0.7489492 0.625625 0.7485633 0.625625 0.7485633 0.6492357 0.6942891 0.6535579 0.7019899 0.625625 0.5020197 0.625625 0.5020197 0.625625 0.5014367 0.625625 0.5014367 0.625625 0.5014367 0.625625 0.5020197 0.6275317 0.5063554 0.6270137 0.5046288 0.6492357 0.5557108 0.6492357 0.5557108 0.6454473 0.5660744 0.6275317 0.5063554 0.6454473 0.5660744 0.625625 0.5020197 0.6275317 0.5063554 0.6270137 0.5046288 0.6275317 0.5063554 0.625625 0.5020197 0.625625 0.5028371 0.625625 0.5020197 0.625625 0.5020197 0.6454473 0.5660744 0.6423383 0.5787026 0.625625 0.5028371 0.625625 0.7485633 0.625625 0.7485633 0.625625 0.7479803 0.625625 0.7479803 0.6454473 0.6839255 0.6492357 0.6942891 0.625625 0.7479803 0.625625 0.7479803 0.625625 0.7471629 0.625625 0.7471629 0.6423383 0.6712976 0.6454473 0.6839255 0.625625 0.5038725 0.625625 0.5028371 0.625625 0.5028371 0.6423383 0.5787026 0.640028 0.5931097 0.625625 0.5038725 0.625625 0.5049955 0.625625 0.5038725 0.625625 0.5038725 0.640028 0.5931097 0.6386054 0.6087425 0.625625 0.5049956 0.625625 0.7471629 0.625625 0.7471629 0.6256251 0.7461276 0.6256251 0.7461276 0.640028 0.6568903 0.6423383 0.6712976 0.6256251 0.7461276 0.6256251 0.7461276 0.625625 0.7450045 0.625625 0.7450044 0.6386054 0.6412575 0.640028 0.6568903 0.625625 0.7440475 0.625625 0.7440475 0.625625 0.5059525 0.625 0.5 0.625625 0.5059525 0.625625 0.7440475 0.625625 0.5059525 0.625625 0.5049955 0.625625 0.5049956 0.6386054 0.6087425 0.638125 0.625 0.625625 0.5059526 0.625625 0.7493169 0.625625 0.7493169 0.625625 0.7491866 0.6582478 0.7067321 0.663125 0.7083334 0.625625 0.7493169 0.625625 0.7493712 0.625625 0.7493712 0.625625 0.7493169 0.663125 0.7083334 0.6680023 0.7067322 0.625625 0.7493712 0.8750001 0.75 0.625625 0.75 0.625625 0.7493712 0.6680023 0.7067322 0.7006251 0.7135512 0.7006251 0.75 0.7006251 0.75 0.625625 0.75 0.625625 0.7493712 0.700625 0.7086188 0.7006251 0.7058575 0.8672913 0.7289337 0.6726921 0.70199 0.700625 0.7086188 0.7006251 0.7135512 0.7006251 0.7058575 0.700625 0.7036754 0.8616085 0.7133885 0.700625 0.6967321 0.700625 0.6943097 0.8569448 0.6944461 0.6770142 0.6942891 0.700625 0.6967321 0.700625 0.7036754 0.700625 0.6735334 0.700625 0.6714491 0.8534794 0.6728354 0.700625 0.6943097 0.6770142 0.6942891 0.6808027 0.6839256 0.6839117 0.6712975 0.700625 0.6735334 0.7006251 0.6851095 0.700625 0.6582634 0.7006251 0.6562358 0.8513457 0.6493865 0.686222 0.6568903 0.700625 0.6582634 0.700625 0.6714491 0.850625 0.625 0.8513457 0.6493865 0.7006251 0.6419021 0.6876446 0.6412575 0.7006251 0.6419021 0.7006251 0.6562358 0.700625 0.6080979 0.8513457 0.6006138 0.850625 0.625 0.688125 0.625 0.700625 0.625 0.7006251 0.6399627 0.8513457 0.6006138 0.700625 0.5937643 0.700625 0.5917366 0.7006251 0.6100373 0.700625 0.625 0.688125 0.625 0.8534795 0.5771644 0.700625 0.5785509 0.700625 0.5764666 0.700625 0.5937643 0.700625 0.6080979 0.6876446 0.6087425 0.8569447 0.5555536 0.700625 0.5556902 0.7006251 0.5532679 0.700625 0.5785509 0.700625 0.5917366 0.6862219 0.5931097 0.8616085 0.5366116 0.7006251 0.5463247 0.7006251 0.5441426 0.700625 0.5648905 0.700625 0.5764666 0.6839117 0.5787025 0.6808027 0.5660744 0.6770142 0.5557108 0.700625 0.5556902 0.7006251 0.5463247 0.7006251 0.5532679 0.6770142 0.5557108 0.625625 0.5 0.625625 0.5006289 0.625625 0.5006289 0.625625 0.5006289 0.625625 0.5006289 0.625625 0.5 0.6258136 0.5006284 0.625625 0.5006289 0.625625 0.5 0.625625 0.5 0.7006251 0.5 0.6258136 0.5006284 0.7006251 0.5 0.700625 0.5364489 0.6680022 0.5432679 0.6258136 0.5006284 0.7006251 0.5 0.6258953 0.5009008 0.6680022 0.5432679 0.6258953 0.5009008 0.7006251 0.5 0.700625 0.5364489 0.7006251 0.5413812 0.6726921 0.5480101 0.625625 0.5008134 0.625625 0.5006831 0.625625 0.5006831 0.6582478 0.5432679 0.6260253 0.5013343 0.62593 0.5010163 0.625625 0.5008134 0.625625 0.5006831 0.62593 0.5010163 0.625625 0.5006831 0.625625 0.5006289 0.625625 0.5006289 0.625625 0.5006831 0.625625 0.5006289 0.6258953 0.5009008 0.6258953 0.5009008 0.6680022 0.5432679 0.663125 0.5416667 0.375 0.5 0.625 0.25125 0.625 0.5 0.625 0.5 0.375 0.75 0.375 0.5 0.375 0.75 0.625 0.99875 0.375 0.99875 0.12625 0.5 0.2509608 0.6087425 0.25 0.625 0.375 0.75 0.3490393 0.6412575 0.35 0.625 0.65 0.625 0.6509607 0.6412575 0.625 0.75 0.87375 0.75 0.7490392 0.6412575 0.7499999 0.625 0.2962976 0.6942891 0.2818905 0.70199 0.2037026 0.6942892 0.7962973 0.6942891 0.7818901 0.7019899 0.7037025 0.6942892 0.375 0.5 0.375 0.25125 0.625 0.25125 0.625 0.5 0.625 0.75 0.375 0.75 0.375 0.75 0.625 0.75 0.625 0.99875 0.3 0.7083333 0.3097546 0.7067321 0.375 0.75 0.12625 0.5 0.375 0.5 0.2902455 0.5432679 0.375 0.5 0.3097546 0.5432679 0.3 0.5416666 0.375 0.5 0.3 0.5416666 0.2902455 0.5432679 0.3 0.7083333 0.375 0.75 0.2902455 0.7067321 0.375 0.75 0.12625 0.75 0.2902455 0.7067321 0.12625 0.5 0.2902455 0.5432679 0.2808659 0.54801 0.2808659 0.70199 0.2902455 0.7067321 0.12625 0.75 0.2722215 0.694289 0.2808659 0.70199 0.12625 0.75 0.12625 0.5 0.2808659 0.54801 0.2722216 0.5557109 0.12625 0.5 0.2722216 0.5557109 0.2646447 0.5660744 0.2722215 0.694289 0.12625 0.75 0.2646447 0.6839256 0.12625 0.75 0.12625 0.5 0.25 0.625 0.2646447 0.6839256 0.12625 0.75 0.2584266 0.6712975 0.2584266 0.6712975 0.12625 0.75 0.2538061 0.6568903 0.12625 0.5 0.2646447 0.5660744 0.2584266 0.5787025 0.12625 0.5 0.2584266 0.5787025 0.2538061 0.5931096 0.2538061 0.6568903 0.12625 0.75 0.2509608 0.6412575 0.2509608 0.6412575 0.12625 0.75 0.25 0.625 0.12625 0.5 0.2538061 0.5931096 0.2509608 0.6087425 0.3191342 0.54801 0.3097546 0.5432679 0.375 0.5 0.375 0.75 0.3097546 0.7067321 0.3191342 0.70199 0.375 0.75 0.3191342 0.70199 0.3277785 0.6942891 0.3277785 0.5557109 0.3191342 0.54801 0.375 0.5 0.3353554 0.5660744 0.3277785 0.5557109 0.375 0.5 0.375 0.75 0.3277785 0.6942891 0.3353554 0.6839255 0.375 0.75 0.3353554 0.6839255 0.3415735 0.6712976 0.3415735 0.5787025 0.3353554 0.5660744 0.375 0.5 0.346194 0.5931097 0.3415735 0.5787025 0.375 0.5 0.375 0.75 0.3415735 0.6712976 0.346194 0.6568902 0.375 0.75 0.346194 0.6568902 0.3490393 0.6412575 0.346194 0.5931097 0.375 0.5 0.3490393 0.6087424 0.375 0.5 0.375 0.75 0.35 0.625 0.3490393 0.6087424 0.375 0.5 0.35 0.625 0.625 0.5 0.6902455 0.5432679 0.6808658 0.54801 0.625 0.5 0.6808658 0.54801 0.6722215 0.5557109 0.6808658 0.70199 0.6902454 0.7067321 0.625 0.75 0.6722214 0.6942891 0.6808658 0.70199 0.625 0.75 0.625 0.5 0.6722215 0.5557109 0.6646446 0.5660744 0.625 0.5 0.6646446 0.5660744 0.6584265 0.5787025 0.6646447 0.6839255 0.6722214 0.6942891 0.625 0.75 0.6584265 0.6712975 0.6646447 0.6839255 0.625 0.75 0.625 0.5 0.6584265 0.5787025 0.653806 0.5931098 0.625 0.5 0.653806 0.5931098 0.6509607 0.6087425 0.653806 0.6568903 0.6584265 0.6712975 0.625 0.75 0.6509607 0.6412575 0.653806 0.6568903 0.625 0.75 0.625 0.75 0.625 0.5 0.65 0.625 0.625 0.5 0.6509607 0.6087425 0.65 0.625 0.6999999 0.5416666 0.6902455 0.5432679 0.625 0.5 0.87375 0.75 0.625 0.75 0.7097545 0.7067321 0.625 0.75 0.6902454 0.7067321 0.6999999 0.7083333 0.625 0.75 0.6999999 0.7083333 0.7097545 0.7067321 0.6999999 0.5416666 0.625 0.5 0.7097544 0.5432679 0.625 0.5 0.87375 0.5 0.7097544 0.5432679 0.87375 0.75 0.7097545 0.7067321 0.7191341 0.70199 0.7191341 0.54801 0.7097544 0.5432679 0.87375 0.5 0.7277784 0.5557109 0.7191341 0.54801 0.87375 0.5 0.87375 0.75 0.7191341 0.70199 0.7277784 0.6942891 0.87375 0.75 0.7277784 0.6942891 0.7353553 0.6839256 0.7277784 0.5557109 0.87375 0.5 0.7353553 0.5660744 0.87375 0.5 0.87375 0.75 0.7499999 0.625 0.7353553 0.5660744 0.87375 0.5 0.7415735 0.5787025 0.7415735 0.5787025 0.87375 0.5 0.746194 0.5931097 0.87375 0.75 0.7353553 0.6839256 0.7415734 0.6712975 0.87375 0.75 0.7415734 0.6712975 0.746194 0.6568903 0.746194 0.5931097 0.87375 0.5 0.7490392 0.6087425 0.7490392 0.6087425 0.87375 0.5 0.7499999 0.625 0.87375 0.75 0.746194 0.6568903 0.7490392 0.6412575 0.2662577 0.7067322 0.2500002 0.7083334 0.2337426 0.7067321 0.2337426 0.7067321 0.2181098 0.7019899 0.2662577 0.7067322 0.2181098 0.7019899 0.2037026 0.6942892 0.2818905 0.70199 0.2662577 0.7067322 0.2181098 0.7019899 0.2818905 0.70199 0.2037026 0.6942892 0.1910746 0.6839256 0.3089257 0.6839255 0.1910746 0.6839256 0.180711 0.6712975 0.3192893 0.6712975 0.180711 0.6712975 0.1730102 0.6568903 0.3192893 0.6712975 0.1730102 0.6568903 0.168268 0.6412575 0.3269901 0.6568903 0.3192893 0.6712975 0.1730102 0.6568903 0.3269901 0.6568903 0.168268 0.6412575 0.1666668 0.625 0.3333334 0.625 0.1666668 0.625 0.168268 0.6087425 0.3317323 0.6087425 0.168268 0.6087425 0.1730102 0.5931097 0.3317323 0.6087425 0.1730102 0.5931097 0.180711 0.5787026 0.3269901 0.5931097 0.3317323 0.6087425 0.1730102 0.5931097 0.3269901 0.5931097 0.180711 0.5787026 0.1910746 0.5660744 0.3089257 0.5660745 0.1910746 0.5660744 0.2037026 0.5557109 0.2962976 0.5557109 0.2037026 0.5557109 0.2181099 0.5480101 0.2962976 0.5557109 0.2181099 0.5480101 0.2337426 0.5432679 0.2818905 0.54801 0.2962976 0.5557109 0.2181099 0.5480101 0.2818905 0.54801 0.2337426 0.5432679 0.2500001 0.5416667 0.2662577 0.5432679 0.2662577 0.5432679 0.2818905 0.54801 0.2337426 0.5432679 0.2962976 0.5557109 0.3089257 0.5660745 0.1910746 0.5660744 0.3089257 0.5660745 0.3192893 0.5787025 0.180711 0.5787026 0.3192893 0.5787025 0.3269901 0.5931097 0.180711 0.5787026 0.3317323 0.6087425 0.3333334 0.625 0.1666668 0.625 0.3333334 0.625 0.3317323 0.6412575 0.168268 0.6412575 0.3317323 0.6412575 0.3269901 0.6568903 0.168268 0.6412575 0.3192893 0.6712975 0.3089257 0.6839255 0.1910746 0.6839256 0.3089257 0.6839255 0.2962976 0.6942891 0.2037026 0.6942892 0.7662574 0.7067321 0.7499998 0.7083333 0.7337423 0.7067321 0.7337423 0.7067321 0.7181096 0.70199 0.7662574 0.7067321 0.7181096 0.70199 0.7037025 0.6942892 0.7818901 0.7019899 0.7662574 0.7067321 0.7181096 0.70199 0.7818901 0.7019899 0.7037025 0.6942892 0.6910743 0.6839255 0.8089254 0.6839256 0.6910743 0.6839255 0.6807108 0.6712976 0.819289 0.6712975 0.6807108 0.6712976 0.6730099 0.6568903 0.819289 0.6712975 0.6730099 0.6568903 0.6682677 0.6412575 0.8269898 0.6568903 0.819289 0.6712975 0.6730099 0.6568903 0.8269898 0.6568903 0.6682677 0.6412575 0.6666666 0.6250001 0.8333332 0.625 0.6666666 0.6250001 0.6682677 0.6087425 0.8317319 0.6087425 0.6682677 0.6087425 0.6730099 0.5931097 0.8317319 0.6087425 0.6730099 0.5931097 0.6807108 0.5787025 0.8269898 0.5931097 0.8317319 0.6087425 0.6730099 0.5931097 0.8269898 0.5931097 0.6807108 0.5787025 0.6910743 0.5660744 0.8089254 0.5660745 0.6910743 0.5660744 0.7037023 0.5557109 0.7962973 0.5557109 0.7037023 0.5557109 0.7181095 0.5480101 0.7962973 0.5557109 0.7181095 0.5480101 0.7337423 0.5432679 0.7818901 0.54801 0.7962973 0.5557109 0.7181095 0.5480101 0.7818901 0.54801 0.7337423 0.5432679 0.7499998 0.5416667 0.7662574 0.5432679 0.7662574 0.5432679 0.7818901 0.54801 0.7337423 0.5432679 0.7962973 0.5557109 0.8089254 0.5660745 0.6910743 0.5660744 0.8089254 0.5660745 0.8192891 0.5787025 0.6807108 0.5787025 0.8192891 0.5787025 0.8269898 0.5931097 0.6807108 0.5787025 0.8317319 0.6087425 0.8333332 0.625 0.6666666 0.6250001 0.8333332 0.625 0.8317319 0.6412575 0.6682677 0.6412575 0.8317319 0.6412575 0.8269898 0.6568903 0.6682677 0.6412575 0.819289 0.6712975 0.8089254 0.6839256 0.6910743 0.6839255 0.8089254 0.6839256 0.7962973 0.6942891 0.7037025 0.6942892 0.96875 1 1 0.8333334 0.96875 0.8333333 0.9375 1 0.96875 0.8333333 0.9375 0.8333334 0.90625 0.8333334 0.9375 1 0.9375 0.8333334 0.8750001 1 0.90625 0.8333334 0.8750001 0.8333334 0.84375 1 0.8750001 0.8333334 0.84375 0.8333334 0.8125 1 0.84375 0.8333334 0.8125 0.8333334 0.78125 1 0.8125 0.8333334 0.78125 0.8333334 0.75 1 0.78125 0.8333334 0.75 0.8333334 0.71875 1 0.75 0.8333334 0.71875 0.8333334 0.6875 1 0.71875 0.8333334 0.6875 0.8333334 0.65625 1 0.6875 0.8333334 0.65625 0.8333334 0.625 1 0.65625 0.8333334 0.625 0.8333334 0.59375 1 0.625 0.8333334 0.59375 0.8333334 0.5625 1 0.59375 0.8333334 0.5625 0.8333334 0.53125 1 0.5625 0.8333334 0.53125 0.8333333 0.5 1 0.53125 0.8333333 0.5 0.8333334 0.46875 1 0.5 0.8333334 0.46875 0.8333334 0.4375 1 0.46875 0.8333334 0.4375 0.8333334 0.40625 1 0.4375 0.8333334 0.40625 0.8333334 0.375 1 0.40625 0.8333334 0.375 0.8333334 0.34375 1 0.375 0.8333334 0.34375 0.8333334 0.3125 1 0.34375 0.8333334 0.3125 0.8333334 0.28125 1 0.3125 0.8333334 0.28125 0.8333334 0.25 1 0.28125 0.8333334 0.25 0.8333334 0.21875 1 0.25 0.8333334 0.21875 0.8333334 0.1875 1 0.21875 0.8333334 0.1875 0.8333334 0.15625 1 0.1875 0.8333334 0.15625 0.8333334 0.125 1 0.15625 0.8333334 0.125 0.8333334 0.09375 1 0.125 0.8333334 0.09375 0.8333334 0.0625 1 0.09375 0.8333334 0.0625 0.8333334 0.03125 1 0.0625 0.8333334 0.03125 0.8333334 0 1 0.03125 0.8333334 0 0.8333333 0.96875 1 1 1 1 0.8333334 0.9375 1 0.96875 1 0.96875 0.8333333 0.90625 0.8333334 0.90625 1 0.9375 1 0.8750001 1 0.90625 1 0.90625 0.8333334 0.84375 1 0.8750001 1 0.8750001 0.8333334 0.8125 1 0.84375 1 0.84375 0.8333334 0.78125 1 0.8125 1 0.8125 0.8333334 0.75 1 0.78125 1 0.78125 0.8333334 0.71875 1 0.75 1 0.75 0.8333334 0.6875 1 0.71875 1 0.71875 0.8333334 0.65625 1 0.6875 1 0.6875 0.8333334 0.625 1 0.65625 1 0.65625 0.8333334 0.59375 1 0.625 1 0.625 0.8333334 0.5625 1 0.59375 1 0.59375 0.8333334 0.53125 1 0.5625 1 0.5625 0.8333334 0.5 1 0.53125 1 0.53125 0.8333333 0.46875 1 0.5 1 0.5 0.8333334 0.4375 1 0.46875 1 0.46875 0.8333334 0.40625 1 0.4375 1 0.4375 0.8333334 0.375 1 0.40625 1 0.40625 0.8333334 0.34375 1 0.375 1 0.375 0.8333334 0.3125 1 0.34375 1 0.34375 0.8333334 0.28125 1 0.3125 1 0.3125 0.8333334 0.25 1 0.28125 1 0.28125 0.8333334 0.21875 1 0.25 1 0.25 0.8333334 0.1875 1 0.21875 1 0.21875 0.8333334 0.15625 1 0.1875 1 0.1875 0.8333334 0.125 1 0.15625 1 0.15625 0.8333334 0.09375 1 0.125 1 0.125 0.8333334 0.0625 1 0.09375 1 0.09375 0.8333334 0.03125 1 0.0625 1 0.0625 0.8333334 0 1 0.03125 1 0.03125 0.8333334</float_array>
          <technique_common>
            <accessor source="#Cube_003-mesh-map-0-array" count="2070" stride="2">
              <param name="S" type="float"/>
              <param name="T" type="float"/>
            </accessor>
          </technique_common>
        </source>
        <vertices id="Cube_003-mesh-vertices">
          <input semantic="POSITION" source="#Cube_003-mesh-positions"/>
        </vertices>
        <triangles material="Material_021-material" count="690">
          <input semantic="VERTEX" source="#Cube_003-mesh-vertices" offset="0"/>
          <input semantic="NORMAL" source="#Cube_003-mesh-normals" offset="1"/>
          <input semantic="TEXCOORD" source="#Cube_003-mesh-map-0" offset="2" set="0"/>
          <p>21 0 0 149 0 1 147 0 2 1 0 3 146 0 4 148 0 5 18 1 6 253 1 7 5 1 8 16 2 9 283 2 10 171 2 11 253 1 12 12 1 13 5 1 14 41 1 15 171 1 16 46 1 17 152 3 18 305 3 19 9 3 20 226 2 21 1 2 22 0 2 23 9 3 24 305 3 25 344 3 26 307 2 27 0 2 28 344 2 29 32 2 30 152 2 31 4 2 32 92 4 33 279 4 34 1 4 35 278 4 36 123 4 37 279 4 38 182 3 39 316 3 40 317 3 41 132 4 42 317 4 43 316 4 44 182 4 45 32 4 46 183 4 47 302 3 48 170 3 49 303 3 50 303 3 51 67 3 52 302 3 53 170 3 54 154 3 55 35 3 56 37 3 57 238 3 58 21 3 59 238 3 60 239 3 61 112 3 62 149 5 63 31 5 64 147 5 65 37 6 66 25 6 67 34 6 68 42 7 69 34 7 70 38 7 71 49 8 72 38 8 73 44 8 74 54 9 75 44 9 76 52 9 77 60 10 78 52 10 79 58 10 80 65 11 81 58 11 82 63 11 83 71 12 84 63 12 85 69 12 86 79 13 87 69 13 88 74 13 89 85 14 90 74 14 91 80 14 92 89 15 93 80 15 94 86 15 95 96 16 96 86 16 97 92 16 98 102 17 99 92 17 100 98 17 101 102 18 102 148 18 103 146 18 104 21 0 105 18 0 106 149 0 107 1 0 108 10 0 109 146 0 110 17 2 111 283 2 112 284 2 113 21 1 114 253 1 115 18 1 116 283 1 117 343 1 118 284 1 119 14 1 120 284 1 121 343 1 122 17 1 123 46 1 124 171 1 125 226 2 126 3 2 127 10 2 128 152 3 129 11 3 130 307 3 131 11 2 132 226 2 133 307 2 134 35 2 135 152 2 136 32 2 137 25 4 138 149 4 139 18 4 140 174 3 141 326 3 142 173 3 143 326 4 144 130 4 145 144 4 146 41 4 147 174 4 148 173 4 149 173 3 150 327 3 151 172 3 152 144 4 153 327 4 154 326 4 155 172 4 156 41 4 157 173 4 158 25 4 159 18 4 160 34 4 161 254 3 162 5 3 163 252 3 164 12 3 165 172 3 166 327 3 167 327 4 168 122 4 169 336 4 170 5 4 171 336 4 172 252 4 173 41 4 174 172 4 175 16 4 176 34 4 177 255 4 178 256 4 179 256 4 180 255 4 181 128 4 182 255 4 183 18 4 184 254 4 185 128 4 186 254 4 187 122 4 188 38 4 189 256 4 190 257 4 191 257 4 192 256 4 193 128 4 194 44 4 195 258 4 196 259 4 197 259 4 198 258 4 199 127 4 200 258 4 201 38 4 202 257 4 203 257 4 204 127 4 205 258 4 206 52 4 207 261 4 208 262 4 209 261 4 210 120 4 211 262 4 212 260 4 213 44 4 214 259 4 215 126 4 216 259 4 217 127 4 218 261 4 219 44 4 220 260 4 221 120 4 222 260 4 223 126 4 224 58 4 225 263 4 226 264 4 227 263 4 228 119 4 229 264 4 230 263 4 231 52 4 232 262 4 233 119 4 234 262 4 235 120 4 236 265 4 237 63 4 238 58 4 239 265 4 240 116 4 241 266 4 242 265 4 243 58 4 244 264 4 245 116 4 246 264 4 247 119 4 248 269 4 249 63 4 250 268 4 251 268 4 252 115 4 253 269 4 254 267 4 255 63 4 256 266 4 257 114 4 258 266 4 259 116 4 260 69 4 261 271 4 262 74 4 263 270 4 264 118 4 265 271 4 266 268 4 267 63 4 268 267 4 269 114 4 270 268 4 271 267 4 272 74 4 273 273 4 274 80 4 275 272 4 276 117 4 277 273 4 278 270 4 279 69 4 280 269 4 281 115 4 282 270 4 283 269 4 284 80 4 285 276 4 286 86 4 287 275 4 288 124 4 289 276 4 290 272 4 291 74 4 292 271 4 293 118 4 294 272 4 295 271 4 296 86 4 297 278 4 298 92 4 299 277 4 300 123 4 301 278 4 302 274 4 303 80 4 304 273 4 305 117 4 306 274 4 307 273 4 308 275 4 309 80 4 310 274 4 311 125 4 312 275 4 313 274 4 314 1 4 315 148 4 316 98 4 317 98 4 318 92 4 319 1 4 320 277 4 321 86 4 322 276 4 323 124 4 324 277 4 325 276 4 326 191 3 327 9 3 328 306 3 329 0 4 330 1 4 331 280 4 332 337 4 333 0 4 334 341 4 335 9 3 336 337 3 337 306 3 338 4 4 339 191 4 340 32 4 341 280 4 342 1 4 343 279 4 344 123 4 345 280 4 346 279 4 347 189 3 348 309 3 349 310 3 350 310 4 351 342 4 352 340 4 353 342 4 354 129 4 355 340 4 356 189 4 357 32 4 358 190 4 359 190 3 360 308 3 361 309 3 362 309 4 363 341 4 364 342 4 365 341 4 366 145 4 367 342 4 368 190 4 369 32 4 370 191 4 371 175 3 372 325 3 373 174 3 374 130 4 375 324 4 376 143 4 377 174 4 378 41 4 379 175 4 380 188 3 381 310 3 382 311 3 383 129 4 384 338 4 385 340 4 386 311 4 387 340 4 388 338 4 389 188 4 390 32 4 391 189 4 392 187 3 393 311 3 394 312 3 395 138 4 396 339 4 397 338 4 398 338 4 399 312 4 400 311 4 401 187 4 402 32 4 403 188 4 404 176 3 405 324 3 406 175 3 407 143 4 408 323 4 409 142 4 410 175 4 411 41 4 412 176 4 413 177 3 414 323 3 415 176 3 416 142 4 417 322 4 418 141 4 419 176 4 420 41 4 421 177 4 422 186 3 423 312 3 424 313 3 425 313 4 426 312 4 427 339 4 428 32 4 429 187 4 430 186 4 431 185 3 432 313 3 433 314 3 434 140 4 435 314 4 436 313 4 437 185 4 438 32 4 439 186 4 440 178 3 441 322 3 442 177 3 443 141 4 444 321 4 445 137 4 446 41 4 447 178 4 448 177 4 449 179 3 450 321 3 451 178 3 452 137 19 453 320 19 454 136 19 455 178 4 456 41 4 457 179 4 458 184 3 459 314 3 460 315 3 461 134 4 462 315 4 463 314 4 464 184 4 465 32 4 466 185 4 467 183 3 468 315 3 469 316 3 470 135 4 471 316 4 472 315 4 473 183 4 474 32 4 475 184 4 476 180 3 477 320 3 478 179 3 479 136 4 480 319 4 481 133 4 482 179 4 483 41 4 484 180 4 485 317 3 486 181 3 487 182 3 488 317 4 489 131 4 490 318 4 491 182 4 492 41 4 493 32 4 494 181 3 495 319 3 496 180 3 497 133 4 498 318 4 499 131 4 500 180 4 501 41 4 502 181 4 503 163 3 504 286 3 505 285 3 506 26 3 507 329 3 508 328 3 509 285 3 510 328 3 511 329 3 512 162 3 513 163 3 514 46 3 515 164 3 516 285 3 517 293 3 518 331 3 519 293 3 520 332 3 521 293 3 522 329 3 523 332 3 524 163 3 525 164 3 526 46 3 527 296 3 528 159 3 529 297 3 530 297 3 531 83 3 532 296 3 533 159 3 534 150 3 535 35 3 536 297 3 537 158 3 538 298 3 539 298 3 540 81 3 541 297 3 542 158 3 543 159 3 544 35 3 545 164 3 546 292 3 547 291 3 548 291 3 549 292 3 550 330 3 551 331 3 552 292 3 553 293 3 554 164 3 555 165 3 556 46 3 557 166 3 558 291 3 559 290 3 560 50 3 561 290 3 562 291 3 563 46 3 564 165 3 565 166 3 566 298 3 567 157 3 568 299 3 569 299 3 570 77 3 571 298 3 572 35 3 573 157 3 574 158 3 575 299 3 576 156 3 577 300 3 578 300 3 579 76 3 580 299 3 581 156 3 582 157 3 583 35 3 584 167 3 585 290 3 586 289 3 587 53 3 588 289 3 589 290 3 590 166 3 591 167 3 592 46 3 593 168 3 594 289 3 595 288 3 596 56 3 597 288 3 598 289 3 599 167 3 600 168 3 601 46 3 602 300 3 603 155 3 604 301 3 605 301 3 606 72 3 607 300 3 608 155 3 609 156 3 610 35 3 611 301 3 612 154 3 613 302 3 614 302 3 615 68 3 616 301 3 617 154 3 618 155 3 619 35 3 620 303 3 621 169 3 622 304 3 623 303 3 624 304 3 625 62 3 626 46 3 627 170 3 628 35 3 629 169 3 630 288 3 631 304 3 632 59 3 633 304 3 634 288 3 635 168 3 636 169 3 637 46 3 638 102 3 639 146 3 640 10 3 641 295 3 642 150 3 643 296 3 644 83 3 645 295 3 646 296 3 647 150 3 648 151 3 649 35 3 650 294 3 651 151 3 652 295 3 653 88 3 654 294 3 655 295 3 656 151 3 657 153 3 658 35 3 659 102 3 660 10 3 661 96 3 662 11 3 663 153 3 664 294 3 665 3 3 666 228 3 667 10 3 668 3 3 669 294 3 670 90 3 671 7 3 672 35 3 673 153 3 674 227 3 675 96 3 676 10 3 677 225 3 678 227 3 679 93 3 680 228 3 681 227 3 682 10 3 683 93 3 684 228 3 685 90 3 686 225 3 687 89 3 688 96 3 689 224 3 690 225 3 691 93 3 692 236 3 693 85 3 694 89 3 695 95 3 696 235 3 697 236 3 698 224 3 699 236 3 700 89 3 701 95 3 702 224 3 703 93 3 704 233 3 705 79 3 706 85 3 707 232 3 708 233 3 709 101 3 710 235 3 711 234 3 712 85 3 713 235 3 714 99 3 715 234 3 716 234 3 717 233 3 718 85 3 719 101 3 720 234 3 721 99 3 722 231 3 723 71 3 724 79 3 725 230 3 726 231 3 727 104 3 728 232 3 729 231 3 730 79 3 731 104 3 732 232 3 733 101 3 734 65 3 735 229 3 736 251 3 737 251 3 738 229 3 739 105 3 740 230 3 741 229 3 742 71 3 743 105 3 744 230 3 745 104 3 746 248 3 747 65 3 748 249 3 749 248 3 750 249 3 751 107 3 752 251 3 753 250 3 754 65 3 755 106 3 756 251 3 757 105 3 758 60 3 759 246 3 760 54 3 761 246 3 762 247 3 763 108 3 764 250 3 765 249 3 766 65 3 767 249 3 768 106 3 769 107 3 770 54 3 771 244 3 772 49 3 773 244 3 774 245 3 775 109 3 776 248 3 777 247 3 778 60 3 779 247 3 780 107 3 781 108 3 782 49 3 783 241 3 784 42 3 785 241 3 786 242 3 787 111 3 788 246 3 789 245 3 790 54 3 791 245 3 792 108 3 793 109 3 794 42 3 795 239 3 796 37 3 797 239 3 798 240 3 799 112 3 800 244 3 801 243 3 802 49 3 803 243 3 804 109 3 805 110 3 806 243 3 807 242 3 808 49 3 809 110 3 810 242 3 811 243 3 812 21 3 813 147 3 814 31 3 815 31 3 816 37 3 817 21 3 818 241 3 819 240 3 820 42 3 821 240 3 822 111 3 823 112 3 824 160 3 825 17 3 826 14 3 827 6 3 828 21 3 829 237 3 830 282 3 831 281 3 832 335 3 833 334 3 834 282 3 835 335 3 836 46 3 837 17 3 838 160 3 839 238 3 840 237 3 841 21 3 842 237 3 843 112 3 844 113 3 845 162 3 846 287 3 847 286 3 848 26 3 849 333 3 850 13 3 851 286 3 852 333 3 853 328 3 854 46 3 855 161 3 856 162 3 857 161 3 858 282 3 859 287 3 860 287 3 861 334 3 862 333 3 863 334 3 864 13 3 865 333 3 866 160 3 867 161 3 868 46 3 869 149 5 870 25 5 871 31 5 872 37 6 873 31 6 874 25 6 875 42 20 876 37 20 877 34 20 878 49 8 879 42 8 880 38 8 881 54 21 882 49 21 883 44 21 884 60 22 885 54 22 886 52 22 887 65 23 888 60 23 889 58 23 890 71 24 891 65 24 892 63 24 893 79 25 894 71 25 895 69 25 896 85 26 897 79 26 898 74 26 899 89 15 900 85 15 901 80 15 902 96 27 903 89 27 904 86 27 905 102 17 906 96 17 907 92 17 908 102 18 909 98 18 910 148 18 911 16 3 912 12 3 913 283 3 914 253 1 915 283 1 916 12 1 917 41 1 918 16 1 919 171 1 920 9 3 921 4 3 922 152 3 923 152 3 924 307 3 925 305 3 926 226 2 927 10 2 928 1 2 929 344 2 930 305 2 931 307 2 932 307 2 933 226 2 934 0 2 935 0 3 936 9 3 937 344 3 938 92 4 939 278 4 940 279 4 941 182 3 942 183 3 943 316 3 944 132 4 945 131 4 946 317 4 947 302 3 948 154 3 949 170 3 950 303 3 951 62 3 952 67 3 953 37 3 954 239 3 955 238 3 956 284 3 957 14 3 958 17 3 959 17 1 960 171 1 961 283 1 962 21 1 963 6 1 964 253 1 965 343 1 966 283 1 967 253 1 968 253 1 969 6 1 970 343 1 971 6 1 972 14 1 973 343 1 974 152 3 975 7 3 976 11 3 977 11 2 978 3 2 979 226 2 980 35 2 981 7 2 982 152 2 983 174 3 984 325 3 985 326 3 986 326 4 987 325 4 988 130 4 989 173 3 990 326 3 991 327 3 992 144 4 993 122 4 994 327 4 995 254 4 996 18 4 997 5 4 998 12 3 999 16 3 1000 172 3 1001 122 4 1002 254 4 1003 336 4 1004 254 4 1005 252 4 1006 336 4 1007 336 4 1008 5 4 1009 12 4 1010 12 4 1011 327 4 1012 336 4 1013 34 4 1014 18 4 1015 255 4 1016 128 4 1017 255 4 1018 254 4 1019 38 4 1020 34 4 1021 256 4 1022 44 4 1023 38 4 1024 258 4 1025 257 4 1026 128 4 1027 127 4 1028 52 4 1029 44 4 1030 261 4 1031 126 4 1032 260 4 1033 259 4 1034 120 4 1035 261 4 1036 260 4 1037 58 4 1038 52 4 1039 263 4 1040 119 4 1041 263 4 1042 262 4 1043 265 4 1044 266 4 1045 63 4 1046 116 4 1047 265 4 1048 264 4 1049 269 4 1050 69 4 1051 63 4 1052 114 4 1053 267 4 1054 266 4 1055 69 4 1056 270 4 1057 271 4 1058 114 4 1059 115 4 1060 268 4 1061 74 4 1062 272 4 1063 273 4 1064 115 4 1065 118 4 1066 270 4 1067 80 4 1068 275 4 1069 276 4 1070 118 4 1071 117 4 1072 272 4 1073 86 4 1074 277 4 1075 278 4 1076 117 4 1077 125 4 1078 274 4 1079 125 4 1080 124 4 1081 275 4 1082 124 4 1083 123 4 1084 277 4 1085 306 3 1086 308 3 1087 191 3 1088 191 3 1089 4 3 1090 9 3 1091 337 3 1092 9 3 1093 0 3 1094 0 4 1095 280 4 1096 121 4 1097 121 4 1098 341 4 1099 0 4 1100 341 4 1101 308 4 1102 337 4 1103 308 4 1104 306 4 1105 337 4 1106 123 4 1107 121 4 1108 280 4 1109 189 3 1110 190 3 1111 309 3 1112 310 4 1113 309 4 1114 342 4 1115 342 4 1116 145 4 1117 129 4 1118 190 3 1119 191 3 1120 308 3 1121 309 4 1122 308 4 1123 341 4 1124 341 4 1125 121 4 1126 145 4 1127 175 3 1128 324 3 1129 325 3 1130 130 4 1131 325 4 1132 324 4 1133 188 3 1134 189 3 1135 310 3 1136 129 4 1137 138 4 1138 338 4 1139 311 4 1140 310 4 1141 340 4 1142 187 3 1143 188 3 1144 311 3 1145 138 4 1146 139 4 1147 339 4 1148 338 4 1149 339 4 1150 312 4 1151 176 3 1152 323 3 1153 324 3 1154 143 4 1155 324 4 1156 323 4 1157 177 3 1158 322 3 1159 323 3 1160 142 4 1161 323 4 1162 322 4 1163 186 3 1164 187 3 1165 312 3 1166 139 4 1167 140 4 1168 339 4 1169 140 4 1170 313 4 1171 339 4 1172 185 3 1173 186 3 1174 313 3 1175 140 4 1176 134 4 1177 314 4 1178 178 3 1179 321 3 1180 322 3 1181 141 4 1182 322 4 1183 321 4 1184 179 3 1185 320 3 1186 321 3 1187 137 4 1188 321 4 1189 320 4 1190 184 3 1191 185 3 1192 314 3 1193 134 19 1194 135 19 1195 315 19 1196 183 3 1197 184 3 1198 315 3 1199 135 4 1200 132 4 1201 316 4 1202 180 3 1203 319 3 1204 320 3 1205 136 4 1206 320 4 1207 319 4 1208 317 3 1209 318 3 1210 181 3 1211 182 4 1212 181 4 1213 41 4 1214 181 3 1215 318 3 1216 319 3 1217 133 4 1218 319 4 1219 318 4 1220 163 3 1221 162 3 1222 286 3 1223 26 3 1224 39 3 1225 329 3 1226 285 3 1227 286 3 1228 328 3 1229 164 3 1230 163 3 1231 285 3 1232 329 3 1233 39 3 1234 332 3 1235 39 3 1236 47 3 1237 331 3 1238 332 3 1239 39 3 1240 331 3 1241 293 3 1242 285 3 1243 329 3 1244 296 3 1245 150 3 1246 159 3 1247 297 3 1248 81 3 1249 83 3 1250 297 3 1251 159 3 1252 158 3 1253 298 3 1254 77 3 1255 81 3 1256 291 3 1257 165 3 1258 164 3 1259 164 3 1260 293 3 1261 292 3 1262 330 3 1263 331 3 1264 47 3 1265 47 3 1266 50 3 1267 330 3 1268 50 3 1269 291 3 1270 330 3 1271 331 3 1272 330 3 1273 292 3 1274 166 3 1275 165 3 1276 291 3 1277 50 3 1278 53 3 1279 290 3 1280 298 3 1281 158 3 1282 157 3 1283 299 3 1284 76 3 1285 77 3 1286 299 3 1287 157 3 1288 156 3 1289 300 28 1290 72 28 1291 76 28 1292 167 3 1293 166 3 1294 290 3 1295 53 29 1296 56 29 1297 289 29 1298 168 3 1299 167 3 1300 289 3 1301 56 3 1302 59 3 1303 288 3 1304 300 3 1305 156 3 1306 155 3 1307 301 30 1308 68 30 1309 72 30 1310 301 3 1311 155 3 1312 154 3 1313 302 3 1314 67 3 1315 68 3 1316 303 3 1317 170 3 1318 169 3 1319 46 3 1320 169 3 1321 170 3 1322 169 3 1323 168 3 1324 288 3 1325 59 3 1326 62 3 1327 304 3 1328 295 3 1329 151 3 1330 150 3 1331 83 3 1332 88 3 1333 295 3 1334 294 3 1335 153 3 1336 151 3 1337 88 3 1338 90 3 1339 294 3 1340 11 3 1341 7 3 1342 153 3 1343 90 3 1344 228 3 1345 3 3 1346 3 3 1347 11 3 1348 294 3 1349 227 3 1350 225 3 1351 96 3 1352 93 3 1353 227 3 1354 228 3 1355 225 3 1356 224 3 1357 89 3 1358 236 3 1359 235 3 1360 85 3 1361 95 3 1362 236 3 1363 224 3 1364 233 3 1365 232 3 1366 79 3 1367 235 3 1368 95 3 1369 99 3 1370 101 3 1371 233 3 1372 234 3 1373 231 3 1374 230 3 1375 71 3 1376 104 3 1377 231 3 1378 232 3 1379 65 3 1380 71 3 1381 229 3 1382 105 3 1383 229 3 1384 230 3 1385 248 3 1386 60 3 1387 65 3 1388 106 3 1389 250 3 1390 251 3 1391 60 3 1392 247 3 1393 246 3 1394 249 3 1395 250 3 1396 106 3 1397 54 3 1398 245 3 1399 244 3 1400 247 3 1401 248 3 1402 107 3 1403 49 3 1404 242 3 1405 241 3 1406 245 3 1407 246 3 1408 108 3 1409 42 3 1410 240 3 1411 239 3 1412 243 3 1413 244 3 1414 109 3 1415 110 3 1416 111 3 1417 242 3 1418 240 3 1419 241 3 1420 111 3 1421 14 3 1422 281 3 1423 282 3 1424 282 3 1425 160 3 1426 14 3 1427 335 3 1428 281 3 1429 14 3 1430 14 3 1431 6 3 1432 335 3 1433 6 3 1434 237 3 1435 113 3 1436 335 3 1437 6 3 1438 334 3 1439 113 3 1440 334 3 1441 6 3 1442 237 3 1443 238 3 1444 112 3 1445 162 3 1446 161 3 1447 287 3 1448 26 3 1449 328 3 1450 333 3 1451 286 3 1452 287 3 1453 333 3 1454 161 3 1455 160 3 1456 282 3 1457 287 3 1458 282 3 1459 334 3 1460 334 3 1461 113 3 1462 13 3 1463 27 1 1464 46 1 1465 29 1 1466 29 31 1467 20 31 1468 27 31 1469 20 2 1470 35 2 1471 32 2 1472 41 4 1473 214 4 1474 213 4 1475 20 4 1476 206 4 1477 203 4 1478 33 3 1479 36 3 1480 23 3 1481 35 3 1482 78 3 1483 82 3 1484 139 4 1485 138 4 1486 124 4 1487 95 3 1488 93 3 1489 77 3 1490 27 1 1491 41 1 1492 46 1 1493 29 31 1494 23 31 1495 20 31 1496 20 2 1497 23 2 1498 35 2 1499 199 4 1500 198 4 1501 20 4 1502 41 4 1503 27 4 1504 218 4 1505 27 4 1506 220 4 1507 221 4 1508 27 4 1509 221 4 1510 218 4 1511 199 4 1512 20 4 1513 197 4 1514 20 4 1515 32 4 1516 197 4 1517 41 4 1518 218 4 1519 223 4 1520 201 4 1521 197 4 1522 32 4 1523 194 4 1524 201 4 1525 32 4 1526 41 4 1527 223 4 1528 222 4 1529 41 4 1530 222 4 1531 217 4 1532 194 4 1533 32 4 1534 195 4 1535 32 4 1536 41 4 1537 213 4 1538 195 4 1539 32 4 1540 196 4 1541 196 4 1542 32 4 1543 192 4 1544 41 32 1545 217 32 1546 216 32 1547 41 33 1548 216 33 1549 215 33 1550 192 4 1551 32 4 1552 193 4 1553 193 4 1554 32 4 1555 213 4 1556 41 4 1557 215 4 1558 214 4 1559 219 4 1560 220 4 1561 27 4 1562 20 4 1563 198 4 1564 200 4 1565 20 4 1566 200 4 1567 208 4 1568 202 4 1569 219 4 1570 27 4 1571 212 4 1572 202 4 1573 27 4 1574 20 4 1575 208 4 1576 209 4 1577 20 34 1578 209 34 1579 210 34 1580 211 35 1581 212 35 1582 27 35 1583 207 4 1584 211 4 1585 27 4 1586 20 36 1587 210 36 1588 205 36 1589 20 4 1590 205 4 1591 206 4 1592 207 4 1593 27 4 1594 204 4 1595 27 4 1596 20 4 1597 203 4 1598 204 4 1599 27 4 1600 203 4 1601 29 3 1602 8 3 1603 15 3 1604 29 3 1605 15 3 1606 19 3 1607 51 3 1608 55 3 1609 23 3 1610 48 3 1611 51 3 1612 23 3 1613 29 3 1614 19 3 1615 22 3 1616 29 37 1617 22 37 1618 24 37 1619 45 3 1620 48 3 1621 23 3 1622 43 38 1623 45 38 1624 23 38 1625 29 39 1626 24 39 1627 28 39 1628 29 3 1629 28 3 1630 30 3 1631 40 3 1632 43 3 1633 23 3 1634 36 3 1635 40 3 1636 23 3 1637 23 3 1638 29 3 1639 33 3 1640 29 3 1641 30 3 1642 33 3 1643 2 3 1644 8 3 1645 29 3 1646 35 3 1647 23 3 1648 61 3 1649 23 3 1650 55 3 1651 57 3 1652 23 3 1653 57 3 1654 61 3 1655 2 3 1656 29 3 1657 103 3 1658 29 3 1659 46 3 1660 103 3 1661 35 3 1662 61 3 1663 64 3 1664 100 3 1665 103 3 1666 46 3 1667 97 3 1668 100 3 1669 46 3 1670 35 3 1671 64 3 1672 66 3 1673 35 3 1674 66 3 1675 70 3 1676 97 3 1677 46 3 1678 94 3 1679 46 3 1680 35 3 1681 82 3 1682 94 3 1683 46 3 1684 91 3 1685 91 3 1686 46 3 1687 87 3 1688 35 40 1689 70 40 1690 73 40 1691 35 41 1692 73 41 1693 75 41 1694 87 3 1695 46 3 1696 84 3 1697 84 3 1698 46 3 1699 82 3 1700 35 3 1701 75 3 1702 78 3 1703 129 4 1704 145 4 1705 121 4 1706 121 4 1707 123 4 1708 129 4 1709 123 4 1710 124 4 1711 138 4 1712 129 4 1713 123 4 1714 138 4 1715 124 4 1716 125 4 1717 140 4 1718 125 4 1719 117 4 1720 134 4 1721 117 4 1722 118 4 1723 134 4 1724 118 4 1725 115 4 1726 135 4 1727 134 4 1728 118 4 1729 135 4 1730 115 4 1731 114 4 1732 131 4 1733 114 4 1734 116 4 1735 133 4 1736 116 4 1737 119 4 1738 133 4 1739 119 4 1740 120 4 1741 136 4 1742 133 4 1743 119 4 1744 136 4 1745 120 4 1746 126 4 1747 141 4 1748 126 4 1749 127 4 1750 142 4 1751 127 4 1752 128 4 1753 142 4 1754 128 4 1755 122 4 1756 143 4 1757 142 4 1758 128 4 1759 143 4 1760 122 4 1761 144 4 1762 130 4 1763 130 4 1764 143 4 1765 122 4 1766 142 4 1767 141 4 1768 126 4 1769 141 4 1770 137 4 1771 120 4 1772 137 4 1773 136 4 1774 120 4 1775 133 4 1776 131 4 1777 114 4 1778 131 4 1779 132 4 1780 115 4 1781 132 4 1782 135 4 1783 115 4 1784 134 4 1785 140 4 1786 125 4 1787 140 4 1788 139 4 1789 124 4 1790 90 3 1791 88 3 1792 83 3 1793 83 3 1794 81 3 1795 90 3 1796 81 3 1797 77 3 1798 93 3 1799 90 3 1800 81 3 1801 93 3 1802 77 3 1803 76 3 1804 99 3 1805 76 3 1806 72 3 1807 101 3 1808 72 3 1809 68 3 1810 101 3 1811 68 3 1812 67 3 1813 104 3 1814 101 3 1815 68 3 1816 104 3 1817 67 3 1818 62 3 1819 106 3 1820 62 3 1821 59 3 1822 107 3 1823 59 3 1824 56 3 1825 107 3 1826 56 3 1827 53 3 1828 108 3 1829 107 3 1830 56 3 1831 108 3 1832 53 3 1833 50 3 1834 110 3 1835 50 3 1836 47 3 1837 111 3 1838 47 3 1839 39 3 1840 111 3 1841 39 3 1842 26 3 1843 112 3 1844 111 3 1845 39 3 1846 112 3 1847 26 3 1848 13 3 1849 113 3 1850 113 3 1851 112 3 1852 26 3 1853 111 3 1854 110 3 1855 50 3 1856 110 3 1857 109 3 1858 53 3 1859 109 3 1860 108 3 1861 53 3 1862 107 3 1863 106 3 1864 62 3 1865 106 3 1866 105 3 1867 67 3 1868 105 3 1869 104 3 1870 67 3 1871 101 3 1872 99 3 1873 76 3 1874 99 3 1875 95 3 1876 77 3 1877 8 42 1878 221 42 1879 220 42 1880 15 43 1881 220 43 1882 219 43 1883 202 44 1884 15 44 1885 219 44 1886 22 45 1887 202 45 1888 212 45 1889 24 46 1890 212 46 1891 211 46 1892 28 47 1893 211 47 1894 207 47 1895 30 48 1896 207 48 1897 204 48 1898 33 49 1899 204 49 1900 203 49 1901 36 50 1902 203 50 1903 206 50 1904 40 51 1905 206 51 1906 205 51 1907 43 52 1908 205 52 1909 210 52 1910 45 53 1911 210 53 1912 209 53 1913 48 54 1914 209 54 1915 208 54 1916 51 55 1917 208 55 1918 200 55 1919 55 56 1920 200 56 1921 198 56 1922 57 57 1923 198 57 1924 199 57 1925 61 58 1926 199 58 1927 197 58 1928 64 59 1929 197 59 1930 201 59 1931 66 60 1932 201 60 1933 194 60 1934 70 61 1935 194 61 1936 195 61 1937 73 62 1938 195 62 1939 196 62 1940 75 63 1941 196 63 1942 192 63 1943 78 64 1944 192 64 1945 193 64 1946 82 65 1947 193 65 1948 213 65 1949 84 66 1950 213 66 1951 214 66 1952 87 67 1953 214 67 1954 215 67 1955 91 68 1956 215 68 1957 216 68 1958 94 69 1959 216 69 1960 217 69 1961 97 70 1962 217 70 1963 222 70 1964 100 71 1965 222 71 1966 223 71 1967 103 72 1968 223 72 1969 218 72 1970 2 73 1971 218 73 1972 221 73 1973 8 74 1974 2 74 1975 221 74 1976 15 43 1977 8 43 1978 220 43 1979 202 75 1980 19 75 1981 15 75 1982 22 45 1983 19 45 1984 202 45 1985 24 46 1986 22 46 1987 212 46 1988 28 47 1989 24 47 1990 211 47 1991 30 76 1992 28 76 1993 207 76 1994 33 77 1995 30 77 1996 204 77 1997 36 78 1998 33 78 1999 203 78 2000 40 79 2001 36 79 2002 206 79 2003 43 52 2004 40 52 2005 205 52 2006 45 53 2007 43 53 2008 210 53 2009 48 54 2010 45 54 2011 209 54 2012 51 80 2013 48 80 2014 208 80 2015 55 56 2016 51 56 2017 200 56 2018 57 81 2019 55 81 2020 198 81 2021 61 58 2022 57 58 2023 199 58 2024 64 59 2025 61 59 2026 197 59 2027 66 82 2028 64 82 2029 201 82 2030 70 61 2031 66 61 2032 194 61 2033 73 83 2034 70 83 2035 195 83 2036 75 63 2037 73 63 2038 196 63 2039 78 84 2040 75 84 2041 192 84 2042 82 85 2043 78 85 2044 193 85 2045 84 86 2046 82 86 2047 213 86 2048 87 87 2049 84 87 2050 214 87 2051 91 68 2052 87 68 2053 215 68 2054 94 88 2055 91 88 2056 216 88 2057 97 70 2058 94 70 2059 217 70 2060 100 89 2061 97 89 2062 222 89 2063 103 72 2064 100 72 2065 223 72 2066 2 73 2067 103 73 2068 218 73 2069</p>
        </triangles>
      </mesh>
    </geometry>
  </library_geometries>
  <library_visual_scenes>
    <visual_scene id="Scene" name="Scene">
      <node id="tmp_export_Cube_003" name="tmp_export_Cube.003" type="NODE">
        <matrix sid="transform">1 0 0 0 0 1 0 0 0 0 1 0 0 0 0 1</matrix>
        <instance_geometry url="#Cube_003-mesh" name="tmp_export_Cube.003">
          <bind_material>
            <technique_common>
              <instance_material symbol="Material_021-material" target="#Material_021-material">
                <bind_vertex_input semantic="Cube_003-mesh-map-0" input_semantic="TEXCOORD" input_set="0"/>
              </instance_material>
            </technique_common>
          </bind_material>
        </instance_geometry>
      </node>
    </visual_scene>
  </library_visual_scenes>
  <scene>
    <instance_visual_scene url="#Scene"/>
  </scene>
</COLLADA>