<?xml version="1.0" encoding="utf-8"?>
<COLLADA xmlns="http://www.collada.org/2005/11/COLLADASchema" version="1.4.1" xmlns:xsi="http://www.w3.org/2001/XMLSchema-instance">
  <asset>
    <contributor>
      <author>Blender User</author>
      <authoring_tool>Blender 3.3.21 commit date:2024-07-15, commit time:08:57, hash:e016c21db151</authoring_tool>
    </contributor>
    <created>2025-04-02T13:13:34</created>
    <modified>2025-04-02T13:13:34</modified>
    <unit name="meter" meter="1"/>
    <up_axis>Z_UP</up_axis>
  </asset>
  <library_effects>
    <effect id="Material_006-effect">
      <profile_COMMON>
        <technique sid="common">
          <lambert>
            <emission>
              <color sid="emission">0 0 0 1</color>
            </emission>
            <diffuse>
              <color sid="diffuse">0.603816 0.603816 0.603816 1</color>
            </diffuse>
            <index_of_refraction>
              <float sid="ior">1.45</float>
            </index_of_refraction>
          </lambert>
        </technique>
      </profile_COMMON>
    </effect>
  </library_effects>
  <library_images/>
  <library_materials>
    <material id="Material_006-material" name="Material.006">
      <instance_effect url="#Material_006-effect"/>
    </material>
  </library_materials>
  <library_geometries>
    <geometry id="Cylinder_011-mesh" name="Cylinder.011">
      <mesh>
        <source id="Cylinder_011-mesh-positions">
          <float_array id="Cylinder_011-mesh-positions-array" count="768">-3.48757 0.88015 -1.981584 -3.48757 0.88015 0.01841586 -3.292479 0.8609353 -1.981584 -3.292479 0.8609353 0.01841586 -3.104886 0.8040295 -1.981584 -3.104886 0.8040295 0.01841586 -2.932 0.7116196 -1.981584 -2.932 0.7116196 0.01841586 -2.780463 0.5872568 -1.981584 -2.780463 0.5872568 0.01841586 -2.6561 0.4357203 -1.981584 -2.6561 0.4357203 0.01841586 -2.56369 0.2628335 -1.981584 -2.56369 0.2628335 0.01841586 -2.506784 0.07524031 -1.981584 -2.506784 0.07524031 0.01841586 -2.48757 -0.11985 -1.981584 -2.48757 -0.11985 0.01841586 -2.506784 -0.3149403 -1.981584 -2.506784 -0.3149403 0.01841586 -2.56369 -0.5025334 -1.981584 -2.56369 -0.5025334 0.01841586 -2.6561 -0.6754202 -1.981584 -2.6561 -0.6754202 0.01841586 -2.780463 -0.8269568 -1.981584 -2.780463 -0.8269568 0.01841586 -2.932 -0.9513196 -1.981584 -2.932 -0.9513196 0.01841586 -3.104886 -1.04373 -1.981584 -3.104886 -1.04373 0.01841586 -3.292479 -1.100635 -1.981584 -3.292479 -1.100635 0.01841586 -3.48757 -1.11985 -1.981584 -3.48757 -1.11985 0.01841586 -3.68266 -1.100635 -1.981584 -3.68266 -1.100635 0.01841586 -3.870253 -1.04373 -1.981584 -3.870253 -1.04373 0.01841586 -4.04314 -0.9513196 -1.981584 -4.04314 -0.9513196 0.01841586 -4.194676 -0.8269568 -1.981584 -4.194676 -0.8269568 0.01841586 -4.319039 -0.6754202 -1.981584 -4.319039 -0.6754202 0.01841586 -4.411449 -0.5025334 -1.981584 -4.411449 -0.5025334 0.01841586 -4.468355 -0.3149403 -1.981584 -4.468355 -0.3149403 0.01841586 -4.48757 -0.11985 -1.981584 -4.48757 -0.11985 0.01841586 -4.468355 0.07524031 -1.981584 -4.468355 0.07524031 0.01841586 -4.411449 0.2628335 -1.981584 -4.411449 0.2628335 0.01841586 -4.319039 0.4357203 -1.981584 -4.319039 0.4357203 0.01841586 -4.194676 0.5872568 -1.981584 -4.194676 0.5872568 0.01841586 -4.04314 0.7116196 -1.981584 -4.04314 0.7116196 0.01841586 -3.870253 0.8040295 -1.981584 -3.870253 0.8040295 0.01841586 -3.68266 0.8609353 -1.981584 -3.68266 0.8609353 0.01841586 12.05287 0.8801496 1.771736 -2.983637 0.8801496 0.1401264 11.89372 0.8609348 1.780415 -3.142793 0.8609348 0.1488053 11.74068 0.8040291 1.78876 -3.295832 0.8040291 0.1571506 11.59964 0.7116191 1.796452 -3.436874 0.7116191 0.1648418 11.47601 0.5872563 1.803193 -3.560498 0.5872563 0.1715833 11.37456 0.4357198 1.808725 -3.661954 0.4357198 0.1771157 11.29917 0.262833 1.812837 -3.737342 0.262833 0.1812267 11.25274 0.07523983 1.815368 -3.783766 0.07523983 0.1837583 11.23707 -0.1198505 1.816223 -3.799441 -0.1198505 0.1846131 11.25274 -0.3149408 1.815368 -3.783766 -0.3149408 0.1837583 11.29917 -0.5025339 1.812837 -3.737342 -0.5025339 0.1812267 11.37456 -0.6754207 1.808725 -3.661954 -0.6754207 0.1771157 11.47601 -0.8269572 1.803193 -3.560498 -0.8269572 0.1715833 11.59964 -0.9513201 1.796452 -3.436874 -0.9513201 0.1648418 11.74068 -1.04373 1.78876 -3.295832 -1.04373 0.1571506 11.89372 -1.100636 1.780415 -3.142793 -1.100636 0.1488053 12.05287 -1.11985 1.771736 -2.983637 -1.11985 0.1401264 12.21203 -1.100636 1.763057 -2.824481 -1.100636 0.1314474 12.36507 -1.04373 1.754712 -2.671442 -1.04373 0.1231021 12.50611 -0.9513201 1.747021 -2.5304 -0.9513201 0.1154109 12.62974 -0.8269572 1.740279 -2.406775 -0.8269572 0.1086694 12.73119 -0.6754207 1.734747 -2.30532 -0.6754207 0.103137 12.80658 -0.5025339 1.730636 -2.229931 -0.5025339 0.09902602 12.853 -0.3149408 1.728104 -2.183507 -0.3149408 0.09649449 12.86868 -0.1198505 1.727249 -2.167832 -0.1198505 0.09563964 12.853 0.07523983 1.728104 -2.183507 0.07523983 0.09649449 12.80658 0.262833 1.730636 -2.229931 0.262833 0.09902602 12.73119 0.4357198 1.734747 -2.30532 0.4357198 0.103137 12.62974 0.5872563 1.740279 -2.406775 0.5872563 0.1086694 12.50611 0.7116191 1.747021 -2.5304 0.7116191 0.1154109 12.36507 0.8040291 1.754712 -2.671442 0.8040291 0.1231021 12.21203 0.8609348 1.763057 -2.824481 0.8609348 0.1314474 -4.825292 1.380149 0.1182182 -4.825292 -1.619851 0.1182182 -4.709022 1.380149 0.1389942 -4.709022 -1.619851 0.1389942 -4.542294 1.380149 0.157626 -4.542294 -1.619851 0.157626 -4.331515 1.380149 0.1733979 -4.331515 -1.61985 0.1733979 -4.084787 1.380149 0.1857035 -4.084787 -1.61985 0.1857035 -3.811591 1.380149 0.1940701 -3.811591 -1.61985 0.1940701 -3.522424 1.380149 0.198176 -3.522424 -1.61985 0.198176 -3.228401 1.380149 0.1978636 -3.228401 -1.61985 0.1978636 -2.94082 1.380149 0.1931448 -2.94082 -1.61985 0.1931448 -2.670732 1.380149 0.1842009 -2.670732 -1.61985 0.1842009 -2.428517 1.380149 0.1713756 -2.428517 -1.61985 0.1713756 -2.223484 1.380149 0.155162 -2.223483 -1.61985 0.155162 -2.06351 1.380149 0.1361829 -2.06351 -1.61985 0.1361829 -1.954745 1.380149 0.1151677 -1.954745 -1.61985 0.1151677 -1.901368 1.38015 0.09292417 -1.901368 -1.61985 0.09292417 -1.90543 1.38015 0.07030707 -1.905429 -1.61985 0.07030707 -1.966775 1.38015 0.0481854 -1.966774 -1.61985 0.0481854 -2.083045 1.38015 0.02740937 -2.083045 -1.61985 0.02740937 -2.249773 1.38015 0.008777499 -2.249773 -1.61985 0.008777499 -2.460551 1.380149 -0.006994307 -2.460551 -1.61985 -0.006994307 -2.707279 1.380149 -0.01929998 -2.707279 -1.61985 -0.01929998 -2.980476 1.380149 -0.0276665 -2.980476 -1.61985 -0.0276665 -3.269642 1.380149 -0.03177243 -3.269642 -1.61985 -0.03177243 -3.563665 1.380149 -0.03145998 -3.563665 -1.61985 -0.03145998 -3.851247 1.380149 -0.02674114 -3.851247 -1.61985 -0.02674114 -4.121335 1.380149 -0.01779729 -4.121335 -1.61985 -0.01779729 -4.36355 1.380149 -0.00497204 -4.363549 -1.61985 -0.00497204 -4.568583 1.380149 0.01124167 -4.568583 -1.61985 0.01124167 -4.728557 1.380149 0.03022068 -4.728556 -1.61985 0.03022068 -4.837322 1.380149 0.05123585 -4.837321 -1.61985 0.05123585 -4.890699 1.380149 0.07347947 -4.890699 -1.619851 0.07347947 -4.886637 1.380149 0.09609657 -4.886637 -1.619851 0.09609657 3.273841 1.880149 -0.08020812 -4.348872 1.880149 0.1065461 3.333046 1.860935 -0.06590896 -4.289667 1.860935 0.1208453 3.389976 1.804029 -0.05215924 -4.232738 1.804029 0.134595 3.442443 1.711619 -0.03948742 -4.18027 1.711619 0.1472668 3.488431 1.587256 -0.02838051 -4.134283 1.587256 0.1583737 3.526172 1.43572 -0.01926529 -4.096541 1.43572 0.1674889 3.554216 1.262833 -0.01249212 -4.068498 1.262833 0.1742622 3.571485 1.07524 -0.008321166 -4.051228 1.07524 0.1784331 3.577317 0.8801496 -0.006912827 -4.045397 0.8801496 0.1798414 3.571485 0.6850593 -0.008321166 -4.051228 0.6850593 0.1784331 3.554216 0.4974661 -0.01249212 -4.068498 0.4974661 0.1742622 3.526172 0.3245793 -0.01926529 -4.096541 0.3245793 0.1674889 3.488431 0.1730427 -0.02838051 -4.134283 0.1730427 0.1583737 3.442443 0.04867988 -0.03948742 -4.18027 0.04867988 0.1472668 3.389976 -0.04372996 -0.05215924 -4.232738 -0.04372996 0.134595 3.333046 -0.1006357 -0.06590896 -4.289667 -0.1006357 0.1208453 3.273841 -0.1198505 -0.08020812 -4.348872 -0.1198505 0.1065461 3.214636 -0.1006357 -0.09450733 -4.408078 -0.1006357 0.09224694 3.157706 -0.04372996 -0.108257 -4.465008 -0.04372996 0.07849723 3.105239 0.04867988 -0.1209288 -4.517474 0.04867988 0.0658254 3.059251 0.1730427 -0.1320357 -4.563462 0.1730427 0.05471855 3.02151 0.3245793 -0.141151 -4.601203 0.3245793 0.04560333 2.993466 0.4974661 -0.1479241 -4.629247 0.4974661 0.0388301 2.976197 0.6850593 -0.1520951 -4.646517 0.6850593 0.0346592 2.970366 0.8801496 -0.1535034 -4.652348 0.8801496 0.03325074 2.976197 1.07524 -0.1520951 -4.646517 1.07524 0.0346592 2.993466 1.262833 -0.1479241 -4.629247 1.262833 0.0388301 3.02151 1.43572 -0.141151 -4.601203 1.43572 0.04560333 3.059251 1.587256 -0.1320357 -4.563462 1.587256 0.05471855 3.105239 1.711619 -0.1209288 -4.517474 1.711619 0.0658254 3.157706 1.804029 -0.108257 -4.465008 1.804029 0.07849723 3.214636 1.860935 -0.09450733 -4.408078 1.860935 0.09224694</float_array>
          <technique_common>
            <accessor source="#Cylinder_011-mesh-positions-array" count="256" stride="3">
              <param name="X" type="float"/>
              <param name="Y" type="float"/>
              <param name="Z" type="float"/>
            </accessor>
          </technique_common>
        </source>
        <source id="Cylinder_011-mesh-normals">
          <float_array id="Cylinder_011-mesh-normals-array" count="1278">0.09801727 0.9951848 0 0.2902849 0.9569404 0 0.4713966 0.8819214 0 0.6343935 0.7730103 0 0.7730101 0.6343937 0 0.881921 0.4713975 0 0.9569404 0.2902846 0 0.9951848 0.09801667 0 0.9951848 -0.09801667 0 0.9569404 -0.2902847 0 0.881921 -0.4713975 0 0.7730113 -0.6343923 0 0.6343923 -0.7730113 0 0.4713979 -0.8819208 0 0.2902842 -0.9569405 0 0.09801727 -0.9951848 0 -0.09801727 -0.9951848 0 -0.2902849 -0.9569404 0 -0.4713969 -0.8819212 0 -0.6343923 -0.7730113 0 -0.7730101 -0.6343937 0 -0.881921 -0.4713975 0 -0.9569404 -0.2902847 0 -0.9951848 -0.09801667 0 -0.9951848 0.09801667 0 -0.9569404 0.2902846 0 -0.881921 0.4713975 0 -0.7730101 0.6343937 0 -0.6343947 0.7730094 0 -0.4713976 0.8819208 0 0 0 1 -0.2902842 0.9569405 0 -0.09801727 0.9951848 0 -1.19209e-7 0 -1 -0.06443935 0.8019849 0.5938585 -0.09888952 0.3995981 0.911341 -0.1047198 0.2401525 0.9650703 -0.106503 0.1590761 0.981505 -0.1072469 0.1078861 0.9883617 -0.1076081 0.07050627 0.9916902 -0.1077899 0.04007959 0.9933655 -0.1078675 0.01302295 0.9940801 -0.1078675 -0.01302266 0.99408 -0.1077899 -0.04007965 0.9933655 -0.1076081 -0.07050591 0.9916902 -0.1072469 -0.1078861 0.9883617 -0.1065028 -0.1590753 0.9815051 -0.1047196 -0.2401518 0.9650705 -0.09888947 -0.399599 0.9113405 -0.06443941 -0.8019874 0.5938551 0.06443911 -0.8019837 -0.5938602 0.09888952 -0.3995981 -0.911341 0.1047196 -0.2401528 -0.9650702 0.106503 -0.1590775 -0.9815047 0.107247 -0.1078862 -0.9883617 0.1076082 -0.0705052 -0.9916903 0.1077899 -0.04008096 -0.9933655 0.1078675 -0.01302266 -0.9940801 0.1078675 0.013022 -0.9940801 0.1077899 0.04008096 -0.9933655 0.1076082 0.07050448 -0.9916903 0.1072471 0.1078854 -0.9883618 0.1065029 0.1590774 -0.9815047 0.1047195 0.2401518 -0.9650705 -0.05445027 -1.03701e-6 -0.9985166 0.09888952 0.3995981 -0.911341 0.06443941 0.8019849 -0.5938585 0.05445021 0 0.9985165 -0.1759008 0 0.9844079 -0.1110584 0 0.9938139 -0.0746181 0 0.9972122 -0.04981333 0 0.9987586 -0.03061038 0 0.9995314 -0.0141977 0 0.9998993 0.001062631 0 0.9999995 0.01640629 0 0.9998655 0.03309667 0 0.9994522 0.05287575 0 0.9986011 0.07883197 0 0.9968879 0.1178129 0 0.9930358 0.189707 0 0.9818409 0.3846608 0 0.923058 0.9842527 0 -0.1767677 0.3392287 0 -0.940704 0.175901 0 -0.9844079 0.1110588 0 -0.9938139 0.07461792 0 -0.9972122 0.04981356 0 -0.9987586 0.03061014 0 -0.9995314 0.0141977 0 -0.9998993 -0.001062631 0 -0.9999995 -0.01640647 0 -0.9998655 -0.03309649 0 -0.9994522 -0.05287575 0 -0.9986011 -0.07883214 0 -0.9968879 -0.1178125 0 -0.9930359 -0.1897073 0 -0.9818407 -0.3846617 0 -0.9230577 5.73272e-7 -1 0 -0.9842545 0 0.1767576 -0.3392276 0 0.9407044 -2.07785e-6 1 -2.15322e-6 0.01894462 0.6338147 0.773253 0.02366906 0.2571097 0.9660924 0.02421784 0.1492986 0.9884956 0.02437478 0.0978688 0.9949008 0.02443879 0.06608909 0.9975144 0.02446961 0.04309797 0.9987713 0.02448505 0.02447479 0.9994006 0.0244916 0.007948517 0.9996685 0.02449154 -0.007948517 0.9996684 0.02448499 -0.02447474 0.9994006 0.02446955 -0.04309791 0.9987713 0.02443879 -0.06608909 0.9975144 0.02437478 -0.09786862 0.9949008 0.02421784 -0.1492986 0.9884956 0.023669 -0.257109 0.9660926 0.0189445 -0.6338112 0.7732558 -0.0189445 -0.6338121 -0.7732551 -0.02366894 -0.2571088 -0.9660926 -0.02421784 -0.1492982 -0.9884957 -0.02437478 -0.09786897 -0.9949008 -0.02443879 -0.06608909 -0.9975144 -0.02446961 -0.04309797 -0.9987713 -0.02448499 -0.02447474 -0.9994006 -0.02449154 -0.007948517 -0.9996685 -0.02449154 0.007948517 -0.9996685 -0.02448499 0.02447474 -0.9994006 -0.02446955 0.04309791 -0.9987713 -0.02443879 0.06608897 -0.9975145 -0.02437472 0.09786891 -0.9949008 -0.02421778 0.1492978 -0.9884958 -0.2347692 0 0.9720512 -0.02366894 0.2571085 -0.9660927 -0.01894432 0.6338059 -0.7732602 0.2347699 -9.29669e-7 -0.9720511 0.09801727 0.9951848 0 0.2902842 0.9569405 0 0.4713976 0.8819208 0 0.6343923 0.7730113 0 0.7730113 0.6343923 0 0.8819209 0.4713975 0 0.9951848 0.09801667 0 0.9951848 -0.09801667 0 0.8819209 -0.4713975 0 0.7730101 -0.6343938 0 0.6343935 -0.7730103 0 0.4713968 -0.8819212 0 0.2902848 -0.9569404 0 0.09801727 -0.9951848 0 -0.09801727 -0.9951848 0 -0.2902842 -0.9569405 0 -0.4713978 -0.8819208 0 -0.6343947 -0.7730094 0 -0.7730101 -0.6343938 0 -0.8819209 -0.4713975 0 -0.9951848 -0.09801667 0 -0.9951848 0.09801667 0 -0.8819209 0.4713975 0 -0.7730101 0.6343938 0 -0.6343923 0.7730113 0 -0.4713966 0.8819214 0 0 0 1 0 0 1 -1.24223e-7 0 1 0 0 1 0 0 1 -1.24222e-7 0 1 0 0 1 0 0 1 0 0 1 1.24222e-7 0 1 0 0 1 0 0 1 0 0 1 0 0 1 -0.2902848 0.9569404 0 -0.09801727 0.9951848 0 0 0 -1 -3.97512e-6 0 -1 7.9502e-6 0 -1 3.9751e-6 0 -1 -3.97507e-6 0 -1 3.97507e-6 0 -1 -5.47412e-6 0 -1 5.36892e-6 0 -1 -7.9502e-6 0 -1 3.97512e-6 0 -1 7.77715e-7 0 -1 -7.77715e-7 0 -1 5.75593e-7 0 -1 -5.75593e-7 0 -1 0 0 -1 -0.06443929 0.8019849 0.5938584 -0.09888952 0.3995989 0.9113406 -0.1047196 0.2401518 0.9650704 -0.1065029 0.1590761 0.981505 -0.107247 0.1078867 0.9883615 -0.1076081 0.07050389 0.9916904 -0.1077899 0.04008024 0.9933655 -0.1078675 0.01302313 0.9940801 -0.1078675 -0.01302343 0.99408 -0.1077899 -0.04008024 0.9933655 -0.1076081 -0.07050424 0.9916904 -0.1072469 -0.1078867 0.9883615 -0.1065031 -0.1590769 0.9815048 -0.1047198 -0.240152 0.9650703 -0.09888947 -0.3995977 0.9113411 -0.06443941 -0.8019843 0.5938593 0.06443941 -0.801985 -0.5938584 0.09888964 -0.399598 -0.911341 0.1047195 -0.2401514 -0.9650706 0.106503 -0.159076 -0.981505 0.1072469 -0.1078867 -0.9883615 0.1076081 -0.07050454 -0.9916903 0.1077899 -0.04007947 -0.9933655 0.1078674 -0.01302278 -0.99408 0.1078675 0.01302343 -0.99408 0.1077899 0.04007947 -0.9933655 0.1076081 0.07050526 -0.9916903 0.1072469 0.1078875 -0.9883615 0.106503 0.1590759 -0.981505 0.1047196 0.2401525 -0.9650703 -0.05444991 0 -0.9985166 -0.05445003 6.08175e-7 -0.9985165 -0.05444991 -4.10711e-7 -0.9985165 -0.05445003 -5.1574e-7 -0.9985165 -0.05444991 1.31986e-6 -0.9985166 -0.05445009 0 -0.9985165 -0.05445033 -8.51053e-7 -0.9985166 -0.05445009 2.53753e-7 -0.9985166 -0.05445009 7.23761e-7 -0.9985166 -0.05445015 0 -0.9985166 -0.05445021 1.86975e-7 -0.9985166 -0.05445015 -1.90638e-7 -0.9985166 -0.05445021 0 -0.9985165 -0.05445015 -2.28372e-7 -0.9985165 -0.05445009 7.23761e-7 -0.9985166 -0.05445009 3.80629e-7 -0.9985166 -0.05445021 -8.29608e-7 -0.9985166 -0.05444991 3.55247e-7 -0.9985166 -0.05444997 1.31986e-6 -0.9985165 -0.05445009 4.10712e-7 -0.9985165 -0.05445003 -6.08175e-7 -0.9985165 -0.05445003 0 -0.9985165 -0.05445027 -8.51053e-7 -0.9985165 -0.05445015 -1.98257e-7 -0.9985166 -0.05445015 -1.90638e-7 -0.9985165 -0.05445015 0 -0.9985166 -0.05445015 -3.42557e-7 -0.9985165 0.09888952 0.3995976 -0.9113412 0.06443929 0.8019856 -0.5938574 0.05444991 0 0.9985165 0.05445033 3.28569e-6 0.9985165 0.05444979 0 0.9985165 0.05444979 -1.67503e-6 0.9985166 0.05445027 8.29608e-7 0.9985166 0.05444991 -1.15802e-6 0.9985166 0.05444997 2.03002e-6 0.9985166 0.05445027 0 0.9985165 0.05445015 -2.28372e-6 0.9985165 0.05445027 -7.479e-7 0.9985165 0.05445039 7.62552e-7 0.9985166 0.05445045 -7.93028e-7 0.9985166 0.05445039 -1.82697e-6 0.9985165 0.05445027 0 0.9985165 0.05445033 1.36168e-6 0.9985165 0.05445015 -2.11178e-6 0.9985166 0.05444979 0 0.9985166 0.05444991 -1.67503e-6 0.9985166 0.05445027 -1.03148e-6 0.9985165 0.05445051 3.2857e-6 0.9985165 0.05445003 1.65922e-6 0.9985166 0.05444973 2.53753e-6 0.9985166 0.05445027 0 0.9985166 0.05445021 0 0.9985166 0.05445027 7.93028e-7 0.9985166 0.05445033 1.36168e-6 0.9985165 0.05444985 -1.05589e-6 0.9985166 -0.07461827 0 0.9972122 0.07883179 0 0.9968881 0.1178129 0 0.9930359 0.1897073 0 0.9818408 0.3846608 0 0.923058 0.9842527 0 -0.1767677 0.3392288 0 -0.940704 0.1759007 0 -0.984408 0.07461804 0 -0.9972123 0.0498135 0 -0.9987586 -0.05287581 0 -0.9986011 -0.1178125 0 -0.9930359 -0.1897073 0 -0.9818408 -0.3846586 0 -0.9230589 0 -1 0 2.02324e-7 -1 -2.43458e-6 6.8622e-7 -1 -3.87753e-6 2.07782e-6 -1 1.14837e-5 -3.32337e-7 -1 -3.95354e-6 -1.27309e-7 -1 -1.67697e-6 0 -1 -1.9581e-6 0 -1 0 0 -1 8.99915e-7 5.73272e-7 -1 0 0 -1 1.24609e-6 2.02322e-7 -1 0 6.86225e-7 -1 -3.87756e-6 2.07785e-6 -1 1.14838e-5 -3.32336e-7 -1 0 -1.27309e-7 -1 -3.35393e-6 0 -1 -3.91619e-6 0 -1 -8.99917e-7 -0.9842509 0 0.1767777 -0.3392299 0 0.9407035 -6.8623e-7 1 0 -2.02324e-7 1 1.82594e-6 3.32334e-7 1 3.95351e-6 0 1 0 -5.7327e-7 1 2.00871e-7 0 1 9.79052e-7 0 1 -1.49731e-7 0 1 1.24191e-7 0 1 0 0 1 8.99917e-7 0 1 0 0 1 -1.34755e-7 0 1 1.70827e-7 0 1 2.20286e-6 -5.73272e-7 1 8.03487e-7 1.27309e-7 1 1.46734e-6 3.32337e-7 1 9.88385e-7 -2.02323e-7 1 0 -2.07782e-6 1 -5.74185e-6 -6.86225e-7 1 1.93878e-6 0 1 9.3457e-7 0 1 1.49732e-7 0 1 -8.99915e-7 0 1 0 0 1 -1.70828e-7 1.27309e-7 1 2.09622e-6 0.01894426 0.633808 0.7732585 0.02366894 0.2571085 0.9660927 0.02421784 0.1492973 0.9884958 0.02437472 0.09786897 0.9949008 0.02443879 0.06608903 0.9975144 0.02446955 0.04309827 0.9987711 0.02448505 0.02447444 0.9994006 0.02449154 0.007948517 0.9996685 0.02449154 -0.007948517 0.9996685 0.02448499 -0.02447444 0.9994006 0.02446961 -0.04309827 0.9987711 0.02443879 -0.06608909 0.9975144 0.02437478 -0.09786897 0.9949008 0.02421784 -0.1492975 0.9884957 0.02366894 -0.2571088 0.9660926 0.01894444 -0.6338136 0.7732539 -0.0189445 -0.6338114 -0.7732557 -0.02366894 -0.257109 -0.9660925 -0.02421784 -0.1492986 -0.9884956 -0.02437478 -0.0978682 -0.994901 -0.02443879 -0.06608903 -0.9975144 -0.02446961 -0.04309827 -0.9987712 -0.02448499 -0.02447444 -0.9994006 -0.02449154 -0.007949173 -0.9996685 -0.02449154 0.007949173 -0.9996685 -0.02448505 0.02447444 -0.9994006 -0.02446961 0.04309833 -0.9987712 -0.02443879 0.06608903 -0.9975144 -0.02437478 0.09786826 -0.9949009 -0.02421784 0.1492987 -0.9884956 -0.2347706 0 0.9720509 -0.234772 0 0.9720504 -0.2347679 2.14961e-6 0.9720516 -0.2347694 -2.69933e-6 0.9720512 -0.2347691 1.38161e-6 0.9720512 -0.2347699 -1.85934e-6 0.9720511 -0.2347688 0 0.9720513 -0.2347691 0 0.9720512 -0.2347694 -1.51524e-6 0.9720511 -0.2347694 0 0.9720512 -0.2347696 -9.78611e-7 0.9720511 -0.2347695 0 0.9720512 -0.2347695 -2.20314e-6 0.9720512 -0.2347695 1.19528e-6 0.9720512 -0.2347692 1.51524e-6 0.9720512 -0.2347692 -1.32812e-6 0.9720512 -0.2347692 -1.08552e-6 0.9720512 -0.2347695 1.85934e-6 0.9720511 -0.2347695 0 0.9720512 -0.2347689 -2.14962e-6 0.9720512 -0.2347691 3.18313e-6 0.9720513 -0.2347695 0 0.9720511 -0.2347696 2.69934e-6 0.9720511 -0.2347691 -8.90867e-7 0.9720512 -0.2347695 1.03766e-6 0.9720512 -0.2347694 9.7861e-7 0.9720512 -0.2347694 0 0.9720512 -0.2347697 1.10157e-6 0.9720511 -0.2347697 0 0.972051 -0.02366906 0.2571097 -0.9660924 -0.01894462 0.6338145 -0.7732531 0.2347716 6.36634e-6 -0.9720506 0.2347664 0 -0.9720518 0.2347691 -2.69933e-6 -0.9720512 0.2347704 2.19175e-6 -0.9720509 0.2347694 0 -0.9720512 0.2347695 0 -0.9720512 0.2347692 0 -0.9720512 0.2347695 0 -0.9720511 0.2347696 0 -0.9720512 0.2347695 4.89305e-7 -0.9720511 0.2347696 0 -0.9720512 0.2347694 5.97638e-7 -0.9720512 0.2347694 0 -0.9720512 0.2347693 -8.90867e-7 -0.9720512 0.2347695 0 -0.9720511 0.2347695 9.29668e-7 -0.9720511 0.2347693 0 -0.9720512 0.2347693 2.69934e-6 -0.9720511 0.2347686 -6.36626e-6 -0.9720513 0.2347686 -4.29925e-6 -0.9720514 0.2347694 7.5762e-7 -0.9720512 0.2347693 -6.64059e-7 -0.9720512 0.2347693 -4.89305e-7 -0.9720512 0.2347694 0 -0.9720511 0.2347689 0 -0.9720513 0.2347691 0 -0.9720512</float_array>
          <technique_common>
            <accessor source="#Cylinder_011-mesh-normals-array" count="426" stride="3">
              <param name="X" type="float"/>
              <param name="Y" type="float"/>
              <param name="Z" type="float"/>
            </accessor>
          </technique_common>
        </source>
        <source id="Cylinder_011-mesh-map-0">
          <float_array id="Cylinder_011-mesh-map-0-array" count="2976">1 0.5 0.96875 1 0.96875 0.5 0.96875 0.5 0.9375 1 0.9375 0.5 0.9375 0.5 0.90625 1 0.90625 0.5 0.90625 0.5 0.875 1 0.875 0.5 0.875 0.5 0.84375 1 0.84375 0.5 0.84375 0.5 0.8125 1 0.8125 0.5 0.8125 0.5 0.78125 1 0.78125 0.5 0.78125 0.5 0.75 1 0.75 0.5 0.75 0.5 0.71875 1 0.71875 0.5 0.71875 0.5 0.6875 1 0.6875 0.5 0.6875 0.5 0.65625 1 0.65625 0.5 0.65625 0.5 0.625 1 0.625 0.5 0.625 0.5 0.59375 1 0.59375 0.5 0.59375 0.5 0.5625 1 0.5625 0.5 0.5625 0.5 0.53125 1 0.53125 0.5 0.53125 0.5 0.5 1 0.5 0.5 0.5 0.5 0.46875 1 0.46875 0.5 0.46875 0.5 0.4375 1 0.4375 0.5 0.4375 0.5 0.40625 1 0.40625 0.5 0.40625 0.5 0.375 1 0.375 0.5 0.375 0.5 0.34375 1 0.34375 0.5 0.34375 0.5 0.3125 1 0.3125 0.5 0.3125 0.5 0.28125 1 0.28125 0.5 0.28125 0.5 0.25 1 0.25 0.5 0.25 0.5 0.21875 1 0.21875 0.5 0.21875 0.5 0.1875 1 0.1875 0.5 0.1875 0.5 0.15625 1 0.15625 0.5 0.15625 0.5 0.125 1 0.125 0.5 0.125 0.5 0.09375 1 0.09375 0.5 0.09375 0.5 0.0625 1 0.0625 0.5 0.341844 0.4717311 0.02826887 0.341844 0.1581559 0.02826887 0.0625 0.5 0.03125 1 0.03125 0.5 0.03125 0.5 0 1 0 0.5 0.9853885 0.2968217 0.7968217 0.01461154 0.5146116 0.2031783 1 0.5 0.96875 1 0.96875 0.5 0.96875 0.5 0.9375 1 0.9375 0.5 0.9375 0.5 0.90625 1 0.90625 0.5 0.90625 0.5 0.875 1 0.875 0.5 0.875 0.5 0.84375 1 0.84375 0.5 0.84375 0.5 0.8125 1 0.8125 0.5 0.8125 0.5 0.78125 1 0.78125 0.5 0.78125 0.5 0.75 1 0.75 0.5 0.75 0.5 0.71875 1 0.71875 0.5 0.71875 0.5 0.6875 1 0.6875 0.5 0.6875 0.5 0.65625 1 0.65625 0.5 0.65625 0.5 0.625 1 0.625 0.5 0.625 0.5 0.59375 1 0.59375 0.5 0.59375 0.5 0.5625 1 0.5625 0.5 0.5625 0.5 0.53125 1 0.53125 0.5 0.53125 0.5 0.5 1 0.5 0.5 0.5 0.5 0.46875 1 0.46875 0.5 0.46875 0.5 0.4375 1 0.4375 0.5 0.4375 0.5 0.40625 1 0.40625 0.5 0.40625 0.5 0.375 1 0.375 0.5 0.375 0.5 0.34375 1 0.34375 0.5 0.34375 0.5 0.3125 1 0.3125 0.5 0.3125 0.5 0.28125 1 0.28125 0.5 0.28125 0.5 0.25 1 0.25 0.5 0.25 0.5 0.21875 1 0.21875 0.5 0.21875 0.5 0.1875 1 0.1875 0.5 0.1875 0.5 0.15625 1 0.15625 0.5 0.15625 0.5 0.125 1 0.125 0.5 0.125 0.5 0.09375 1 0.09375 0.5 0.09375 0.5 0.0625 1 0.0625 0.5 0.4197056 0.4197056 0.3833369 0.4495527 0.08029437 0.4197056 0.0625 0.5 0.03125 1 0.03125 0.5 0.03125 0.5 0 1 0 0.5 0.6166632 0.4495527 0.658156 0.4717311 0.8833369 0.4495527 1 0.5 0.96875 1 0.96875 0.5 0.96875 0.5 0.9375 1 0.9375 0.5 0.9375 0.5 0.90625 1 0.90625 0.5 0.90625 0.5 0.875 1 0.875 0.5 0.875 0.5 0.84375 1 0.84375 0.5 0.84375 0.5 0.8125 1 0.8125 0.5 0.8125 0.5 0.78125 1 0.78125 0.5 0.78125 0.5 0.75 1 0.75 0.5 0.75 0.5 0.71875 1 0.71875 0.5 0.71875 0.5 0.6875 1 0.6875 0.5 0.6875 0.5 0.65625 1 0.65625 0.5 0.65625 0.5 0.625 1 0.625 0.5 0.625 0.5 0.59375 1 0.59375 0.5 0.59375 0.5 0.5625 1 0.5625 0.5 0.5625 0.5 0.53125 1 0.53125 0.5 0.53125 0.5 0.5 1 0.5 0.5 0.5 0.5 0.46875 1 0.46875 0.5 0.46875 0.5 0.4375 1 0.4375 0.5 0.4375 0.5 0.40625 1 0.40625 0.5 0.40625 0.5 0.375 1 0.375 0.5 0.375 0.5 0.34375 1 0.34375 0.5 0.34375 0.5 0.3125 1 0.3125 0.5 0.3125 0.5 0.28125 1 0.28125 0.5 0.28125 0.5 0.25 1 0.25 0.5 0.25 0.5 0.21875 1 0.21875 0.5 0.21875 0.5 0.1875 1 0.1875 0.5 0.1875 0.5 0.15625 1 0.15625 0.5 0.15625 0.5 0.125 1 0.125 0.5 0.125 0.5 0.09375 1 0.09375 0.5 0.09375 0.5 0.0625 1 0.0625 0.5 0.3833369 0.4495527 0.341844 0.4717311 0.02826887 0.341844 0.0625 0.5 0.03125 1 0.03125 0.5 0.03125 0.5 0 1 0 0.5 0.6166632 0.4495527 0.658156 0.4717311 0.7031784 0.4853885 1 0.5 0.96875 1 0.96875 0.5 0.96875 0.5 0.9375 1 0.9375 0.5 0.9375 0.5 0.90625 1 0.90625 0.5 0.90625 0.5 0.875 1 0.875 0.5 0.875 0.5 0.84375 1 0.84375 0.5 0.84375 0.5 0.8125 1 0.8125 0.5 0.8125 0.5 0.78125 1 0.78125 0.5 0.78125 0.5 0.75 1 0.75 0.5 0.75 0.5 0.71875 1 0.71875 0.5 0.71875 0.5 0.6875 1 0.6875 0.5 0.6875 0.5 0.65625 1 0.65625 0.5 0.65625 0.5 0.625 1 0.625 0.5 0.625 0.5 0.59375 1 0.59375 0.5 0.59375 0.5 0.5625 1 0.5625 0.5 0.5625 0.5 0.53125 1 0.53125 0.5 0.53125 0.5 0.5 1 0.5 0.5 0.5 0.5 0.46875 1 0.46875 0.5 0.46875 0.5 0.4375 1 0.4375 0.5 0.4375 0.5 0.40625 1 0.40625 0.5 0.40625 0.5 0.375 1 0.375 0.5 0.375 0.5 0.34375 1 0.34375 0.5 0.34375 0.5 0.3125 1 0.3125 0.5 0.3125 0.5 0.28125 1 0.28125 0.5 0.28125 0.5 0.25 1 0.25 0.5 0.25 0.5 0.21875 1 0.21875 0.5 0.21875 0.5 0.1875 1 0.1875 0.5 0.1875 0.5 0.15625 1 0.15625 0.5 0.15625 0.5 0.125 1 0.125 0.5 0.125 0.5 0.09375 1 0.09375 0.5 0.09375 0.5 0.0625 1 0.0625 0.5 0.4197056 0.4197056 0.3833369 0.4495527 0.08029437 0.4197056 0.0625 0.5 0.03125 1 0.03125 0.5 0.03125 0.5 0 1 0 0.5 0.6166632 0.4495527 0.658156 0.4717311 0.8833369 0.4495527 1 0.5 1 1 0.96875 1 0.96875 0.5 0.96875 1 0.9375 1 0.9375 0.5 0.9375 1 0.90625 1 0.90625 0.5 0.90625 1 0.875 1 0.875 0.5 0.875 1 0.84375 1 0.84375 0.5 0.84375 1 0.8125 1 0.8125 0.5 0.8125 1 0.78125 1 0.78125 0.5 0.78125 1 0.75 1 0.75 0.5 0.75 1 0.71875 1 0.71875 0.5 0.71875 1 0.6875 1 0.6875 0.5 0.6875 1 0.65625 1 0.65625 0.5 0.65625 1 0.625 1 0.625 0.5 0.625 1 0.59375 1 0.59375 0.5 0.59375 1 0.5625 1 0.5625 0.5 0.5625 1 0.53125 1 0.53125 0.5 0.53125 1 0.5 1 0.5 0.5 0.5 1 0.46875 1 0.46875 0.5 0.46875 1 0.4375 1 0.4375 0.5 0.4375 1 0.40625 1 0.40625 0.5 0.40625 1 0.375 1 0.375 0.5 0.375 1 0.34375 1 0.34375 0.5 0.34375 1 0.3125 1 0.3125 0.5 0.3125 1 0.28125 1 0.28125 0.5 0.28125 1 0.25 1 0.25 0.5 0.25 1 0.21875 1 0.21875 0.5 0.21875 1 0.1875 1 0.1875 0.5 0.1875 1 0.15625 1 0.15625 0.5 0.15625 1 0.125 1 0.125 0.5 0.125 1 0.09375 1 0.09375 0.5 0.09375 1 0.0625 1 0.341844 0.4717311 0.2968217 0.4853885 0.1581559 0.4717311 0.2968217 0.4853885 0.25 0.49 0.1581559 0.4717311 0.25 0.49 0.2031783 0.4853885 0.1581559 0.4717311 0.1581559 0.4717311 0.1166631 0.4495527 0.08029437 0.4197056 0.08029437 0.4197056 0.05044728 0.3833369 0.02826887 0.341844 0.02826887 0.341844 0.01461154 0.2968217 0.00999999 0.25 0.00999999 0.25 0.01461154 0.2031783 0.02826887 0.1581559 0.02826887 0.1581559 0.05044728 0.1166631 0.08029437 0.08029437 0.08029437 0.08029437 0.1166631 0.05044728 0.1581559 0.02826887 0.1581559 0.02826887 0.2031783 0.01461154 0.25 0.00999999 0.25 0.00999999 0.2968217 0.01461154 0.1581559 0.02826887 0.2968217 0.01461154 0.341844 0.02826887 0.1581559 0.02826887 0.341844 0.02826887 0.3833369 0.05044728 0.4197056 0.08029437 0.4197056 0.08029437 0.4495527 0.1166631 0.341844 0.02826887 0.4495527 0.1166631 0.4717311 0.1581559 0.341844 0.02826887 0.4717311 0.1581559 0.4853885 0.2031783 0.49 0.25 0.49 0.25 0.4853885 0.2968217 0.4717311 0.341844 0.4717311 0.341844 0.4495527 0.3833369 0.341844 0.4717311 0.4495527 0.3833369 0.4197056 0.4197056 0.341844 0.4717311 0.4197056 0.4197056 0.3833369 0.4495527 0.341844 0.4717311 0.1581559 0.4717311 0.08029437 0.4197056 0.341844 0.4717311 0.08029437 0.4197056 0.02826887 0.341844 0.341844 0.4717311 0.02826887 0.341844 0.00999999 0.25 0.02826887 0.1581559 0.02826887 0.1581559 0.08029437 0.08029437 0.02826887 0.341844 0.08029437 0.08029437 0.1581559 0.02826887 0.02826887 0.341844 0.4717311 0.1581559 0.49 0.25 0.4717311 0.341844 0.1581559 0.02826887 0.341844 0.02826887 0.4717311 0.1581559 0.4717311 0.1581559 0.4717311 0.341844 0.1581559 0.02826887 0.4717311 0.341844 0.341844 0.4717311 0.1581559 0.02826887 0.0625 0.5 0.0625 1 0.03125 1 0.03125 0.5 0.03125 1 0 1 0.7031784 0.4853885 0.75 0.49 0.7968217 0.4853885 0.7968217 0.4853885 0.841844 0.4717311 0.8833369 0.4495527 0.8833369 0.4495527 0.9197056 0.4197056 0.9495527 0.3833369 0.9495527 0.3833369 0.9717311 0.341844 0.9853885 0.2968217 0.9853885 0.2968217 0.99 0.25 0.9495527 0.1166631 0.99 0.25 0.9853885 0.2031783 0.9495527 0.1166631 0.9853885 0.2031783 0.9717311 0.1581559 0.9495527 0.1166631 0.9495527 0.1166631 0.9197056 0.08029437 0.8833369 0.05044728 0.8833369 0.05044728 0.841844 0.02826887 0.7968217 0.01461154 0.7968217 0.01461154 0.75 0.00999999 0.7031784 0.01461154 0.7031784 0.01461154 0.658156 0.02826887 0.6166632 0.05044728 0.6166632 0.05044728 0.5802944 0.08029437 0.5504473 0.1166631 0.5504473 0.1166631 0.5282689 0.1581559 0.5146116 0.2031783 0.5146116 0.2031783 0.51 0.25 0.5504473 0.3833369 0.51 0.25 0.5146116 0.2968217 0.5504473 0.3833369 0.5146116 0.2968217 0.5282689 0.341844 0.5504473 0.3833369 0.5504473 0.3833369 0.5802944 0.4197056 0.7031784 0.4853885 0.5802944 0.4197056 0.6166632 0.4495527 0.7031784 0.4853885 0.6166632 0.4495527 0.658156 0.4717311 0.7031784 0.4853885 0.7031784 0.4853885 0.7968217 0.4853885 0.8833369 0.4495527 0.8833369 0.4495527 0.9495527 0.3833369 0.7031784 0.4853885 0.9495527 0.3833369 0.9853885 0.2968217 0.7031784 0.4853885 0.9495527 0.1166631 0.8833369 0.05044728 0.7968217 0.01461154 0.7968217 0.01461154 0.7031784 0.01461154 0.6166632 0.05044728 0.6166632 0.05044728 0.5504473 0.1166631 0.7968217 0.01461154 0.5504473 0.1166631 0.5146116 0.2031783 0.7968217 0.01461154 0.9853885 0.2968217 0.9495527 0.1166631 0.7968217 0.01461154 0.5146116 0.2031783 0.5504473 0.3833369 0.7031784 0.4853885 0.7031784 0.4853885 0.9853885 0.2968217 0.5146116 0.2031783 1 0.5 1 1 0.96875 1 0.96875 0.5 0.96875 1 0.9375 1 0.9375 0.5 0.9375 1 0.90625 1 0.90625 0.5 0.90625 1 0.875 1 0.875 0.5 0.875 1 0.84375 1 0.84375 0.5 0.84375 1 0.8125 1 0.8125 0.5 0.8125 1 0.78125 1 0.78125 0.5 0.78125 1 0.75 1 0.75 0.5 0.75 1 0.71875 1 0.71875 0.5 0.71875 1 0.6875 1 0.6875 0.5 0.6875 1 0.65625 1 0.65625 0.5 0.65625 1 0.625 1 0.625 0.5 0.625 1 0.59375 1 0.59375 0.5 0.59375 1 0.5625 1 0.5625 0.5 0.5625 1 0.53125 1 0.53125 0.5 0.53125 1 0.5 1 0.5 0.5 0.5 1 0.46875 1 0.46875 0.5 0.46875 1 0.4375 1 0.4375 0.5 0.4375 1 0.40625 1 0.40625 0.5 0.40625 1 0.375 1 0.375 0.5 0.375 1 0.34375 1 0.34375 0.5 0.34375 1 0.3125 1 0.3125 0.5 0.3125 1 0.28125 1 0.28125 0.5 0.28125 1 0.25 1 0.25 0.5 0.25 1 0.21875 1 0.21875 0.5 0.21875 1 0.1875 1 0.1875 0.5 0.1875 1 0.15625 1 0.15625 0.5 0.15625 1 0.125 1 0.125 0.5 0.125 1 0.09375 1 0.09375 0.5 0.09375 1 0.0625 1 0.341844 0.4717311 0.2968217 0.4853885 0.1581559 0.4717311 0.2968217 0.4853885 0.25 0.49 0.2031783 0.4853885 0.1581559 0.4717311 0.2968217 0.4853885 0.2031783 0.4853885 0.1581559 0.4717311 0.1166631 0.4495527 0.341844 0.4717311 0.1166631 0.4495527 0.08029437 0.4197056 0.3833369 0.4495527 0.341844 0.4717311 0.1166631 0.4495527 0.3833369 0.4495527 0.08029437 0.4197056 0.05044728 0.3833369 0.4197056 0.4197056 0.05044728 0.3833369 0.02826887 0.341844 0.4495527 0.3833369 0.4197056 0.4197056 0.05044728 0.3833369 0.4495527 0.3833369 0.02826887 0.341844 0.01461154 0.2968217 0.4853885 0.2968217 0.01461154 0.2968217 0.00999999 0.25 0.49 0.25 0.00999999 0.25 0.01461154 0.2031783 0.4853885 0.2031783 0.01461154 0.2031783 0.02826887 0.1581559 0.4717311 0.1581559 0.02826887 0.1581559 0.05044728 0.1166631 0.4717311 0.1581559 0.05044728 0.1166631 0.08029437 0.08029437 0.4495527 0.1166631 0.4717311 0.1581559 0.05044728 0.1166631 0.4495527 0.1166631 0.08029437 0.08029437 0.1166631 0.05044728 0.4197056 0.08029437 0.1166631 0.05044728 0.1581559 0.02826887 0.3833369 0.05044728 0.4197056 0.08029437 0.1166631 0.05044728 0.3833369 0.05044728 0.1581559 0.02826887 0.2031783 0.01461154 0.2968217 0.01461154 0.2031783 0.01461154 0.25 0.00999999 0.2968217 0.01461154 0.2968217 0.01461154 0.341844 0.02826887 0.1581559 0.02826887 0.341844 0.02826887 0.3833369 0.05044728 0.1581559 0.02826887 0.4197056 0.08029437 0.4495527 0.1166631 0.08029437 0.08029437 0.4717311 0.1581559 0.4853885 0.2031783 0.01461154 0.2031783 0.4853885 0.2031783 0.49 0.25 0.00999999 0.25 0.49 0.25 0.4853885 0.2968217 0.01461154 0.2968217 0.4853885 0.2968217 0.4717311 0.341844 0.02826887 0.341844 0.4717311 0.341844 0.4495527 0.3833369 0.02826887 0.341844 0.0625 0.5 0.0625 1 0.03125 1 0.03125 0.5 0.03125 1 0 1 0.7031784 0.4853885 0.75 0.49 0.7968217 0.4853885 0.7968217 0.4853885 0.841844 0.4717311 0.7031784 0.4853885 0.841844 0.4717311 0.8833369 0.4495527 0.658156 0.4717311 0.7031784 0.4853885 0.841844 0.4717311 0.658156 0.4717311 0.8833369 0.4495527 0.9197056 0.4197056 0.5802944 0.4197056 0.9197056 0.4197056 0.9495527 0.3833369 0.5504473 0.3833369 0.9495527 0.3833369 0.9717311 0.341844 0.5504473 0.3833369 0.9717311 0.341844 0.9853885 0.2968217 0.5282689 0.341844 0.5504473 0.3833369 0.9717311 0.341844 0.5282689 0.341844 0.9853885 0.2968217 0.99 0.25 0.51 0.25 0.99 0.25 0.9853885 0.2031783 0.5146116 0.2031783 0.9853885 0.2031783 0.9717311 0.1581559 0.5146116 0.2031783 0.9717311 0.1581559 0.9495527 0.1166631 0.5282689 0.1581559 0.5146116 0.2031783 0.9717311 0.1581559 0.5282689 0.1581559 0.9495527 0.1166631 0.9197056 0.08029437 0.5802944 0.08029437 0.9197056 0.08029437 0.8833369 0.05044728 0.6166632 0.05044728 0.8833369 0.05044728 0.841844 0.02826887 0.6166632 0.05044728 0.841844 0.02826887 0.7968217 0.01461154 0.658156 0.02826887 0.6166632 0.05044728 0.841844 0.02826887 0.658156 0.02826887 0.7968217 0.01461154 0.75 0.00999999 0.7031784 0.01461154 0.7031784 0.01461154 0.658156 0.02826887 0.7968217 0.01461154 0.6166632 0.05044728 0.5802944 0.08029437 0.9197056 0.08029437 0.5802944 0.08029437 0.5504473 0.1166631 0.9495527 0.1166631 0.5504473 0.1166631 0.5282689 0.1581559 0.9495527 0.1166631 0.5146116 0.2031783 0.51 0.25 0.99 0.25 0.51 0.25 0.5146116 0.2968217 0.9853885 0.2968217 0.5146116 0.2968217 0.5282689 0.341844 0.9853885 0.2968217 0.5504473 0.3833369 0.5802944 0.4197056 0.9197056 0.4197056 0.5802944 0.4197056 0.6166632 0.4495527 0.8833369 0.4495527 1 0.5 1 1 0.96875 1 0.96875 0.5 0.96875 1 0.9375 1 0.9375 0.5 0.9375 1 0.90625 1 0.90625 0.5 0.90625 1 0.875 1 0.875 0.5 0.875 1 0.84375 1 0.84375 0.5 0.84375 1 0.8125 1 0.8125 0.5 0.8125 1 0.78125 1 0.78125 0.5 0.78125 1 0.75 1 0.75 0.5 0.75 1 0.71875 1 0.71875 0.5 0.71875 1 0.6875 1 0.6875 0.5 0.6875 1 0.65625 1 0.65625 0.5 0.65625 1 0.625 1 0.625 0.5 0.625 1 0.59375 1 0.59375 0.5 0.59375 1 0.5625 1 0.5625 0.5 0.5625 1 0.53125 1 0.53125 0.5 0.53125 1 0.5 1 0.5 0.5 0.5 1 0.46875 1 0.46875 0.5 0.46875 1 0.4375 1 0.4375 0.5 0.4375 1 0.40625 1 0.40625 0.5 0.40625 1 0.375 1 0.375 0.5 0.375 1 0.34375 1 0.34375 0.5 0.34375 1 0.3125 1 0.3125 0.5 0.3125 1 0.28125 1 0.28125 0.5 0.28125 1 0.25 1 0.25 0.5 0.25 1 0.21875 1 0.21875 0.5 0.21875 1 0.1875 1 0.1875 0.5 0.1875 1 0.15625 1 0.15625 0.5 0.15625 1 0.125 1 0.125 0.5 0.125 1 0.09375 1 0.09375 0.5 0.09375 1 0.0625 1 0.341844 0.4717311 0.2968217 0.4853885 0.05044728 0.3833369 0.2968217 0.4853885 0.25 0.49 0.08029437 0.4197056 0.25 0.49 0.2031783 0.4853885 0.1166631 0.4495527 0.2031783 0.4853885 0.1581559 0.4717311 0.1166631 0.4495527 0.1166631 0.4495527 0.08029437 0.4197056 0.25 0.49 0.08029437 0.4197056 0.05044728 0.3833369 0.2968217 0.4853885 0.05044728 0.3833369 0.02826887 0.341844 0.341844 0.4717311 0.02826887 0.341844 0.01461154 0.2968217 0.3833369 0.4495527 0.01461154 0.2968217 0.00999999 0.25 0.4197056 0.4197056 0.00999999 0.25 0.01461154 0.2031783 0.4495527 0.3833369 0.01461154 0.2031783 0.02826887 0.1581559 0.4717311 0.341844 0.02826887 0.1581559 0.05044728 0.1166631 0.4853885 0.2968217 0.05044728 0.1166631 0.08029437 0.08029437 0.49 0.25 0.08029437 0.08029437 0.1166631 0.05044728 0.4853885 0.2031783 0.1166631 0.05044728 0.1581559 0.02826887 0.4717311 0.1581559 0.1581559 0.02826887 0.2031783 0.01461154 0.4495527 0.1166631 0.2031783 0.01461154 0.25 0.00999999 0.4197056 0.08029437 0.25 0.00999999 0.2968217 0.01461154 0.3833369 0.05044728 0.2968217 0.01461154 0.341844 0.02826887 0.3833369 0.05044728 0.3833369 0.05044728 0.4197056 0.08029437 0.25 0.00999999 0.4197056 0.08029437 0.4495527 0.1166631 0.2031783 0.01461154 0.4495527 0.1166631 0.4717311 0.1581559 0.1581559 0.02826887 0.4717311 0.1581559 0.4853885 0.2031783 0.1166631 0.05044728 0.4853885 0.2031783 0.49 0.25 0.08029437 0.08029437 0.49 0.25 0.4853885 0.2968217 0.05044728 0.1166631 0.4853885 0.2968217 0.4717311 0.341844 0.02826887 0.1581559 0.4717311 0.341844 0.4495527 0.3833369 0.01461154 0.2031783 0.4495527 0.3833369 0.4197056 0.4197056 0.00999999 0.25 0.4197056 0.4197056 0.3833369 0.4495527 0.01461154 0.2968217 0.0625 0.5 0.0625 1 0.03125 1 0.03125 0.5 0.03125 1 0 1 0.7031784 0.4853885 0.75 0.49 0.6166632 0.4495527 0.75 0.49 0.7968217 0.4853885 0.5802944 0.4197056 0.6166632 0.4495527 0.75 0.49 0.5802944 0.4197056 0.7968217 0.4853885 0.841844 0.4717311 0.5504473 0.3833369 0.841844 0.4717311 0.8833369 0.4495527 0.5282689 0.341844 0.5504473 0.3833369 0.841844 0.4717311 0.5282689 0.341844 0.8833369 0.4495527 0.9197056 0.4197056 0.5146116 0.2968217 0.9197056 0.4197056 0.9495527 0.3833369 0.51 0.25 0.5146116 0.2968217 0.9197056 0.4197056 0.51 0.25 0.9495527 0.3833369 0.9717311 0.341844 0.5146116 0.2031783 0.9717311 0.341844 0.9853885 0.2968217 0.5282689 0.1581559 0.5146116 0.2031783 0.9717311 0.341844 0.5282689 0.1581559 0.9853885 0.2968217 0.99 0.25 0.5504473 0.1166631 0.99 0.25 0.9853885 0.2031783 0.5802944 0.08029437 0.5504473 0.1166631 0.99 0.25 0.5802944 0.08029437 0.9853885 0.2031783 0.9717311 0.1581559 0.6166632 0.05044728 0.9717311 0.1581559 0.9495527 0.1166631 0.658156 0.02826887 0.6166632 0.05044728 0.9717311 0.1581559 0.658156 0.02826887 0.9495527 0.1166631 0.9197056 0.08029437 0.7031784 0.01461154 0.9197056 0.08029437 0.8833369 0.05044728 0.75 0.00999999 0.7031784 0.01461154 0.9197056 0.08029437 0.75 0.00999999 0.8833369 0.05044728 0.841844 0.02826887 0.7968217 0.01461154 0.7968217 0.01461154 0.75 0.00999999 0.8833369 0.05044728 0.7031784 0.01461154 0.658156 0.02826887 0.9495527 0.1166631 0.6166632 0.05044728 0.5802944 0.08029437 0.9853885 0.2031783 0.5504473 0.1166631 0.5282689 0.1581559 0.9853885 0.2968217 0.5146116 0.2031783 0.51 0.25 0.9495527 0.3833369 0.5146116 0.2968217 0.5282689 0.341844 0.8833369 0.4495527 0.5504473 0.3833369 0.5802944 0.4197056 0.7968217 0.4853885 1 0.5 1 1 0.96875 1 0.96875 0.5 0.96875 1 0.9375 1 0.9375 0.5 0.9375 1 0.90625 1 0.90625 0.5 0.90625 1 0.875 1 0.875 0.5 0.875 1 0.84375 1 0.84375 0.5 0.84375 1 0.8125 1 0.8125 0.5 0.8125 1 0.78125 1 0.78125 0.5 0.78125 1 0.75 1 0.75 0.5 0.75 1 0.71875 1 0.71875 0.5 0.71875 1 0.6875 1 0.6875 0.5 0.6875 1 0.65625 1 0.65625 0.5 0.65625 1 0.625 1 0.625 0.5 0.625 1 0.59375 1 0.59375 0.5 0.59375 1 0.5625 1 0.5625 0.5 0.5625 1 0.53125 1 0.53125 0.5 0.53125 1 0.5 1 0.5 0.5 0.5 1 0.46875 1 0.46875 0.5 0.46875 1 0.4375 1 0.4375 0.5 0.4375 1 0.40625 1 0.40625 0.5 0.40625 1 0.375 1 0.375 0.5 0.375 1 0.34375 1 0.34375 0.5 0.34375 1 0.3125 1 0.3125 0.5 0.3125 1 0.28125 1 0.28125 0.5 0.28125 1 0.25 1 0.25 0.5 0.25 1 0.21875 1 0.21875 0.5 0.21875 1 0.1875 1 0.1875 0.5 0.1875 1 0.15625 1 0.15625 0.5 0.15625 1 0.125 1 0.125 0.5 0.125 1 0.09375 1 0.09375 0.5 0.09375 1 0.0625 1 0.341844 0.4717311 0.2968217 0.4853885 0.1581559 0.4717311 0.2968217 0.4853885 0.25 0.49 0.2031783 0.4853885 0.1581559 0.4717311 0.2968217 0.4853885 0.2031783 0.4853885 0.1581559 0.4717311 0.1166631 0.4495527 0.341844 0.4717311 0.1166631 0.4495527 0.08029437 0.4197056 0.3833369 0.4495527 0.341844 0.4717311 0.1166631 0.4495527 0.3833369 0.4495527 0.08029437 0.4197056 0.05044728 0.3833369 0.4197056 0.4197056 0.05044728 0.3833369 0.02826887 0.341844 0.4495527 0.3833369 0.4197056 0.4197056 0.05044728 0.3833369 0.4495527 0.3833369 0.02826887 0.341844 0.01461154 0.2968217 0.4853885 0.2968217 0.01461154 0.2968217 0.00999999 0.25 0.49 0.25 0.00999999 0.25 0.01461154 0.2031783 0.4853885 0.2031783 0.01461154 0.2031783 0.02826887 0.1581559 0.4717311 0.1581559 0.02826887 0.1581559 0.05044728 0.1166631 0.4717311 0.1581559 0.05044728 0.1166631 0.08029437 0.08029437 0.4495527 0.1166631 0.4717311 0.1581559 0.05044728 0.1166631 0.4495527 0.1166631 0.08029437 0.08029437 0.1166631 0.05044728 0.4197056 0.08029437 0.1166631 0.05044728 0.1581559 0.02826887 0.3833369 0.05044728 0.4197056 0.08029437 0.1166631 0.05044728 0.3833369 0.05044728 0.1581559 0.02826887 0.2031783 0.01461154 0.2968217 0.01461154 0.2031783 0.01461154 0.25 0.00999999 0.2968217 0.01461154 0.2968217 0.01461154 0.341844 0.02826887 0.1581559 0.02826887 0.341844 0.02826887 0.3833369 0.05044728 0.1581559 0.02826887 0.4197056 0.08029437 0.4495527 0.1166631 0.08029437 0.08029437 0.4717311 0.1581559 0.4853885 0.2031783 0.01461154 0.2031783 0.4853885 0.2031783 0.49 0.25 0.00999999 0.25 0.49 0.25 0.4853885 0.2968217 0.01461154 0.2968217 0.4853885 0.2968217 0.4717311 0.341844 0.02826887 0.341844 0.4717311 0.341844 0.4495527 0.3833369 0.02826887 0.341844 0.0625 0.5 0.0625 1 0.03125 1 0.03125 0.5 0.03125 1 0 1 0.7031784 0.4853885 0.75 0.49 0.7968217 0.4853885 0.7968217 0.4853885 0.841844 0.4717311 0.7031784 0.4853885 0.841844 0.4717311 0.8833369 0.4495527 0.658156 0.4717311 0.7031784 0.4853885 0.841844 0.4717311 0.658156 0.4717311 0.8833369 0.4495527 0.9197056 0.4197056 0.5802944 0.4197056 0.9197056 0.4197056 0.9495527 0.3833369 0.5504473 0.3833369 0.9495527 0.3833369 0.9717311 0.341844 0.5504473 0.3833369 0.9717311 0.341844 0.9853885 0.2968217 0.5282689 0.341844 0.5504473 0.3833369 0.9717311 0.341844 0.5282689 0.341844 0.9853885 0.2968217 0.99 0.25 0.51 0.25 0.99 0.25 0.9853885 0.2031783 0.5146116 0.2031783 0.9853885 0.2031783 0.9717311 0.1581559 0.5146116 0.2031783 0.9717311 0.1581559 0.9495527 0.1166631 0.5282689 0.1581559 0.5146116 0.2031783 0.9717311 0.1581559 0.5282689 0.1581559 0.9495527 0.1166631 0.9197056 0.08029437 0.5802944 0.08029437 0.9197056 0.08029437 0.8833369 0.05044728 0.6166632 0.05044728 0.8833369 0.05044728 0.841844 0.02826887 0.6166632 0.05044728 0.841844 0.02826887 0.7968217 0.01461154 0.658156 0.02826887 0.6166632 0.05044728 0.841844 0.02826887 0.658156 0.02826887 0.7968217 0.01461154 0.75 0.00999999 0.7031784 0.01461154 0.7031784 0.01461154 0.658156 0.02826887 0.7968217 0.01461154 0.6166632 0.05044728 0.5802944 0.08029437 0.9197056 0.08029437 0.5802944 0.08029437 0.5504473 0.1166631 0.9495527 0.1166631 0.5504473 0.1166631 0.5282689 0.1581559 0.9495527 0.1166631 0.5146116 0.2031783 0.51 0.25 0.99 0.25 0.51 0.25 0.5146116 0.2968217 0.9853885 0.2968217 0.5146116 0.2968217 0.5282689 0.341844 0.9853885 0.2968217 0.5504473 0.3833369 0.5802944 0.4197056 0.9197056 0.4197056 0.5802944 0.4197056 0.6166632 0.4495527 0.8833369 0.4495527</float_array>
          <technique_common>
            <accessor source="#Cylinder_011-mesh-map-0-array" count="1488" stride="2">
              <param name="S" type="float"/>
              <param name="T" type="float"/>
            </accessor>
          </technique_common>
        </source>
        <vertices id="Cylinder_011-mesh-vertices">
          <input semantic="POSITION" source="#Cylinder_011-mesh-positions"/>
        </vertices>
        <triangles material="Material_006-material" count="496">
          <input semantic="VERTEX" source="#Cylinder_011-mesh-vertices" offset="0"/>
          <input semantic="NORMAL" source="#Cylinder_011-mesh-normals" offset="1"/>
          <input semantic="TEXCOORD" source="#Cylinder_011-mesh-map-0" offset="2" set="0"/>
          <p>0 0 0 3 0 1 2 0 2 2 1 3 5 1 4 4 1 5 4 2 6 7 2 7 6 2 8 6 3 9 9 3 10 8 3 11 8 4 12 11 4 13 10 4 14 10 5 15 13 5 16 12 5 17 12 6 18 15 6 19 14 6 20 14 7 21 17 7 22 16 7 23 16 8 24 19 8 25 18 8 26 18 9 27 21 9 28 20 9 29 20 10 30 23 10 31 22 10 32 22 11 33 25 11 34 24 11 35 24 12 36 27 12 37 26 12 38 26 13 39 29 13 40 28 13 41 28 14 42 31 14 43 30 14 44 30 15 45 33 15 46 32 15 47 32 16 48 35 16 49 34 16 50 34 17 51 37 17 52 36 17 53 36 18 54 39 18 55 38 18 56 38 19 57 41 19 58 40 19 59 40 20 60 43 20 61 42 20 62 42 21 63 45 21 64 44 21 65 44 22 66 47 22 67 46 22 68 46 23 69 49 23 70 48 23 71 48 24 72 51 24 73 50 24 74 50 25 75 53 25 76 52 25 77 52 26 78 55 26 79 54 26 80 54 27 81 57 27 82 56 27 83 56 28 84 59 28 85 58 28 86 58 29 87 61 29 88 60 29 89 5 30 90 53 30 91 37 30 92 60 31 93 63 31 94 62 31 95 62 32 96 1 32 97 0 32 98 14 33 99 30 33 100 46 33 101 64 34 102 67 34 103 66 34 104 66 35 105 69 35 106 68 35 107 68 36 108 71 36 109 70 36 110 70 37 111 73 37 112 72 37 113 72 38 114 75 38 115 74 38 116 74 39 117 77 39 118 76 39 119 76 40 120 79 40 121 78 40 122 78 41 123 81 41 124 80 41 125 80 42 126 83 42 127 82 42 128 82 43 129 85 43 130 84 43 131 84 44 132 87 44 133 86 44 134 86 45 135 89 45 136 88 45 137 88 46 138 91 46 139 90 46 140 90 47 141 93 47 142 92 47 143 92 48 144 95 48 145 94 48 146 94 49 147 97 49 148 96 49 149 96 50 150 99 50 151 98 50 152 98 51 153 101 51 154 100 51 155 100 52 156 103 52 157 102 52 158 102 53 159 105 53 160 104 53 161 104 54 162 107 54 163 106 54 164 106 55 165 109 55 166 108 55 167 108 56 168 111 56 169 110 56 170 110 57 171 113 57 172 112 57 173 112 58 174 115 58 175 114 58 176 114 59 177 117 59 178 116 59 179 116 60 180 119 60 181 118 60 182 118 61 183 121 61 184 120 61 185 120 62 186 123 62 187 122 62 188 122 63 189 125 63 190 124 63 191 73 64 192 71 64 193 121 64 194 124 65 195 127 65 196 126 65 197 126 66 198 65 66 199 64 66 200 122 67 201 124 67 202 70 67 203 128 68 204 131 68 205 130 68 206 130 69 207 133 69 208 132 69 209 132 70 210 135 70 211 134 70 212 134 71 213 137 71 214 136 71 215 136 72 216 139 72 217 138 72 218 138 73 219 141 73 220 140 73 221 140 74 222 143 74 223 142 74 224 142 75 225 145 75 226 144 75 227 144 76 228 147 76 229 146 76 230 146 77 231 149 77 232 148 77 233 148 78 234 151 78 235 150 78 236 150 79 237 153 79 238 152 79 239 152 80 240 155 80 241 154 80 242 154 81 243 157 81 244 156 81 245 156 82 246 159 82 247 158 82 248 158 83 249 161 83 250 160 83 251 160 84 252 163 84 253 162 84 254 162 85 255 165 85 256 164 85 257 164 86 258 167 86 259 166 86 260 166 87 261 169 87 262 168 87 263 168 88 264 171 88 265 170 88 266 170 89 267 173 89 268 172 89 269 172 90 270 175 90 271 174 90 272 174 91 273 177 91 274 176 91 275 176 92 276 179 92 277 178 92 278 178 93 279 181 93 280 180 93 281 180 94 282 183 94 283 182 94 284 182 95 285 185 95 286 184 95 287 184 96 288 187 96 289 186 96 290 186 97 291 189 97 292 188 97 293 135 98 294 133 98 295 181 98 296 188 99 297 191 99 298 190 99 299 190 100 300 129 100 301 128 100 302 186 101 303 188 101 304 190 101 305 192 102 306 195 102 307 194 102 308 194 103 309 197 103 310 196 103 311 196 104 312 199 104 313 198 104 314 198 105 315 201 105 316 200 105 317 200 106 318 203 106 319 202 106 320 202 107 321 205 107 322 204 107 323 204 108 324 207 108 325 206 108 326 206 109 327 209 109 328 208 109 329 208 110 330 211 110 331 210 110 332 210 111 333 213 111 334 212 111 335 212 112 336 215 112 337 214 112 338 214 113 339 217 113 340 216 113 341 216 114 342 219 114 343 218 114 344 218 115 345 221 115 346 220 115 347 220 116 348 223 116 349 222 116 350 222 117 351 225 117 352 224 117 353 224 118 354 227 118 355 226 118 356 226 119 357 229 119 358 228 119 359 228 120 360 231 120 361 230 120 362 230 121 363 233 121 364 232 121 365 232 122 366 235 122 367 234 122 368 234 123 369 237 123 370 236 123 371 236 124 372 239 124 373 238 124 374 238 125 375 241 125 376 240 125 377 240 126 378 243 126 379 242 126 380 242 127 381 245 127 382 244 127 383 244 128 384 247 128 385 246 128 386 246 129 387 249 129 388 248 129 389 248 130 390 251 130 391 250 130 392 250 131 393 253 131 394 252 131 395 201 132 396 199 132 397 249 132 398 252 133 399 255 133 400 254 133 401 254 134 402 193 134 403 192 134 404 250 135 405 252 135 406 198 135 407 0 136 408 1 136 409 3 136 410 2 137 411 3 137 412 5 137 413 4 138 414 5 138 415 7 138 416 6 139 417 7 139 418 9 139 419 8 140 420 9 140 421 11 140 422 10 141 423 11 141 424 13 141 425 12 6 426 13 6 427 15 6 428 14 142 429 15 142 430 17 142 431 16 143 432 17 143 433 19 143 434 18 9 435 19 9 436 21 9 437 20 144 438 21 144 439 23 144 440 22 145 441 23 145 442 25 145 443 24 146 444 25 146 445 27 146 446 26 147 447 27 147 448 29 147 449 28 148 450 29 148 451 31 148 452 30 149 453 31 149 454 33 149 455 32 150 456 33 150 457 35 150 458 34 151 459 35 151 460 37 151 461 36 152 462 37 152 463 39 152 464 38 153 465 39 153 466 41 153 467 40 154 468 41 154 469 43 154 470 42 155 471 43 155 472 45 155 473 44 22 474 45 22 475 47 22 476 46 156 477 47 156 478 49 156 479 48 157 480 49 157 481 51 157 482 50 25 483 51 25 484 53 25 485 52 158 486 53 158 487 55 158 488 54 159 489 55 159 490 57 159 491 56 160 492 57 160 493 59 160 494 58 161 495 59 161 496 61 161 497 5 30 498 3 30 499 61 30 500 3 162 501 1 162 502 61 162 503 1 163 504 63 163 505 61 163 506 61 164 507 59 164 508 57 164 509 57 165 510 55 165 511 53 165 512 53 166 513 51 166 514 49 166 515 49 167 516 47 167 517 45 167 518 45 165 519 43 165 520 41 165 521 41 168 522 39 168 523 37 168 524 37 169 525 35 169 526 33 169 527 33 170 528 31 170 529 37 170 530 31 30 531 29 30 532 37 30 533 29 30 534 27 30 535 25 30 536 25 30 537 23 30 538 29 30 539 23 30 540 21 30 541 29 30 542 21 171 543 19 171 544 17 171 545 17 172 546 15 172 547 13 172 548 13 30 549 11 30 550 5 30 551 11 30 552 9 30 553 5 30 554 9 173 555 7 173 556 5 173 557 61 30 558 57 30 559 5 30 560 57 30 561 53 30 562 5 30 563 53 30 564 49 30 565 45 30 566 45 30 567 41 30 568 53 30 569 41 174 570 37 174 571 53 174 572 21 30 573 17 30 574 13 30 575 37 30 576 29 30 577 21 30 578 21 175 579 13 175 580 37 175 581 13 30 582 5 30 583 37 30 584 60 176 585 61 176 586 63 176 587 62 177 588 63 177 589 1 177 590 62 178 591 0 178 592 2 178 593 2 179 594 4 179 595 6 179 596 6 178 597 8 178 598 10 178 599 10 180 600 12 180 601 14 180 602 14 178 603 16 178 604 22 178 605 16 178 606 18 178 607 22 178 608 18 178 609 20 178 610 22 178 611 22 181 612 24 181 613 26 181 614 26 182 615 28 182 616 30 182 617 30 178 618 32 178 619 34 178 620 34 183 621 36 183 622 38 183 623 38 178 624 40 178 625 42 178 626 42 178 627 44 178 628 46 178 629 46 184 630 48 184 631 54 184 632 48 185 633 50 185 634 54 185 635 50 186 636 52 186 637 54 186 638 54 178 639 56 178 640 62 178 641 56 178 642 58 178 643 62 178 644 58 187 645 60 187 646 62 187 647 62 178 648 2 178 649 6 178 650 6 178 651 10 178 652 62 178 653 10 188 654 14 188 655 62 188 656 22 178 657 26 178 658 30 178 659 30 178 660 34 178 661 38 178 662 38 178 663 42 178 664 30 178 665 42 189 666 46 189 667 30 189 668 14 190 669 22 190 670 30 190 671 46 191 672 54 191 673 62 191 674 62 192 675 14 192 676 46 192 677 64 193 678 65 193 679 67 193 680 66 194 681 67 194 682 69 194 683 68 195 684 69 195 685 71 195 686 70 196 687 71 196 688 73 196 689 72 197 690 73 197 691 75 197 692 74 198 693 75 198 694 77 198 695 76 199 696 77 199 697 79 199 698 78 200 699 79 200 700 81 200 701 80 201 702 81 201 703 83 201 704 82 202 705 83 202 706 85 202 707 84 203 708 85 203 709 87 203 710 86 204 711 87 204 712 89 204 713 88 205 714 89 205 715 91 205 716 90 206 717 91 206 718 93 206 719 92 207 720 93 207 721 95 207 722 94 208 723 95 208 724 97 208 725 96 209 726 97 209 727 99 209 728 98 210 729 99 210 730 101 210 731 100 211 732 101 211 733 103 211 734 102 212 735 103 212 736 105 212 737 104 213 738 105 213 739 107 213 740 106 214 741 107 214 742 109 214 743 108 215 744 109 215 745 111 215 746 110 216 747 111 216 748 113 216 749 112 217 750 113 217 751 115 217 752 114 218 753 115 218 754 117 218 755 116 219 756 117 219 757 119 219 758 118 220 759 119 220 760 121 220 761 120 221 762 121 221 763 123 221 764 122 222 765 123 222 766 125 222 767 69 223 768 67 223 769 125 223 770 67 224 771 65 224 772 127 224 773 125 225 774 67 225 775 127 225 776 125 226 777 123 226 778 69 226 779 123 227 780 121 227 781 71 227 782 69 228 783 123 228 784 71 228 785 121 229 786 119 229 787 73 229 788 119 230 789 117 230 790 75 230 791 73 231 792 119 231 793 75 231 794 117 232 795 115 232 796 79 232 797 115 233 798 113 233 799 81 233 800 113 234 801 111 234 802 83 234 803 111 235 804 109 235 805 85 235 806 109 236 807 107 236 808 85 236 809 107 237 810 105 237 811 87 237 812 85 238 813 107 238 814 87 238 815 105 239 816 103 239 817 89 239 818 103 240 819 101 240 820 91 240 821 89 241 822 103 241 823 91 241 824 101 242 825 99 242 826 95 242 827 99 243 828 97 243 829 95 243 830 95 223 831 93 223 832 101 223 833 93 244 834 91 244 835 101 244 836 89 245 837 87 245 838 105 245 839 85 246 840 83 246 841 111 246 842 83 233 843 81 233 844 113 233 845 81 247 846 79 247 847 115 247 848 79 248 849 77 248 850 117 248 851 77 249 852 75 249 853 117 249 854 124 250 855 125 250 856 127 250 857 126 251 858 127 251 859 65 251 860 126 252 861 64 252 862 66 252 863 66 253 864 68 253 865 126 253 866 68 254 867 70 254 868 124 254 869 126 255 870 68 255 871 124 255 872 70 256 873 72 256 874 120 256 875 72 257 876 74 257 877 118 257 878 74 258 879 76 258 880 118 258 881 76 259 882 78 259 883 116 259 884 118 260 885 76 260 886 116 260 887 78 261 888 80 261 889 112 261 890 80 262 891 82 262 892 110 262 893 82 263 894 84 263 895 110 263 896 84 264 897 86 264 898 108 264 899 110 265 900 84 265 901 108 265 902 86 266 903 88 266 904 104 266 905 88 267 906 90 267 907 102 267 908 90 268 909 92 268 910 102 268 911 92 269 912 94 269 913 100 269 914 102 270 915 92 270 916 100 270 917 94 252 918 96 252 919 98 252 920 98 271 921 100 271 922 94 271 923 102 272 924 104 272 925 88 272 926 104 257 927 106 257 928 86 257 929 106 273 930 108 273 931 86 273 932 110 274 933 112 274 934 80 274 935 112 275 936 114 275 937 78 275 938 114 276 939 116 276 940 78 276 941 118 277 942 120 277 943 72 277 944 120 278 945 122 278 946 70 278 947 128 68 948 129 68 949 131 68 950 130 69 951 131 69 952 133 69 953 132 279 954 133 279 955 135 279 956 134 71 957 135 71 958 137 71 959 136 72 960 137 72 961 139 72 962 138 73 963 139 73 964 141 73 965 140 74 966 141 74 967 143 74 968 142 75 969 143 75 970 145 75 971 144 76 972 145 76 973 147 76 974 146 77 975 147 77 976 149 77 977 148 280 978 149 280 979 151 280 980 150 281 981 151 281 982 153 281 983 152 282 984 153 282 985 155 282 986 154 283 987 155 283 988 157 283 989 156 284 990 157 284 991 159 284 992 158 285 993 159 285 994 161 285 995 160 286 996 161 286 997 163 286 998 162 85 999 163 85 1000 165 85 1001 164 287 1002 165 287 1003 167 287 1004 166 288 1005 167 288 1006 169 288 1007 168 88 1008 169 88 1009 171 88 1010 170 89 1011 171 89 1012 173 89 1013 172 90 1014 173 90 1015 175 90 1016 174 91 1017 175 91 1018 177 91 1019 176 92 1020 177 92 1021 179 92 1022 178 289 1023 179 289 1024 181 289 1025 180 94 1026 181 94 1027 183 94 1028 182 290 1029 183 290 1030 185 290 1031 184 291 1032 185 291 1033 187 291 1034 186 292 1035 187 292 1036 189 292 1037 133 293 1038 131 293 1039 183 293 1040 131 294 1041 129 294 1042 185 294 1043 129 295 1044 191 295 1045 187 295 1046 191 296 1047 189 296 1048 187 296 1049 187 297 1050 185 297 1051 129 297 1052 185 298 1053 183 298 1054 131 298 1055 183 299 1056 181 299 1057 133 299 1058 181 300 1059 179 300 1060 135 300 1061 179 300 1062 177 300 1063 137 300 1064 177 300 1065 175 300 1066 139 300 1067 175 300 1068 173 300 1069 141 300 1070 173 301 1071 171 301 1072 143 301 1073 171 300 1074 169 300 1075 145 300 1076 169 300 1077 167 300 1078 147 300 1079 167 302 1080 165 302 1081 149 302 1082 165 303 1083 163 303 1084 151 303 1085 163 304 1086 161 304 1087 153 304 1088 161 305 1089 159 305 1090 155 305 1091 159 306 1092 157 306 1093 155 306 1094 155 307 1095 153 307 1096 161 307 1097 153 308 1098 151 308 1099 163 308 1100 151 309 1101 149 309 1102 165 309 1103 149 300 1104 147 300 1105 167 300 1106 147 300 1107 145 300 1108 169 300 1109 145 300 1110 143 300 1111 171 300 1112 143 300 1113 141 300 1114 173 300 1115 141 310 1116 139 310 1117 175 310 1118 139 300 1119 137 300 1120 177 300 1121 137 300 1122 135 300 1123 179 300 1124 188 311 1125 189 311 1126 191 311 1127 190 312 1128 191 312 1129 129 312 1130 190 313 1131 128 313 1132 186 313 1133 128 314 1134 130 314 1135 184 314 1136 186 315 1137 128 315 1138 184 315 1139 130 316 1140 132 316 1141 182 316 1142 132 317 1143 134 317 1144 180 317 1145 182 318 1146 132 318 1147 180 318 1148 134 319 1149 136 319 1150 178 319 1151 136 320 1152 138 320 1153 176 320 1154 178 321 1155 136 321 1156 176 321 1157 138 322 1158 140 322 1159 174 322 1160 140 321 1161 142 321 1162 172 321 1163 174 321 1164 140 321 1165 172 321 1166 142 323 1167 144 323 1168 170 323 1169 144 324 1170 146 324 1171 168 324 1172 170 321 1173 144 321 1174 168 321 1175 146 325 1176 148 325 1177 166 325 1178 148 326 1179 150 326 1180 164 326 1181 166 327 1182 148 327 1183 164 327 1184 150 328 1185 152 328 1186 162 328 1187 152 329 1188 154 329 1189 160 329 1190 162 330 1191 152 330 1192 160 330 1193 154 331 1194 156 331 1195 158 331 1196 158 332 1197 160 332 1198 154 332 1199 162 333 1200 164 333 1201 150 333 1202 166 334 1203 168 334 1204 146 334 1205 170 335 1206 172 335 1207 142 335 1208 174 336 1209 176 336 1210 138 336 1211 178 337 1212 180 337 1213 134 337 1214 182 338 1215 184 338 1216 130 338 1217 192 339 1218 193 339 1219 195 339 1220 194 340 1221 195 340 1222 197 340 1223 196 341 1224 197 341 1225 199 341 1226 198 342 1227 199 342 1228 201 342 1229 200 343 1230 201 343 1231 203 343 1232 202 344 1233 203 344 1234 205 344 1235 204 345 1236 205 345 1237 207 345 1238 206 346 1239 207 346 1240 209 346 1241 208 347 1242 209 347 1243 211 347 1244 210 348 1245 211 348 1246 213 348 1247 212 349 1248 213 349 1249 215 349 1250 214 350 1251 215 350 1252 217 350 1253 216 351 1254 217 351 1255 219 351 1256 218 352 1257 219 352 1258 221 352 1259 220 353 1260 221 353 1261 223 353 1262 222 354 1263 223 354 1264 225 354 1265 224 355 1266 225 355 1267 227 355 1268 226 356 1269 227 356 1270 229 356 1271 228 357 1272 229 357 1273 231 357 1274 230 358 1275 231 358 1276 233 358 1277 232 359 1278 233 359 1279 235 359 1280 234 360 1281 235 360 1282 237 360 1283 236 361 1284 237 361 1285 239 361 1286 238 362 1287 239 362 1288 241 362 1289 240 363 1290 241 363 1291 243 363 1292 242 364 1293 243 364 1294 245 364 1295 244 365 1296 245 365 1297 247 365 1298 246 366 1299 247 366 1300 249 366 1301 248 367 1302 249 367 1303 251 367 1304 250 368 1305 251 368 1306 253 368 1307 197 369 1308 195 369 1309 253 369 1310 195 370 1311 193 370 1312 255 370 1313 253 371 1314 195 371 1315 255 371 1316 253 372 1317 251 372 1318 197 372 1319 251 373 1320 249 373 1321 199 373 1322 197 374 1323 251 374 1324 199 374 1325 249 375 1326 247 375 1327 201 375 1328 247 376 1329 245 376 1330 203 376 1331 201 377 1332 247 377 1333 203 377 1334 245 378 1335 243 378 1336 207 378 1337 243 379 1338 241 379 1339 209 379 1340 241 380 1341 239 380 1342 211 380 1343 239 381 1344 237 381 1345 213 381 1346 237 382 1347 235 382 1348 213 382 1349 235 383 1350 233 383 1351 215 383 1352 213 384 1353 235 384 1354 215 384 1355 233 385 1356 231 385 1357 217 385 1358 231 386 1359 229 386 1360 219 386 1361 217 387 1362 231 387 1363 219 387 1364 229 388 1365 227 388 1366 223 388 1367 227 389 1368 225 389 1369 223 389 1370 223 390 1371 221 390 1372 229 390 1373 221 391 1374 219 391 1375 229 391 1376 217 392 1377 215 392 1378 233 392 1379 213 393 1380 211 393 1381 239 393 1382 211 394 1383 209 394 1384 241 394 1385 209 395 1386 207 395 1387 243 395 1388 207 396 1389 205 396 1390 245 396 1391 205 397 1392 203 397 1393 245 397 1394 252 398 1395 253 398 1396 255 398 1397 254 399 1398 255 399 1399 193 399 1400 254 400 1401 192 400 1402 194 400 1403 194 401 1404 196 401 1405 254 401 1406 196 402 1407 198 402 1408 252 402 1409 254 403 1410 196 403 1411 252 403 1412 198 404 1413 200 404 1414 248 404 1415 200 405 1416 202 405 1417 246 405 1418 202 406 1419 204 406 1420 246 406 1421 204 407 1422 206 407 1423 244 407 1424 246 408 1425 204 408 1426 244 408 1427 206 409 1428 208 409 1429 240 409 1430 208 410 1431 210 410 1432 238 410 1433 210 410 1434 212 410 1435 238 410 1436 212 411 1437 214 411 1438 236 411 1439 238 412 1440 212 412 1441 236 412 1442 214 413 1443 216 413 1444 232 413 1445 216 414 1446 218 414 1447 230 414 1448 218 415 1449 220 415 1450 230 415 1451 220 416 1452 222 416 1453 228 416 1454 230 417 1455 220 417 1456 228 417 1457 222 418 1458 224 418 1459 226 418 1460 226 419 1461 228 419 1462 222 419 1463 230 412 1464 232 412 1465 216 412 1466 232 420 1467 234 420 1468 214 420 1469 234 421 1470 236 421 1471 214 421 1472 238 422 1473 240 422 1474 208 422 1475 240 405 1476 242 405 1477 206 405 1478 242 423 1479 244 423 1480 206 423 1481 246 424 1482 248 424 1483 200 424 1484 248 425 1485 250 425 1486 198 425 1487</p>
        </triangles>
      </mesh>
    </geometry>
  </library_geometries>
  <library_visual_scenes>
    <visual_scene id="Scene" name="Scene">
      <node id="tmp_export_Cylinder_011" name="tmp_export_Cylinder.011" type="NODE">
        <matrix sid="transform">1 0 0 0 0 1 0 0 0 0 1 0 0 0 0 1</matrix>
        <instance_geometry url="#Cylinder_011-mesh" name="tmp_export_Cylinder.011">
          <bind_material>
            <technique_common>
              <instance_material symbol="Material_006-material" target="#Material_006-material">
                <bind_vertex_input semantic="UVMap" input_semantic="TEXCOORD" input_set="0"/>
              </instance_material>
            </technique_common>
          </bind_material>
        </instance_geometry>
      </node>
    </visual_scene>
  </library_visual_scenes>
  <scene>
    <instance_visual_scene url="#Scene"/>
  </scene>
</COLLADA>