<?xml version="1.0" encoding="utf-8"?>
<COLLADA xmlns="http://www.collada.org/2005/11/COLLADASchema" version="1.4.1" xmlns:xsi="http://www.w3.org/2001/XMLSchema-instance">
  <asset>
    <contributor>
      <author>Blender User</author>
      <authoring_tool>Blender 3.3.21 commit date:2024-07-15, commit time:08:57, hash:e016c21db151</authoring_tool>
    </contributor>
    <created>2025-04-02T13:13:34</created>
    <modified>2025-04-02T13:13:34</modified>
    <unit name="meter" meter="1"/>
    <up_axis>Z_UP</up_axis>
  </asset>
  <library_effects>
    <effect id="Material_006-effect">
      <profile_COMMON>
        <technique sid="common">
          <lambert>
            <emission>
              <color sid="emission">0 0 0 1</color>
            </emission>
            <diffuse>
              <color sid="diffuse">0.603816 0.603816 0.603816 1</color>
            </diffuse>
            <index_of_refraction>
              <float sid="ior">1.45</float>
            </index_of_refraction>
          </lambert>
        </technique>
      </profile_COMMON>
    </effect>
  </library_effects>
  <library_images/>
  <library_materials>
    <material id="Material_006-material" name="Material.006">
      <instance_effect url="#Material_006-effect"/>
    </material>
  </library_materials>
  <library_geometries>
    <geometry id="Cylinder_014-mesh" name="Cylinder.014">
      <mesh>
        <source id="Cylinder_014-mesh-positions">
          <float_array id="Cylinder_014-mesh-positions-array" count="768">-3.487565 1.11985 -1.981584 -3.487565 1.11985 0.0184164 -3.292475 1.100635 -1.981584 -3.292475 1.100635 0.0184164 -3.104882 1.04373 -1.981584 -3.104882 1.04373 0.0184164 -2.931995 0.9513196 -1.981584 -2.931995 0.9513196 0.0184164 -2.780458 0.8269568 -1.981584 -2.780458 0.8269568 0.0184164 -2.656096 0.6754203 -1.981584 -2.656096 0.6754203 0.0184164 -2.563686 0.5025335 -1.981584 -2.563686 0.5025335 0.0184164 -2.50678 0.3149404 -1.981584 -2.50678 0.3149404 0.0184164 -2.487565 0.11985 -1.981584 -2.487565 0.11985 0.0184164 -2.50678 -0.07524025 -1.981584 -2.50678 -0.07524025 0.0184164 -2.563686 -0.2628334 -1.981584 -2.563686 -0.2628334 0.0184164 -2.656096 -0.4357202 -1.981584 -2.656096 -0.4357202 0.0184164 -2.780458 -0.5872567 -1.981584 -2.780458 -0.5872567 0.0184164 -2.931995 -0.7116196 -1.981584 -2.931995 -0.7116196 0.0184164 -3.104882 -0.8040295 -1.981584 -3.104882 -0.8040295 0.0184164 -3.292475 -0.8609352 -1.981584 -3.292475 -0.8609352 0.0184164 -3.487565 -0.88015 -1.981584 -3.487565 -0.88015 0.0184164 -3.682656 -0.8609352 -1.981584 -3.682656 -0.8609352 0.0184164 -3.870249 -0.8040295 -1.981584 -3.870249 -0.8040295 0.0184164 -4.043136 -0.7116196 -1.981584 -4.043136 -0.7116196 0.0184164 -4.194672 -0.5872567 -1.981584 -4.194672 -0.5872567 0.0184164 -4.319035 -0.4357202 -1.981584 -4.319035 -0.4357202 0.0184164 -4.411445 -0.2628334 -1.981584 -4.411445 -0.2628334 0.0184164 -4.46835 -0.07524025 -1.981584 -4.46835 -0.07524025 0.0184164 -4.487565 0.11985 -1.981584 -4.487565 0.11985 0.0184164 -4.46835 0.3149404 -1.981584 -4.46835 0.3149404 0.0184164 -4.411445 0.5025335 -1.981584 -4.411445 0.5025335 0.0184164 -4.319035 0.6754203 -1.981584 -4.319035 0.6754203 0.0184164 -4.194672 0.8269568 -1.981584 -4.194672 0.8269568 0.0184164 -4.043136 0.9513196 -1.981584 -4.043136 0.9513196 0.0184164 -3.870249 1.04373 -1.981584 -3.870249 1.04373 0.0184164 -3.682656 1.100635 -1.981584 -3.682656 1.100635 0.0184164 3.273845 0.1198505 -0.08020758 -4.348868 0.1198505 0.1065466 3.333051 0.1006358 -0.06590843 -4.289662 0.1006358 0.1208459 3.389981 0.04373002 -0.05215871 -4.232733 0.04373002 0.1345956 3.442447 -0.04867982 -0.03948688 -4.180266 -0.04867982 0.1472673 3.488435 -0.1730427 -0.02837997 -4.134278 -0.1730427 0.1583743 3.526177 -0.3245792 -0.01926475 -4.096537 -0.3245792 0.1674895 3.55422 -0.497466 -0.01249158 -4.068493 -0.497466 0.1742627 3.57149 -0.6850592 -0.008320629 -4.051224 -0.6850592 0.1784336 3.577321 -0.8801495 -0.006912291 -4.045392 -0.8801495 0.1798419 3.57149 -1.07524 -0.008320629 -4.051224 -1.07524 0.1784336 3.55422 -1.262833 -0.01249158 -4.068493 -1.262833 0.1742627 3.526177 -1.43572 -0.01926475 -4.096537 -1.43572 0.1674895 3.488435 -1.587256 -0.02837997 -4.134278 -1.587256 0.1583743 3.442447 -1.711619 -0.03948688 -4.180266 -1.711619 0.1472673 3.389981 -1.804029 -0.05215871 -4.232733 -1.804029 0.1345956 3.333051 -1.860935 -0.06590843 -4.289662 -1.860935 0.1208459 3.273845 -1.880149 -0.08020758 -4.348868 -1.880149 0.1065466 3.21464 -1.860935 -0.0945068 -4.408073 -1.860935 0.09224748 3.157711 -1.804029 -0.1082565 -4.465003 -1.804029 0.07849776 3.105243 -1.711619 -0.1209282 -4.51747 -1.711619 0.06582593 3.059256 -1.587256 -0.1320352 -4.563457 -1.587256 0.05471909 3.021515 -1.43572 -0.1411504 -4.601199 -1.43572 0.04560387 2.993471 -1.262833 -0.1479236 -4.629243 -1.262833 0.03883063 2.976201 -1.07524 -0.1520946 -4.646512 -1.07524 0.03465974 2.97037 -0.8801495 -0.1535029 -4.652344 -0.8801495 0.03325128 2.976201 -0.6850592 -0.1520946 -4.646512 -0.6850592 0.03465974 2.993471 -0.497466 -0.1479236 -4.629243 -0.497466 0.03883063 3.021515 -0.3245792 -0.1411504 -4.601199 -0.3245792 0.04560387 3.059256 -0.1730427 -0.1320352 -4.563457 -0.1730427 0.05471909 3.105243 -0.04867982 -0.1209282 -4.51747 -0.04867982 0.06582593 3.157711 0.04373002 -0.1082565 -4.465003 0.04373002 0.07849776 3.21464 0.1006358 -0.0945068 -4.408073 0.1006358 0.09224748 -4.825288 1.61985 0.1182187 -4.825287 -1.38015 0.1182187 -4.709017 1.61985 0.1389948 -4.709017 -1.38015 0.1389948 -4.542289 1.61985 0.1576266 -4.542289 -1.38015 0.1576266 -4.331511 1.61985 0.1733984 -4.331511 -1.380149 0.1733984 -4.084783 1.61985 0.1857041 -4.084783 -1.380149 0.1857041 -3.811586 1.61985 0.1940706 -3.811586 -1.380149 0.1940706 -3.52242 1.61985 0.1981766 -3.52242 -1.380149 0.1981766 -3.228397 1.61985 0.1978641 -3.228396 -1.380149 0.1978641 -2.940815 1.61985 0.1931453 -2.940815 -1.380149 0.1931453 -2.670727 1.61985 0.1842014 -2.670727 -1.380149 0.1842014 -2.428513 1.61985 0.1713762 -2.428513 -1.380149 0.1713762 -2.223479 1.61985 0.1551625 -2.223479 -1.380149 0.1551625 -2.063506 1.61985 0.1361835 -2.063506 -1.380149 0.1361835 -1.954741 1.61985 0.1151683 -1.95474 -1.380149 0.1151683 -1.901363 1.619851 0.09292471 -1.901363 -1.380149 0.09292471 -1.905425 1.619851 0.07030761 -1.905425 -1.380149 0.07030761 -1.96677 1.619851 0.04818594 -1.96677 -1.380149 0.04818594 -2.083041 1.619851 0.02740991 -2.08304 -1.380149 0.02740991 -2.249769 1.619851 0.008778035 -2.249768 -1.380149 0.008778035 -2.460547 1.61985 -0.00699377 -2.460546 -1.380149 -0.00699377 -2.707275 1.61985 -0.01929944 -2.707275 -1.380149 -0.01929944 -2.980471 1.61985 -0.02766597 -2.980471 -1.380149 -0.02766597 -3.269638 1.61985 -0.03177189 -3.269638 -1.380149 -0.03177189 -3.563661 1.61985 -0.03145945 -3.563661 -1.380149 -0.03145945 -3.851242 1.61985 -0.02674061 -3.851242 -1.380149 -0.02674061 -4.12133 1.61985 -0.01779675 -4.12133 -1.380149 -0.01779675 -4.363545 1.61985 -0.004971504 -4.363545 -1.380149 -0.004971504 -4.568579 1.61985 0.01124221 -4.568579 -1.380149 0.01124221 -4.728552 1.61985 0.03022122 -4.728552 -1.380149 0.03022122 -4.837317 1.61985 0.05123639 -4.837317 -1.380149 0.05123639 -4.890695 1.61985 0.07348001 -4.890694 -1.38015 0.07348001 -4.886632 1.61985 0.09609711 -4.886632 -1.38015 0.09609711 12.05288 1.11985 1.771737 -2.983632 1.11985 0.1401269 11.89372 1.100636 1.780416 -3.142788 1.100636 0.1488058 11.74068 1.04373 1.788761 -3.295827 1.04373 0.1571512 11.59964 0.9513201 1.796452 -3.436869 0.9513201 0.1648423 11.47602 0.8269573 1.803194 -3.560494 0.8269573 0.1715838 11.37456 0.6754208 1.808726 -3.661949 0.6754208 0.1771162 11.29917 0.502534 1.812837 -3.737337 0.502534 0.1812273 11.25275 0.3149409 1.815369 -3.783761 0.3149409 0.1837588 11.23707 0.1198505 1.816223 -3.799437 0.1198505 0.1846137 11.25275 -0.07523977 1.815369 -3.783761 -0.07523977 0.1837588 11.29917 -0.2628329 1.812837 -3.737337 -0.2628329 0.1812273 11.37456 -0.4357197 1.808726 -3.661949 -0.4357197 0.1771162 11.47602 -0.5872563 1.803194 -3.560494 -0.5872563 0.1715838 11.59964 -0.7116191 1.796452 -3.436869 -0.7116191 0.1648423 11.74068 -0.804029 1.788761 -3.295827 -0.804029 0.1571512 11.89372 -0.8609347 1.780416 -3.142788 -0.8609347 0.1488058 12.05288 -0.8801495 1.771737 -2.983632 -0.8801495 0.1401269 12.21203 -0.8609347 1.763058 -2.824476 -0.8609347 0.131448 12.36507 -0.804029 1.754712 -2.671437 -0.804029 0.1231026 12.50612 -0.7116191 1.747021 -2.530395 -0.7116191 0.1154115 12.62974 -0.5872563 1.74028 -2.406771 -0.5872563 0.1086699 12.7312 -0.4357197 1.734747 -2.305315 -0.4357197 0.1031376 12.80658 -0.2628329 1.730636 -2.229927 -0.2628329 0.09902656 12.85301 -0.07523977 1.728105 -2.183503 -0.07523977 0.09649503 12.86868 0.1198505 1.72725 -2.167827 0.1198505 0.09564018 12.85301 0.3149409 1.728105 -2.183503 0.3149409 0.09649503 12.80658 0.502534 1.730636 -2.229927 0.502534 0.09902656 12.7312 0.6754208 1.734747 -2.305315 0.6754208 0.1031376 12.62974 0.8269573 1.74028 -2.406771 0.8269573 0.1086699 12.50612 0.9513201 1.747021 -2.530395 0.9513201 0.1154115 12.36507 1.04373 1.754712 -2.671437 1.04373 0.1231026 12.21203 1.100636 1.763058 -2.824476 1.100636 0.131448</float_array>
          <technique_common>
            <accessor source="#Cylinder_014-mesh-positions-array" count="256" stride="3">
              <param name="X" type="float"/>
              <param name="Y" type="float"/>
              <param name="Z" type="float"/>
            </accessor>
          </technique_common>
        </source>
        <source id="Cylinder_014-mesh-normals">
          <float_array id="Cylinder_014-mesh-normals-array" count="768">0 0.7278876 -0.6856965 0.142004 0.7139015 0.6856964 0.1420038 0.7139016 -0.6856964 0.2785506 0.6724807 0.6856963 0.2785503 0.6724807 -0.6856964 0.4043928 0.6052165 0.6856964 0.4043935 0.6052163 -0.6856961 0.5146943 0.5146945 0.6856964 0.5146947 0.5146939 -0.6856965 0.6052167 0.4043925 0.6856964 0.6052167 0.4043926 -0.6856963 0.6724805 0.2785501 0.6856966 0.6724804 0.2785508 -0.6856965 0.7139015 0.1420037 0.6856965 0.7139012 0.1420045 -0.6856967 0.7278876 -8.18734e-7 0.6856964 0.7278853 8.1245e-7 -0.685699 0.7139013 -0.1420044 0.6856965 0.7139014 -0.1420037 -0.6856966 0.6724804 -0.2785508 0.6856965 0.6724808 -0.2785502 -0.6856964 0.6052168 -0.4043926 0.6856963 0.6052172 -0.4043924 -0.685696 0.5146948 -0.5146939 0.6856963 0.5146963 -0.5146937 -0.6856955 0.4043928 -0.6052165 0.6856964 0.4043899 -0.6052174 -0.6856973 0.2785503 -0.6724807 0.6856964 0.2785519 -0.6724802 -0.6856961 0.1420037 -0.7139016 0.6856964 0.1420042 -0.7139015 -0.6856963 0 -0.7278878 0.6856964 0 -0.7278876 -0.6856965 -0.1420039 -0.7139014 0.6856966 -0.1420037 -0.7139016 -0.6856964 -0.2785506 -0.6724806 0.6856963 -0.2785503 -0.6724807 -0.6856964 -0.4043923 -0.6052169 0.6856963 -0.4043932 -0.6052162 -0.6856964 -0.514694 -0.5146949 0.6856963 -0.5146946 -0.5146939 -0.6856966 -0.6052164 -0.4043933 0.6856962 -0.6052171 -0.4043919 -0.6856964 -0.6724804 -0.2785507 0.6856966 -0.6724809 -0.2785493 -0.6856966 -0.7139015 -0.1420036 0.6856965 -0.7139014 -0.1420037 -0.6856966 -0.7278876 0 0.6856966 -0.727885 0 -0.6856993 -0.7139016 0.1420037 0.6856964 -0.7139016 0.1420037 -0.6856964 -0.672481 0.2785493 0.6856964 -0.6724803 0.2785507 -0.6856966 -0.6052172 0.404392 0.6856963 -0.6052168 0.4043932 -0.6856959 -0.5146948 0.514694 0.6856963 -0.5146939 0.5146947 -0.6856965 -0.4043931 0.6052163 0.6856964 -0.4043924 0.6052169 -0.6856964 -0.2785503 0.6724807 0.6856964 -0.2785506 0.6724805 -0.6856964 -0.1420037 0.7139015 0.6856965 -0.142004 0.7139018 -0.6856962 0 0.7278878 0.6856964 0.29163 0.9095398 -0.2961239 -0.0950945 0.3319123 0.9385048 0.6288256 0.7768764 -0.03227281 -0.09605181 0.1229962 0.987748 0.8197084 0.570756 0.04812222 -0.09964358 0.06924188 0.9926111 0.9092118 0.4085404 0.08017975 -0.1015809 0.04435402 0.9938381 0.9522756 0.2901592 0.09475779 -0.1026108 0.02902197 0.9942982 0.9745151 0.1997368 0.1021058 -0.1031665 0.01779454 0.9945049 0.986384 0.1257479 0.1059913 -0.1034446 0.008499085 0.994599 0.9922977 0.0608474 0.1079022 -0.1035291 0 0.9946265 0.994098 9.61391e-7 0.1084868 -0.1034447 -0.008499264 0.994599 0.9922974 -0.0608468 0.107905 -0.1031664 -0.01779454 0.9945049 0.9863847 -0.1257477 0.1059846 -0.1026108 -0.02902132 0.9942982 0.9745149 -0.1997368 0.1021068 -0.1015808 -0.04435342 0.9938381 0.9522759 -0.2901595 0.09475308 -0.0996437 -0.06924194 0.9926111 0.909212 -0.4085409 0.08017456 -0.09605175 -0.1229965 0.987748 0.8197097 -0.5707548 0.04811555 -0.09509426 -0.3319119 0.938505 0.6288152 -0.7768859 -0.03224271 -0.2916245 -0.9095402 0.2961283 0.2916284 -0.9095388 -0.2961289 -0.6288185 -0.7768835 0.03224229 0.09509468 -0.3319131 -0.9385046 -0.8197119 -0.5707515 -0.04811692 0.09605187 -0.1229962 -0.987748 -0.9092137 -0.4085369 -0.08017498 0.09964358 -0.06924164 -0.9926112 -0.9522755 -0.2901607 -0.09475344 0.101581 -0.04435336 -0.9938381 -0.974514 -0.1997417 -0.1021071 0.1026108 -0.02902168 -0.9942982 -0.9863849 -0.1257464 -0.1059845 0.1031666 -0.01779478 -0.9945049 -0.9922975 -0.06084591 -0.1079055 0.1034445 -0.008499324 -0.994599 -0.9940976 0 -0.10849 0.1035293 0 -0.9946264 -0.9922978 0.06084746 -0.1079019 0.1034443 0.008499264 -0.9945989 -0.9863842 0.1257465 -0.1059914 0.1031666 0.01779484 -0.9945049 -0.974515 0.1997367 -0.1021062 0.1026108 0.02902162 -0.9942982 -0.9522759 0.2901579 -0.09475845 0.1015809 0.04435348 -0.9938381 -0.9092136 0.4085365 -0.08017981 0.0996434 0.06924194 -0.9926111 -0.8197112 0.570752 -0.04812365 0.09605205 0.122996 -0.987748 -0.6288272 0.7768751 0.03227269 0.09509503 0.3319098 -0.9385057 -0.2916276 0.9095411 0.2961223 -0.187451 0.6885651 0.7005285 -0.1025472 -0.6998072 0.7069329 -0.1025472 0.6998064 0.7069337 -0.06603574 -0.7030117 0.7081059 -0.0660358 0.7030106 0.7081069 -0.04416912 -0.7043204 0.7085068 -0.04416936 0.7043205 0.7085068 -0.02852183 -0.7049503 0.708683 -0.02852183 0.7049504 0.7086829 -0.0158838 -0.7052639 0.708767 -0.0158838 0.705264 0.7087668 -0.004655301 -0.7053933 0.7088009 -0.004655301 0.7053936 0.7088006 0.006191372 -0.7053843 0.7087982 0.006191372 0.7053839 0.7087984 0.01754879 -0.7052327 0.7087587 0.01754879 0.7052327 0.7087587 0.03049254 -0.7048855 0.7086655 0.03049254 0.7048856 0.7086653 0.04676097 -0.7041912 0.7084689 0.04676073 0.7041909 0.7084692 0.06996601 -0.7027252 0.7080128 0.06996601 0.7027246 0.7080134 0.1100285 -0.6990097 0.7065969 0.1100286 0.6990088 0.7065978 0.210348 -0.6848942 0.6976201 0.2103476 0.6848924 0.6976219 0.7091345 -0.5896354 0.3865985 0.7091338 0.5896378 0.3865962 0.6054441 -0.6100085 -0.5112017 0.6054428 0.6100091 -0.5112024 0.1874503 -0.6885652 -0.7005287 0.1874504 0.6885659 -0.700528 0.1025474 -0.6998067 -0.7069333 0.1025472 0.6998074 -0.7069326 0.06603586 -0.7030109 -0.7081066 0.06603562 0.7030113 -0.7081062 0.04416936 -0.7043207 -0.7085065 0.04416906 0.7043204 -0.7085068 0.02852183 -0.7049502 -0.7086831 0.02852183 0.7049504 -0.708683 0.01588368 -0.7052639 -0.7087669 0.01588368 0.7052641 -0.7087668 0.004655301 -0.7053933 -0.7088009 0.004655301 0.7053936 -0.7088006 -0.006191432 -0.7053842 -0.7087982 -0.006191432 0.7053839 -0.7087985 -0.01754879 -0.7052327 -0.7087587 -0.01754879 0.7052327 -0.7087588 -0.03049248 -0.7048855 -0.7086655 -0.03049248 0.7048856 -0.7086653 -0.04676085 -0.7041907 -0.7084694 -0.04676109 0.7041913 -0.7084689 -0.06996589 -0.7027243 -0.7080137 -0.06996607 0.7027257 -0.7080123 -0.1100285 -0.6990088 -0.7065978 -0.1100282 0.6990101 -0.7065965 -0.210348 -0.6848933 -0.697621 -0.2103477 0.6848932 -0.6976211 -0.709133 -0.5896396 -0.386595 -0.7091361 0.5896345 -0.3865971 -0.6054451 -0.6100077 0.5112015 -0.6054421 0.6100102 0.511202 -0.1874498 -0.6885662 0.7005278 0.1176835 0.8865844 0.4473463 -0.324844 0.9242482 -0.2006037 -0.01245307 0.4489064 0.8934919 -0.5141864 0.8497532 -0.1163274 -0.02871704 0.2028818 0.9787821 -0.6726443 0.7360923 -0.07561576 -0.03085845 0.1187283 0.9924471 -0.797239 0.6013978 -0.05225855 -0.03121161 0.07675981 0.996561 -0.8892806 0.4557877 -0.03791671 -0.03117251 0.05028289 0.9982485 -0.9518281 0.3052405 -0.02918338 -0.03105813 0.03080177 0.9990429 -0.987944 0.1528683 -0.02445578 -0.03096711 0.0146957 0.9994124 -0.9997365 0 -0.02295625 -0.03093487 0 0.9995214 -0.9879446 -0.1528677 -0.02443701 -0.03096711 -0.0146957 0.9994124 -0.9518285 -0.3052386 -0.02918887 -0.03105813 -0.03080189 0.9990429 -0.8892819 -0.4557855 -0.03791373 -0.03117233 -0.05028301 0.9982485 -0.7972398 -0.6013965 -0.05225974 -0.03121143 -0.07675969 0.996561 -0.6726452 -0.7360885 -0.07564598 -0.03085851 -0.1187279 0.9924472 -0.5141869 -0.8497524 -0.1163306 -0.0287168 -0.2028813 0.9787822 -0.324846 -0.9242464 -0.2006086 -0.01245331 -0.4489078 0.8934914 -0.1176848 -0.8865883 -0.447338 0.1176846 -0.8865882 0.4473387 0.01245343 -0.4489077 -0.8934915 0.3248452 -0.9242465 0.2006096 0.02871686 -0.2028812 -0.9787823 0.5141864 -0.8497516 0.1163384 0.03085815 -0.1187275 -0.9924473 0.6726402 -0.7360916 0.07565993 0.03121137 -0.07676041 -0.9965609 0.7972378 -0.6013975 0.05227899 0.03117233 -0.05028259 -0.9982485 0.8892837 -0.4557812 0.03792476 0.03105807 -0.03080105 -0.999043 0.9518278 -0.3052414 0.02918064 0.03096753 -0.01469624 -0.9994124 0.9879438 -0.1528708 0.02444952 0.03093463 -1.74243e-7 -0.9995215 0.9997363 1.54536e-6 0.02296632 0.03096741 0.014696 -0.9994124 0.9879437 0.1528716 0.02444607 0.03105813 0.03080099 -0.999043 0.9518292 0.305238 0.02917218 0.03117251 0.05028295 -0.9982485 0.8892842 0.45578 0.03792679 0.03121143 0.07676047 -0.996561 0.7972387 0.6013959 0.0522831 0.03085839 0.1187276 -0.9924473 0.6726426 0.7360925 0.07563036 0.0287171 0.2028812 -0.9787822 0.5141844 0.8497542 0.116328 0.01245319 0.4489057 -0.8934925 0.3248432 0.9242484 0.2006036 -0.1176834 0.8865839 -0.4473477</float_array>
          <technique_common>
            <accessor source="#Cylinder_014-mesh-normals-array" count="256" stride="3">
              <param name="X" type="float"/>
              <param name="Y" type="float"/>
              <param name="Z" type="float"/>
            </accessor>
          </technique_common>
        </source>
        <source id="Cylinder_014-mesh-map-0">
          <float_array id="Cylinder_014-mesh-map-0-array" count="2976">1 0.5 0.96875 1 0.96875 0.5 0.96875 0.5 0.9375 1 0.9375 0.5 0.9375 0.5 0.90625 1 0.90625 0.5 0.90625 0.5 0.875 1 0.875 0.5 0.875 0.5 0.84375 1 0.84375 0.5 0.84375 0.5 0.8125 1 0.8125 0.5 0.8125 0.5 0.78125 1 0.78125 0.5 0.78125 0.5 0.75 1 0.75 0.5 0.75 0.5 0.71875 1 0.71875 0.5 0.71875 0.5 0.6875 1 0.6875 0.5 0.6875 0.5 0.65625 1 0.65625 0.5 0.65625 0.5 0.625 1 0.625 0.5 0.625 0.5 0.59375 1 0.59375 0.5 0.59375 0.5 0.5625 1 0.5625 0.5 0.5625 0.5 0.53125 1 0.53125 0.5 0.53125 0.5 0.5 1 0.5 0.5 0.5 0.5 0.46875 1 0.46875 0.5 0.46875 0.5 0.4375 1 0.4375 0.5 0.4375 0.5 0.40625 1 0.40625 0.5 0.40625 0.5 0.375 1 0.375 0.5 0.375 0.5 0.34375 1 0.34375 0.5 0.34375 0.5 0.3125 1 0.3125 0.5 0.3125 0.5 0.28125 1 0.28125 0.5 0.28125 0.5 0.25 1 0.25 0.5 0.25 0.5 0.21875 1 0.21875 0.5 0.21875 0.5 0.1875 1 0.1875 0.5 0.1875 0.5 0.15625 1 0.15625 0.5 0.15625 0.5 0.125 1 0.125 0.5 0.125 0.5 0.09375 1 0.09375 0.5 0.09375 0.5 0.0625 1 0.0625 0.5 0.4717311 0.341844 0.341844 0.4717311 0.1581559 0.02826887 0.0625 0.5 0.03125 1 0.03125 0.5 0.03125 0.5 0 1 0 0.5 0.7968217 0.01461154 0.5146116 0.2031783 0.7031784 0.4853885 1 0.5 0.96875 1 0.96875 0.5 0.96875 0.5 0.9375 1 0.9375 0.5 0.9375 0.5 0.90625 1 0.90625 0.5 0.90625 0.5 0.875 1 0.875 0.5 0.875 0.5 0.84375 1 0.84375 0.5 0.84375 0.5 0.8125 1 0.8125 0.5 0.8125 0.5 0.78125 1 0.78125 0.5 0.78125 0.5 0.75 1 0.75 0.5 0.75 0.5 0.71875 1 0.71875 0.5 0.71875 0.5 0.6875 1 0.6875 0.5 0.6875 0.5 0.65625 1 0.65625 0.5 0.65625 0.5 0.625 1 0.625 0.5 0.625 0.5 0.59375 1 0.59375 0.5 0.59375 0.5 0.5625 1 0.5625 0.5 0.5625 0.5 0.53125 1 0.53125 0.5 0.53125 0.5 0.5 1 0.5 0.5 0.5 0.5 0.46875 1 0.46875 0.5 0.46875 0.5 0.4375 1 0.4375 0.5 0.4375 0.5 0.40625 1 0.40625 0.5 0.40625 0.5 0.375 1 0.375 0.5 0.375 0.5 0.34375 1 0.34375 0.5 0.34375 0.5 0.3125 1 0.3125 0.5 0.3125 0.5 0.28125 1 0.28125 0.5 0.28125 0.5 0.25 1 0.25 0.5 0.25 0.5 0.21875 1 0.21875 0.5 0.21875 0.5 0.1875 1 0.1875 0.5 0.1875 0.5 0.15625 1 0.15625 0.5 0.15625 0.5 0.125 1 0.125 0.5 0.125 0.5 0.09375 1 0.09375 0.5 0.09375 0.5 0.0625 1 0.0625 0.5 0.4197056 0.4197056 0.3833369 0.4495527 0.08029437 0.4197056 0.0625 0.5 0.03125 1 0.03125 0.5 0.03125 0.5 0 1 0 0.5 0.6166632 0.4495527 0.658156 0.4717311 0.8833369 0.4495527 1 0.5 0.96875 1 0.96875 0.5 0.96875 0.5 0.9375 1 0.9375 0.5 0.9375 0.5 0.90625 1 0.90625 0.5 0.90625 0.5 0.875 1 0.875 0.5 0.875 0.5 0.84375 1 0.84375 0.5 0.84375 0.5 0.8125 1 0.8125 0.5 0.8125 0.5 0.78125 1 0.78125 0.5 0.78125 0.5 0.75 1 0.75 0.5 0.75 0.5 0.71875 1 0.71875 0.5 0.71875 0.5 0.6875 1 0.6875 0.5 0.6875 0.5 0.65625 1 0.65625 0.5 0.65625 0.5 0.625 1 0.625 0.5 0.625 0.5 0.59375 1 0.59375 0.5 0.59375 0.5 0.5625 1 0.5625 0.5 0.5625 0.5 0.53125 1 0.53125 0.5 0.53125 0.5 0.5 1 0.5 0.5 0.5 0.5 0.46875 1 0.46875 0.5 0.46875 0.5 0.4375 1 0.4375 0.5 0.4375 0.5 0.40625 1 0.40625 0.5 0.40625 0.5 0.375 1 0.375 0.5 0.375 0.5 0.34375 1 0.34375 0.5 0.34375 0.5 0.3125 1 0.3125 0.5 0.3125 0.5 0.28125 1 0.28125 0.5 0.28125 0.5 0.25 1 0.25 0.5 0.25 0.5 0.21875 1 0.21875 0.5 0.21875 0.5 0.1875 1 0.1875 0.5 0.1875 0.5 0.15625 1 0.15625 0.5 0.15625 0.5 0.125 1 0.125 0.5 0.125 0.5 0.09375 1 0.09375 0.5 0.09375 0.5 0.0625 1 0.0625 0.5 0.3833369 0.4495527 0.341844 0.4717311 0.02826887 0.341844 0.0625 0.5 0.03125 1 0.03125 0.5 0.03125 0.5 0 1 0 0.5 0.6166632 0.4495527 0.658156 0.4717311 0.7031784 0.4853885 1 0.5 0.96875 1 0.96875 0.5 0.96875 0.5 0.9375 1 0.9375 0.5 0.9375 0.5 0.90625 1 0.90625 0.5 0.90625 0.5 0.875 1 0.875 0.5 0.875 0.5 0.84375 1 0.84375 0.5 0.84375 0.5 0.8125 1 0.8125 0.5 0.8125 0.5 0.78125 1 0.78125 0.5 0.78125 0.5 0.75 1 0.75 0.5 0.75 0.5 0.71875 1 0.71875 0.5 0.71875 0.5 0.6875 1 0.6875 0.5 0.6875 0.5 0.65625 1 0.65625 0.5 0.65625 0.5 0.625 1 0.625 0.5 0.625 0.5 0.59375 1 0.59375 0.5 0.59375 0.5 0.5625 1 0.5625 0.5 0.5625 0.5 0.53125 1 0.53125 0.5 0.53125 0.5 0.5 1 0.5 0.5 0.5 0.5 0.46875 1 0.46875 0.5 0.46875 0.5 0.4375 1 0.4375 0.5 0.4375 0.5 0.40625 1 0.40625 0.5 0.40625 0.5 0.375 1 0.375 0.5 0.375 0.5 0.34375 1 0.34375 0.5 0.34375 0.5 0.3125 1 0.3125 0.5 0.3125 0.5 0.28125 1 0.28125 0.5 0.28125 0.5 0.25 1 0.25 0.5 0.25 0.5 0.21875 1 0.21875 0.5 0.21875 0.5 0.1875 1 0.1875 0.5 0.1875 0.5 0.15625 1 0.15625 0.5 0.15625 0.5 0.125 1 0.125 0.5 0.125 0.5 0.09375 1 0.09375 0.5 0.09375 0.5 0.0625 1 0.0625 0.5 0.4197056 0.4197056 0.3833369 0.4495527 0.08029437 0.4197056 0.0625 0.5 0.03125 1 0.03125 0.5 0.03125 0.5 0 1 0 0.5 0.6166632 0.4495527 0.658156 0.4717311 0.8833369 0.4495527 1 0.5 1 1 0.96875 1 0.96875 0.5 0.96875 1 0.9375 1 0.9375 0.5 0.9375 1 0.90625 1 0.90625 0.5 0.90625 1 0.875 1 0.875 0.5 0.875 1 0.84375 1 0.84375 0.5 0.84375 1 0.8125 1 0.8125 0.5 0.8125 1 0.78125 1 0.78125 0.5 0.78125 1 0.75 1 0.75 0.5 0.75 1 0.71875 1 0.71875 0.5 0.71875 1 0.6875 1 0.6875 0.5 0.6875 1 0.65625 1 0.65625 0.5 0.65625 1 0.625 1 0.625 0.5 0.625 1 0.59375 1 0.59375 0.5 0.59375 1 0.5625 1 0.5625 0.5 0.5625 1 0.53125 1 0.53125 0.5 0.53125 1 0.5 1 0.5 0.5 0.5 1 0.46875 1 0.46875 0.5 0.46875 1 0.4375 1 0.4375 0.5 0.4375 1 0.40625 1 0.40625 0.5 0.40625 1 0.375 1 0.375 0.5 0.375 1 0.34375 1 0.34375 0.5 0.34375 1 0.3125 1 0.3125 0.5 0.3125 1 0.28125 1 0.28125 0.5 0.28125 1 0.25 1 0.25 0.5 0.25 1 0.21875 1 0.21875 0.5 0.21875 1 0.1875 1 0.1875 0.5 0.1875 1 0.15625 1 0.15625 0.5 0.15625 1 0.125 1 0.125 0.5 0.125 1 0.09375 1 0.09375 0.5 0.09375 1 0.0625 1 0.341844 0.4717311 0.2968217 0.4853885 0.1581559 0.4717311 0.2968217 0.4853885 0.25 0.49 0.1581559 0.4717311 0.25 0.49 0.2031783 0.4853885 0.1581559 0.4717311 0.1581559 0.4717311 0.1166631 0.4495527 0.08029437 0.4197056 0.08029437 0.4197056 0.05044728 0.3833369 0.02826887 0.341844 0.02826887 0.341844 0.01461154 0.2968217 0.00999999 0.25 0.00999999 0.25 0.01461154 0.2031783 0.02826887 0.1581559 0.02826887 0.1581559 0.05044728 0.1166631 0.08029437 0.08029437 0.08029437 0.08029437 0.1166631 0.05044728 0.1581559 0.02826887 0.1581559 0.02826887 0.2031783 0.01461154 0.25 0.00999999 0.25 0.00999999 0.2968217 0.01461154 0.1581559 0.02826887 0.2968217 0.01461154 0.341844 0.02826887 0.1581559 0.02826887 0.341844 0.02826887 0.3833369 0.05044728 0.4197056 0.08029437 0.4197056 0.08029437 0.4495527 0.1166631 0.341844 0.02826887 0.4495527 0.1166631 0.4717311 0.1581559 0.341844 0.02826887 0.4717311 0.1581559 0.4853885 0.2031783 0.4717311 0.341844 0.4853885 0.2031783 0.49 0.25 0.4717311 0.341844 0.49 0.25 0.4853885 0.2968217 0.4717311 0.341844 0.4717311 0.341844 0.4495527 0.3833369 0.341844 0.4717311 0.4495527 0.3833369 0.4197056 0.4197056 0.341844 0.4717311 0.4197056 0.4197056 0.3833369 0.4495527 0.341844 0.4717311 0.1581559 0.4717311 0.08029437 0.4197056 0.02826887 0.341844 0.02826887 0.341844 0.00999999 0.25 0.02826887 0.1581559 0.02826887 0.1581559 0.08029437 0.08029437 0.1581559 0.02826887 0.341844 0.4717311 0.1581559 0.4717311 0.02826887 0.341844 0.02826887 0.341844 0.02826887 0.1581559 0.341844 0.4717311 0.02826887 0.1581559 0.1581559 0.02826887 0.341844 0.4717311 0.1581559 0.02826887 0.341844 0.02826887 0.4717311 0.1581559 0.4717311 0.1581559 0.4717311 0.341844 0.1581559 0.02826887 0.0625 0.5 0.0625 1 0.03125 1 0.03125 0.5 0.03125 1 0 1 0.7031784 0.4853885 0.75 0.49 0.7968217 0.4853885 0.7968217 0.4853885 0.841844 0.4717311 0.8833369 0.4495527 0.8833369 0.4495527 0.9197056 0.4197056 0.9495527 0.3833369 0.9495527 0.3833369 0.9717311 0.341844 0.8833369 0.4495527 0.9717311 0.341844 0.9853885 0.2968217 0.8833369 0.4495527 0.9853885 0.2968217 0.99 0.25 0.9853885 0.2031783 0.9853885 0.2031783 0.9717311 0.1581559 0.9853885 0.2968217 0.9717311 0.1581559 0.9495527 0.1166631 0.9853885 0.2968217 0.9495527 0.1166631 0.9197056 0.08029437 0.8833369 0.05044728 0.8833369 0.05044728 0.841844 0.02826887 0.9495527 0.1166631 0.841844 0.02826887 0.7968217 0.01461154 0.9495527 0.1166631 0.7968217 0.01461154 0.75 0.00999999 0.7031784 0.01461154 0.7031784 0.01461154 0.658156 0.02826887 0.6166632 0.05044728 0.6166632 0.05044728 0.5802944 0.08029437 0.5504473 0.1166631 0.5504473 0.1166631 0.5282689 0.1581559 0.6166632 0.05044728 0.5282689 0.1581559 0.5146116 0.2031783 0.6166632 0.05044728 0.5146116 0.2031783 0.51 0.25 0.5146116 0.2968217 0.5146116 0.2968217 0.5282689 0.341844 0.5504473 0.3833369 0.5504473 0.3833369 0.5802944 0.4197056 0.7031784 0.4853885 0.5802944 0.4197056 0.6166632 0.4495527 0.7031784 0.4853885 0.6166632 0.4495527 0.658156 0.4717311 0.7031784 0.4853885 0.7031784 0.4853885 0.7968217 0.4853885 0.9853885 0.2968217 0.7968217 0.4853885 0.8833369 0.4495527 0.9853885 0.2968217 0.7968217 0.01461154 0.7031784 0.01461154 0.5146116 0.2031783 0.7031784 0.01461154 0.6166632 0.05044728 0.5146116 0.2031783 0.5146116 0.2031783 0.5146116 0.2968217 0.7031784 0.4853885 0.5146116 0.2968217 0.5504473 0.3833369 0.7031784 0.4853885 0.9853885 0.2968217 0.9495527 0.1166631 0.7968217 0.01461154 0.7031784 0.4853885 0.9853885 0.2968217 0.7968217 0.01461154 1 0.5 1 1 0.96875 1 0.96875 0.5 0.96875 1 0.9375 1 0.9375 0.5 0.9375 1 0.90625 1 0.90625 0.5 0.90625 1 0.875 1 0.875 0.5 0.875 1 0.84375 1 0.84375 0.5 0.84375 1 0.8125 1 0.8125 0.5 0.8125 1 0.78125 1 0.78125 0.5 0.78125 1 0.75 1 0.75 0.5 0.75 1 0.71875 1 0.71875 0.5 0.71875 1 0.6875 1 0.6875 0.5 0.6875 1 0.65625 1 0.65625 0.5 0.65625 1 0.625 1 0.625 0.5 0.625 1 0.59375 1 0.59375 0.5 0.59375 1 0.5625 1 0.5625 0.5 0.5625 1 0.53125 1 0.53125 0.5 0.53125 1 0.5 1 0.5 0.5 0.5 1 0.46875 1 0.46875 0.5 0.46875 1 0.4375 1 0.4375 0.5 0.4375 1 0.40625 1 0.40625 0.5 0.40625 1 0.375 1 0.375 0.5 0.375 1 0.34375 1 0.34375 0.5 0.34375 1 0.3125 1 0.3125 0.5 0.3125 1 0.28125 1 0.28125 0.5 0.28125 1 0.25 1 0.25 0.5 0.25 1 0.21875 1 0.21875 0.5 0.21875 1 0.1875 1 0.1875 0.5 0.1875 1 0.15625 1 0.15625 0.5 0.15625 1 0.125 1 0.125 0.5 0.125 1 0.09375 1 0.09375 0.5 0.09375 1 0.0625 1 0.341844 0.4717311 0.2968217 0.4853885 0.2031783 0.4853885 0.2968217 0.4853885 0.25 0.49 0.2031783 0.4853885 0.2031783 0.4853885 0.1581559 0.4717311 0.341844 0.4717311 0.1581559 0.4717311 0.1166631 0.4495527 0.341844 0.4717311 0.1166631 0.4495527 0.08029437 0.4197056 0.3833369 0.4495527 0.341844 0.4717311 0.1166631 0.4495527 0.3833369 0.4495527 0.08029437 0.4197056 0.05044728 0.3833369 0.4197056 0.4197056 0.05044728 0.3833369 0.02826887 0.341844 0.4495527 0.3833369 0.4197056 0.4197056 0.05044728 0.3833369 0.4495527 0.3833369 0.02826887 0.341844 0.01461154 0.2968217 0.4853885 0.2968217 0.01461154 0.2968217 0.00999999 0.25 0.49 0.25 0.00999999 0.25 0.01461154 0.2031783 0.4853885 0.2031783 0.01461154 0.2031783 0.02826887 0.1581559 0.4717311 0.1581559 0.02826887 0.1581559 0.05044728 0.1166631 0.4717311 0.1581559 0.05044728 0.1166631 0.08029437 0.08029437 0.4495527 0.1166631 0.4717311 0.1581559 0.05044728 0.1166631 0.4495527 0.1166631 0.08029437 0.08029437 0.1166631 0.05044728 0.4197056 0.08029437 0.1166631 0.05044728 0.1581559 0.02826887 0.3833369 0.05044728 0.4197056 0.08029437 0.1166631 0.05044728 0.3833369 0.05044728 0.1581559 0.02826887 0.2031783 0.01461154 0.341844 0.02826887 0.2031783 0.01461154 0.25 0.00999999 0.2968217 0.01461154 0.341844 0.02826887 0.2031783 0.01461154 0.2968217 0.01461154 0.341844 0.02826887 0.3833369 0.05044728 0.1581559 0.02826887 0.4197056 0.08029437 0.4495527 0.1166631 0.08029437 0.08029437 0.4717311 0.1581559 0.4853885 0.2031783 0.01461154 0.2031783 0.4853885 0.2031783 0.49 0.25 0.00999999 0.25 0.49 0.25 0.4853885 0.2968217 0.01461154 0.2968217 0.4853885 0.2968217 0.4717311 0.341844 0.02826887 0.341844 0.4717311 0.341844 0.4495527 0.3833369 0.02826887 0.341844 0.0625 0.5 0.0625 1 0.03125 1 0.03125 0.5 0.03125 1 0 1 0.7031784 0.4853885 0.75 0.49 0.7968217 0.4853885 0.7968217 0.4853885 0.841844 0.4717311 0.7031784 0.4853885 0.841844 0.4717311 0.8833369 0.4495527 0.658156 0.4717311 0.7031784 0.4853885 0.841844 0.4717311 0.658156 0.4717311 0.8833369 0.4495527 0.9197056 0.4197056 0.5802944 0.4197056 0.9197056 0.4197056 0.9495527 0.3833369 0.5504473 0.3833369 0.9495527 0.3833369 0.9717311 0.341844 0.5504473 0.3833369 0.9717311 0.341844 0.9853885 0.2968217 0.5282689 0.341844 0.5504473 0.3833369 0.9717311 0.341844 0.5282689 0.341844 0.9853885 0.2968217 0.99 0.25 0.51 0.25 0.99 0.25 0.9853885 0.2031783 0.5146116 0.2031783 0.9853885 0.2031783 0.9717311 0.1581559 0.5146116 0.2031783 0.9717311 0.1581559 0.9495527 0.1166631 0.5282689 0.1581559 0.5146116 0.2031783 0.9717311 0.1581559 0.5282689 0.1581559 0.9495527 0.1166631 0.9197056 0.08029437 0.5802944 0.08029437 0.9197056 0.08029437 0.8833369 0.05044728 0.6166632 0.05044728 0.8833369 0.05044728 0.841844 0.02826887 0.6166632 0.05044728 0.841844 0.02826887 0.7968217 0.01461154 0.658156 0.02826887 0.6166632 0.05044728 0.841844 0.02826887 0.658156 0.02826887 0.7968217 0.01461154 0.75 0.00999999 0.7031784 0.01461154 0.7031784 0.01461154 0.658156 0.02826887 0.7968217 0.01461154 0.6166632 0.05044728 0.5802944 0.08029437 0.9197056 0.08029437 0.5802944 0.08029437 0.5504473 0.1166631 0.9495527 0.1166631 0.5504473 0.1166631 0.5282689 0.1581559 0.9495527 0.1166631 0.5146116 0.2031783 0.51 0.25 0.99 0.25 0.51 0.25 0.5146116 0.2968217 0.9853885 0.2968217 0.5146116 0.2968217 0.5282689 0.341844 0.9853885 0.2968217 0.5504473 0.3833369 0.5802944 0.4197056 0.9197056 0.4197056 0.5802944 0.4197056 0.6166632 0.4495527 0.8833369 0.4495527 1 0.5 1 1 0.96875 1 0.96875 0.5 0.96875 1 0.9375 1 0.9375 0.5 0.9375 1 0.90625 1 0.90625 0.5 0.90625 1 0.875 1 0.875 0.5 0.875 1 0.84375 1 0.84375 0.5 0.84375 1 0.8125 1 0.8125 0.5 0.8125 1 0.78125 1 0.78125 0.5 0.78125 1 0.75 1 0.75 0.5 0.75 1 0.71875 1 0.71875 0.5 0.71875 1 0.6875 1 0.6875 0.5 0.6875 1 0.65625 1 0.65625 0.5 0.65625 1 0.625 1 0.625 0.5 0.625 1 0.59375 1 0.59375 0.5 0.59375 1 0.5625 1 0.5625 0.5 0.5625 1 0.53125 1 0.53125 0.5 0.53125 1 0.5 1 0.5 0.5 0.5 1 0.46875 1 0.46875 0.5 0.46875 1 0.4375 1 0.4375 0.5 0.4375 1 0.40625 1 0.40625 0.5 0.40625 1 0.375 1 0.375 0.5 0.375 1 0.34375 1 0.34375 0.5 0.34375 1 0.3125 1 0.3125 0.5 0.3125 1 0.28125 1 0.28125 0.5 0.28125 1 0.25 1 0.25 0.5 0.25 1 0.21875 1 0.21875 0.5 0.21875 1 0.1875 1 0.1875 0.5 0.1875 1 0.15625 1 0.15625 0.5 0.15625 1 0.125 1 0.125 0.5 0.125 1 0.09375 1 0.09375 0.5 0.09375 1 0.0625 1 0.341844 0.4717311 0.2968217 0.4853885 0.05044728 0.3833369 0.2968217 0.4853885 0.25 0.49 0.08029437 0.4197056 0.25 0.49 0.2031783 0.4853885 0.1166631 0.4495527 0.2031783 0.4853885 0.1581559 0.4717311 0.1166631 0.4495527 0.1166631 0.4495527 0.08029437 0.4197056 0.25 0.49 0.08029437 0.4197056 0.05044728 0.3833369 0.2968217 0.4853885 0.05044728 0.3833369 0.02826887 0.341844 0.341844 0.4717311 0.02826887 0.341844 0.01461154 0.2968217 0.3833369 0.4495527 0.01461154 0.2968217 0.00999999 0.25 0.4197056 0.4197056 0.00999999 0.25 0.01461154 0.2031783 0.4495527 0.3833369 0.01461154 0.2031783 0.02826887 0.1581559 0.4717311 0.341844 0.02826887 0.1581559 0.05044728 0.1166631 0.4853885 0.2968217 0.05044728 0.1166631 0.08029437 0.08029437 0.49 0.25 0.08029437 0.08029437 0.1166631 0.05044728 0.4853885 0.2031783 0.1166631 0.05044728 0.1581559 0.02826887 0.4717311 0.1581559 0.1581559 0.02826887 0.2031783 0.01461154 0.4495527 0.1166631 0.2031783 0.01461154 0.25 0.00999999 0.4197056 0.08029437 0.25 0.00999999 0.2968217 0.01461154 0.3833369 0.05044728 0.2968217 0.01461154 0.341844 0.02826887 0.3833369 0.05044728 0.3833369 0.05044728 0.4197056 0.08029437 0.25 0.00999999 0.4197056 0.08029437 0.4495527 0.1166631 0.2031783 0.01461154 0.4495527 0.1166631 0.4717311 0.1581559 0.1581559 0.02826887 0.4717311 0.1581559 0.4853885 0.2031783 0.1166631 0.05044728 0.4853885 0.2031783 0.49 0.25 0.08029437 0.08029437 0.49 0.25 0.4853885 0.2968217 0.05044728 0.1166631 0.4853885 0.2968217 0.4717311 0.341844 0.02826887 0.1581559 0.4717311 0.341844 0.4495527 0.3833369 0.01461154 0.2031783 0.4495527 0.3833369 0.4197056 0.4197056 0.00999999 0.25 0.4197056 0.4197056 0.3833369 0.4495527 0.01461154 0.2968217 0.0625 0.5 0.0625 1 0.03125 1 0.03125 0.5 0.03125 1 0 1 0.7031784 0.4853885 0.75 0.49 0.6166632 0.4495527 0.75 0.49 0.7968217 0.4853885 0.5802944 0.4197056 0.6166632 0.4495527 0.75 0.49 0.5802944 0.4197056 0.7968217 0.4853885 0.841844 0.4717311 0.5504473 0.3833369 0.841844 0.4717311 0.8833369 0.4495527 0.5282689 0.341844 0.5504473 0.3833369 0.841844 0.4717311 0.5282689 0.341844 0.8833369 0.4495527 0.9197056 0.4197056 0.5146116 0.2968217 0.9197056 0.4197056 0.9495527 0.3833369 0.51 0.25 0.5146116 0.2968217 0.9197056 0.4197056 0.51 0.25 0.9495527 0.3833369 0.9717311 0.341844 0.5146116 0.2031783 0.9717311 0.341844 0.9853885 0.2968217 0.5282689 0.1581559 0.5146116 0.2031783 0.9717311 0.341844 0.5282689 0.1581559 0.9853885 0.2968217 0.99 0.25 0.5504473 0.1166631 0.99 0.25 0.9853885 0.2031783 0.5802944 0.08029437 0.5504473 0.1166631 0.99 0.25 0.5802944 0.08029437 0.9853885 0.2031783 0.9717311 0.1581559 0.6166632 0.05044728 0.9717311 0.1581559 0.9495527 0.1166631 0.658156 0.02826887 0.6166632 0.05044728 0.9717311 0.1581559 0.658156 0.02826887 0.9495527 0.1166631 0.9197056 0.08029437 0.7031784 0.01461154 0.9197056 0.08029437 0.8833369 0.05044728 0.75 0.00999999 0.7031784 0.01461154 0.9197056 0.08029437 0.75 0.00999999 0.8833369 0.05044728 0.841844 0.02826887 0.7968217 0.01461154 0.7968217 0.01461154 0.75 0.00999999 0.8833369 0.05044728 0.7031784 0.01461154 0.658156 0.02826887 0.9495527 0.1166631 0.6166632 0.05044728 0.5802944 0.08029437 0.9853885 0.2031783 0.5504473 0.1166631 0.5282689 0.1581559 0.9853885 0.2968217 0.5146116 0.2031783 0.51 0.25 0.9495527 0.3833369 0.5146116 0.2968217 0.5282689 0.341844 0.8833369 0.4495527 0.5504473 0.3833369 0.5802944 0.4197056 0.7968217 0.4853885 1 0.5 1 1 0.96875 1 0.96875 0.5 0.96875 1 0.9375 1 0.9375 0.5 0.9375 1 0.90625 1 0.90625 0.5 0.90625 1 0.875 1 0.875 0.5 0.875 1 0.84375 1 0.84375 0.5 0.84375 1 0.8125 1 0.8125 0.5 0.8125 1 0.78125 1 0.78125 0.5 0.78125 1 0.75 1 0.75 0.5 0.75 1 0.71875 1 0.71875 0.5 0.71875 1 0.6875 1 0.6875 0.5 0.6875 1 0.65625 1 0.65625 0.5 0.65625 1 0.625 1 0.625 0.5 0.625 1 0.59375 1 0.59375 0.5 0.59375 1 0.5625 1 0.5625 0.5 0.5625 1 0.53125 1 0.53125 0.5 0.53125 1 0.5 1 0.5 0.5 0.5 1 0.46875 1 0.46875 0.5 0.46875 1 0.4375 1 0.4375 0.5 0.4375 1 0.40625 1 0.40625 0.5 0.40625 1 0.375 1 0.375 0.5 0.375 1 0.34375 1 0.34375 0.5 0.34375 1 0.3125 1 0.3125 0.5 0.3125 1 0.28125 1 0.28125 0.5 0.28125 1 0.25 1 0.25 0.5 0.25 1 0.21875 1 0.21875 0.5 0.21875 1 0.1875 1 0.1875 0.5 0.1875 1 0.15625 1 0.15625 0.5 0.15625 1 0.125 1 0.125 0.5 0.125 1 0.09375 1 0.09375 0.5 0.09375 1 0.0625 1 0.341844 0.4717311 0.2968217 0.4853885 0.1581559 0.4717311 0.2968217 0.4853885 0.25 0.49 0.2031783 0.4853885 0.1581559 0.4717311 0.2968217 0.4853885 0.2031783 0.4853885 0.1581559 0.4717311 0.1166631 0.4495527 0.341844 0.4717311 0.1166631 0.4495527 0.08029437 0.4197056 0.3833369 0.4495527 0.341844 0.4717311 0.1166631 0.4495527 0.3833369 0.4495527 0.08029437 0.4197056 0.05044728 0.3833369 0.4197056 0.4197056 0.05044728 0.3833369 0.02826887 0.341844 0.4495527 0.3833369 0.4197056 0.4197056 0.05044728 0.3833369 0.4495527 0.3833369 0.02826887 0.341844 0.01461154 0.2968217 0.4853885 0.2968217 0.01461154 0.2968217 0.00999999 0.25 0.49 0.25 0.00999999 0.25 0.01461154 0.2031783 0.4853885 0.2031783 0.01461154 0.2031783 0.02826887 0.1581559 0.4717311 0.1581559 0.02826887 0.1581559 0.05044728 0.1166631 0.4717311 0.1581559 0.05044728 0.1166631 0.08029437 0.08029437 0.4495527 0.1166631 0.4717311 0.1581559 0.05044728 0.1166631 0.4495527 0.1166631 0.08029437 0.08029437 0.1166631 0.05044728 0.4197056 0.08029437 0.1166631 0.05044728 0.1581559 0.02826887 0.3833369 0.05044728 0.4197056 0.08029437 0.1166631 0.05044728 0.3833369 0.05044728 0.1581559 0.02826887 0.2031783 0.01461154 0.2968217 0.01461154 0.2031783 0.01461154 0.25 0.00999999 0.2968217 0.01461154 0.2968217 0.01461154 0.341844 0.02826887 0.1581559 0.02826887 0.341844 0.02826887 0.3833369 0.05044728 0.1581559 0.02826887 0.4197056 0.08029437 0.4495527 0.1166631 0.08029437 0.08029437 0.4717311 0.1581559 0.4853885 0.2031783 0.01461154 0.2031783 0.4853885 0.2031783 0.49 0.25 0.00999999 0.25 0.49 0.25 0.4853885 0.2968217 0.01461154 0.2968217 0.4853885 0.2968217 0.4717311 0.341844 0.02826887 0.341844 0.4717311 0.341844 0.4495527 0.3833369 0.02826887 0.341844 0.0625 0.5 0.0625 1 0.03125 1 0.03125 0.5 0.03125 1 0 1 0.7031784 0.4853885 0.75 0.49 0.7968217 0.4853885 0.7968217 0.4853885 0.841844 0.4717311 0.7031784 0.4853885 0.841844 0.4717311 0.8833369 0.4495527 0.658156 0.4717311 0.7031784 0.4853885 0.841844 0.4717311 0.658156 0.4717311 0.8833369 0.4495527 0.9197056 0.4197056 0.5802944 0.4197056 0.9197056 0.4197056 0.9495527 0.3833369 0.5504473 0.3833369 0.9495527 0.3833369 0.9717311 0.341844 0.5504473 0.3833369 0.9717311 0.341844 0.9853885 0.2968217 0.5282689 0.341844 0.5504473 0.3833369 0.9717311 0.341844 0.5282689 0.341844 0.9853885 0.2968217 0.99 0.25 0.51 0.25 0.99 0.25 0.9853885 0.2031783 0.5146116 0.2031783 0.9853885 0.2031783 0.9717311 0.1581559 0.5146116 0.2031783 0.9717311 0.1581559 0.9495527 0.1166631 0.5282689 0.1581559 0.5146116 0.2031783 0.9717311 0.1581559 0.5282689 0.1581559 0.9495527 0.1166631 0.9197056 0.08029437 0.5802944 0.08029437 0.9197056 0.08029437 0.8833369 0.05044728 0.6166632 0.05044728 0.8833369 0.05044728 0.841844 0.02826887 0.6166632 0.05044728 0.841844 0.02826887 0.7968217 0.01461154 0.658156 0.02826887 0.6166632 0.05044728 0.841844 0.02826887 0.658156 0.02826887 0.7968217 0.01461154 0.75 0.00999999 0.7031784 0.01461154 0.7031784 0.01461154 0.658156 0.02826887 0.7968217 0.01461154 0.6166632 0.05044728 0.5802944 0.08029437 0.9197056 0.08029437 0.5802944 0.08029437 0.5504473 0.1166631 0.9495527 0.1166631 0.5504473 0.1166631 0.5282689 0.1581559 0.9495527 0.1166631 0.5146116 0.2031783 0.51 0.25 0.99 0.25 0.51 0.25 0.5146116 0.2968217 0.9853885 0.2968217 0.5146116 0.2968217 0.5282689 0.341844 0.9853885 0.2968217 0.5504473 0.3833369 0.5802944 0.4197056 0.9197056 0.4197056 0.5802944 0.4197056 0.6166632 0.4495527 0.8833369 0.4495527</float_array>
          <technique_common>
            <accessor source="#Cylinder_014-mesh-map-0-array" count="1488" stride="2">
              <param name="S" type="float"/>
              <param name="T" type="float"/>
            </accessor>
          </technique_common>
        </source>
        <vertices id="Cylinder_014-mesh-vertices">
          <input semantic="POSITION" source="#Cylinder_014-mesh-positions"/>
        </vertices>
        <triangles material="Material_006-material" count="496">
          <input semantic="VERTEX" source="#Cylinder_014-mesh-vertices" offset="0"/>
          <input semantic="NORMAL" source="#Cylinder_014-mesh-normals" offset="1"/>
          <input semantic="TEXCOORD" source="#Cylinder_014-mesh-map-0" offset="2" set="0"/>
          <p>0 0 0 3 1 1 2 2 2 2 2 3 5 3 4 4 4 5 4 4 6 7 5 7 6 6 8 6 6 9 9 7 10 8 8 11 8 8 12 11 9 13 10 10 14 10 10 15 13 11 16 12 12 17 12 12 18 15 13 19 14 14 20 14 14 21 17 15 22 16 16 23 16 16 24 19 17 25 18 18 26 18 18 27 21 19 28 20 20 29 20 20 30 23 21 31 22 22 32 22 22 33 25 23 34 24 24 35 24 24 36 27 25 37 26 26 38 26 26 39 29 27 40 28 28 41 28 28 42 31 29 43 30 30 44 30 30 45 33 31 46 32 32 47 32 32 48 35 33 49 34 34 50 34 34 51 37 35 52 36 36 53 36 36 54 39 37 55 38 38 56 38 38 57 41 39 58 40 40 59 40 40 60 43 41 61 42 42 62 42 42 63 45 43 64 44 44 65 44 44 66 47 45 67 46 46 68 46 46 69 49 47 70 48 48 71 48 48 72 51 49 73 50 50 74 50 50 75 53 51 76 52 52 77 52 52 78 55 53 79 54 54 80 54 54 81 57 55 82 56 56 83 56 56 84 59 57 85 58 58 86 58 58 87 61 59 88 60 60 89 13 11 90 5 3 91 37 35 92 60 60 93 63 61 94 62 62 95 62 62 96 1 63 97 0 0 98 30 30 99 46 46 100 62 62 101 64 64 102 67 65 103 66 66 104 66 66 105 69 67 106 68 68 107 68 68 108 71 69 109 70 70 110 70 70 111 73 71 112 72 72 113 72 72 114 75 73 115 74 74 116 74 74 117 77 75 118 76 76 119 76 76 120 79 77 121 78 78 122 78 78 123 81 79 124 80 80 125 80 80 126 83 81 127 82 82 128 82 82 129 85 83 130 84 84 131 84 84 132 87 85 133 86 86 134 86 86 135 89 87 136 88 88 137 88 88 138 91 89 139 90 90 140 90 90 141 93 91 142 92 92 143 92 92 144 95 93 145 94 94 146 94 94 147 97 95 148 96 96 149 96 96 150 99 97 151 98 98 152 98 98 153 101 99 154 100 100 155 100 100 156 103 101 157 102 102 158 102 102 159 105 103 160 104 104 161 104 104 162 107 105 163 106 106 164 106 106 165 109 107 166 108 108 167 108 108 168 111 109 169 110 110 170 110 110 171 113 111 172 112 112 173 112 112 174 115 113 175 114 114 176 114 114 177 117 115 178 116 116 179 116 116 180 119 117 181 118 118 182 118 118 183 121 119 184 120 120 185 120 120 186 123 121 187 122 122 188 122 122 189 125 123 190 124 124 191 73 71 192 71 69 193 121 119 194 124 124 195 127 125 196 126 126 197 126 126 198 65 127 199 64 64 200 122 122 201 124 124 202 70 70 203 128 128 204 131 129 205 130 130 206 130 130 207 133 131 208 132 132 209 132 132 210 135 133 211 134 134 212 134 134 213 137 135 214 136 136 215 136 136 216 139 137 217 138 138 218 138 138 219 141 139 220 140 140 221 140 140 222 143 141 223 142 142 224 142 142 225 145 143 226 144 144 227 144 144 228 147 145 229 146 146 230 146 146 231 149 147 232 148 148 233 148 148 234 151 149 235 150 150 236 150 150 237 153 151 238 152 152 239 152 152 240 155 153 241 154 154 242 154 154 243 157 155 244 156 156 245 156 156 246 159 157 247 158 158 248 158 158 249 161 159 250 160 160 251 160 160 252 163 161 253 162 162 254 162 162 255 165 163 256 164 164 257 164 164 258 167 165 259 166 166 260 166 166 261 169 167 262 168 168 263 168 168 264 171 169 265 170 170 266 170 170 267 173 171 268 172 172 269 172 172 270 175 173 271 174 174 272 174 174 273 177 175 274 176 176 275 176 176 276 179 177 277 178 178 278 178 178 279 181 179 280 180 180 281 180 180 282 183 181 283 182 182 284 182 182 285 185 183 286 184 184 287 184 184 288 187 185 289 186 186 290 186 186 291 189 187 292 188 188 293 135 133 294 133 131 295 181 179 296 188 188 297 191 189 298 190 190 299 190 190 300 129 191 301 128 128 302 186 186 303 188 188 304 190 190 305 192 192 306 195 193 307 194 194 308 194 194 309 197 195 310 196 196 311 196 196 312 199 197 313 198 198 314 198 198 315 201 199 316 200 200 317 200 200 318 203 201 319 202 202 320 202 202 321 205 203 322 204 204 323 204 204 324 207 205 325 206 206 326 206 206 327 209 207 328 208 208 329 208 208 330 211 209 331 210 210 332 210 210 333 213 211 334 212 212 335 212 212 336 215 213 337 214 214 338 214 214 339 217 215 340 216 216 341 216 216 342 219 217 343 218 218 344 218 218 345 221 219 346 220 220 347 220 220 348 223 221 349 222 222 350 222 222 351 225 223 352 224 224 353 224 224 354 227 225 355 226 226 356 226 226 357 229 227 358 228 228 359 228 228 360 231 229 361 230 230 362 230 230 363 233 231 364 232 232 365 232 232 366 235 233 367 234 234 368 234 234 369 237 235 370 236 236 371 236 236 372 239 237 373 238 238 374 238 238 375 241 239 376 240 240 377 240 240 378 243 241 379 242 242 380 242 242 381 245 243 382 244 244 383 244 244 384 247 245 385 246 246 386 246 246 387 249 247 388 248 248 389 248 248 390 251 249 391 250 250 392 250 250 393 253 251 394 252 252 395 201 199 396 199 197 397 249 247 398 252 252 399 255 253 400 254 254 401 254 254 402 193 255 403 192 192 404 250 250 405 252 252 406 198 198 407 0 0 408 1 63 409 3 1 410 2 2 411 3 1 412 5 3 413 4 4 414 5 3 415 7 5 416 6 6 417 7 5 418 9 7 419 8 8 420 9 7 421 11 9 422 10 10 423 11 9 424 13 11 425 12 12 426 13 11 427 15 13 428 14 14 429 15 13 430 17 15 431 16 16 432 17 15 433 19 17 434 18 18 435 19 17 436 21 19 437 20 20 438 21 19 439 23 21 440 22 22 441 23 21 442 25 23 443 24 24 444 25 23 445 27 25 446 26 26 447 27 25 448 29 27 449 28 28 450 29 27 451 31 29 452 30 30 453 31 29 454 33 31 455 32 32 456 33 31 457 35 33 458 34 34 459 35 33 460 37 35 461 36 36 462 37 35 463 39 37 464 38 38 465 39 37 466 41 39 467 40 40 468 41 39 469 43 41 470 42 42 471 43 41 472 45 43 473 44 44 474 45 43 475 47 45 476 46 46 477 47 45 478 49 47 479 48 48 480 49 47 481 51 49 482 50 50 483 51 49 484 53 51 485 52 52 486 53 51 487 55 53 488 54 54 489 55 53 490 57 55 491 56 56 492 57 55 493 59 57 494 58 58 495 59 57 496 61 59 497 5 3 498 3 1 499 61 59 500 3 1 501 1 63 502 61 59 503 1 63 504 63 61 505 61 59 506 61 59 507 59 57 508 57 55 509 57 55 510 55 53 511 53 51 512 53 51 513 51 49 514 49 47 515 49 47 516 47 45 517 45 43 518 45 43 519 43 41 520 41 39 521 41 39 522 39 37 523 37 35 524 37 35 525 35 33 526 33 31 527 33 31 528 31 29 529 37 35 530 31 29 531 29 27 532 37 35 533 29 27 534 27 25 535 25 23 536 25 23 537 23 21 538 29 27 539 23 21 540 21 19 541 29 27 542 21 19 543 19 17 544 13 11 545 19 17 546 17 15 547 13 11 548 17 15 549 15 13 550 13 11 551 13 11 552 11 9 553 5 3 554 11 9 555 9 7 556 5 3 557 9 7 558 7 5 559 5 3 560 61 59 561 57 55 562 53 51 563 53 51 564 49 47 565 45 43 566 45 43 567 41 39 568 37 35 569 5 3 570 61 59 571 53 51 572 53 51 573 45 43 574 5 3 575 45 43 576 37 35 577 5 3 578 37 35 579 29 27 580 21 19 581 21 19 582 13 11 583 37 35 584 60 60 585 61 59 586 63 61 587 62 62 588 63 61 589 1 63 590 62 62 591 0 0 592 2 2 593 2 2 594 4 4 595 6 6 596 6 6 597 8 8 598 10 10 599 10 10 600 12 12 601 6 6 602 12 12 603 14 14 604 6 6 605 14 14 606 16 16 607 18 18 608 18 18 609 20 20 610 14 14 611 20 20 612 22 22 613 14 14 614 22 22 615 24 24 616 26 26 617 26 26 618 28 28 619 22 22 620 28 28 621 30 30 622 22 22 623 30 30 624 32 32 625 34 34 626 34 34 627 36 36 628 38 38 629 38 38 630 40 40 631 42 42 632 42 42 633 44 44 634 38 38 635 44 44 636 46 46 637 38 38 638 46 46 639 48 48 640 50 50 641 50 50 642 52 52 643 54 54 644 54 54 645 56 56 646 62 62 647 56 56 648 58 58 649 62 62 650 58 58 651 60 60 652 62 62 653 62 62 654 2 2 655 14 14 656 2 2 657 6 6 658 14 14 659 30 30 660 34 34 661 46 46 662 34 34 663 38 38 664 46 46 665 46 46 666 50 50 667 62 62 668 50 50 669 54 54 670 62 62 671 14 14 672 22 22 673 30 30 674 62 62 675 14 14 676 30 30 677 64 64 678 65 127 679 67 65 680 66 66 681 67 65 682 69 67 683 68 68 684 69 67 685 71 69 686 70 70 687 71 69 688 73 71 689 72 72 690 73 71 691 75 73 692 74 74 693 75 73 694 77 75 695 76 76 696 77 75 697 79 77 698 78 78 699 79 77 700 81 79 701 80 80 702 81 79 703 83 81 704 82 82 705 83 81 706 85 83 707 84 84 708 85 83 709 87 85 710 86 86 711 87 85 712 89 87 713 88 88 714 89 87 715 91 89 716 90 90 717 91 89 718 93 91 719 92 92 720 93 91 721 95 93 722 94 94 723 95 93 724 97 95 725 96 96 726 97 95 727 99 97 728 98 98 729 99 97 730 101 99 731 100 100 732 101 99 733 103 101 734 102 102 735 103 101 736 105 103 737 104 104 738 105 103 739 107 105 740 106 106 741 107 105 742 109 107 743 108 108 744 109 107 745 111 109 746 110 110 747 111 109 748 113 111 749 112 112 750 113 111 751 115 113 752 114 114 753 115 113 754 117 115 755 116 116 756 117 115 757 119 117 758 118 118 759 119 117 760 121 119 761 120 120 762 121 119 763 123 121 764 122 122 765 123 121 766 125 123 767 69 67 768 67 65 769 127 125 770 67 65 771 65 127 772 127 125 773 127 125 774 125 123 775 69 67 776 125 123 777 123 121 778 69 67 779 123 121 780 121 119 781 71 69 782 69 67 783 123 121 784 71 69 785 121 119 786 119 117 787 73 71 788 119 117 789 117 115 790 75 73 791 73 71 792 119 117 793 75 73 794 117 115 795 115 113 796 79 77 797 115 113 798 113 111 799 81 79 800 113 111 801 111 109 802 83 81 803 111 109 804 109 107 805 85 83 806 109 107 807 107 105 808 85 83 809 107 105 810 105 103 811 87 85 812 85 83 813 107 105 814 87 85 815 105 103 816 103 101 817 89 87 818 103 101 819 101 99 820 91 89 821 89 87 822 103 101 823 91 89 824 101 99 825 99 97 826 93 91 827 99 97 828 97 95 829 95 93 830 93 91 831 99 97 832 95 93 833 93 91 834 91 89 835 101 99 836 89 87 837 87 85 838 105 103 839 85 83 840 83 81 841 111 109 842 83 81 843 81 79 844 113 111 845 81 79 846 79 77 847 115 113 848 79 77 849 77 75 850 117 115 851 77 75 852 75 73 853 117 115 854 124 124 855 125 123 856 127 125 857 126 126 858 127 125 859 65 127 860 126 126 861 64 64 862 66 66 863 66 66 864 68 68 865 126 126 866 68 68 867 70 70 868 124 124 869 126 126 870 68 68 871 124 124 872 70 70 873 72 72 874 120 120 875 72 72 876 74 74 877 118 118 878 74 74 879 76 76 880 118 118 881 76 76 882 78 78 883 116 116 884 118 118 885 76 76 886 116 116 887 78 78 888 80 80 889 112 112 890 80 80 891 82 82 892 110 110 893 82 82 894 84 84 895 110 110 896 84 84 897 86 86 898 108 108 899 110 110 900 84 84 901 108 108 902 86 86 903 88 88 904 104 104 905 88 88 906 90 90 907 102 102 908 90 90 909 92 92 910 102 102 911 92 92 912 94 94 913 100 100 914 102 102 915 92 92 916 100 100 917 94 94 918 96 96 919 98 98 920 98 98 921 100 100 922 94 94 923 102 102 924 104 104 925 88 88 926 104 104 927 106 106 928 86 86 929 106 106 930 108 108 931 86 86 932 110 110 933 112 112 934 80 80 935 112 112 936 114 114 937 78 78 938 114 114 939 116 116 940 78 78 941 118 118 942 120 120 943 72 72 944 120 120 945 122 122 946 70 70 947 128 128 948 129 191 949 131 129 950 130 130 951 131 129 952 133 131 953 132 132 954 133 131 955 135 133 956 134 134 957 135 133 958 137 135 959 136 136 960 137 135 961 139 137 962 138 138 963 139 137 964 141 139 965 140 140 966 141 139 967 143 141 968 142 142 969 143 141 970 145 143 971 144 144 972 145 143 973 147 145 974 146 146 975 147 145 976 149 147 977 148 148 978 149 147 979 151 149 980 150 150 981 151 149 982 153 151 983 152 152 984 153 151 985 155 153 986 154 154 987 155 153 988 157 155 989 156 156 990 157 155 991 159 157 992 158 158 993 159 157 994 161 159 995 160 160 996 161 159 997 163 161 998 162 162 999 163 161 1000 165 163 1001 164 164 1002 165 163 1003 167 165 1004 166 166 1005 167 165 1006 169 167 1007 168 168 1008 169 167 1009 171 169 1010 170 170 1011 171 169 1012 173 171 1013 172 172 1014 173 171 1015 175 173 1016 174 174 1017 175 173 1018 177 175 1019 176 176 1020 177 175 1021 179 177 1022 178 178 1023 179 177 1024 181 179 1025 180 180 1026 181 179 1027 183 181 1028 182 182 1029 183 181 1030 185 183 1031 184 184 1032 185 183 1033 187 185 1034 186 186 1035 187 185 1036 189 187 1037 133 131 1038 131 129 1039 183 181 1040 131 129 1041 129 191 1042 185 183 1043 129 191 1044 191 189 1045 187 185 1046 191 189 1047 189 187 1048 187 185 1049 187 185 1050 185 183 1051 129 191 1052 185 183 1053 183 181 1054 131 129 1055 183 181 1056 181 179 1057 133 131 1058 181 179 1059 179 177 1060 135 133 1061 179 177 1062 177 175 1063 137 135 1064 177 175 1065 175 173 1066 139 137 1067 175 173 1068 173 171 1069 141 139 1070 173 171 1071 171 169 1072 143 141 1073 171 169 1074 169 167 1075 145 143 1076 169 167 1077 167 165 1078 147 145 1079 167 165 1080 165 163 1081 149 147 1082 165 163 1083 163 161 1084 151 149 1085 163 161 1086 161 159 1087 153 151 1088 161 159 1089 159 157 1090 155 153 1091 159 157 1092 157 155 1093 155 153 1094 155 153 1095 153 151 1096 161 159 1097 153 151 1098 151 149 1099 163 161 1100 151 149 1101 149 147 1102 165 163 1103 149 147 1104 147 145 1105 167 165 1106 147 145 1107 145 143 1108 169 167 1109 145 143 1110 143 141 1111 171 169 1112 143 141 1113 141 139 1114 173 171 1115 141 139 1116 139 137 1117 175 173 1118 139 137 1119 137 135 1120 177 175 1121 137 135 1122 135 133 1123 179 177 1124 188 188 1125 189 187 1126 191 189 1127 190 190 1128 191 189 1129 129 191 1130 190 190 1131 128 128 1132 186 186 1133 128 128 1134 130 130 1135 184 184 1136 186 186 1137 128 128 1138 184 184 1139 130 130 1140 132 132 1141 182 182 1142 132 132 1143 134 134 1144 180 180 1145 182 182 1146 132 132 1147 180 180 1148 134 134 1149 136 136 1150 178 178 1151 136 136 1152 138 138 1153 176 176 1154 178 178 1155 136 136 1156 176 176 1157 138 138 1158 140 140 1159 174 174 1160 140 140 1161 142 142 1162 172 172 1163 174 174 1164 140 140 1165 172 172 1166 142 142 1167 144 144 1168 170 170 1169 144 144 1170 146 146 1171 168 168 1172 170 170 1173 144 144 1174 168 168 1175 146 146 1176 148 148 1177 166 166 1178 148 148 1179 150 150 1180 164 164 1181 166 166 1182 148 148 1183 164 164 1184 150 150 1185 152 152 1186 162 162 1187 152 152 1188 154 154 1189 160 160 1190 162 162 1191 152 152 1192 160 160 1193 154 154 1194 156 156 1195 158 158 1196 158 158 1197 160 160 1198 154 154 1199 162 162 1200 164 164 1201 150 150 1202 166 166 1203 168 168 1204 146 146 1205 170 170 1206 172 172 1207 142 142 1208 174 174 1209 176 176 1210 138 138 1211 178 178 1212 180 180 1213 134 134 1214 182 182 1215 184 184 1216 130 130 1217 192 192 1218 193 255 1219 195 193 1220 194 194 1221 195 193 1222 197 195 1223 196 196 1224 197 195 1225 199 197 1226 198 198 1227 199 197 1228 201 199 1229 200 200 1230 201 199 1231 203 201 1232 202 202 1233 203 201 1234 205 203 1235 204 204 1236 205 203 1237 207 205 1238 206 206 1239 207 205 1240 209 207 1241 208 208 1242 209 207 1243 211 209 1244 210 210 1245 211 209 1246 213 211 1247 212 212 1248 213 211 1249 215 213 1250 214 214 1251 215 213 1252 217 215 1253 216 216 1254 217 215 1255 219 217 1256 218 218 1257 219 217 1258 221 219 1259 220 220 1260 221 219 1261 223 221 1262 222 222 1263 223 221 1264 225 223 1265 224 224 1266 225 223 1267 227 225 1268 226 226 1269 227 225 1270 229 227 1271 228 228 1272 229 227 1273 231 229 1274 230 230 1275 231 229 1276 233 231 1277 232 232 1278 233 231 1279 235 233 1280 234 234 1281 235 233 1282 237 235 1283 236 236 1284 237 235 1285 239 237 1286 238 238 1287 239 237 1288 241 239 1289 240 240 1290 241 239 1291 243 241 1292 242 242 1293 243 241 1294 245 243 1295 244 244 1296 245 243 1297 247 245 1298 246 246 1299 247 245 1300 249 247 1301 248 248 1302 249 247 1303 251 249 1304 250 250 1305 251 249 1306 253 251 1307 197 195 1308 195 193 1309 253 251 1310 195 193 1311 193 255 1312 255 253 1313 253 251 1314 195 193 1315 255 253 1316 253 251 1317 251 249 1318 197 195 1319 251 249 1320 249 247 1321 199 197 1322 197 195 1323 251 249 1324 199 197 1325 249 247 1326 247 245 1327 201 199 1328 247 245 1329 245 243 1330 203 201 1331 201 199 1332 247 245 1333 203 201 1334 245 243 1335 243 241 1336 207 205 1337 243 241 1338 241 239 1339 209 207 1340 241 239 1341 239 237 1342 211 209 1343 239 237 1344 237 235 1345 213 211 1346 237 235 1347 235 233 1348 213 211 1349 235 233 1350 233 231 1351 215 213 1352 213 211 1353 235 233 1354 215 213 1355 233 231 1356 231 229 1357 217 215 1358 231 229 1359 229 227 1360 219 217 1361 217 215 1362 231 229 1363 219 217 1364 229 227 1365 227 225 1366 223 221 1367 227 225 1368 225 223 1369 223 221 1370 223 221 1371 221 219 1372 229 227 1373 221 219 1374 219 217 1375 229 227 1376 217 215 1377 215 213 1378 233 231 1379 213 211 1380 211 209 1381 239 237 1382 211 209 1383 209 207 1384 241 239 1385 209 207 1386 207 205 1387 243 241 1388 207 205 1389 205 203 1390 245 243 1391 205 203 1392 203 201 1393 245 243 1394 252 252 1395 253 251 1396 255 253 1397 254 254 1398 255 253 1399 193 255 1400 254 254 1401 192 192 1402 194 194 1403 194 194 1404 196 196 1405 254 254 1406 196 196 1407 198 198 1408 252 252 1409 254 254 1410 196 196 1411 252 252 1412 198 198 1413 200 200 1414 248 248 1415 200 200 1416 202 202 1417 246 246 1418 202 202 1419 204 204 1420 246 246 1421 204 204 1422 206 206 1423 244 244 1424 246 246 1425 204 204 1426 244 244 1427 206 206 1428 208 208 1429 240 240 1430 208 208 1431 210 210 1432 238 238 1433 210 210 1434 212 212 1435 238 238 1436 212 212 1437 214 214 1438 236 236 1439 238 238 1440 212 212 1441 236 236 1442 214 214 1443 216 216 1444 232 232 1445 216 216 1446 218 218 1447 230 230 1448 218 218 1449 220 220 1450 230 230 1451 220 220 1452 222 222 1453 228 228 1454 230 230 1455 220 220 1456 228 228 1457 222 222 1458 224 224 1459 226 226 1460 226 226 1461 228 228 1462 222 222 1463 230 230 1464 232 232 1465 216 216 1466 232 232 1467 234 234 1468 214 214 1469 234 234 1470 236 236 1471 214 214 1472 238 238 1473 240 240 1474 208 208 1475 240 240 1476 242 242 1477 206 206 1478 242 242 1479 244 244 1480 206 206 1481 246 246 1482 248 248 1483 200 200 1484 248 248 1485 250 250 1486 198 198 1487</p>
        </triangles>
      </mesh>
    </geometry>
  </library_geometries>
  <library_visual_scenes>
    <visual_scene id="Scene" name="Scene">
      <node id="tmp_export_Cylinder_014" name="tmp_export_Cylinder.014" type="NODE">
        <matrix sid="transform">1 0 0 0 0 1 0 0 0 0 1 0 0 0 0 1</matrix>
        <instance_geometry url="#Cylinder_014-mesh" name="tmp_export_Cylinder.014">
          <bind_material>
            <technique_common>
              <instance_material symbol="Material_006-material" target="#Material_006-material">
                <bind_vertex_input semantic="UVMap" input_semantic="TEXCOORD" input_set="0"/>
              </instance_material>
            </technique_common>
          </bind_material>
        </instance_geometry>
      </node>
    </visual_scene>
  </library_visual_scenes>
  <scene>
    <instance_visual_scene url="#Scene"/>
  </scene>
</COLLADA>