<?xml version="1.0" encoding="utf-8"?>
<COLLADA xmlns="http://www.collada.org/2005/11/COLLADASchema" version="1.4.1" xmlns:xsi="http://www.w3.org/2001/XMLSchema-instance">
  <asset>
    <contributor>
      <author>Blender User</author>
      <authoring_tool>Blender 3.3.21 commit date:2024-07-15, commit time:08:57, hash:e016c21db151</authoring_tool>
    </contributor>
    <created>2025-04-23T10:05:38</created>
    <modified>2025-04-23T10:05:38</modified>
    <unit name="meter" meter="1"/>
    <up_axis>Z_UP</up_axis>
  </asset>
  <library_effects/>
  <library_images/>
  <library_geometries>
    <geometry id="Cylinder_010-mesh" name="Cylinder.010">
      <mesh>
        <source id="Cylinder_010-mesh-positions">
          <float_array id="Cylinder_010-mesh-positions-array" count="216">0 0.04999995 -0.02499997 0 0.04999995 0.02499997 0.009754478 0.04903924 -0.02499997 0.009754478 0.04903924 0.02499997 0.01913416 0.04619395 -0.02499997 0.01913416 0.04619395 0.02499997 0.0277785 0.04157346 -0.02499997 0.0277785 0.04157346 0.02499997 0.03535532 0.03535532 -0.02499997 0.03535532 0.03535532 0.02499997 0.04157346 0.0277785 -0.02499997 0.04157346 0.0277785 0.02499997 0.04619395 0.01913416 -0.02499997 0.04619395 0.01913416 0.02499997 0.04903924 0.009754478 -0.02499997 0.04903924 0.009754478 0.02499997 0.04999995 0 -0.02499997 0.04999995 0 0.02499997 0.04903924 -0.009754478 -0.02499997 0.04903924 -0.009754478 0.02499997 0.04619395 -0.01913416 -0.02499997 0.04619395 -0.01913416 0.02499997 0.04157346 -0.0277785 -0.02499997 0.04157346 -0.0277785 0.02499997 0.03535532 -0.03535532 -0.02499997 0.03535532 -0.03535532 0.02499997 0.0277785 -0.04157346 -0.02499997 0.0277785 -0.04157346 0.02499997 0.01913416 -0.04619395 -0.02499997 0.01913416 -0.04619395 0.02499997 0.009754478 -0.04903924 -0.02499997 0.009754478 -0.04903924 0.02499997 0 -0.04999995 -0.02499997 0 -0.04999995 0.02499997 -0.009754478 -0.04903924 -0.02499997 -0.009754478 -0.04903924 0.02499997 -0.01913416 -0.04619395 -0.02499997 -0.01913416 -0.04619395 0.02499997 -0.0277785 -0.04157346 -0.02499997 -0.0277785 -0.04157346 0.02499997 -0.03535532 -0.03535532 -0.02499997 -0.03535532 -0.03535532 0.02499997 -0.04157346 -0.0277785 -0.02499997 -0.04157346 -0.0277785 0.02499997 -0.04619395 -0.01913416 -0.02499997 -0.04619395 -0.01913416 0.02499997 -0.04903924 -0.009754478 -0.02499997 -0.04903924 -0.009754478 0.02499997 -0.04999995 0 -0.02499997 -0.04999995 0 0.02499997 -0.04903924 0.009754478 -0.02499997 -0.04903924 0.009754478 0.02499997 -0.04619395 0.01913416 -0.02499997 -0.04619395 0.01913416 0.02499997 -0.04157346 0.0277785 -0.02499997 -0.04157346 0.0277785 0.02499997 -0.03535532 0.03535532 -0.02499997 -0.03535532 0.03535532 0.02499997 -0.0277785 0.04157346 -0.02499997 -0.0277785 0.04157346 0.02499997 -0.01913416 0.04619395 -0.02499997 -0.01913416 0.04619395 0.02499997 -0.009754478 0.04903924 -0.02499997 -0.009754478 0.04903924 0.02499997 -0.04999995 -0.07499998 0 -0.04999995 -0.07499998 0.05000001 -0.04999995 0.07499998 0 -0.04999995 0.07499998 0.05000001 0.04999995 -0.07499998 0 0.04999995 -0.07499998 0.05000001 0.04999995 0.07499998 0 0.04999995 0.07499998 0.05000001</float_array>
          <technique_common>
            <accessor source="#Cylinder_010-mesh-positions-array" count="72" stride="3">
              <param name="X" type="float"/>
              <param name="Y" type="float"/>
              <param name="Z" type="float"/>
            </accessor>
          </technique_common>
        </source>
        <source id="Cylinder_010-mesh-normals">
          <float_array id="Cylinder_010-mesh-normals-array" count="258">0.09801727 0.9951847 0 0.2902846 0.9569404 0 0.4713968 0.8819214 0 0.6343932 0.7730105 0 0.7730104 0.6343933 0 0.8819213 0.4713968 0 0.9569405 0.2902843 0 0.9951848 0.09801691 0 0.9951847 -0.09801787 0 0.9569403 -0.2902852 0 0.8819213 -0.4713968 0 0.7730107 -0.634393 0 0.634393 -0.7730107 0 0.4713969 -0.8819212 0 0.2902846 -0.9569404 0 0.09801727 -0.9951847 0 -0.09801727 -0.9951847 0 -0.2902846 -0.9569404 0 -0.4713968 -0.8819214 0 -0.6343932 -0.7730105 0 -0.7730104 -0.6343933 0 -0.8819213 -0.4713968 0 -0.9569405 -0.2902843 0 -0.9951848 -0.09801691 0 -0.9951847 0.09801787 0 -0.9569403 0.2902852 0 -0.8819213 0.4713968 0 -0.7730107 0.634393 0 -0.634393 0.7730107 0 -0.4713969 0.8819212 0 0 0 1 -0.2902846 0.9569404 0 -0.09801727 0.9951847 0 -1.31709e-7 0 -1 -1 0 0 0 1 0 1 0 0 0 -1 0 0 0 -1 0.2902846 0.9569404 0 0.4713969 0.8819212 0 0.634393 0.7730107 0 0.7730107 0.634393 0 0.9569403 0.2902852 0 0.9951847 0.09801787 0 0.9951848 -0.09801691 0 0.9569405 -0.2902843 0 0.7730104 -0.6343933 0 0.6343932 -0.7730105 0 0.4713968 -0.8819214 0 0.2902846 -0.9569404 0 -0.2902846 -0.9569404 0 -0.4713969 -0.8819212 0 -0.634393 -0.7730107 0 -0.7730107 -0.634393 0 -0.9569403 -0.2902852 0 -0.9951847 -0.09801787 0 -0.9951848 0.09801691 0 -0.9569405 0.2902843 0 -0.7730104 0.6343933 0 -0.6343932 0.7730105 0 -0.4713968 0.8819214 0 -1.55278e-6 0 1 -1.94098e-7 0 1 -1.04862e-6 0 1 1.55278e-6 0 1 5.34583e-7 0 1 0 0 1 -0.2902846 0.9569404 0 7.76388e-7 0 -1 -1.55277e-6 0 -1 1.55278e-6 0 -1 -1.55277e-6 0 -1 -7.76388e-7 0 -1 1.55277e-6 0 -1 -1.55278e-6 0 -1 1.55277e-6 0 -1 7.9928e-7 0 -1 -1.9982e-7 0 -1 -7.9928e-7 0 -1 1.9982e-7 0 -1 0 0 -1 0 0 -1 1.31709e-7 0 -1 0 0 -1 0 0 -1</float_array>
          <technique_common>
            <accessor source="#Cylinder_010-mesh-normals-array" count="86" stride="3">
              <param name="X" type="float"/>
              <param name="Y" type="float"/>
              <param name="Z" type="float"/>
            </accessor>
          </technique_common>
        </source>
        <source id="Cylinder_010-mesh-map-0">
          <float_array id="Cylinder_010-mesh-map-0-array" count="816">1 1 0.96875 0.5 1 0.5 0.96875 1 0.9375 0.5 0.96875 0.5 0.9375 1 0.90625 0.5 0.9375 0.5 0.90625 1 0.875 0.5 0.90625 0.5 0.875 1 0.84375 0.5 0.875 0.5 0.84375 1 0.8125 0.5 0.84375 0.5 0.8125 1 0.78125 0.5 0.8125 0.5 0.78125 1 0.75 0.5 0.78125 0.5 0.75 1 0.71875 0.5 0.75 0.5 0.71875 1 0.6875 0.5 0.71875 0.5 0.6875 1 0.65625 0.5 0.6875 0.5 0.65625 1 0.625 0.5 0.65625 0.5 0.625 1 0.59375 0.5 0.625 0.5 0.59375 1 0.5625 0.5 0.59375 0.5 0.5625 1 0.53125 0.5 0.5625 0.5 0.53125 1 0.5 0.5 0.53125 0.5 0.5 1 0.46875 0.5 0.5 0.5 0.46875 1 0.4375 0.5 0.46875 0.5 0.4375 1 0.40625 0.5 0.4375 0.5 0.40625 1 0.375 0.5 0.40625 0.5 0.375 1 0.34375 0.5 0.375 0.5 0.34375 1 0.3125 0.5 0.34375 0.5 0.3125 1 0.28125 0.5 0.3125 0.5 0.28125 1 0.25 0.5 0.28125 0.5 0.25 1 0.21875 0.5 0.25 0.5 0.21875 1 0.1875 0.5 0.21875 0.5 0.1875 1 0.15625 0.5 0.1875 0.5 0.15625 1 0.125 0.5 0.15625 0.5 0.125 1 0.09375 0.5 0.125 0.5 0.09375 1 0.0625 0.5 0.09375 0.5 0.4717311 0.341844 0.341844 0.4717311 0.1581559 0.02826893 0.0625 1 0.03125 0.5 0.0625 0.5 0.03125 1 0 0.5 0.03125 0.5 0.5504474 0.3833369 0.7031784 0.4853885 0.7968217 0.01461154 0.625 0 0.375 0.25 0.375 0 0.625 0.25 0.375 0.5 0.375 0.25 0.625 0.5 0.375 0.75 0.375 0.5 0.625 0.75 0.375 1 0.375 0.75 0.375 0.5 0.125 0.75 0.125 0.5 0.875 0.5 0.625 0.75 0.625 0.5 1 1 0.96875 1 0.96875 0.5 0.96875 1 0.9375 1 0.9375 0.5 0.9375 1 0.90625 1 0.90625 0.5 0.90625 1 0.875 1 0.875 0.5 0.875 1 0.84375 1 0.84375 0.5 0.84375 1 0.8125 1 0.8125 0.5 0.8125 1 0.78125 1 0.78125 0.5 0.78125 1 0.75 1 0.75 0.5 0.75 1 0.71875 1 0.71875 0.5 0.71875 1 0.6875 1 0.6875 0.5 0.6875 1 0.65625 1 0.65625 0.5 0.65625 1 0.625 1 0.625 0.5 0.625 1 0.59375 1 0.59375 0.5 0.59375 1 0.5625 1 0.5625 0.5 0.5625 1 0.53125 1 0.53125 0.5 0.53125 1 0.5 1 0.5 0.5 0.5 1 0.46875 1 0.46875 0.5 0.46875 1 0.4375 1 0.4375 0.5 0.4375 1 0.40625 1 0.40625 0.5 0.40625 1 0.375 1 0.375 0.5 0.375 1 0.34375 1 0.34375 0.5 0.34375 1 0.3125 1 0.3125 0.5 0.3125 1 0.28125 1 0.28125 0.5 0.28125 1 0.25 1 0.25 0.5 0.25 1 0.21875 1 0.21875 0.5 0.21875 1 0.1875 1 0.1875 0.5 0.1875 1 0.15625 1 0.15625 0.5 0.15625 1 0.125 1 0.125 0.5 0.125 1 0.09375 1 0.09375 0.5 0.09375 1 0.0625 1 0.0625 0.5 0.341844 0.4717311 0.2968217 0.4853885 0.1581559 0.4717311 0.2968217 0.4853885 0.25 0.49 0.1581559 0.4717311 0.25 0.49 0.2031783 0.4853885 0.1581559 0.4717311 0.1581559 0.4717311 0.1166631 0.4495527 0.02826893 0.341844 0.1166631 0.4495527 0.08029437 0.4197056 0.02826893 0.341844 0.08029437 0.4197056 0.05044728 0.3833369 0.02826893 0.341844 0.02826893 0.341844 0.01461154 0.2968217 0.02826893 0.1581559 0.01461154 0.2968217 0.00999999 0.25 0.02826893 0.1581559 0.00999999 0.25 0.01461154 0.2031783 0.02826893 0.1581559 0.02826893 0.1581559 0.05044728 0.1166631 0.08029437 0.08029437 0.08029437 0.08029437 0.1166631 0.05044728 0.02826893 0.1581559 0.1166631 0.05044728 0.1581559 0.02826893 0.02826893 0.1581559 0.1581559 0.02826893 0.2031783 0.01461154 0.25 0.00999999 0.25 0.00999999 0.2968217 0.01461154 0.1581559 0.02826893 0.2968217 0.01461154 0.341844 0.02826893 0.1581559 0.02826893 0.341844 0.02826893 0.3833369 0.05044728 0.4197056 0.08029437 0.4197056 0.08029437 0.4495527 0.1166631 0.341844 0.02826893 0.4495527 0.1166631 0.4717311 0.1581559 0.341844 0.02826893 0.4717311 0.1581559 0.4853885 0.2031783 0.4717311 0.341844 0.4853885 0.2031783 0.49 0.25 0.4717311 0.341844 0.49 0.25 0.4853885 0.2968217 0.4717311 0.341844 0.4717311 0.341844 0.4495527 0.3833369 0.341844 0.4717311 0.4495527 0.3833369 0.4197056 0.4197056 0.341844 0.4717311 0.4197056 0.4197056 0.3833369 0.4495527 0.341844 0.4717311 0.341844 0.4717311 0.1581559 0.4717311 0.1581559 0.02826893 0.1581559 0.4717311 0.02826893 0.341844 0.1581559 0.02826893 0.02826893 0.341844 0.02826893 0.1581559 0.1581559 0.02826893 0.1581559 0.02826893 0.341844 0.02826893 0.4717311 0.1581559 0.4717311 0.1581559 0.4717311 0.341844 0.1581559 0.02826893 0.0625 1 0.03125 1 0.03125 0.5 0.03125 1 0 1 0 0.5 0.7031784 0.4853885 0.75 0.49 0.7968217 0.4853885 0.7968217 0.4853885 0.841844 0.4717311 0.8833369 0.4495527 0.8833369 0.4495527 0.9197056 0.4197056 0.9495527 0.3833369 0.9495527 0.3833369 0.9717311 0.341844 0.9853885 0.2968217 0.9853885 0.2968217 0.99 0.25 0.9853885 0.2031783 0.9853885 0.2031783 0.9717311 0.1581559 0.9495527 0.1166631 0.9495527 0.1166631 0.9197056 0.08029437 0.8833369 0.05044728 0.8833369 0.05044728 0.841844 0.02826893 0.7968217 0.01461154 0.7968217 0.01461154 0.75 0.00999999 0.7031784 0.01461154 0.7031784 0.01461154 0.658156 0.02826893 0.6166632 0.05044728 0.6166632 0.05044728 0.5802944 0.08029437 0.5504474 0.1166631 0.5504474 0.1166631 0.5282689 0.1581559 0.5146116 0.2031783 0.5146116 0.2031783 0.51 0.25 0.5146116 0.2968217 0.5146116 0.2968217 0.5282689 0.341844 0.5504474 0.3833369 0.5504474 0.3833369 0.5802944 0.4197056 0.6166632 0.4495527 0.6166632 0.4495527 0.658156 0.4717311 0.7031784 0.4853885 0.7031784 0.4853885 0.7968217 0.4853885 0.8833369 0.4495527 0.8833369 0.4495527 0.9495527 0.3833369 0.9853885 0.2968217 0.9853885 0.2968217 0.9853885 0.2031783 0.9495527 0.1166631 0.9495527 0.1166631 0.8833369 0.05044728 0.7968217 0.01461154 0.7968217 0.01461154 0.7031784 0.01461154 0.6166632 0.05044728 0.6166632 0.05044728 0.5504474 0.1166631 0.5146116 0.2031783 0.5146116 0.2031783 0.5146116 0.2968217 0.5504474 0.3833369 0.5504474 0.3833369 0.6166632 0.4495527 0.7031784 0.4853885 0.7031784 0.4853885 0.8833369 0.4495527 0.9853885 0.2968217 0.9853885 0.2968217 0.9495527 0.1166631 0.7031784 0.4853885 0.9495527 0.1166631 0.7968217 0.01461154 0.7031784 0.4853885 0.7968217 0.01461154 0.6166632 0.05044728 0.5146116 0.2031783 0.5146116 0.2031783 0.5504474 0.3833369 0.7968217 0.01461154 0.625 0 0.625 0.25 0.375 0.25 0.625 0.25 0.625 0.5 0.375 0.5 0.625 0.5 0.625 0.75 0.375 0.75 0.625 0.75 0.625 1 0.375 1 0.375 0.5 0.375 0.75 0.125 0.75 0.875 0.5 0.875 0.75 0.625 0.75</float_array>
          <technique_common>
            <accessor source="#Cylinder_010-mesh-map-0-array" count="408" stride="2">
              <param name="S" type="float"/>
              <param name="T" type="float"/>
            </accessor>
          </technique_common>
        </source>
        <vertices id="Cylinder_010-mesh-vertices">
          <input semantic="POSITION" source="#Cylinder_010-mesh-positions"/>
        </vertices>
        <triangles count="136">
          <input semantic="VERTEX" source="#Cylinder_010-mesh-vertices" offset="0"/>
          <input semantic="NORMAL" source="#Cylinder_010-mesh-normals" offset="1"/>
          <input semantic="TEXCOORD" source="#Cylinder_010-mesh-map-0" offset="2" set="0"/>
          <p>1 0 0 2 0 1 0 0 2 3 1 3 4 1 4 2 1 5 5 2 6 6 2 7 4 2 8 7 3 9 8 3 10 6 3 11 9 4 12 10 4 13 8 4 14 11 5 15 12 5 16 10 5 17 13 6 18 14 6 19 12 6 20 15 7 21 16 7 22 14 7 23 17 8 24 18 8 25 16 8 26 19 9 27 20 9 28 18 9 29 21 10 30 22 10 31 20 10 32 23 11 33 24 11 34 22 11 35 25 12 36 26 12 37 24 12 38 27 13 39 28 13 40 26 13 41 29 14 42 30 14 43 28 14 44 31 15 45 32 15 46 30 15 47 33 16 48 34 16 49 32 16 50 35 17 51 36 17 52 34 17 53 37 18 54 38 18 55 36 18 56 39 19 57 40 19 58 38 19 59 41 20 60 42 20 61 40 20 62 43 21 63 44 21 64 42 21 65 45 22 66 46 22 67 44 22 68 47 23 69 48 23 70 46 23 71 49 24 72 50 24 73 48 24 74 51 25 75 52 25 76 50 25 77 53 26 78 54 26 79 52 26 80 55 27 81 56 27 82 54 27 83 57 28 84 58 28 85 56 28 86 59 29 87 60 29 88 58 29 89 13 30 90 5 30 91 37 30 92 61 31 93 62 31 94 60 31 95 63 32 96 0 32 97 62 32 98 54 33 99 62 33 100 30 33 101 65 34 102 66 34 103 64 34 104 67 35 105 70 35 106 66 35 107 71 36 108 68 36 109 70 36 110 69 37 111 64 37 112 68 37 113 70 38 114 64 38 115 66 38 116 67 30 117 69 30 118 71 30 119 1 0 120 3 0 121 2 0 122 3 39 123 5 39 124 4 39 125 5 40 126 7 40 127 6 40 128 7 41 129 9 41 130 8 41 131 9 42 132 11 42 133 10 42 134 11 5 135 13 5 136 12 5 137 13 43 138 15 43 139 14 43 140 15 44 141 17 44 142 16 44 143 17 45 144 19 45 145 18 45 146 19 46 147 21 46 148 20 46 149 21 10 150 23 10 151 22 10 152 23 47 153 25 47 154 24 47 155 25 48 156 27 48 157 26 48 158 27 49 159 29 49 160 28 49 161 29 50 162 31 50 163 30 50 164 31 15 165 33 15 166 32 15 167 33 16 168 35 16 169 34 16 170 35 51 171 37 51 172 36 51 173 37 52 174 39 52 175 38 52 176 39 53 177 41 53 178 40 53 179 41 54 180 43 54 181 42 54 182 43 21 183 45 21 184 44 21 185 45 55 186 47 55 187 46 55 188 47 56 189 49 56 190 48 56 191 49 57 192 51 57 193 50 57 194 51 58 195 53 58 196 52 58 197 53 26 198 55 26 199 54 26 200 55 59 201 57 59 202 56 59 203 57 60 204 59 60 205 58 60 206 59 61 207 61 61 208 60 61 209 5 30 210 3 30 211 61 30 212 3 30 213 1 30 214 61 30 215 1 30 216 63 30 217 61 30 218 61 30 219 59 30 220 53 30 221 59 30 222 57 30 223 53 30 224 57 30 225 55 30 226 53 30 227 53 30 228 51 30 229 45 30 230 51 30 231 49 30 232 45 30 233 49 62 234 47 62 235 45 62 236 45 30 237 43 30 238 41 30 239 41 30 240 39 30 241 45 30 242 39 30 243 37 30 244 45 30 245 37 63 246 35 63 247 33 63 248 33 30 249 31 30 250 37 30 251 31 30 252 29 30 253 37 30 254 29 30 255 27 30 256 25 30 257 25 64 258 23 64 259 29 64 260 23 30 261 21 30 262 29 30 263 21 30 264 19 30 265 13 30 266 19 30 267 17 30 268 13 30 269 17 65 270 15 65 271 13 65 272 13 66 273 11 66 274 5 66 275 11 64 276 9 64 277 5 64 278 9 30 279 7 30 280 5 30 281 5 30 282 61 30 283 37 30 284 61 30 285 53 30 286 37 30 287 53 67 288 45 67 289 37 67 290 37 30 291 29 30 292 21 30 293 21 30 294 13 30 295 37 30 296 61 68 297 63 68 298 62 68 299 63 32 300 1 32 301 0 32 302 62 38 303 0 38 304 2 38 305 2 69 306 4 69 307 6 69 308 6 70 309 8 70 310 10 70 311 10 71 312 12 71 313 14 71 314 14 38 315 16 38 316 18 38 317 18 71 318 20 71 319 22 71 320 22 72 321 24 72 322 26 72 323 26 69 324 28 69 325 30 69 326 30 38 327 32 38 328 34 38 329 34 73 330 36 73 331 38 73 332 38 74 333 40 74 334 42 74 335 42 75 336 44 75 337 46 75 338 46 38 339 48 38 340 50 38 341 50 75 342 52 75 343 54 75 344 54 76 345 56 76 346 58 76 347 58 73 348 60 73 349 62 73 350 62 38 351 2 38 352 6 38 353 6 38 354 10 38 355 14 38 356 14 77 357 18 77 358 22 77 359 22 78 360 26 78 361 30 78 362 30 38 363 34 38 364 38 38 365 38 38 366 42 38 367 46 38 368 46 79 369 50 79 370 54 79 371 54 80 372 58 80 373 62 80 374 62 81 375 6 81 376 14 81 377 14 82 378 22 82 379 62 82 380 22 83 381 30 83 382 62 83 383 30 84 384 38 84 385 46 84 386 46 85 387 54 85 388 30 85 389 65 34 390 67 34 391 66 34 392 67 35 393 71 35 394 70 35 395 71 36 396 69 36 397 68 36 398 69 37 399 65 37 400 64 37 401 70 38 402 68 38 403 64 38 404 67 30 405 65 30 406 69 30 407</p>
        </triangles>
      </mesh>
    </geometry>
  </library_geometries>
  <library_visual_scenes>
    <visual_scene id="Scene" name="Scene">
      <node id="tmp_export_Cylinder_010" name="tmp_export_Cylinder.010" type="NODE">
        <matrix sid="transform">1 0 0 0 0 1 0 0 0 0 1 0 0 0 0 1</matrix>
        <instance_geometry url="#Cylinder_010-mesh" name="tmp_export_Cylinder.010"/>
      </node>
    </visual_scene>
  </library_visual_scenes>
  <scene>
    <instance_visual_scene url="#Scene"/>
  </scene>
</COLLADA>